<?xml version="1.0" standalone="no"?>
<!DOCTYPE svg PUBLIC "-//W3C//DTD SVG 20010904//EN"
 "http://www.w3.org/TR/2001/REC-SVG-20010904/DTD/svg10.dtd">
<svg version="1.0" xmlns="http://www.w3.org/2000/svg"
 width="700.000000pt" height="700.000000pt" viewBox="0 0 700.000000 700.000000"
 preserveAspectRatio="xMidYMid meet">
<metadata>
Created by potrace 1.14, written by Peter Selinger 2001-2017
</metadata>
<g transform="translate(0.000000,700.000000) scale(0.100000,-0.100000)"
fill="#000000" stroke="none">
<path d="M290 6985 c-83 -25 -90 -27 -90 -36 0 -5 -6 -9 -14 -9 -21 0 -112
-94 -136 -140 -52 -102 -50 -44 -47 -1375 l2 -1240 32 -67 c52 -109 141 -184
258 -217 27 -7 285 -10 844 -8 l805 2 1 420 c1 441 2 450 48 539 43 82 151
167 240 189 24 6 212 11 452 12 226 2 413 3 418 4 11 2 8 1588 -3 1639 -27
115 -106 212 -215 264 l-70 33 -1240 2 c-1016 2 -1248 -1 -1285 -12z"/>
<path d="M4175 6986 c-115 -36 -198 -108 -248 -213 l-32 -68 -3 -825 -3 -825
398 0 c219 0 420 -3 447 -7 100 -15 200 -81 256 -168 63 -98 62 -95 65 -555 2
-231 3 -424 4 -428 0 -4 371 -6 824 -5 l822 3 58 27 c82 38 112 62 157 123 81
109 75 5 75 1410 l0 1250 -31 65 c-41 86 -108 153 -192 193 l-67 32 -1245 2
c-984 1 -1253 -1 -1285 -11z"/>
<path d="M2379 4652 c-44 -30 -44 -31 -45 -605 l0 -549 29 6 c105 21 199 204
233 452 3 27 8 58 10 68 6 32 18 217 18 284 0 34 2 62 5 63 4 1 33 2 66 4 118
5 255 15 292 21 121 17 232 41 283 61 8 3 21 7 28 9 21 4 95 44 130 71 31 24
72 89 72 116 0 20 -1092 19 -1121 -1z"/>
<path d="M290 3096 c-122 -33 -214 -115 -266 -236 -18 -44 -19 -86 -21 -1290
-3 -1344 -6 -1267 48 -1372 30 -59 101 -123 177 -160 l67 -33 1245 0 c685 0
1259 3 1275 6 77 16 181 90 232 164 12 17 31 59 42 93 21 60 21 77 21 869 l0
808 -398 0 c-218 0 -418 3 -443 6 -134 21 -248 116 -302 253 -19 48 -20 75
-21 476 l-1 425 -805 2 c-615 1 -816 -1 -850 -11z"/>
<path d="M5055 2713 c1 -403 -5 -487 -37 -548 -51 -95 -122 -159 -222 -198
-48 -19 -77 -20 -471 -22 -231 -2 -424 -3 -428 -4 -4 0 -6 -371 -5 -823 l3
-823 33 -69 c41 -86 102 -148 190 -189 l67 -32 1225 -3 c915 -2 1239 0 1280 9
122 26 214 99 272 216 l33 68 0 1260 0 1260 -31 65 c-53 112 -142 187 -259
219 -26 7 -303 11 -845 11 l-805 0 0 -397z"/>
</g>
</svg>
