<?xml version="1.0" standalone="no"?>
<!DOCTYPE svg PUBLIC "-//W3C//DTD SVG 1.1//EN" "http://www.w3.org/Graphics/SVG/1.1/DTD/svg11.dtd" >
<svg xmlns="http://www.w3.org/2000/svg" xmlns:xlink="http://www.w3.org/1999/xlink" version="1.1">
<metadata>
Created by FontForge 20201107 at Wed Apr 26 11:17:09 2023
 By 
Copyright 2019 The Darker Grotesque Project Authors (https://github.com/bettergui/DarkerGrotesque)
</metadata>
<defs>
<font id="DarkerGrotesque-Regular" horiz-adv-x="0" >
  <font-face 
    font-family="Darker Grotesque"
    font-weight="400"
    font-stretch="normal"
    units-per-em="1000"
    panose-1="0 0 0 0 0 0 0 0 0 0"
    ascent="800"
    descent="-200"
    x-height="406"
    cap-height="563"
    bbox="-125 -203 1656 871"
    underline-thickness="50"
    underline-position="-125"
    unicode-range="U+000D-240D"
  />
<missing-glyph horiz-adv-x="541" 
d="M68 -122v728h405v-728h-405zM113 -82h315v648h-315v-648z" />
    <glyph glyph-name="w_w_w.liga" unicode="www" horiz-adv-x="1676" 
d="M118 0l-116 393v13h43l104 -367h2l113 367h42l115 -367h2l102 367h43v-13l-114 -393h-66l-102 326h-2l-101 -326h-65zM662 0l-116 393v13h43l104 -367h2l113 367h42l115 -367h2l102 367h43v-13l-114 -393h-66l-102 326h-2l-101 -326h-65zM1206 0l-116 393v13h43l104 -367
h2l113 367h42l115 -367h2l102 367h43v-13l-114 -393h-66l-102 326h-2l-101 -326h-65z" />
    <glyph glyph-name=".notdef" horiz-adv-x="541" 
d="M68 -122v728h405v-728h-405zM113 -82h315v648h-315v-648z" />
    <glyph glyph-name=".null" 
 />
    <glyph glyph-name="nonmarkingreturn" horiz-adv-x="333" 
 />
    <glyph glyph-name="CR" unicode="&#xd;" horiz-adv-x="600" 
 />
    <glyph glyph-name="space" unicode=" " horiz-adv-x="246" 
 />
    <glyph glyph-name="exclam" unicode="!" horiz-adv-x="172" 
d="M94 -9q-18 0 -24.5 10t-6.5 25q0 13 6.5 22.5t24.5 9.5q17 0 23 -9.5t6 -22.5q0 -15 -6 -25t-23 -10zM77 124q-3 108 -7.5 184t-7 126t-1 78t8.5 39.5t23 11.5q14 0 21.5 -11.5t8.5 -39.5t-1.5 -78t-6 -126t-6.5 -184l-5 1t-11 1t-11 -1z" />
    <glyph glyph-name="quotedbl" unicode="&#x22;" horiz-adv-x="248" 
d="M34 411v39h15q23 0 28 12.5t5 28.5q-21 -3 -32 6.5t-11 30.5q0 14 7 24.5t27 10.5q19 0 26.5 -11t7.5 -38q0 -32 -5 -55.5t-17 -35.5t-34 -12h-17zM145 411v39h15q23 0 28 12.5t5 28.5q-21 -3 -32 6.5t-11 30.5q0 14 7 24.5t27 10.5q19 0 26.5 -11t7.5 -38
q0 -32 -5 -55.5t-17 -35.5t-34 -12h-17z" />
    <glyph glyph-name="numbersign" unicode="#" horiz-adv-x="692" 
d="M110 0l144 366l67 197h45l-138 -347l-74 -216h-44zM36 175v40h556v-40h-556zM311 0l145 366l66 197h45l-137 -348l-74 -215h-45zM91 366v40h553v-40h-553z" />
    <glyph glyph-name="dollar" unicode="$" horiz-adv-x="527" 
d="M278 -13q-56 0 -108.5 18.5t-86.5 59.5t-37 106l45 4q0 -2 1.5 -17.5t10 -37.5t28.5 -43t56 -35t93 -14q52 0 83 13t47 31t21.5 35.5t5.5 25.5q1 39 -18.5 62.5t-53 38t-73.5 24.5t-80 21.5t-73.5 29t-52.5 47t-18 76.5q2 44 30 75.5t75 48.5t104 17q56 0 102 -20.5
t73 -60t26 -99.5l-45 -3q2 44 -15.5 71.5t-44 42.5t-54.5 21t-48 6q-66 0 -110 -29t-46 -73q-1 -38 19 -61t53 -37t73 -23.5t80 -21t73 -29t52 -48t18 -78.5q-1 -46 -30 -78t-74.5 -49t-100.5 -17zM258 -110l2 111h41l2 -111h-45zM260 560l-2 113h45l-2 -113h-41z" />
    <glyph glyph-name="percent" unicode="%" horiz-adv-x="558" 
d="M91 0l-33 24l215 270l190 268l32 -23l-204 -258zM433 -10q-49 0 -72 33.5t-23 89.5t22.5 89.5t72.5 33.5q51 0 73.5 -33.5t22.5 -89.5q0 -54 -22.5 -88.5t-73.5 -34.5zM433 20q35 0 49 26.5t14 65.5q0 42 -14 67.5t-49 25.5q-34 0 -48.5 -25t-14.5 -68q0 -39 14.5 -65.5
t48.5 -26.5zM125 327q-50 0 -73 33.5t-23 89.5q0 55 22.5 89t72.5 34q51 0 73.5 -34t22.5 -89q0 -54 -22.5 -88.5t-72.5 -34.5zM124 358q35 0 49 26t14 66q0 41 -14 67t-49 26q-33 0 -48 -25t-15 -69q0 -39 15 -65t48 -26z" />
    <glyph glyph-name="ampersand" unicode="&#x26;" horiz-adv-x="630" 
d="M594 -1q-38 14 -70 33t-74 47q-37 -43 -88 -65t-105 -23.5t-100 16.5t-75 55t-29 93q0 35 13 60.5t33.5 45t44.5 33.5t46 26q-13 19 -26.5 40.5t-23 45.5t-9.5 48q0 39 19.5 65t50.5 39t65.5 13t65 -12t50 -36t19.5 -60q0 -32 -19 -58t-45.5 -46t-50.5 -32.5t-34 -17.5
q18 -24 49.5 -55.5t67.5 -62.5t69 -54q14 22 24 50t14 57t0 55.5t-19 44.5l37 28q12 -16 18.5 -39t8.5 -51t-2.5 -58.5t-15 -59t-27.5 -52.5q38 -26 68 -43.5t67 -32.5zM414 104q-35 26 -72 59.5t-70.5 68.5t-57.5 65q-45 -23 -79.5 -54.5t-34.5 -82.5q0 -44 23 -72.5
t60 -42.5t79.5 -12.5t82.5 19.5t69 52zM227 331q2 1 16 7t33 17t38.5 27t32.5 34.5t13 40.5q0 31 -18.5 48.5t-46 23.5t-55.5 -1t-47 -26.5t-19 -51.5q0 -24 14 -55t39 -64z" />
    <glyph glyph-name="quotesingle" unicode="'" horiz-adv-x="147" 
d="M39 411v39h15q23 0 28 12.5t5 28.5q-21 -3 -32 6.5t-11 30.5q0 14 7 24.5t27 10.5q19 0 26.5 -11t7.5 -38q0 -32 -5 -55.5t-17 -35.5t-34 -12h-17z" />
    <glyph glyph-name="parenleft" unicode="(" horiz-adv-x="273" 
d="M232 -199l-19 15.5t-46.5 47t-56 79.5t-47.5 112t-19 145q0 82 19 146.5t47.5 113t56 80t46.5 47.5l19 16l34 -36q-4 -3 -24 -17.5t-47.5 -42.5t-54 -70.5t-44.5 -101.5t-18 -135q0 -77 19 -136.5t46.5 -102t56 -69.5t47.5 -40l19 -13z" />
    <glyph glyph-name="parenright" unicode=")" horiz-adv-x="263" 
d="M31 -199l-33 38l19 13t47 40t55.5 69.5t46.5 102t19 136.5q0 76 -17.5 135t-44.5 101.5t-54.5 70.5t-47.5 42.5t-23 17.5l33 36l19 -16t47 -47.5t56 -80t47 -113t19 -146.5q0 -81 -19 -145t-47 -112t-56 -79.5t-47 -47z" />
    <glyph glyph-name="asterisk" unicode="*" horiz-adv-x="375" 
d="M350 430l-144 -36l95 -110l-37 -27l-77 123l-76 -123l-37 27l96 110l-144 36l15 43l134 -58l-10 148h46l-11 -148l135 58z" />
    <glyph glyph-name="plus" unicode="+" horiz-adv-x="362" 
d="M162 88v267h37v-267h-37zM48 205v37h266v-37h-266z" />
    <glyph glyph-name="comma" unicode="," horiz-adv-x="167" 
d="M48 -81v39h14q24 0 29 12.5t5 28.5q-22 -3 -32.5 6.5t-10.5 30.5q0 14 7 24.5t27 10.5q19 0 26 -11t7 -37q0 -33 -5 -56.5t-17 -35.5t-34 -12h-16z" />
    <glyph glyph-name="hyphen" unicode="-" horiz-adv-x="317" 
d="M40 205v38h222v-38h-222z" />
    <glyph glyph-name="period" unicode="." horiz-adv-x="156" 
d="M68 0q-19 0 -26 11t-7 26t7 26.5t26 11.5t26 -11.5t7 -26.5t-7 -26t-26 -11z" />
    <glyph glyph-name="slash" unicode="/" horiz-adv-x="336" 
d="M25 0l254 563h47l-254 -563h-47z" />
    <glyph glyph-name="zero" unicode="0" horiz-adv-x="498" 
d="M249 -14q-115 0 -169 79.5t-54 214.5q0 89 23 154.5t72.5 102t127.5 36.5q77 0 126.5 -36t73 -102t23.5 -155q0 -87 -23.5 -153.5t-73 -103.5t-126.5 -37zM249 25q93 0 136 68.5t43 186.5q0 78 -18.5 135t-58 88t-102.5 31q-92 0 -135.5 -66t-43.5 -188q0 -78 18.5 -135
t57.5 -88.5t103 -31.5z" />
    <glyph glyph-name="one" unicode="1" horiz-adv-x="307" 
d="M270 41v-41h-212v41h87v439q-11 -28 -29 -45t-37 -25.5t-34.5 -11t-20.5 -2.5v46q6 0 25 5t42 18t39.5 36.5t17.5 61.5h40v-522h82z" />
    <glyph glyph-name="two" unicode="2" horiz-adv-x="478" 
d="M37 0v38q1 1 20 14.5t50.5 37t68 54t73 64.5t65.5 68t45 65q25 52 15 94t-46.5 67t-93.5 25q-61 -1 -100 -36.5t-39 -103.5l-42 3q0 55 23.5 94t65.5 60t97 21q54 0 94.5 -19t63 -52t24.5 -75t-21 -89q-17 -33 -52 -71.5t-77 -75.5t-81.5 -68t-67.5 -51t-34 -23h345v-41
h-396z" />
    <glyph glyph-name="three" unicode="3" horiz-adv-x="479" 
d="M242 -10q-51 0 -99 21t-79.5 62.5t-32.5 104.5l43 3q3 -52 28.5 -85t63 -49t77.5 -16q44 0 80.5 15t58.5 43.5t22 67.5q0 35 -14 58.5t-35 37t-42.5 18.5t-35.5 5h-87v28h88q35 0 60 12.5t38 35.5t13 52q0 61 -40.5 95.5t-109.5 34.5q-42 0 -71 -14t-47 -35t-26.5 -43
t-10.5 -39l-41 4q1 13 7 33.5t20 43t36 43t55 33.5t78 13q87 0 140 -43.5t53 -119.5q0 -49 -26 -78t-68 -42q44 -12 76.5 -47.5t32.5 -90.5q0 -48 -27 -85t-73 -57t-105 -20z" />
    <glyph glyph-name="four" unicode="4" horiz-adv-x="484" 
d="M23 123v41q46 22 88.5 65.5t75.5 99.5t52.5 116.5t20.5 117.5h47q0 -76 -31 -151t-83.5 -139.5t-116.5 -108.5h377v-41h-430zM326 0v281h45v-281h-45z" />
    <glyph glyph-name="five" unicode="5" horiz-adv-x="501" 
d="M249 -10q-51 0 -92.5 16.5t-70 48.5t-41.5 79l46 3q1 -3 7.5 -19.5t23 -36.5t47.5 -35.5t81 -15.5q54 0 90.5 21.5t56 55.5t21.5 71q3 39 -14 75.5t-53.5 60t-92.5 23.5q-42 0 -71 -10.5t-46.5 -24t-25.5 -24t-8 -11.5l-42 11l28 285h342v-42h-306l-22 -214l8.5 10
t27.5 23t49 23t73 10q70 0 114.5 -28.5t65 -74t17.5 -93.5q-4 -48 -29 -90.5t-71.5 -69.5t-112.5 -27z" />
    <glyph glyph-name="six" unicode="6" horiz-adv-x="517" 
d="M269 -10q-80 0 -129 37.5t-71 99t-22 132.5q0 58 14.5 113.5t44.5 101t76.5 72.5t111.5 27q37 0 63.5 -8.5t45.5 -21.5t30.5 -26t16.5 -22l5 -9l-44 -14l-11.5 15t-37.5 30t-70 15q-55 0 -96.5 -27.5t-67 -74t-34 -106.5t0.5 -125q3 25 16 55t37.5 56.5t61.5 43t88 14.5
q63 -1 103.5 -29t58.5 -71t15.5 -91t-27 -90.5t-69.5 -69.5t-110 -27zM270 29q51 0 86.5 21.5t55 55t22 71.5t-12 72.5t-47.5 57.5t-85 26q-61 2 -102 -25t-61.5 -68.5t-20.5 -84.5q9 -38 31.5 -66t56.5 -44t77 -16z" />
    <glyph glyph-name="seven" unicode="7" horiz-adv-x="457" 
d="M126 0q0 116 30 209.5t85.5 170.5t130.5 143h-335v40h383v-38q-23 -20 -55 -50.5t-66 -73.5t-63 -101t-46.5 -132t-17.5 -168h-46z" />
    <glyph glyph-name="eight" unicode="8" horiz-adv-x="529" 
d="M262 -10q-63 0 -113.5 18t-79.5 54t-29 89q0 54 36.5 94t96.5 53q-31 7 -50.5 21.5t-30 32.5t-15 36.5t-4.5 33.5q0 44 24.5 78t67 53.5t97.5 19.5q57 0 99 -20t66 -54t24 -77q0 -15 -4 -33.5t-14.5 -36.5t-30 -32.5t-51.5 -21.5q61 -14 97.5 -52.5t36.5 -94.5
q0 -54 -29.5 -90t-80 -53.5t-113.5 -17.5zM262 30q83 0 130.5 36t47.5 93q0 62 -47.5 93.5t-130.5 31.5q-82 0 -129.5 -31.5t-47.5 -93.5q0 -57 47.5 -93t129.5 -36zM262 311q66 0 106.5 24t40.5 78q0 56 -41.5 88.5t-105.5 32.5q-66 0 -107 -33t-41 -88q0 -37 20.5 -59.5
t54 -32.5t73.5 -10z" />
    <glyph glyph-name="nine" unicode="9" horiz-adv-x="521" 
d="M255 -10q-44 0 -76 10t-54.5 25t-36.5 29.5t-20 25t-7 11.5l42 14q0 -1 8.5 -12.5t26 -26t46.5 -25.5t71 -11q56 0 92 25t55 69.5t25.5 102t3.5 124.5q-3 -25 -17 -53t-37.5 -52t-57 -39t-76.5 -15q-66 0 -110 27t-65 69t-20 90t24.5 90.5t70 69.5t114.5 27
q60 0 103.5 -23.5t70 -64t37.5 -94.5t6 -117q-4 -60 -16.5 -110.5t-37 -87.5t-65 -57.5t-100.5 -20.5zM249 225q77 0 120.5 46.5t53.5 115.5q-16 66 -58.5 102.5t-107.5 36.5q-54 0 -90.5 -21.5t-55 -56t-19 -73t16.5 -72.5t52 -56t88 -22z" />
    <glyph glyph-name="colon" unicode=":" horiz-adv-x="176" 
d="M87 51q-18 0 -25 10.5t-7 25.5q0 14 7 25.5t25 11.5q20 0 26 -11.5t6 -25.5q0 -15 -6 -25.5t-26 -10.5zM87 284q-18 0 -25 10.5t-7 26.5q0 14 7 25.5t25 11.5q20 0 26 -11.5t6 -25.5q0 -16 -6 -26.5t-26 -10.5z" />
    <glyph glyph-name="semicolon" unicode=";" horiz-adv-x="166" 
d="M85 331q-19 0 -26 10.5t-7 26.5q0 14 7 25.5t26 11.5t25.5 -11.5t6.5 -25.5q0 -16 -6.5 -26.5t-25.5 -10.5zM46 -81v39h14q24 0 29 12.5t5 28.5q-21 -3 -32 6.5t-11 30.5q0 14 7 24.5t27 10.5q19 0 26 -11t7 -37q0 -33 -4.5 -56.5t-16.5 -35.5t-34 -12h-17z" />
    <glyph glyph-name="less" unicode="&#x3c;" horiz-adv-x="362" 
d="M333 374v-43l-256 -105l256 -106v-44l-304 150z" />
    <glyph glyph-name="equal" unicode="=" horiz-adv-x="362" 
d="M42 263v36h277v-36h-277zM42 147v35h277v-35h-277z" />
    <glyph glyph-name="greater" unicode="&#x3e;" horiz-adv-x="362" 
d="M29 374l304 -148l-304 -150v44l256 106l-256 105v43z" />
    <glyph glyph-name="question" unicode="?" horiz-adv-x="430" 
d="M228 128h-39q0 42 17 71t41 51.5t48.5 44t41 47.5t16.5 62q0 55 -36 88t-95 33q-35 0 -61 -12t-42.5 -32.5t-24 -47t-7.5 -55.5h-44q-2 39 8.5 72.5t33.5 59.5t57 41t79 15q48 0 88 -19t64 -54.5t24 -85.5q0 -43 -17 -71.5t-41.5 -50.5t-49.5 -42.5t-42 -47.5t-19 -67z
M210 -9q-18 0 -23.5 10t-5.5 25q0 13 5.5 22.5t23.5 9.5t23.5 -9.5t5.5 -22.5q0 -15 -5.5 -25t-23.5 -10z" />
    <glyph glyph-name="at" unicode="@" horiz-adv-x="710" 
d="M354 -129q-64 0 -119.5 19t-98 55.5t-66.5 91.5t-24 127q0 75 25 135.5t69 105t102.5 68t125.5 23.5q60 0 112.5 -17.5t93.5 -51.5t63.5 -80.5t22.5 -102.5q0 -54 -19.5 -103.5t-57 -81t-88.5 -31.5q-30 0 -44.5 16.5t-14.5 42.5q-2 24 5 50t11 47l16 136h37l-34 -206
q-5 -27 3 -44.5t31 -17.5q38 0 65.5 26t42 67t14.5 85q0 71 -34.5 122.5t-93 79t-130.5 27.5q-79 0 -142 -38.5t-99 -103.5t-36 -146q0 -85 35 -141.5t95 -85t134 -28.5q48 0 98 13t99 39l22 -38q-52 -29 -109 -44t-112 -15zM322 33q-53 0 -81 34t-28 87q0 45 18.5 85.5
t52 67t78.5 26.5q53 0 81 -32.5t28 -84.5q0 -43 -17.5 -85.5t-51 -70t-80.5 -27.5zM329 61q47 0 73 25t37 62.5t11 72.5q0 38 -18.5 60.5t-62.5 22.5q-39 0 -66.5 -21.5t-42.5 -55.5t-15 -71q0 -42 21 -68.5t63 -26.5z" />
    <glyph glyph-name="A" unicode="A" horiz-adv-x="529" 
d="M20 0l207 563h75l209 -563h-48l-198 542l-199 -542h-46zM121 185l9 40h270l8 -40h-287z" />
    <glyph glyph-name="B" unicode="B" horiz-adv-x="525" 
d="M62 0v563h194q31 0 62 -3t57.5 -12t47 -26t32 -43.5t11.5 -65.5q0 -32 -12 -59.5t-44.5 -44.5t-92.5 -18v-3q70 -1 107.5 -20.5t51.5 -51.5t14 -69q0 -39 -12.5 -65t-35 -42.5t-51 -25t-60 -11.5t-62.5 -3h-207zM108 39h159q49 0 89 7.5t63 31.5t23 72q0 51 -25 76.5
t-68 34.5t-96 9h-145v-231zM108 310h144q51 0 88.5 6.5t58 28t20.5 65.5q0 52 -23 75.5t-61 30.5t-82 7h-145v-213z" />
    <glyph glyph-name="C" unicode="C" horiz-adv-x="593" 
d="M298 -10q-77 0 -138.5 33t-97 97.5t-35.5 160.5q0 97 35 162t97.5 97.5t142.5 32.5q66 0 117 -24t85.5 -69.5t46.5 -111.5h-47q-10 53 -38.5 89.5t-70 55t-93.5 18.5q-106 0 -167.5 -64t-61.5 -184q0 -124 60.5 -187.5t164.5 -63.5q57 0 101 19t71.5 55t36.5 88h49
q-12 -65 -46 -110.5t-87.5 -69.5t-124.5 -24z" />
    <glyph glyph-name="D" unicode="D" horiz-adv-x="578" 
d="M114 40v482h108q84 0 146 -26t96 -79t34 -135q0 -74 -19 -121.5t-56 -74t-88 -36.5t-113 -10h-37h-71zM547 282q0 94 -41.5 156t-116 93.5t-175.5 31.5h-46h-100v-563h97h49q101 0 175.5 24t116 85.5t41.5 172.5z" />
    <glyph glyph-name="E" unicode="E" horiz-adv-x="468" 
d="M58 0v563h366v-42h-320v-216h256v-40h-256v-226h329v-39h-375z" />
    <glyph glyph-name="F" unicode="F" horiz-adv-x="481" 
d="M118 0h-46v563h384v-42h-338v-200h270v-40h-270v-281z" />
    <glyph glyph-name="G" unicode="G" horiz-adv-x="603" 
d="M291 -13q-81 0 -140 34.5t-91.5 100t-31.5 157.5q0 93 33 159t94.5 100.5t144.5 34.5q103 0 168 -49t82 -145l-44 -3q-11 53 -39 87t-70 50.5t-97 16.5q-112 0 -170.5 -66.5t-58.5 -182.5q0 -119 60.5 -185.5t167.5 -66.5q59 0 104.5 22.5t73 65t32.5 103.5h-172v38h224
v-258h-34l-11 137h-2q-5 -21 -20.5 -47t-42 -49.5t-66 -38.5t-94.5 -15z" />
    <glyph glyph-name="H" unicode="H" horiz-adv-x="578" 
d="M117 0h-46v563h46v-563zM462 563h45v-563h-45v563zM482 272h-384v39h384v-39z" />
    <glyph glyph-name="I" unicode="I" horiz-adv-x="323" 
d="M135 18v527h45v-527h-45zM56 0v40h202v-40h-202zM56 522v41h202v-41h-202z" />
    <glyph glyph-name="J" unicode="J" horiz-adv-x="413" 
d="M196 -10q-20 0 -46 6.5t-50.5 21.5t-40.5 44t-16 74h42q0 -23 9 -47.5t33.5 -41.5t68.5 -17q55 0 81.5 29t26.5 96v390h45v-386q0 -40 -9 -71.5t-27.5 -53.5t-47 -33t-69.5 -11zM195 524v38h154v-38h-154z" />
    <glyph glyph-name="K" unicode="K" horiz-adv-x="540" 
d="M113 194v56l325 313h60v-10zM72 -1v564h47v-564h-47zM456 0l-249 301l33 32l270 -323v-10h-54z" />
    <glyph glyph-name="L" unicode="L" horiz-adv-x="466" 
d="M68 12v551h45v-551h-45zM68 0v40h375v-40h-375z" />
    <glyph glyph-name="M" unicode="M" horiz-adv-x="687" 
d="M56 0v563h79l207 -541h2l205 541h79v-563h-46l1 536h-1l-206 -536h-69l-205 536h-2l2 -536h-46z" />
    <glyph glyph-name="N" unicode="N" horiz-adv-x="569" 
d="M465 563h45v-563h-84l-324 542h-2v-542h-45v563h79l329 -542h2v542z" />
    <glyph glyph-name="O" unicode="O" horiz-adv-x="601" 
d="M293 -14q-132 0 -201 79.5t-69 214.5q0 89 30 154.5t90 102t150 36.5q132 0 200.5 -79.5t68.5 -213.5q0 -87 -30.5 -153.5t-90 -103.5t-148.5 -37zM293 29q75 0 124.5 31.5t75 88t25.5 131.5q0 76 -24.5 132t-75 87t-125.5 31q-111 0 -168 -66t-57 -184q0 -74 24 -130.5
t74.5 -88.5t126.5 -32z" />
    <glyph glyph-name="P" unicode="P" horiz-adv-x="484" 
d="M112 0h-45v563h45v-563zM104 563h171q92 0 139 -43.5t47 -131.5q0 -82 -48.5 -126.5t-137.5 -44.5h-172v39h168q72 0 110 33t38 100q0 68 -37 101t-111 33h-167v40z" />
    <glyph glyph-name="Q" unicode="Q" horiz-adv-x="607" 
d="M307 -14q-132 0 -201 79.5t-69 214.5q0 89 29.5 154.5t89.5 102t151 36.5q89 0 148.5 -36t90 -101.5t30.5 -153.5t-30.5 -154.5t-90 -104t-148.5 -37.5zM365 -109q-14 0 -28 4.5t-25.5 15t-17.5 30.5t-6 52v25h42v-23q0 -12 1.5 -27.5t10.5 -26.5t30 -11q18 0 31 10
t16 10l6 -36l-5.5 -3.5t-14.5 -8t-19.5 -8t-20.5 -3.5zM306 30q112 0 168 68t56 183q0 114 -55 182t-169 68q-110 0 -167 -65.5t-57 -183.5q0 -115 55.5 -183.5t168.5 -68.5z" />
    <glyph glyph-name="R" unicode="R" horiz-adv-x="520" 
d="M65 0v563h175q71 0 120 -14t74.5 -48t25.5 -96q0 -38 -14 -71t-43.5 -53.5t-76.5 -20.5q39 0 61 -14.5t31.5 -37.5t12 -50t2.5 -53t3 -46t14 -28t35 0v-33q-5 -4 -19.5 -7t-31.5 2t-29 23t-12 55q0 58 -4.5 93t-19 53t-45.5 25t-82.5 7t-130.5 -1v-248h-46zM111 285h147
q55 0 90.5 10.5t53 36t17.5 71.5q0 53 -22 78.5t-63 33.5t-100 8h-123v-238z" />
    <glyph glyph-name="S" unicode="S" horiz-adv-x="511" 
d="M266 -13q-44 0 -85 10.5t-75 33t-54 57t-21 83.5h46q0 -3 2 -18t10.5 -36t29 -41t57 -33.5t93.5 -13.5q52 0 83.5 12.5t47.5 31t21.5 35.5t5.5 26q1 38 -19 61.5t-54 38t-74 24.5t-80.5 21.5t-74.5 29t-53.5 47t-17.5 76.5q2 44 30.5 75.5t76 48.5t104.5 17t103.5 -20.5
t74 -60t25.5 -99.5h-45q2 42 -15 69t-43 42t-54 20.5t-50 5.5q-69 0 -113.5 -28.5t-46.5 -72.5q-1 -38 19 -61t54 -36.5t74.5 -23.5t80.5 -21t73.5 -29t53 -48.5t18.5 -78.5q-2 -46 -30 -78t-74 -49t-104 -17z" />
    <glyph glyph-name="T" unicode="T" horiz-adv-x="442" 
d="M243 545v-545h-45v545h45zM10 522v41h420v-41h-420z" />
    <glyph glyph-name="U" unicode="U" horiz-adv-x="567" 
d="M280 -14q-109 0 -169 66.5t-60 187.5v323h46v-323q0 -53 13 -92.5t37 -66t58 -39.5t75 -13q60 0 100.5 23t62 70t21.5 118v323h45v-323q0 -123 -58.5 -188.5t-170.5 -65.5z" />
    <glyph glyph-name="V" unicode="V" horiz-adv-x="497" 
d="M430 563h50l-205 -563h-77l-204 563h49l194 -540z" />
    <glyph glyph-name="W" unicode="W" horiz-adv-x="848" 
d="M390 563h49l-25 -63l-162 -500h-76l-173 563h49l163 -540zM778 563h50l-182 -563h-75l-157 500l-23 63h48l169 -540z" />
    <glyph glyph-name="X" unicode="X" horiz-adv-x="539" 
d="M28 0l210 299l-189 264h57l160 -232l161 232h56l-187 -264l211 -299h-56l-185 267l-185 -267h-53z" />
    <glyph glyph-name="Y" unicode="Y" horiz-adv-x="422" 
d="M184 205l-193 358h50l166 -310l163 310h50l-195 -358h-41zM182 0v218h46v-218h-46z" />
    <glyph glyph-name="Z" unicode="Z" horiz-adv-x="535" 
d="M33 0v39l399 482h-364v42h422v-39l-397 -482h394v-42h-454z" />
    <glyph glyph-name="bracketleft" unicode="[" horiz-adv-x="233" 
d="M35 -199v802h186v-43h-145v-717h145v-42h-186z" />
    <glyph glyph-name="backslash" unicode="\" horiz-adv-x="316" 
d="M286 0l-254 563h47l254 -563h-47z" />
    <glyph glyph-name="bracketright" unicode="]" horiz-adv-x="249" 
d="M35 -199v42h153v717h-146v43h187v-802h-194z" />
    <glyph glyph-name="asciicircum" unicode="^" horiz-adv-x="384" 
d="M26 320v17l166 225l166 -225v-17h-48l-117 188h-2l-117 -188h-48z" />
    <glyph glyph-name="underscore" unicode="_" horiz-adv-x="500" 
d="M23 0v37h422v-37h-422z" />
    <glyph glyph-name="grave" unicode="`" horiz-adv-x="166" 
d="M112 447l-75 99v13h44l54 -104v-8h-23z" />
    <glyph glyph-name="a" unicode="a" horiz-adv-x="413" 
d="M183 -9q-56 0 -93 28t-55 75.5t-18 105.5q0 61 18.5 108t56 74.5t91.5 27.5q30 0 53 -8t41 -21t30.5 -29.5t19.5 -35.5h1v90h47v-406h-38l-8 84h-2q-8 -18 -20.5 -34.5t-30.5 -30t-41 -21t-52 -7.5zM200 33q43 0 71.5 20t42.5 57.5t14 88.5q0 56 -15 92.5t-43.5 55.5
t-69.5 19q-47 0 -77.5 -22t-45 -59t-14.5 -85q0 -49 15 -87t45.5 -59t76.5 -21z" />
    <glyph glyph-name="b" unicode="b" horiz-adv-x="466" 
d="M251 -10q-40 0 -68 14t-46.5 34t-28 37.5t-11.5 22.5h-2l-8 -98h-39v563h48v-267h2q2 7 10.5 24.5t26 37.5t46 34t70.5 14q58 0 98.5 -27.5t62 -75t21.5 -105.5q0 -59 -21.5 -106t-62 -74.5t-98.5 -27.5zM245 33q50 0 81.5 23.5t46 62t14.5 79.5q0 42 -16 79.5t-49 61
t-83 23.5q-40 0 -72 -19.5t-51 -56t-19 -88.5t20 -89.5t53.5 -56.5t74.5 -19z" />
    <glyph glyph-name="c" unicode="c" horiz-adv-x="444" 
d="M220 -10q-57 0 -100.5 24t-68.5 70t-25 109q2 64 26.5 112t68.5 74.5t102 26.5q50 0 88 -18.5t62.5 -50.5t31.5 -73h-43q-10 47 -47 73.5t-91 26.5q-46 0 -80 -21.5t-53 -59.5t-20 -88q0 -74 40.5 -118.5t109.5 -44.5q54 0 92.5 27t48.5 74h43q-7 -41 -32.5 -73t-64 -51
t-88.5 -19z" />
    <glyph glyph-name="d" unicode="d" horiz-adv-x="478" 
d="M229 -10q-58 0 -98.5 28t-61.5 75t-21 105q0 59 21.5 106t62 74.5t98.5 27.5q41 0 70 -14t46 -34t25.5 -37.5t11.5 -24.5h2v267h47v-563h-38l-8 98h-2q-3 -5 -12.5 -22.5t-27.5 -37.5t-46.5 -34t-68.5 -14zM235 33q41 0 74.5 19t53.5 56.5t20 89.5t-18.5 88.5t-50.5 56
t-72 19.5q-50 0 -83 -23.5t-49.5 -61t-16.5 -79.5q0 -41 14.5 -79.5t46 -62t81.5 -23.5z" />
    <glyph glyph-name="e" unicode="e" horiz-adv-x="445" 
d="M220 -10q-65 0 -107.5 31t-63.5 79.5t-20 100.5q0 54 22 101t64.5 75.5t103.5 28.5q51 0 90.5 -22.5t63.5 -63t27 -96.5q1 -5 1 -12v-13h-328q0 -77 38.5 -123t108.5 -46q51 0 88.5 27t46.5 73h45q-7 -41 -32 -72.5t-63 -49.5t-85 -18zM76 229h278q-1 19 -8.5 42.5
t-23.5 45.5t-41.5 36t-61.5 14q-33 0 -58 -11.5t-42.5 -30.5t-28 -43.5t-14.5 -52.5z" />
    <glyph glyph-name="f" unicode="f" horiz-adv-x="257" 
d="M78 -3v509q0 25 9.5 43t40.5 18h127v-38h-130v-532h-47zM12 369v37h235v-37h-235z" />
    <glyph glyph-name="g" unicode="g" horiz-adv-x="444" 
d="M132 -160v43h214v215h-2q-2 -5 -11.5 -22.5t-28 -37.5t-46.5 -34t-68 -14q-58 0 -98.5 28t-61.5 75t-21 105q0 59 21 106.5t62 74.5t99 27q41 0 69.5 -14t46 -34t26 -37.5t10.5 -24.5h2v110h48v-493q0 -22 -5 -38.5t-17.5 -25.5t-36.5 -9h-202zM196 33q41 0 74.5 19
t53.5 56.5t20 89.5t-19 88.5t-50.5 56t-72.5 19.5q-50 0 -83 -23.5t-49 -61t-16 -79.5q0 -41 14.5 -79.5t46 -62t81.5 -23.5z" />
    <glyph glyph-name="h" unicode="h" horiz-adv-x="439" 
d="M41 0v563h46v-265h2q2 7 10 24t25 36.5t44.5 33.5t68.5 14q42 0 70 -12t45.5 -33t26.5 -47.5t12 -55t3 -57.5v-201h-44v201q0 50 -11 86.5t-37 56.5t-73 20q-48 0 -79.5 -24t-47 -63t-15.5 -85v-192h-46z" />
    <glyph glyph-name="i" unicode="i" horiz-adv-x="153" 
d="M53 0v406h46v-406h-46zM77 471q-20 0 -27.5 10.5t-7.5 24.5t7.5 24t27.5 10q21 0 27.5 -10t6.5 -24t-6.5 -24.5t-27.5 -10.5z" />
    <glyph glyph-name="j" unicode="j" horiz-adv-x="195" 
d="M84 471q-21 0 -28 10.5t-7 24.5t7 24t28 10t27.5 -10t6.5 -24t-6.5 -24.5t-27.5 -10.5zM61 406h46v-505q0 -25 -9 -43t-41 -18h-66v39h70v527z" />
    <glyph glyph-name="k" unicode="k" horiz-adv-x="419" 
d="M98 -1h-46v564h46v-564zM209 243l198 -244h-57l-174 213zM91 104v57l252 245h61z" />
    <glyph glyph-name="l" unicode="l" horiz-adv-x="152" 
d="M53 0v563h46v-563h-46z" />
    <glyph glyph-name="m" unicode="m" horiz-adv-x="666" 
d="M39 0v406h40l5 -108h2q2 9 9.5 26.5t23 36t40 32t62.5 13.5q39 0 64 -16t38.5 -40.5t19.5 -51.5h2q3 9 11.5 26.5t25 36.5t42.5 32t64 13q39 0 64.5 -16t40 -40.5t21 -52.5t8 -54t1.5 -42v-201h-45v201q0 18 -1.5 45t-11 54t-30.5 45.5t-59 18.5q-42 0 -69 -24t-40.5 -63
t-13.5 -85v-192h-44v201q0 18 -2 45t-11 54t-30 45.5t-59 18.5q-42 0 -69.5 -24t-40.5 -63t-13 -85v-192h-45z" />
    <glyph glyph-name="n" unicode="n" horiz-adv-x="436" 
d="M39 0v406h38l8 -108h2q2 7 10 24t25 36.5t45 33.5t70 14t69.5 -12t45 -32.5t26.5 -47t12 -55.5t3 -58v-201h-45v201q0 50 -11 86.5t-37 56.5t-72 20q-49 0 -80.5 -24t-47 -63t-15.5 -85v-192h-46z" />
    <glyph glyph-name="o" unicode="o" horiz-adv-x="450" 
d="M218 -10q-63 0 -105.5 26.5t-63.5 73.5t-21 107q0 61 21 108.5t63.5 74t105.5 26.5q92 0 140.5 -57.5t48.5 -151.5q0 -58 -20 -105.5t-62 -74.5t-107 -27zM218 31q56 0 87 25t43.5 63.5t12.5 78.5q0 41 -12.5 79.5t-43.5 63.5t-87 25q-55 0 -87 -25t-44.5 -63.5
t-12.5 -79.5q0 -40 12.5 -78.5t44.5 -63.5t87 -25z" />
    <glyph glyph-name="p" unicode="p" horiz-adv-x="466" 
d="M252 -10q-40 0 -68 14t-46 34t-27.5 37.5t-12.5 22.5h-2v-258h-46v566h39l8 -110h2q3 7 11 24.5t25.5 37.5t46 34t69.5 14q59 0 99.5 -28t62 -75t21.5 -106t-22 -106t-62.5 -74t-97.5 -27zM247 33q50 0 81.5 23.5t46 62t14.5 79.5q0 42 -16 79.5t-49.5 61t-83.5 23.5
q-40 0 -72 -19.5t-50.5 -56t-18.5 -88.5t20 -89.5t53.5 -56.5t74.5 -19z" />
    <glyph glyph-name="q" unicode="q" horiz-adv-x="466" 
d="M214 -10q-58 0 -98.5 27.5t-62 74.5t-21.5 105q0 60 21.5 107t62.5 74.5t98 27.5q42 0 70.5 -14t45.5 -34t25.5 -37.5t11.5 -24.5h2l8 110h39v-566h-47v258h-2q-2 -5 -11.5 -22.5t-27.5 -37.5t-46 -34t-68 -14zM219 33q41 0 74.5 19t53.5 56.5t20 89.5t-18.5 88.5
t-50.5 56t-72 19.5q-50 0 -83.5 -23.5t-49.5 -61t-16 -79.5q0 -41 14.5 -79.5t46 -62t81.5 -23.5z" />
    <glyph glyph-name="r" unicode="r" horiz-adv-x="284" 
d="M52 0v406h39l7 -117l-1 -87v-202h-45zM97 196l-3 88q2 24 12.5 46t30 39t47 27t64.5 10h22v-51h-22q-51 0 -81.5 -12.5t-45.5 -34t-19.5 -50.5t-4.5 -62z" />
    <glyph glyph-name="s" unicode="s" horiz-adv-x="396" 
d="M200 -10q-41 0 -70 11.5t-48 29.5t-30 37t-15.5 35t-4.5 24h45q0 -1 2.5 -16.5t14 -35.5t36.5 -34.5t70 -14.5q33 0 60 7.5t43 24t16 43.5q0 32 -20.5 49.5t-52.5 26t-67 16t-66.5 19.5t-51 35t-19.5 63q1 48 45 77.5t113 29.5q26 0 55 -6t53.5 -21t40 -41t12.5 -68h-44
q1 31 -10.5 50t-31 29.5t-40.5 13.5t-38 3q-47 0 -79.5 -17t-32.5 -52q0 -29 20 -45t52 -24.5t67 -15.5t67 -20t52 -37t20 -67q0 -39 -21.5 -63t-58.5 -35t-83 -11z" />
    <glyph glyph-name="t" unicode="t" horiz-adv-x="262" 
d="M125 0q-31 0 -40.5 18t-9.5 43v316h44v-338h95v-39h-89zM8 369v37q27 0 41 2t20 11.5t7.5 31t1.5 60.5h41v-105h95v-37h-206z" />
    <glyph glyph-name="u" unicode="u" horiz-adv-x="438" 
d="M194 -10q-38 0 -65.5 11t-45.5 30.5t-28 45t-14 55.5t-4 62v212h45v-212q0 -45 9.5 -82t36.5 -58.5t77 -21.5q48 0 76.5 22.5t42.5 58t16 75.5v218h47v-406h-38l-8 97h-2q-5 -16 -16 -34t-28.5 -35t-42.5 -27.5t-58 -10.5z" />
    <glyph glyph-name="v" unicode="v" horiz-adv-x="396" 
d="M332 406h46v-13l-160 -393h-66l-160 392v14h45l148 -369h2z" />
    <glyph glyph-name="w" unicode="w" horiz-adv-x="587" 
d="M118 0l-116 393v13h43l104 -367h2l113 367h42l115 -367h2l102 367h43v-13l-114 -393h-66l-102 326h-2l-101 -326h-65z" />
    <glyph glyph-name="x" unicode="x" horiz-adv-x="404" 
d="M15 0l148 209l-142 197h54l117 -165l118 165h54l-143 -197l152 -209h-55l-126 176l-124 -176h-53z" />
    <glyph glyph-name="y" unicode="y" horiz-adv-x="391" 
d="M-4 -178v38h52q14 0 23 5t18.5 18.5t21.5 39.5l50 109l-159 374h48l135 -324l143 324h49l-226 -491q-13 -30 -24 -48.5t-22 -28.5t-24.5 -13t-30.5 -3h-54z" />
    <glyph glyph-name="z" unicode="z" horiz-adv-x="423" 
d="M35 0v34l292 335h-279v37h339v-36l-292 -333h292v-37h-352z" />
    <glyph glyph-name="braceleft" unicode="{" horiz-adv-x="272" 
d="M250 -196q-60 -8 -95 -0.5t-50 34.5t-15.5 76.5t7.5 123.5q6 54 1.5 83.5t-15.5 41.5t-24.5 15t-24.5 3v46q11 0 24.5 3t24.5 15t15.5 41.5t-1.5 83.5q-7 74 -6.5 122.5t15 75.5t49.5 34.5t95 0.5v-42q-55 12 -82 5.5t-35 -31.5t-4 -66.5t11 -96.5q8 -48 8 -80.5
t-17.5 -53.5t-59.5 -35q42 -13 59.5 -34t17.5 -53t-8 -80q-7 -56 -11 -97t4 -66t35 -32t82 5v-42z" />
    <glyph glyph-name="bar" unicode="|" horiz-adv-x="166" 
d="M60 -151v752h46v-752h-46z" />
    <glyph glyph-name="braceright" unicode="}" horiz-adv-x="286" 
d="M36 -196v42q55 -12 82 -5t35 32t4 66t-11 97q-8 48 -7.5 80t17.5 53t59 34q-42 14 -59 35t-17 53.5t7 80.5q7 55 11 96.5t-4 66.5t-35 31.5t-82 -5.5v42q63 6 98 -2t49 -34.5t13.5 -74.5t-7.5 -122q-6 -54 -1.5 -83.5t15.5 -41.5t24.5 -15t24.5 -3v-46q-11 0 -24.5 -3
t-24.5 -15t-15.5 -41.5t1.5 -83.5q8 -74 8.5 -122.5t-14 -75t-49.5 -34.5t-98 -2z" />
    <glyph glyph-name="asciitilde" unicode="~" horiz-adv-x="362" 
d="M234 192q-24 0 -37.5 10.5t-22.5 24.5t-18 24.5t-26 10.5q-21 0 -26 -18t-4 -43h-34q-1 15 1 31t8.5 29.5t19 22t34.5 8.5q24 0 37.5 -10.5t22 -24.5t18 -24.5t26.5 -10.5q22 0 26 19.5t4 42.5h34q1 -15 -1 -31t-8.5 -30t-19.5 -22.5t-34 -8.5z" />
    <glyph glyph-name="uni00A0" unicode="&#xa0;" horiz-adv-x="246" 
 />
    <glyph glyph-name="exclamdown" unicode="&#xa1;" horiz-adv-x="167" 
d="M89 373q17 0 23 -10t6 -24q0 -13 -6 -22.5t-23 -9.5t-23 9.5t-6 22.5q0 14 6 24t23 10zM72 239l5 -0.5t12 -0.5q8 0 12 0.5l4 0.5q3 -111 7 -188t5.5 -126.5t0.5 -76t-8 -37t-21 -10.5t-21 10.5t-8.5 37t0 76t5.5 126.5t7 188z" />
    <glyph glyph-name="cent" unicode="&#xa2;" horiz-adv-x="442" 
d="M219 -10q-57 0 -101 24t-69 70t-25 109q2 64 27 112t69 74.5t102 26.5q50 0 87.5 -18.5t62 -49.5t32.5 -72l-43 -4q-10 48 -47 75t-92 27q-46 0 -80 -21.5t-53 -59.5t-19 -88q0 -74 40 -118.5t109 -44.5q56 0 94 27.5t48 75.5l43 -4q-8 -40 -33.5 -72t-63.5 -50.5
t-88 -18.5zM197 -85l2 88h41l2 -88h-45zM199 393l-2 88h45l-2 -88h-41z" />
    <glyph glyph-name="sterling" unicode="&#xa3;" horiz-adv-x="588" 
d="M80 -13l-22 35q30 24 50 50.5t28 56.5t1.5 64.5t-26.5 75.5q-29 56 -30.5 110t20.5 97.5t66 69.5t107 26t107.5 -23.5t69 -66t25.5 -100.5l-44 -4q-2 6 -4.5 23.5t-11 40t-26 44t-46.5 35.5t-75 14q-48 -1 -82 -22t-50.5 -57t-14 -81t26.5 -95q27 -55 30.5 -95.5
t-9.5 -72t-35 -60.5q37 17 73.5 14.5t71.5 -12t68 -17.5t64 -4.5t59 28.5q23 21 28 53t-7 68l43 11q14 -47 9 -80.5t-20.5 -55t-35.5 -31.5q-33 -25 -65 -31t-63.5 0.5t-63.5 16.5t-66 16t-69.5 -1t-74.5 -35q-1 -1 -2.5 -2t-3.5 -3zM34 222v37h368v-37h-368z" />
    <glyph glyph-name="currency" unicode="&#xa4;" horiz-adv-x="517" 
d="M427 1h-34l-41 59q-38 -27 -93 -27q-57 0 -96 28l-42 -60h-31l54 77q-41 46 -41 126q0 90 50 135l-47 65h34l35 -50q34 20 84 20q48 0 82 -19l34 49h35l-47 -65q51 -46 51 -135q0 -79 -41 -126zM259 54q25 0 45 6.5t36 16.5q4 3 7 6l6 6q-9 -10 -9.5 -10t3.5 4l8.5 8.5
l4.5 4.5q32 40 32 108q0 78 -41 118q-8 8 -22 15q-30 16 -70 16q-42 0 -72 -16q-1 -1 -11 -8t-10 -8q-41 -38 -41 -117q0 -33 12.5 -67.5t38.5 -58.5q16 -11 36.5 -17.5t46.5 -6.5z" />
    <glyph glyph-name="yen" unicode="&#xa5;" horiz-adv-x="440" 
d="M194 205l-193 358h50l165 -310l164 310h50l-195 -358h-41zM75 113v33h281v-33h-281zM75 194v33h281v-32zM192 0v218h46v-218h-46z" />
    <glyph glyph-name="brokenbar" unicode="&#xa6;" horiz-adv-x="166" 
d="M60 285v316h46v-316h-46zM60 -151v316h46v-316h-46z" />
    <glyph glyph-name="section" unicode="&#xa7;" horiz-adv-x="600" 
d="M418 223v-2q23 -15 39 -40t15 -60q-3 -56 -51.5 -88t-116.5 -32q-47 0 -90.5 16t-71.5 50t-30 86h31q0 -2 1.5 -15t9 -31t24.5 -35.5t48 -29t80 -11.5q45 0 72 11t40.5 27t18 31t4.5 22q1 38 -21 59.5t-58 33.5t-76.5 21.5t-76.5 24t-58 40t-20 70.5q1 28 20.5 48.5
t47.5 31.5v1q-31 17 -50 42.5t-18 61.5q2 36 25 61.5t61.5 39.5t84.5 14q47 0 84.5 -16.5t59.5 -48.5t20 -81h-30q1 36 -13 59t-36 35.5t-45.5 17.5t-41.5 5q-59 0 -97.5 -25t-40.5 -63q0 -37 22.5 -58t58 -32.5t76 -20.5t76 -23.5t57.5 -41t20 -72.5q-1 -28 -16 -48
t-38 -35zM162 369q0 -35 17.5 -55.5t47.5 -32t65.5 -19.5t69.5 -18q11 -2 15 -3t6 -2q8 -2 12 -0.5t6 2.5q26 17 33 37t7 29q1 33 -16.5 54t-47 34t-64.5 21.5t-69 17.5q-14 3 -21.5 4.5t-20.5 -6.5q-39 -26 -40 -63z" />
    <glyph glyph-name="dieresis" unicode="&#xa8;" horiz-adv-x="315" 
d="M86 463q-24 0 -32.5 12.5t-8.5 28.5t8.5 28t32.5 12t32 -12t8 -28t-8 -28.5t-32 -12.5zM230 463q-24 0 -32.5 12.5t-8.5 28.5t8.5 28t32.5 12q25 0 32.5 -12t7.5 -28t-8 -28.5t-32 -12.5z" />
    <glyph glyph-name="copyright" unicode="&#xa9;" horiz-adv-x="644" 
d="M328 -10q-61 0 -114 22.5t-93.5 63t-63 93.5t-22.5 114q0 59 22.5 111.5t63 92.5t93.5 63t114 23q59 0 111.5 -23t92.5 -63t63 -92.5t23 -111.5q0 -61 -23 -114t-63 -93.5t-92.5 -63t-111.5 -22.5zM328 22q53 0 100 20t82.5 55.5t55.5 83t20 102.5q0 53 -20 100
t-55.5 82.5t-82.5 55.5t-100 20q-54 0 -102 -20t-83.5 -55.5t-55.5 -82.5t-20 -100q0 -55 20 -102.5t55.5 -83t83.5 -55.5t102 -20zM329 114q-45 0 -81 19t-57 57t-21 92q1 81 46 124t115 43q40 0 70.5 -14.5t50.5 -42t25 -65.5l-35 -4q-10 44 -37 68t-74 24
q-57 0 -90 -34.5t-33 -96.5q0 -66 32 -101.5t90 -35.5q48 0 76 25.5t37 68.5l38 -6q-7 -37 -26.5 -64t-50.5 -42t-75 -15z" />
    <glyph glyph-name="ordfeminine" unicode="&#xaa;" horiz-adv-x="261" 
d="M124 402q-52 0 -77.5 37t-25.5 92q0 57 26 93.5t77 36.5q24 0 42 -8t29.5 -21.5t17.5 -28.5v55h31v-251h-24l-5 52h-2q-6 -15 -17.5 -28t-29.5 -21t-42 -8zM135 429q40 0 59 27t19 75q0 50 -20 76t-58 26q-44 0 -64.5 -29.5t-20.5 -72.5q0 -45 21.5 -73.5t63.5 -28.5z
" />
    <glyph glyph-name="guillemotleft" unicode="&#xab;" horiz-adv-x="483" 
d="M302 502v-50l-234 -157l234 -159v-51l-285 210zM459 502v-52l-234 -155l234 -157v-53l-285 210z" />
    <glyph glyph-name="logicalnot" unicode="&#xac;" horiz-adv-x="362" 
d="M70 206v36h222v-36h-222zM255 120v122h37v-122h-37z" />
    <glyph glyph-name="registered" unicode="&#xae;" horiz-adv-x="408" 
d="M203 229q-48 0 -87 23t-62.5 62t-23.5 86q0 48 23.5 87t62.5 62t87 23q47 0 85.5 -23t61.5 -62t23 -87q0 -47 -23 -86t-61.5 -62t-85.5 -23zM203 254q41 0 74 20t52 53t19 73q0 41 -19 74.5t-52 53t-74 19.5q-42 0 -75 -19.5t-52.5 -53t-19.5 -74.5q0 -40 19.5 -73
t52.5 -53t75 -20zM137 313v184h63q36 0 55.5 -12t19.5 -42q0 -20 -11.5 -35t-36.5 -15q21 0 27.5 -11t7.5 -25t4 -22.5t17 -3.5v-16q-6 -5 -16.5 -6t-18.5 6.5t-8 27.5q0 24 -4.5 34t-20.5 12t-52 1v-77h-26zM163 410h39q25 0 37 5.5t12 25.5q0 23 -15 28.5t-42 5.5h-31v-65
z" />
    <glyph glyph-name="macron" unicode="&#xaf;" horiz-adv-x="315" 
d="M40 469v38h235v-38h-235z" />
    <glyph glyph-name="degree" unicode="&#xb0;" horiz-adv-x="297" 
d="M127 380q-51 0 -74 26t-23 69q0 45 22.5 71.5t74.5 26.5q50 0 74 -26.5t24 -71.5q0 -41 -24 -68t-74 -27zM127 412q37 0 51 18.5t14 45.5q0 28 -14 47.5t-51 19.5t-52 -20t-15 -47q0 -28 16.5 -46t50.5 -18z" />
    <glyph glyph-name="plusminus" unicode="&#xb1;" horiz-adv-x="362" 
d="M70 53v34h222v-34h-222zM167 135v195h34v-195h-34zM70 213v35h222v-35h-222z" />
    <glyph glyph-name="uni00B2" unicode="&#xb2;" horiz-adv-x="232" 
d="M15 406v28l19 12.5t46.5 33t52 44t36.5 46.5q17 34 0.5 59t-54.5 25q-27 0 -45 -17.5t-16 -52.5l-32 3q-2 45 25.5 70.5t71.5 25.5q35 0 59 -17t31.5 -43.5t-9.5 -58.5q-10 -22 -32.5 -43.5t-47.5 -40.5t-44.5 -31t-24.5 -14h166v-29h-202z" />
    <glyph glyph-name="uni00B3" unicode="&#xb3;" horiz-adv-x="235" 
d="M121 396q-42 0 -73.5 23t-32.5 70l32 4q2 -34 24 -51t50 -17q27 0 47.5 15t20.5 39q0 19 -10.5 30t-23.5 15t-24 4h-36v19h37q22 0 36.5 11.5t14.5 30.5q0 26 -17.5 40.5t-47.5 14.5q-23 0 -37.5 -9.5t-21 -23t-7.5 -25.5l-31 5q0 8 5 21t16 27t29.5 24t46.5 10
q44 0 69.5 -20.5t25.5 -56.5q0 -23 -12.5 -38t-33.5 -21q22 -4 37.5 -21t15.5 -43q0 -35 -28.5 -56t-70.5 -21z" />
    <glyph glyph-name="acute" unicode="&#xb4;" horiz-adv-x="183" 
d="M61 447h-24v8l54 104h44v-13z" />
    <glyph glyph-name="uni00B5" unicode="&#xb5;" horiz-adv-x="458" 
d="M50 -153v559h45v-212q0 -45 9.5 -81.5t36.5 -58t77 -21.5q47 0 75.5 22.5t42.5 57.5t17 74v219h46v-405h-38l-6 91h-2q-8 -23 -25 -46t-44 -39t-65 -16q-47 0 -76 15.5t-46 43.5h-2v-203h-45z" />
    <glyph glyph-name="paragraph" unicode="&#xb6;" horiz-adv-x="495" 
d="M227 -93v403h-13q-54 2 -99 20.5t-72 60t-27 112.5q0 69 26.5 111t70.5 61t98 21h22h54v-789h-60zM349 -93v789h59v-789h-59zM217 640l-4 56h266v-56h-262z" />
    <glyph glyph-name="periodcentered" unicode="&#xb7;" horiz-adv-x="194" 
d="M93 198q-28 0 -38 14t-10 34q0 18 10 32t38 14t37 -14t9 -32q0 -20 -9 -34t-37 -14z" />
    <glyph glyph-name="cedilla" unicode="&#xb8;" horiz-adv-x="251" 
d="M32 -117l19 26q13 -14 35 -23t44 -9q23 0 38.5 10t15.5 30q0 16 -12 22.5t-27 6.5q-14 0 -30 -5.5t-29 -15.5l-22 18l38 77l28 -11l-40 -62q11 12 28.5 18.5t35.5 6.5q25 0 45 -12.5t20 -42.5q0 -35 -28.5 -53.5t-66.5 -18.5q-23 0 -48 10t-44 28z" />
    <glyph glyph-name="uni00B9" unicode="&#xb9;" horiz-adv-x="162" 
d="M75 415v221q-6 -20 -19 -30.5t-25 -14.5t-16 -4v37q4 0 19 3.5t29.5 15.5t14.5 37h30v-265h-33zM30 403v31h117v-31h-117z" />
    <glyph glyph-name="ordmasculine" unicode="&#xba;" horiz-adv-x="289" 
d="M145 406q-65 0 -97.5 40t-32.5 101q0 62 32.5 102.5t97.5 40.5q63 0 96 -39.5t33 -103.5q0 -60 -31.5 -100.5t-97.5 -40.5zM145 433q38 0 59 17.5t29.5 44t8.5 53.5t-8.5 53.5t-29.5 44t-59 17.5t-60 -17.5t-30.5 -44t-8.5 -53.5t8.5 -53.5t30.5 -44t60 -17.5z" />
    <glyph glyph-name="guillemotright" unicode="&#xbb;" horiz-adv-x="472" 
d="M172 502l285 -207l-285 -210v51l234 159l-234 157v50zM15 502l285 -207l-285 -210v53l234 157l-234 155v52z" />
    <glyph glyph-name="onequarter" unicode="&#xbc;" horiz-adv-x="592" 
d="M75 301v221q-6 -20 -19 -31t-25 -14.5t-16 -3.5v37q4 0 19 3.5t29.5 15.5t14.5 37h30v-265h-33zM30 289v31h117v-31h-117zM64 1l-27 21l213 272l192 268l27 -20l-201 -261zM359 57v31q33 15 58 46.5t40 70t15 72.5h37q0 -53 -32 -104.5t-81 -84.5h180v-31h-217zM504 0
v138h35v-138h-35z" />
    <glyph glyph-name="onehalf" unicode="&#xbd;" horiz-adv-x="576" 
d="M75 301v221q-6 -20 -19 -31t-25 -14.5t-16 -3.5v37q4 0 19 3.5t29.5 15.5t14.5 37h30v-265h-33zM30 289v31h117v-31h-117zM64 1l-27 21l213 272l192 268l27 -20l-201 -261zM359 0v29q2 0 22 13t47.5 34.5t51.5 45t34 47.5q15 32 -1.5 55.5t-53.5 23.5q-27 0 -45 -17.5
t-16 -51.5l-32 3q-2 44 25.5 69.5t71.5 25.5q34 0 57.5 -15.5t31 -41t-5.5 -55.5q-8 -21 -29.5 -43.5t-46.5 -42.5t-46 -33.5t-29 -15.5h166v-30h-202z" />
    <glyph glyph-name="threequarters" unicode="&#xbe;" horiz-adv-x="664" 
d="M121 278q-43 0 -74 23.5t-32 70.5l32 4q2 -34 24 -51t50 -17q27 0 47.5 15.5t20.5 39.5q0 21 -10.5 32.5t-23.5 16t-24 4.5h-36v19h37q22 0 36.5 14t14.5 33q0 26 -17.5 41t-47.5 15q-23 0 -37.5 -10t-21 -23.5t-7.5 -24.5l-31 4q0 8 5 21t16 27t29.5 24t46.5 10
q44 0 69.5 -21t25.5 -56q0 -23 -12.5 -40.5t-33.5 -23.5q22 -4 37.5 -22t15.5 -45q0 -36 -28.5 -58t-70.5 -22zM137 1l-27 21l213 272l192 268l27 -20l-201 -261zM432 57v31q33 15 58 46.5t40 70t15 72.5h37q0 -53 -32 -104.5t-81 -84.5h180v-31h-217zM577 0v138h35v-138
h-35z" />
    <glyph glyph-name="questiondown" unicode="&#xbf;" horiz-adv-x="429" 
d="M209 238h39q0 -42 -17 -71t-41 -51t-48.5 -43.5t-41 -47.5t-16.5 -62q0 -55 36 -88t95 -33q35 0 61 12t42.5 32.5t24 47t7.5 55.5h45q1 -39 -9.5 -73t-33.5 -60t-57 -40.5t-79 -14.5q-48 0 -88 19t-64 54.5t-24 84.5q0 43 17 72t41.5 50.5t49.5 42t42.5 47.5t18.5 67z
M227 376q18 0 23.5 -10.5t5.5 -24.5t-5.5 -23.5t-23.5 -9.5q-17 0 -23 9.5t-6 23.5q0 15 6 25t23 10z" />
    <glyph glyph-name="Agrave" unicode="&#xc0;" horiz-adv-x="529" 
d="M20 0l207 563h75l209 -563h-48l-198 542l-199 -542h-46zM121 185l9 40h270l8 -40h-287zM262 604l-75 99v13h44l54 -104v-8h-23z" />
    <glyph glyph-name="Aacute" unicode="&#xc1;" horiz-adv-x="529" 
d="M20 0l207 563h75l209 -563h-48l-198 542l-199 -542h-46zM121 185l9 40h270l8 -40h-287zM276 604h-24v8l54 104h44v-13z" />
    <glyph glyph-name="Acircumflex" unicode="&#xc2;" horiz-adv-x="529" 
d="M20 0l207 563h75l209 -563h-48l-198 542l-199 -542h-46zM121 185l9 40h270l8 -40h-287zM149 619v7l104 101h22l105 -101v-7h-46l-69 74h-2l-68 -74h-46z" />
    <glyph glyph-name="Atilde" unicode="&#xc3;" horiz-adv-x="529" 
d="M20 0l207 563h75l209 -563h-48l-198 542l-199 -542h-46zM121 185l9 40h270l8 -40h-287zM157 628q-1 16 1 30.5t8 26.5t17.5 19t30.5 7q22 0 35.5 -8t22 -19t18 -19t23.5 -8q18 0 21.5 14t3.5 40h33q1 -16 -1 -31.5t-8 -27t-17.5 -18.5t-29.5 -7q-22 0 -35.5 8.5t-22.5 19
t-18 18.5t-23 8q-17 0 -21.5 -14t-3.5 -39h-34z" />
    <glyph glyph-name="Adieresis" unicode="&#xc4;" horiz-adv-x="529" 
d="M20 0l207 563h75l209 -563h-48l-198 542l-199 -542h-46zM121 185l9 40h270l8 -40h-287zM192 620q-24 0 -32.5 12.5t-8.5 28.5t8.5 28t32.5 12t32 -12t8 -28t-8 -28.5t-32 -12.5zM336 620q-24 0 -32.5 12.5t-8.5 28.5t8.5 28t32.5 12q25 0 32.5 -12t7.5 -28t-8 -28.5
t-32 -12.5z" />
    <glyph glyph-name="Aring" unicode="&#xc5;" horiz-adv-x="529" 
d="M20 0l207 563h75l209 -563h-48l-198 542l-199 -542h-46zM121 185l9 40h270l8 -40h-287zM263 623q-40 0 -63.5 23t-23.5 62q0 40 23 64t64 24t65 -24t24 -64q0 -36 -24 -60.5t-65 -24.5zM263 652q27 0 42 17t15 41q0 23 -15 40t-42 17t-42 -17t-15 -40q0 -25 16.5 -41.5
t40.5 -16.5z" />
    <glyph glyph-name="AE" unicode="&#xc6;" horiz-adv-x="826" 
d="M416 0v563h366v-42h-320v-216h257v-40h-257v-226h329v-39h-375zM177 185l8 40h247v-40h-255zM20 0l368 563h47l-367 -563h-48z" />
    <glyph glyph-name="Ccedilla" unicode="&#xc7;" horiz-adv-x="593" 
d="M298 -10q-77 0 -138.5 33t-97 97.5t-35.5 160.5q0 97 35 162t97.5 97.5t142.5 32.5q66 0 117 -24t85.5 -69.5t46.5 -111.5h-47q-10 53 -38.5 89.5t-70 55t-93.5 18.5q-106 0 -167.5 -64t-61.5 -184q0 -124 60.5 -187.5t164.5 -63.5q57 0 101 19t71.5 55t36.5 88h49
q-12 -65 -46 -110.5t-87.5 -69.5t-124.5 -24zM214 -122l19 26q13 -14 35 -23t44 -9q23 0 38.5 10t15.5 30q0 16 -12 22.5t-27 6.5q-14 0 -30 -5.5t-29 -15.5l-22 18l38 77l28 -11l-40 -62q11 12 28.5 18.5t35.5 6.5q25 0 45 -12.5t20 -42.5q0 -35 -28.5 -53.5t-66.5 -18.5
q-23 0 -48 10t-44 28z" />
    <glyph glyph-name="Egrave" unicode="&#xc8;" horiz-adv-x="468" 
d="M58 0v563h366v-42h-320v-216h256v-40h-256v-226h329v-39h-375zM232 604l-75 99v13h44l54 -104v-8h-23z" />
    <glyph glyph-name="Eacute" unicode="&#xc9;" horiz-adv-x="468" 
d="M58 0v563h366v-42h-320v-216h256v-40h-256v-226h329v-39h-375zM246 604h-24v8l54 104h44v-13z" />
    <glyph glyph-name="Ecircumflex" unicode="&#xca;" horiz-adv-x="468" 
d="M58 0v563h366v-42h-320v-216h256v-40h-256v-226h329v-39h-375zM119 619v7l104 101h22l105 -101v-7h-46l-69 74h-2l-68 -74h-46z" />
    <glyph glyph-name="Edieresis" unicode="&#xcb;" horiz-adv-x="468" 
d="M58 0v563h366v-42h-320v-216h256v-40h-256v-226h329v-39h-375zM162 620q-24 0 -32.5 12.5t-8.5 28.5t8.5 28t32.5 12t32 -12t8 -28t-8 -28.5t-32 -12.5zM306 620q-24 0 -32.5 12.5t-8.5 28.5t8.5 28t32.5 12q25 0 32.5 -12t7.5 -28t-8 -28.5t-32 -12.5z" />
    <glyph glyph-name="Igrave" unicode="&#xcc;" horiz-adv-x="323" 
d="M135 18v527h45v-527h-45zM56 0v40h202v-40h-202zM56 522v41h202v-41h-202zM155 604l-75 99v13h44l54 -104v-8h-23z" />
    <glyph glyph-name="Iacute" unicode="&#xcd;" horiz-adv-x="323" 
d="M135 18v527h45v-527h-45zM56 0v40h202v-40h-202zM56 522v41h202v-41h-202zM169 604h-24v8l54 104h44v-13z" />
    <glyph glyph-name="Icircumflex" unicode="&#xce;" horiz-adv-x="323" 
d="M135 18v527h45v-527h-45zM56 0v40h202v-40h-202zM56 522v41h202v-41h-202zM42 619v7l104 101h22l105 -101v-7h-46l-69 74h-2l-68 -74h-46z" />
    <glyph glyph-name="Idieresis" unicode="&#xcf;" horiz-adv-x="323" 
d="M135 18v527h45v-527h-45zM56 0v40h202v-40h-202zM56 522v41h202v-41h-202zM86 620q-24 0 -32.5 12.5t-8.5 28.5t8.5 28t32.5 12t32 -12t8 -28t-8 -28.5t-32 -12.5zM230 620q-24 0 -32.5 12.5t-8.5 28.5t8.5 28t32.5 12q25 0 32.5 -12t7.5 -28t-8 -28.5t-32 -12.5z" />
    <glyph glyph-name="Eth" unicode="&#xd0;" horiz-adv-x="600" 
d="M68 0v563h100h46q101 0 175.5 -31.5t116 -93.5t41.5 -156q0 -111 -41.5 -172.5t-116 -85.5t-175.5 -24h-49h-97zM0 268v36h297v-36h-297zM114 40h71h37q62 0 113 10t88 36.5t56 74t19 121.5q0 82 -34 135t-96 79t-146 26h-108v-482z" />
    <glyph glyph-name="Ntilde" unicode="&#xd1;" horiz-adv-x="569" 
d="M465 563h45v-563h-84l-324 542h-2v-542h-45v563h79l329 -542h2v542zM177 628q-1 16 1 30.5t8 26.5t17.5 19t30.5 7q22 0 35.5 -8t22 -19t18 -19t23.5 -8q18 0 21.5 14t3.5 40h33q1 -16 -1 -31.5t-8 -27t-17.5 -18.5t-29.5 -7q-22 0 -35.5 8.5t-22.5 19t-18 18.5t-23 8
q-17 0 -21.5 -14t-3.5 -39h-34z" />
    <glyph glyph-name="Ograve" unicode="&#xd2;" horiz-adv-x="601" 
d="M293 -14q-132 0 -201 79.5t-69 214.5q0 89 30 154.5t90 102t150 36.5q132 0 200.5 -79.5t68.5 -213.5q0 -87 -30.5 -153.5t-90 -103.5t-148.5 -37zM293 29q75 0 124.5 31.5t75 88t25.5 131.5q0 76 -24.5 132t-75 87t-125.5 31q-111 0 -168 -66t-57 -184q0 -74 24 -130.5
t74.5 -88.5t126.5 -32zM298 604l-75 99v13h44l54 -104v-8h-23z" />
    <glyph glyph-name="Oacute" unicode="&#xd3;" horiz-adv-x="601" 
d="M293 -14q-132 0 -201 79.5t-69 214.5q0 89 30 154.5t90 102t150 36.5q132 0 200.5 -79.5t68.5 -213.5q0 -87 -30.5 -153.5t-90 -103.5t-148.5 -37zM293 29q75 0 124.5 31.5t75 88t25.5 131.5q0 76 -24.5 132t-75 87t-125.5 31q-111 0 -168 -66t-57 -184q0 -74 24 -130.5
t74.5 -88.5t126.5 -32zM312 604h-24v8l54 104h44v-13z" />
    <glyph glyph-name="Ocircumflex" unicode="&#xd4;" horiz-adv-x="601" 
d="M293 -14q-132 0 -201 79.5t-69 214.5q0 89 30 154.5t90 102t150 36.5q132 0 200.5 -79.5t68.5 -213.5q0 -87 -30.5 -153.5t-90 -103.5t-148.5 -37zM293 29q75 0 124.5 31.5t75 88t25.5 131.5q0 76 -24.5 132t-75 87t-125.5 31q-111 0 -168 -66t-57 -184q0 -74 24 -130.5
t74.5 -88.5t126.5 -32zM185 619v7l104 101h22l105 -101v-7h-46l-69 74h-2l-68 -74h-46z" />
    <glyph glyph-name="Otilde" unicode="&#xd5;" horiz-adv-x="601" 
d="M293 -14q-132 0 -201 79.5t-69 214.5q0 89 30 154.5t90 102t150 36.5q132 0 200.5 -79.5t68.5 -213.5q0 -87 -30.5 -153.5t-90 -103.5t-148.5 -37zM293 29q75 0 124.5 31.5t75 88t25.5 131.5q0 76 -24.5 132t-75 87t-125.5 31q-111 0 -168 -66t-57 -184q0 -74 24 -130.5
t74.5 -88.5t126.5 -32zM193 628q-1 16 1 30.5t8 26.5t17.5 19t30.5 7q22 0 35.5 -8t22 -19t18 -19t23.5 -8q18 0 21.5 14t3.5 40h33q1 -16 -1 -31.5t-8 -27t-17.5 -18.5t-29.5 -7q-22 0 -35.5 8.5t-22.5 19t-18 18.5t-23 8q-17 0 -21.5 -14t-3.5 -39h-34z" />
    <glyph glyph-name="Odieresis" unicode="&#xd6;" horiz-adv-x="601" 
d="M293 -14q-132 0 -201 79.5t-69 214.5q0 89 30 154.5t90 102t150 36.5q132 0 200.5 -79.5t68.5 -213.5q0 -87 -30.5 -153.5t-90 -103.5t-148.5 -37zM293 29q75 0 124.5 31.5t75 88t25.5 131.5q0 76 -24.5 132t-75 87t-125.5 31q-111 0 -168 -66t-57 -184q0 -74 24 -130.5
t74.5 -88.5t126.5 -32zM229 620q-24 0 -32.5 12.5t-8.5 28.5t8.5 28t32.5 12t32 -12t8 -28t-8 -28.5t-32 -12.5zM373 620q-24 0 -32.5 12.5t-8.5 28.5t8.5 28t32.5 12q25 0 32.5 -12t7.5 -28t-8 -28.5t-32 -12.5z" />
    <glyph glyph-name="multiply" unicode="&#xd7;" horiz-adv-x="362" 
d="M274 99l-94 93l-90 -91l-29 29l91 90l-90 90l29 29l89 -90l92 91l29 -28l-92 -92l92 -93z" />
    <glyph glyph-name="Oslash" unicode="&#xd8;" horiz-adv-x="600" 
d="M88 -23l424 613l22 -13l-424 -613zM293 -14q-132 0 -201 79.5t-69 214.5q0 89 30 154.5t90 102t150 36.5q132 0 200.5 -79.5t68.5 -213.5q0 -87 -30.5 -153.5t-90 -103.5t-148.5 -37zM293 29q75 0 124.5 31.5t75 88t25.5 131.5q0 76 -24.5 132t-75 87t-125.5 31
q-111 0 -168 -66t-57 -184q0 -74 24 -130.5t74.5 -88.5t126.5 -32z" />
    <glyph glyph-name="Ugrave" unicode="&#xd9;" horiz-adv-x="567" 
d="M280 -14q-109 0 -169 66.5t-60 187.5v323h46v-323q0 -53 13 -92.5t37 -66t58 -39.5t75 -13q60 0 100.5 23t62 70t21.5 118v323h45v-323q0 -123 -58.5 -188.5t-170.5 -65.5zM281 604l-75 99v13h44l54 -104v-8h-23z" />
    <glyph glyph-name="Uacute" unicode="&#xda;" horiz-adv-x="567" 
d="M280 -14q-109 0 -169 66.5t-60 187.5v323h46v-323q0 -53 13 -92.5t37 -66t58 -39.5t75 -13q60 0 100.5 23t62 70t21.5 118v323h45v-323q0 -123 -58.5 -188.5t-170.5 -65.5zM295 604h-24v8l54 104h44v-13z" />
    <glyph glyph-name="Ucircumflex" unicode="&#xdb;" horiz-adv-x="567" 
d="M280 -14q-109 0 -169 66.5t-60 187.5v323h46v-323q0 -53 13 -92.5t37 -66t58 -39.5t75 -13q60 0 100.5 23t62 70t21.5 118v323h45v-323q0 -123 -58.5 -188.5t-170.5 -65.5zM168 619v7l104 101h22l105 -101v-7h-46l-69 74h-2l-68 -74h-46z" />
    <glyph glyph-name="Udieresis" unicode="&#xdc;" horiz-adv-x="567" 
d="M280 -14q-109 0 -169 66.5t-60 187.5v323h46v-323q0 -53 13 -92.5t37 -66t58 -39.5t75 -13q60 0 100.5 23t62 70t21.5 118v323h45v-323q0 -123 -58.5 -188.5t-170.5 -65.5zM212 620q-24 0 -32.5 12.5t-8.5 28.5t8.5 28t32.5 12t32 -12t8 -28t-8 -28.5t-32 -12.5zM356 620
q-24 0 -32.5 12.5t-8.5 28.5t8.5 28t32.5 12q25 0 32.5 -12t7.5 -28t-8 -28.5t-32 -12.5z" />
    <glyph glyph-name="Yacute" unicode="&#xdd;" horiz-adv-x="422" 
d="M184 205l-193 358h50l166 -310l163 310h50l-195 -358h-41zM182 0v218h46v-218h-46zM223 604h-24v8l54 104h44v-13z" />
    <glyph glyph-name="Thorn" unicode="&#xde;" horiz-adv-x="478" 
d="M112 0h-45v563h45v-563zM104 454h165q92 0 139 -43.5t47 -130.5q0 -83 -48.5 -127t-137.5 -44h-166v39h163q72 0 109.5 32.5t37.5 99.5q0 69 -37 101.5t-110 32.5h-162v40z" />
    <glyph glyph-name="germandbls" unicode="&#xdf;" horiz-adv-x="500" 
d="M300 -10q-33 0 -60 8t-47.5 23.5t-34 36t-19.5 45.5h41q0 -1 5 -12t18 -25t35.5 -24.5t58.5 -10.5q40 0 71.5 15t50 41.5t18.5 59.5q0 38 -21 61t-51 37.5t-60 25.5t-50.5 25.5t-20.5 37.5q0 19 12.5 30.5t31 20t37.5 18.5t32 25t13 40q0 18 -10 29t-28 16.5t-42 7.5
t-53 2h-128v-523h-44v563h172q24 0 54 -1t58 -8t46 -24.5t18 -51.5q0 -31 -13.5 -50.5t-33 -31t-39 -20t-33 -17.5t-13.5 -24q0 -17 21 -28t52 -21.5t62 -27t52.5 -44t21.5 -72.5q0 -44 -24.5 -78.5t-65 -54t-90.5 -19.5z" />
    <glyph glyph-name="agrave" unicode="&#xe0;" horiz-adv-x="413" 
d="M183 -9q-56 0 -93 28t-55 75.5t-18 105.5q0 61 18.5 108t56 74.5t91.5 27.5q30 0 53 -8t41 -21t30.5 -29.5t19.5 -35.5h1v90h47v-406h-38l-8 84h-2q-8 -18 -20.5 -34.5t-30.5 -30t-41 -21t-52 -7.5zM200 33q43 0 71.5 20t42.5 57.5t14 88.5q0 56 -15 92.5t-43.5 55.5
t-69.5 19q-47 0 -77.5 -22t-45 -59t-14.5 -85q0 -49 15 -87t45.5 -59t76.5 -21zM204 447l-75 99v13h44l54 -104v-8h-23z" />
    <glyph glyph-name="aacute" unicode="&#xe1;" horiz-adv-x="413" 
d="M183 -9q-56 0 -93 28t-55 75.5t-18 105.5q0 61 18.5 108t56 74.5t91.5 27.5q30 0 53 -8t41 -21t30.5 -29.5t19.5 -35.5h1v90h47v-406h-38l-8 84h-2q-8 -18 -20.5 -34.5t-30.5 -30t-41 -21t-52 -7.5zM200 33q43 0 71.5 20t42.5 57.5t14 88.5q0 56 -15 92.5t-43.5 55.5
t-69.5 19q-47 0 -77.5 -22t-45 -59t-14.5 -85q0 -49 15 -87t45.5 -59t76.5 -21zM218 447h-24v8l54 104h44v-13z" />
    <glyph glyph-name="acircumflex" unicode="&#xe2;" horiz-adv-x="413" 
d="M183 -9q-56 0 -93 28t-55 75.5t-18 105.5q0 61 18.5 108t56 74.5t91.5 27.5q30 0 53 -8t41 -21t30.5 -29.5t19.5 -35.5h1v90h47v-406h-38l-8 84h-2q-8 -18 -20.5 -34.5t-30.5 -30t-41 -21t-52 -7.5zM200 33q43 0 71.5 20t42.5 57.5t14 88.5q0 56 -15 92.5t-43.5 55.5
t-69.5 19q-47 0 -77.5 -22t-45 -59t-14.5 -85q0 -49 15 -87t45.5 -59t76.5 -21zM91 462v7l104 101h22l105 -101v-7h-46l-69 74h-2l-68 -74h-46z" />
    <glyph glyph-name="atilde" unicode="&#xe3;" horiz-adv-x="413" 
d="M183 -9q-56 0 -93 28t-55 75.5t-18 105.5q0 61 18.5 108t56 74.5t91.5 27.5q30 0 53 -8t41 -21t30.5 -29.5t19.5 -35.5h1v90h47v-406h-38l-8 84h-2q-8 -18 -20.5 -34.5t-30.5 -30t-41 -21t-52 -7.5zM200 33q43 0 71.5 20t42.5 57.5t14 88.5q0 56 -15 92.5t-43.5 55.5
t-69.5 19q-47 0 -77.5 -22t-45 -59t-14.5 -85q0 -49 15 -87t45.5 -59t76.5 -21zM99 471q-1 16 1 30.5t8 26.5t17.5 19t30.5 7q22 0 35.5 -8t22 -19t18 -19t23.5 -8q18 0 21.5 14t3.5 40h33q1 -16 -1 -31.5t-8 -27t-17.5 -18.5t-29.5 -7q-22 0 -35.5 8.5t-22.5 19t-18 18.5
t-23 8q-17 0 -21.5 -14t-3.5 -39h-34z" />
    <glyph glyph-name="adieresis" unicode="&#xe4;" horiz-adv-x="413" 
d="M183 -9q-56 0 -93 28t-55 75.5t-18 105.5q0 61 18.5 108t56 74.5t91.5 27.5q30 0 53 -8t41 -21t30.5 -29.5t19.5 -35.5h1v90h47v-406h-38l-8 84h-2q-8 -18 -20.5 -34.5t-30.5 -30t-41 -21t-52 -7.5zM200 33q43 0 71.5 20t42.5 57.5t14 88.5q0 56 -15 92.5t-43.5 55.5
t-69.5 19q-47 0 -77.5 -22t-45 -59t-14.5 -85q0 -49 15 -87t45.5 -59t76.5 -21zM135 463q-24 0 -32.5 12.5t-8.5 28.5t8.5 28t32.5 12t32 -12t8 -28t-8 -28.5t-32 -12.5zM279 463q-24 0 -32.5 12.5t-8.5 28.5t8.5 28t32.5 12q25 0 32.5 -12t7.5 -28t-8 -28.5t-32 -12.5z" />
    <glyph glyph-name="aring" unicode="&#xe5;" horiz-adv-x="413" 
d="M183 -9q-56 0 -93 28t-55 75.5t-18 105.5q0 61 18.5 108t56 74.5t91.5 27.5q30 0 53 -8t41 -21t30.5 -29.5t19.5 -35.5h1v90h47v-406h-38l-8 84h-2q-8 -18 -20.5 -34.5t-30.5 -30t-41 -21t-52 -7.5zM200 33q43 0 71.5 20t42.5 57.5t14 88.5q0 56 -15 92.5t-43.5 55.5
t-69.5 19q-47 0 -77.5 -22t-45 -59t-14.5 -85q0 -49 15 -87t45.5 -59t76.5 -21zM205 466q-40 0 -63.5 23t-23.5 62q0 40 23 64t64 24t65 -24t24 -64q0 -36 -24 -60.5t-65 -24.5zM205 495q27 0 42 17t15 41q0 23 -15 40t-42 17t-42 -17t-15 -40q0 -25 16.5 -41.5t40.5 -16.5z
" />
    <glyph glyph-name="ae" unicode="&#xe6;" horiz-adv-x="733" 
d="M150 0q-55 0 -88 28.5t-33 74.5q0 36 16.5 58t44 36t60 22.5t64.5 15.5q45 10 68 17t31 16t8 23q0 28 -15.5 47.5t-40.5 29.5t-54 10q-26 0 -52.5 -9.5t-44.5 -29.5t-20 -51h-45q6 44 30.5 72t60.5 41.5t73 13.5q48 0 89 -21.5t53 -66.5q23 39 62 64t97 25q50 0 89 -22.5
t63 -63.5t27 -96l1 -25h-327q0 -77 38 -122.5t108 -45.5q52 0 89 27t47 73l45 -4q-9 -40 -34 -71t-62.5 -48.5t-83.5 -17.5q-55 0 -93.5 21.5t-61.5 57.5t-32 78q-4 -33 -18.5 -61t-37.5 -49.5t-53.5 -34t-67.5 -12.5zM160 38q53 0 88 28t52.5 74t17.5 100q-12 -9 -37 -15.5
t-55 -14.5q-40 -9 -74.5 -20t-55.5 -30t-21 -53q1 -32 24.5 -50.5t60.5 -18.5zM369 241h278q-1 19 -8.5 43t-23 45.5t-41 35.5t-61.5 14q-33 0 -58 -11t-43 -30.5t-29 -44t-14 -52.5z" />
    <glyph glyph-name="ccedilla" unicode="&#xe7;" horiz-adv-x="444" 
d="M220 -10q-57 0 -100.5 24t-68.5 70t-25 109q2 64 26.5 112t68.5 74.5t102 26.5q50 0 88 -18.5t62.5 -50.5t31.5 -73h-43q-10 47 -47 73.5t-91 26.5q-46 0 -80 -21.5t-53 -59.5t-20 -88q0 -74 40.5 -118.5t109.5 -44.5q54 0 92.5 27t48.5 74h43q-7 -41 -32.5 -73t-64 -51
t-88.5 -19zM140 -122l19 26q13 -14 35 -23t44 -9q23 0 38.5 10t15.5 30q0 16 -12 22.5t-27 6.5q-14 0 -30 -5.5t-29 -15.5l-22 18l38 77l28 -11l-40 -62q11 12 28.5 18.5t35.5 6.5q25 0 45 -12.5t20 -42.5q0 -35 -28.5 -53.5t-66.5 -18.5q-23 0 -48 10t-44 28z" />
    <glyph glyph-name="egrave" unicode="&#xe8;" horiz-adv-x="445" 
d="M220 -10q-65 0 -107.5 31t-63.5 79.5t-20 100.5q0 54 22 101t64.5 75.5t103.5 28.5q51 0 90.5 -22.5t63.5 -63t27 -96.5q1 -5 1 -12v-13h-328q0 -77 38.5 -123t108.5 -46q51 0 88.5 27t46.5 73h45q-7 -41 -32 -72.5t-63 -49.5t-85 -18zM76 229h278q-1 19 -8.5 42.5
t-23.5 45.5t-41.5 36t-61.5 14q-33 0 -58 -11.5t-42.5 -30.5t-28 -43.5t-14.5 -52.5zM220 447l-75 99v13h44l54 -104v-8h-23z" />
    <glyph glyph-name="eacute" unicode="&#xe9;" horiz-adv-x="445" 
d="M220 -10q-65 0 -107.5 31t-63.5 79.5t-20 100.5q0 54 22 101t64.5 75.5t103.5 28.5q51 0 90.5 -22.5t63.5 -63t27 -96.5q1 -5 1 -12v-13h-328q0 -77 38.5 -123t108.5 -46q51 0 88.5 27t46.5 73h45q-7 -41 -32 -72.5t-63 -49.5t-85 -18zM76 229h278q-1 19 -8.5 42.5
t-23.5 45.5t-41.5 36t-61.5 14q-33 0 -58 -11.5t-42.5 -30.5t-28 -43.5t-14.5 -52.5zM234 447h-24v8l54 104h44v-13z" />
    <glyph glyph-name="ecircumflex" unicode="&#xea;" horiz-adv-x="445" 
d="M220 -10q-65 0 -107.5 31t-63.5 79.5t-20 100.5q0 54 22 101t64.5 75.5t103.5 28.5q51 0 90.5 -22.5t63.5 -63t27 -96.5q1 -5 1 -12v-13h-328q0 -77 38.5 -123t108.5 -46q51 0 88.5 27t46.5 73h45q-7 -41 -32 -72.5t-63 -49.5t-85 -18zM76 229h278q-1 19 -8.5 42.5
t-23.5 45.5t-41.5 36t-61.5 14q-33 0 -58 -11.5t-42.5 -30.5t-28 -43.5t-14.5 -52.5zM107 462v7l104 101h22l105 -101v-7h-46l-69 74h-2l-68 -74h-46z" />
    <glyph glyph-name="edieresis" unicode="&#xeb;" horiz-adv-x="445" 
d="M220 -10q-65 0 -107.5 31t-63.5 79.5t-20 100.5q0 54 22 101t64.5 75.5t103.5 28.5q51 0 90.5 -22.5t63.5 -63t27 -96.5q1 -5 1 -12v-13h-328q0 -77 38.5 -123t108.5 -46q51 0 88.5 27t46.5 73h45q-7 -41 -32 -72.5t-63 -49.5t-85 -18zM76 229h278q-1 19 -8.5 42.5
t-23.5 45.5t-41.5 36t-61.5 14q-33 0 -58 -11.5t-42.5 -30.5t-28 -43.5t-14.5 -52.5zM151 463q-24 0 -32.5 12.5t-8.5 28.5t8.5 28t32.5 12t32 -12t8 -28t-8 -28.5t-32 -12.5zM295 463q-24 0 -32.5 12.5t-8.5 28.5t8.5 28t32.5 12q25 0 32.5 -12t7.5 -28t-8 -28.5t-32 -12.5
z" />
    <glyph glyph-name="igrave" unicode="&#xec;" horiz-adv-x="153" 
d="M53 0v406h45v-406h-45zM73 447l-75 99v13h44l54 -104v-8h-23z" />
    <glyph glyph-name="iacute" unicode="&#xed;" horiz-adv-x="153" 
d="M53 0v406h45v-406h-45zM87 447h-24v8l54 104h44v-13z" />
    <glyph glyph-name="icircumflex" unicode="&#xee;" horiz-adv-x="153" 
d="M53 0v406h45v-406h-45zM-40 462v7l104 101h22l105 -101v-7h-46l-69 74h-2l-68 -74h-46z" />
    <glyph glyph-name="idieresis" unicode="&#xef;" horiz-adv-x="153" 
d="M53 0v406h45v-406h-45zM4 463q-24 0 -32.5 12.5t-8.5 28.5t8.5 28t32.5 12t32 -12t8 -28t-8 -28.5t-32 -12.5zM148 463q-24 0 -32.5 12.5t-8.5 28.5t8.5 28t32.5 12q25 0 32.5 -12t7.5 -28t-8 -28.5t-32 -12.5z" />
    <glyph glyph-name="eth" unicode="&#xf0;" horiz-adv-x="483" 
d="M246 -10q-68 0 -114 31.5t-69 80t-23 99.5q0 49 19.5 91t58.5 68.5t97 26.5q41 0 73 -15t53.5 -37.5t35.5 -44.5t20 -37.5t6 -16.5h2q-5 40 -19.5 80t-37 78t-50 69.5t-57 54.5t-60.5 34l25 39q57 -22 101 -62t74 -92t46 -109t16 -111q0 -62 -21 -113t-64.5 -82.5
t-111.5 -31.5zM400 159q-1 62 -28 104t-68 63.5t-83 21.5q-37 0 -68.5 -16t-50.5 -48.5t-19 -84.5q0 -55 25 -93t63.5 -58t78.5 -20q50 0 94 32t56 99zM236 425l-18 23l183 111l18 -24z" />
    <glyph glyph-name="ntilde" unicode="&#xf1;" horiz-adv-x="436" 
d="M39 0v406h38l8 -108h2q2 7 10 24t25 36.5t45 33.5t70 14t69.5 -12t45 -32.5t26.5 -47t12 -55.5t3 -58v-201h-45v201q0 50 -11 86.5t-37 56.5t-72 20q-49 0 -80.5 -24t-47 -63t-15.5 -85v-192h-46zM110 471q-1 16 1 30.5t8 26.5t17.5 19t30.5 7q22 0 35.5 -8t22 -19
t18 -19t23.5 -8q18 0 21.5 14t3.5 40h33q1 -16 -1 -31.5t-8 -27t-17.5 -18.5t-29.5 -7q-22 0 -35.5 8.5t-22.5 19t-18 18.5t-23 8q-17 0 -21.5 -14t-3.5 -39h-34z" />
    <glyph glyph-name="ograve" unicode="&#xf2;" horiz-adv-x="450" 
d="M218 -10q-63 0 -105.5 26.5t-63.5 73.5t-21 107q0 61 21 108.5t63.5 74t105.5 26.5q92 0 140.5 -57.5t48.5 -151.5q0 -58 -20 -105.5t-62 -74.5t-107 -27zM218 31q56 0 87 25t43.5 63.5t12.5 78.5q0 41 -12.5 79.5t-43.5 63.5t-87 25q-55 0 -87 -25t-44.5 -63.5
t-12.5 -79.5q0 -40 12.5 -78.5t44.5 -63.5t87 -25zM222 447l-75 99v13h44l54 -104v-8h-23z" />
    <glyph glyph-name="oacute" unicode="&#xf3;" horiz-adv-x="450" 
d="M218 -10q-63 0 -105.5 26.5t-63.5 73.5t-21 107q0 61 21 108.5t63.5 74t105.5 26.5q92 0 140.5 -57.5t48.5 -151.5q0 -58 -20 -105.5t-62 -74.5t-107 -27zM218 31q56 0 87 25t43.5 63.5t12.5 78.5q0 41 -12.5 79.5t-43.5 63.5t-87 25q-55 0 -87 -25t-44.5 -63.5
t-12.5 -79.5q0 -40 12.5 -78.5t44.5 -63.5t87 -25zM236 447h-24v8l54 104h44v-13z" />
    <glyph glyph-name="ocircumflex" unicode="&#xf4;" horiz-adv-x="450" 
d="M218 -10q-63 0 -105.5 26.5t-63.5 73.5t-21 107q0 61 21 108.5t63.5 74t105.5 26.5q92 0 140.5 -57.5t48.5 -151.5q0 -58 -20 -105.5t-62 -74.5t-107 -27zM218 31q56 0 87 25t43.5 63.5t12.5 78.5q0 41 -12.5 79.5t-43.5 63.5t-87 25q-55 0 -87 -25t-44.5 -63.5
t-12.5 -79.5q0 -40 12.5 -78.5t44.5 -63.5t87 -25zM109 462v7l104 101h22l105 -101v-7h-46l-69 74h-2l-68 -74h-46z" />
    <glyph glyph-name="otilde" unicode="&#xf5;" horiz-adv-x="450" 
d="M218 -10q-63 0 -105.5 26.5t-63.5 73.5t-21 107q0 61 21 108.5t63.5 74t105.5 26.5q92 0 140.5 -57.5t48.5 -151.5q0 -58 -20 -105.5t-62 -74.5t-107 -27zM218 31q56 0 87 25t43.5 63.5t12.5 78.5q0 41 -12.5 79.5t-43.5 63.5t-87 25q-55 0 -87 -25t-44.5 -63.5
t-12.5 -79.5q0 -40 12.5 -78.5t44.5 -63.5t87 -25zM117 471q-1 16 1 30.5t8 26.5t17.5 19t30.5 7q22 0 35.5 -8t22 -19t18 -19t23.5 -8q18 0 21.5 14t3.5 40h33q1 -16 -1 -31.5t-8 -27t-17.5 -18.5t-29.5 -7q-22 0 -35.5 8.5t-22.5 19t-18 18.5t-23 8q-17 0 -21.5 -14
t-3.5 -39h-34z" />
    <glyph glyph-name="odieresis" unicode="&#xf6;" horiz-adv-x="450" 
d="M218 -10q-63 0 -105.5 26.5t-63.5 73.5t-21 107q0 61 21 108.5t63.5 74t105.5 26.5q92 0 140.5 -57.5t48.5 -151.5q0 -58 -20 -105.5t-62 -74.5t-107 -27zM218 31q56 0 87 25t43.5 63.5t12.5 78.5q0 41 -12.5 79.5t-43.5 63.5t-87 25q-55 0 -87 -25t-44.5 -63.5
t-12.5 -79.5q0 -40 12.5 -78.5t44.5 -63.5t87 -25zM153 463q-24 0 -32.5 12.5t-8.5 28.5t8.5 28t32.5 12t32 -12t8 -28t-8 -28.5t-32 -12.5zM297 463q-24 0 -32.5 12.5t-8.5 28.5t8.5 28t32.5 12q25 0 32.5 -12t7.5 -28t-8 -28.5t-32 -12.5z" />
    <glyph glyph-name="divide" unicode="&#xf7;" horiz-adv-x="362" 
d="M70 205v38h222v-38h-222zM182 280q-15 0 -23 9.5t-8 24.5q0 14 8 24t23 10t23 -9.5t8 -25.5q0 -13 -7.5 -23t-23.5 -10zM182 101q-15 0 -23 9.5t-8 24.5t8 24.5t23 9.5t23 -9.5t8 -24.5q0 -14 -7.5 -24t-23.5 -10z" />
    <glyph glyph-name="oslash" unicode="&#xf8;" horiz-adv-x="444" 
d="M58 -23l290 461l23 -12l-291 -462zM218 -10q-63 0 -105.5 26.5t-63.5 73.5t-21 107q0 61 21 108.5t63.5 74t105.5 26.5q92 0 140.5 -57.5t48.5 -151.5q0 -58 -20 -105.5t-62 -74.5t-107 -27zM218 31q56 0 87 25t43.5 63.5t12.5 78.5q0 41 -12.5 79.5t-43.5 63.5t-87 25
q-55 0 -87 -25t-44.5 -63.5t-12.5 -79.5q0 -40 12.5 -78.5t44.5 -63.5t87 -25z" />
    <glyph glyph-name="ugrave" unicode="&#xf9;" horiz-adv-x="438" 
d="M194 -10q-38 0 -65.5 11t-45.5 30.5t-28 45t-14 55.5t-4 62v212h45v-212q0 -45 9.5 -82t36.5 -58.5t77 -21.5q48 0 76.5 22.5t42.5 58t16 75.5v218h47v-406h-38l-8 97h-2q-5 -16 -16 -34t-28.5 -35t-42.5 -27.5t-58 -10.5zM216 447l-75 99v13h44l54 -104v-8h-23z" />
    <glyph glyph-name="uacute" unicode="&#xfa;" horiz-adv-x="438" 
d="M194 -10q-38 0 -65.5 11t-45.5 30.5t-28 45t-14 55.5t-4 62v212h45v-212q0 -45 9.5 -82t36.5 -58.5t77 -21.5q48 0 76.5 22.5t42.5 58t16 75.5v218h47v-406h-38l-8 97h-2q-5 -16 -16 -34t-28.5 -35t-42.5 -27.5t-58 -10.5zM230 447h-24v8l54 104h44v-13z" />
    <glyph glyph-name="ucircumflex" unicode="&#xfb;" horiz-adv-x="438" 
d="M194 -10q-38 0 -65.5 11t-45.5 30.5t-28 45t-14 55.5t-4 62v212h45v-212q0 -45 9.5 -82t36.5 -58.5t77 -21.5q48 0 76.5 22.5t42.5 58t16 75.5v218h47v-406h-38l-8 97h-2q-5 -16 -16 -34t-28.5 -35t-42.5 -27.5t-58 -10.5zM103 462v7l104 101h22l105 -101v-7h-46l-69 74
h-2l-68 -74h-46z" />
    <glyph glyph-name="udieresis" unicode="&#xfc;" horiz-adv-x="438" 
d="M194 -10q-38 0 -65.5 11t-45.5 30.5t-28 45t-14 55.5t-4 62v212h45v-212q0 -45 9.5 -82t36.5 -58.5t77 -21.5q48 0 76.5 22.5t42.5 58t16 75.5v218h47v-406h-38l-8 97h-2q-5 -16 -16 -34t-28.5 -35t-42.5 -27.5t-58 -10.5zM147 463q-24 0 -32.5 12.5t-8.5 28.5t8.5 28
t32.5 12t32 -12t8 -28t-8 -28.5t-32 -12.5zM291 463q-24 0 -32.5 12.5t-8.5 28.5t8.5 28t32.5 12q25 0 32.5 -12t7.5 -28t-8 -28.5t-32 -12.5z" />
    <glyph glyph-name="yacute" unicode="&#xfd;" horiz-adv-x="391" 
d="M-4 -178v38h52q14 0 23 5t18.5 18.5t21.5 39.5l50 109l-159 374h48l135 -324l143 324h49l-226 -491q-13 -30 -24 -48.5t-22 -28.5t-24.5 -13t-30.5 -3h-54zM207 447h-24v8l54 104h44v-13z" />
    <glyph glyph-name="thorn" unicode="&#xfe;" horiz-adv-x="466" 
d="M254 -10q-37 0 -64.5 12.5t-46 31.5t-29 36t-15 27t-2.5 5v187q-1 -2 6 15t24 41t48 42.5t79 18.5q60 0 99.5 -30t59.5 -77t20 -99t-19 -100.5t-58.5 -79t-101.5 -30.5zM50 -199v762h47v-444v-318h-47zM244 30q49 0 80.5 25t46 63.5t14.5 79.5q0 42 -16.5 80t-49 62
t-81.5 24q-41 0 -73.5 -21.5t-50.5 -59t-18 -85.5q0 -47 19 -85t52.5 -60.5t76.5 -22.5z" />
    <glyph glyph-name="ydieresis" unicode="&#xff;" horiz-adv-x="391" 
d="M-4 -178v38h52q14 0 23 5t18.5 18.5t21.5 39.5l50 109l-159 374h48l135 -324l143 324h49l-226 -491q-13 -30 -24 -48.5t-22 -28.5t-24.5 -13t-30.5 -3h-54zM123 463q-24 0 -32.5 12.5t-8.5 28.5t8.5 28t32.5 12t32 -12t8 -28t-8 -28.5t-32 -12.5zM267 463
q-24 0 -32.5 12.5t-8.5 28.5t8.5 28t32.5 12q25 0 32.5 -12t7.5 -28t-8 -28.5t-32 -12.5z" />
    <glyph glyph-name="Amacron" unicode="&#x100;" horiz-adv-x="529" 
d="M20 0l207 563h75l209 -563h-48l-198 542l-199 -542h-46zM121 185l9 40h270l8 -40h-287zM147 626v38h235v-38h-235z" />
    <glyph glyph-name="amacron" unicode="&#x101;" horiz-adv-x="413" 
d="M183 -9q-56 0 -93 28t-55 75.5t-18 105.5q0 61 18.5 108t56 74.5t91.5 27.5q30 0 53 -8t41 -21t30.5 -29.5t19.5 -35.5h1v90h47v-406h-38l-8 84h-2q-8 -18 -20.5 -34.5t-30.5 -30t-41 -21t-52 -7.5zM200 33q43 0 71.5 20t42.5 57.5t14 88.5q0 56 -15 92.5t-43.5 55.5
t-69.5 19q-47 0 -77.5 -22t-45 -59t-14.5 -85q0 -49 15 -87t45.5 -59t76.5 -21zM89 469v38h235v-38h-235z" />
    <glyph glyph-name="Abreve" unicode="&#x102;" horiz-adv-x="529" 
d="M20 0l207 563h75l209 -563h-48l-198 542l-199 -542h-46zM121 185l9 40h270l8 -40h-287zM266 617q-51 0 -81 23t-30 60h35q0 -32 22 -41t53 -9q30 0 52 8.5t22 41.5h35q0 -37 -28.5 -60t-79.5 -23z" />
    <glyph glyph-name="abreve" unicode="&#x103;" horiz-adv-x="413" 
d="M183 -9q-56 0 -93 28t-55 75.5t-18 105.5q0 61 18.5 108t56 74.5t91.5 27.5q30 0 53 -8t41 -21t30.5 -29.5t19.5 -35.5h1v90h47v-406h-38l-8 84h-2q-8 -18 -20.5 -34.5t-30.5 -30t-41 -21t-52 -7.5zM200 33q43 0 71.5 20t42.5 57.5t14 88.5q0 56 -15 92.5t-43.5 55.5
t-69.5 19q-47 0 -77.5 -22t-45 -59t-14.5 -85q0 -49 15 -87t45.5 -59t76.5 -21zM208 460q-51 0 -81 23t-30 60h35q0 -32 22 -41t53 -9q30 0 52 8.5t22 41.5h35q0 -37 -28.5 -60t-79.5 -23z" />
    <glyph glyph-name="Aogonek" unicode="&#x104;" horiz-adv-x="529" 
d="M456 -195q-24 0 -42.5 10t-29 27.5t-10.5 40.5q0 27 13 48.5t32.5 38.5t38.5 28.5t32 17l13 5.5l8 -21l-15 -7.5t-35 -22.5t-35 -36t-15 -46q0 -20 12 -33.5t35 -13.5q20 0 30 8.5t14 16.5l4 8l31 -23l-8.5 -11.5t-26.5 -23t-46 -11.5zM20 0l207 563h75l209 -563h-48
l-198 542l-199 -542h-46zM121 185l9 40h270l8 -40h-287z" />
    <glyph glyph-name="aogonek" unicode="&#x105;" horiz-adv-x="413" 
d="M183 -9q-56 0 -93 28t-55 75.5t-18 105.5q0 61 18.5 108t56 74.5t91.5 27.5q30 0 53 -8t41 -21t30.5 -29.5t19.5 -35.5h1v90h47v-406h-38l-8 84h-2q-8 -18 -20.5 -34.5t-30.5 -30t-41 -21t-52 -7.5zM200 33q43 0 71.5 20t42.5 57.5t14 88.5q0 56 -15 92.5t-43.5 55.5
t-69.5 19q-47 0 -77.5 -22t-45 -59t-14.5 -85q0 -49 15 -87t45.5 -59t76.5 -21zM328 -199q-24 0 -42.5 10t-29 27.5t-10.5 40.5q0 27 13 48.5t32 38.5t38.5 28.5t32.5 17l13 5.5v-21l-14 -8t-32.5 -22.5t-32 -35.5t-13.5 -46q0 -20 12.5 -33.5t34.5 -13.5q20 0 30 8.5
t14.5 16.5l4.5 8l30 -23l-8.5 -11.5t-26.5 -23t-46 -11.5z" />
    <glyph glyph-name="Cacute" unicode="&#x106;" horiz-adv-x="593" 
d="M298 -10q-77 0 -138.5 33t-97 97.5t-35.5 160.5q0 97 35 162t97.5 97.5t142.5 32.5q66 0 117 -24t85.5 -69.5t46.5 -111.5h-47q-10 53 -38.5 89.5t-70 55t-93.5 18.5q-106 0 -167.5 -64t-61.5 -184q0 -124 60.5 -187.5t164.5 -63.5q57 0 101 19t71.5 55t36.5 88h49
q-12 -65 -46 -110.5t-87.5 -69.5t-124.5 -24zM308 604h-24v8l54 104h44v-13z" />
    <glyph glyph-name="cacute" unicode="&#x107;" horiz-adv-x="444" 
d="M220 -10q-57 0 -100.5 24t-68.5 70t-25 109q2 64 26.5 112t68.5 74.5t102 26.5q50 0 88 -18.5t62.5 -50.5t31.5 -73h-43q-10 47 -47 73.5t-91 26.5q-46 0 -80 -21.5t-53 -59.5t-20 -88q0 -74 40.5 -118.5t109.5 -44.5q54 0 92.5 27t48.5 74h43q-7 -41 -32.5 -73t-64 -51
t-88.5 -19zM234 447h-24v8l54 104h44v-13z" />
    <glyph glyph-name="Cdotaccent" unicode="&#x10a;" horiz-adv-x="593" 
d="M298 -10q-77 0 -138.5 33t-97 97.5t-35.5 160.5q0 97 35 162t97.5 97.5t142.5 32.5q66 0 117 -24t85.5 -69.5t46.5 -111.5h-47q-10 53 -38.5 89.5t-70 55t-93.5 18.5q-106 0 -167.5 -64t-61.5 -184q0 -124 60.5 -187.5t164.5 -63.5q57 0 101 19t71.5 55t36.5 88h49
q-12 -65 -46 -110.5t-87.5 -69.5t-124.5 -24zM297 628q-20 0 -27.5 10.5t-7.5 24.5t7.5 24t27.5 10q21 0 27.5 -10t6.5 -24t-6.5 -24.5t-27.5 -10.5z" />
    <glyph glyph-name="cdotaccent" unicode="&#x10b;" horiz-adv-x="444" 
d="M220 -10q-57 0 -100.5 24t-68.5 70t-25 109q2 64 26.5 112t68.5 74.5t102 26.5q50 0 88 -18.5t62.5 -50.5t31.5 -73h-43q-10 47 -47 73.5t-91 26.5q-46 0 -80 -21.5t-53 -59.5t-20 -88q0 -74 40.5 -118.5t109.5 -44.5q54 0 92.5 27t48.5 74h43q-7 -41 -32.5 -73t-64 -51
t-88.5 -19zM222 471q-20 0 -27.5 10.5t-7.5 24.5t7.5 24t27.5 10q21 0 27.5 -10t6.5 -24t-6.5 -24.5t-27.5 -10.5z" />
    <glyph glyph-name="Ccaron" unicode="&#x10c;" horiz-adv-x="593" 
d="M298 -10q-77 0 -138.5 33t-97 97.5t-35.5 160.5q0 97 35 162t97.5 97.5t142.5 32.5q66 0 117 -24t85.5 -69.5t46.5 -111.5h-47q-10 53 -38.5 89.5t-70 55t-93.5 18.5q-106 0 -167.5 -64t-61.5 -184q0 -124 60.5 -187.5t164.5 -63.5q57 0 101 19t71.5 55t36.5 88h49
q-12 -65 -46 -110.5t-87.5 -69.5t-124.5 -24zM285 604l-105 107v7h47l67 -81h3l68 81h46v-7l-105 -107h-21z" />
    <glyph glyph-name="ccaron" unicode="&#x10d;" horiz-adv-x="444" 
d="M220 -10q-57 0 -100.5 24t-68.5 70t-25 109q2 64 26.5 112t68.5 74.5t102 26.5q50 0 88 -18.5t62.5 -50.5t31.5 -73h-43q-10 47 -47 73.5t-91 26.5q-46 0 -80 -21.5t-53 -59.5t-20 -88q0 -74 40.5 -118.5t109.5 -44.5q54 0 92.5 27t48.5 74h43q-7 -41 -32.5 -73t-64 -51
t-88.5 -19zM211 447l-105 107v7h47l67 -81h3l68 81h46v-7l-105 -107h-21z" />
    <glyph glyph-name="Dcaron" unicode="&#x10e;" horiz-adv-x="578" 
d="M114 40v482h108q84 0 146 -26t96 -79t34 -135q0 -74 -19 -121.5t-56 -74t-88 -36.5t-113 -10h-37h-71zM547 282q0 94 -41.5 156t-116 93.5t-175.5 31.5h-46h-100v-563h97h49q101 0 175.5 24t116 85.5t41.5 172.5zM254 604l-105 107v7h47l67 -81h3l68 81h46v-7l-105 -107
h-21z" />
    <glyph glyph-name="dcaron" unicode="&#x10f;" horiz-adv-x="537" 
d="M229 -10q-58 0 -98.5 28t-61.5 75t-21 105q0 59 21.5 106t62 74.5t98.5 27.5q41 0 70 -14t46 -34t25.5 -37.5t11.5 -24.5h2v267h47v-563h-38l-8 98h-2q-3 -5 -12.5 -22.5t-27.5 -37.5t-46.5 -34t-68.5 -14zM235 33q41 0 74.5 19t53.5 56.5t20 89.5t-18.5 88.5t-50.5 56
t-72 19.5q-50 0 -83 -23.5t-49.5 -61t-16.5 -79.5q0 -41 14.5 -79.5t46 -62t81.5 -23.5zM473 432l35 141h47l-55 -141h-27z" />
    <glyph glyph-name="Dcroat" unicode="&#x110;" horiz-adv-x="600" 
d="M68 0v563h100h46q101 0 175.5 -31.5t116 -93.5t41.5 -156q0 -111 -41.5 -172.5t-116 -85.5t-175.5 -24h-49h-97zM0 268v36h297v-36h-297zM114 40h71h37q62 0 113 10t88 36.5t56 74t19 121.5q0 82 -34 135t-96 79t-146 26h-108v-482z" />
    <glyph glyph-name="dcroat" unicode="&#x111;" horiz-adv-x="481" 
d="M228 -10q-58 0 -98.5 28t-61.5 75t-21 105q0 59 21.5 106t62 74.5t98.5 27.5q41 0 70 -14t46.5 -34t26 -37.5t10.5 -24.5h2v267h48v-563h-39l-8 98h-2q-3 -5 -12 -22.5t-27.5 -37.5t-47 -34t-68.5 -14zM235 33q41 0 74.5 19t53 56.5t19.5 89.5t-18.5 88.5t-50.5 56
t-72 19.5q-50 0 -83 -23.5t-49.5 -61t-16.5 -79.5q0 -41 14.5 -79.5t46.5 -62t82 -23.5zM248 470v34h232v-34h-232z" />
    <glyph glyph-name="Emacron" unicode="&#x112;" horiz-adv-x="468" 
d="M58 0v563h366v-42h-320v-216h256v-40h-256v-226h329v-39h-375zM117 626v38h235v-38h-235z" />
    <glyph glyph-name="emacron" unicode="&#x113;" horiz-adv-x="445" 
d="M220 -10q-65 0 -107.5 31t-63.5 79.5t-20 100.5q0 54 22 101t64.5 75.5t103.5 28.5q51 0 90.5 -22.5t63.5 -63t27 -96.5q1 -5 1 -12v-13h-328q0 -77 38.5 -123t108.5 -46q51 0 88.5 27t46.5 73h45q-7 -41 -32 -72.5t-63 -49.5t-85 -18zM76 229h278q-1 19 -8.5 42.5
t-23.5 45.5t-41.5 36t-61.5 14q-33 0 -58 -11.5t-42.5 -30.5t-28 -43.5t-14.5 -52.5zM105 469v38h235v-38h-235z" />
    <glyph glyph-name="Edotaccent" unicode="&#x116;" horiz-adv-x="468" 
d="M58 0v563h366v-42h-320v-216h256v-40h-256v-226h329v-39h-375zM235 628q-20 0 -27.5 10.5t-7.5 24.5t7.5 24t27.5 10q21 0 27.5 -10t6.5 -24t-6.5 -24.5t-27.5 -10.5z" />
    <glyph glyph-name="edotaccent" unicode="&#x117;" horiz-adv-x="445" 
d="M220 -10q-65 0 -107.5 31t-63.5 79.5t-20 100.5q0 54 22 101t64.5 75.5t103.5 28.5q51 0 90.5 -22.5t63.5 -63t27 -96.5q1 -5 1 -12v-13h-328q0 -77 38.5 -123t108.5 -46q51 0 88.5 27t46.5 73h45q-7 -41 -32 -72.5t-63 -49.5t-85 -18zM76 229h278q-1 19 -8.5 42.5
t-23.5 45.5t-41.5 36t-61.5 14q-33 0 -58 -11.5t-42.5 -30.5t-28 -43.5t-14.5 -52.5zM223 471q-20 0 -27.5 10.5t-7.5 24.5t7.5 24t27.5 10q21 0 27.5 -10t6.5 -24t-6.5 -24.5t-27.5 -10.5z" />
    <glyph glyph-name="Eogonek" unicode="&#x118;" horiz-adv-x="468" 
d="M58 0v563h366v-42h-320v-216h256v-40h-256v-226h329v-39h-375zM381 -194q-24 0 -42.5 10t-29 27.5t-10.5 40.5q0 27 13 48.5t32 38.5t38.5 28.5t32.5 17l13 5.5v-21l-14 -8t-32.5 -22.5t-32 -35.5t-13.5 -46q0 -20 12.5 -33.5t34.5 -13.5q20 0 30 8.5t14.5 16.5l4.5 8
l30 -23l-8.5 -11.5t-26.5 -23t-46 -11.5z" />
    <glyph glyph-name="eogonek" unicode="&#x119;" horiz-adv-x="445" 
d="M232 -196q-24 0 -42.5 10t-29 27.5t-10.5 40.5q0 27 13 48.5t32 38.5t38.5 28.5t32.5 17l13 5.5v-21l-14 -7.5t-32 -22.5t-32 -36t-14 -46q0 -20 12.5 -33.5t35.5 -13.5q19 0 29.5 8.5t14.5 16.5l4 8l30 -23l-8.5 -11.5t-26.5 -23t-46 -11.5zM220 -10q-65 0 -107.5 31
t-63.5 79.5t-20 100.5q0 54 22 101t64.5 75.5t103.5 28.5q51 0 90.5 -22.5t63.5 -63t27 -96.5q1 -5 1 -12v-13h-328q0 -77 38.5 -123t108.5 -46q51 0 88.5 27t46.5 73h45q-7 -41 -32 -72.5t-63 -49.5t-85 -18zM76 229h278q-1 19 -8.5 42.5t-23.5 45.5t-41.5 36t-61.5 14
q-33 0 -58 -11.5t-42.5 -30.5t-28 -43.5t-14.5 -52.5z" />
    <glyph glyph-name="Ecaron" unicode="&#x11a;" horiz-adv-x="468" 
d="M58 0v563h366v-42h-320v-216h256v-40h-256v-226h329v-39h-375zM223 604l-105 107v7h47l67 -81h3l68 81h46v-7l-105 -107h-21z" />
    <glyph glyph-name="ecaron" unicode="&#x11b;" horiz-adv-x="445" 
d="M220 -10q-65 0 -107.5 31t-63.5 79.5t-20 100.5q0 54 22 101t64.5 75.5t103.5 28.5q51 0 90.5 -22.5t63.5 -63t27 -96.5q1 -5 1 -12v-13h-328q0 -77 38.5 -123t108.5 -46q51 0 88.5 27t46.5 73h45q-7 -41 -32 -72.5t-63 -49.5t-85 -18zM76 229h278q-1 19 -8.5 42.5
t-23.5 45.5t-41.5 36t-61.5 14q-33 0 -58 -11.5t-42.5 -30.5t-28 -43.5t-14.5 -52.5zM211 447l-105 107v7h47l67 -81h3l68 81h46v-7l-105 -107h-21z" />
    <glyph glyph-name="Gbreve" unicode="&#x11e;" horiz-adv-x="603" 
d="M291 -13q-81 0 -140 34.5t-91.5 100t-31.5 157.5q0 93 33 159t94.5 100.5t144.5 34.5q103 0 168 -49t82 -145l-44 -3q-11 53 -39 87t-70 50.5t-97 16.5q-112 0 -170.5 -66.5t-58.5 -182.5q0 -119 60.5 -185.5t167.5 -66.5q59 0 104.5 22.5t73 65t32.5 103.5h-172v38h224
v-258h-34l-11 137h-2q-5 -21 -20.5 -47t-42 -49.5t-66 -38.5t-94.5 -15zM303 617q-51 0 -81 23t-30 60h35q0 -32 22 -41t53 -9q30 0 52 8.5t22 41.5h35q0 -37 -28.5 -60t-79.5 -23z" />
    <glyph glyph-name="gbreve" unicode="&#x11f;" horiz-adv-x="444" 
d="M132 -160v43h214v215h-2q-2 -5 -11.5 -22.5t-28 -37.5t-46.5 -34t-68 -14q-58 0 -98.5 28t-61.5 75t-21 105q0 59 21 106.5t62 74.5t99 27q41 0 69.5 -14t46 -34t26 -37.5t10.5 -24.5h2v110h48v-493q0 -22 -5 -38.5t-17.5 -25.5t-36.5 -9h-202zM196 33q41 0 74.5 19
t53.5 56.5t20 89.5t-19 88.5t-50.5 56t-72.5 19.5q-50 0 -83 -23.5t-49 -61t-16 -79.5q0 -41 14.5 -79.5t46 -62t81.5 -23.5zM223 460q-51 0 -81 23t-30 60h35q0 -32 22 -41t53 -9q30 0 52 8.5t22 41.5h35q0 -37 -28.5 -60t-79.5 -23z" />
    <glyph glyph-name="Gdotaccent" unicode="&#x120;" horiz-adv-x="603" 
d="M291 -13q-81 0 -140 34.5t-91.5 100t-31.5 157.5q0 93 33 159t94.5 100.5t144.5 34.5q103 0 168 -49t82 -145l-44 -3q-11 53 -39 87t-70 50.5t-97 16.5q-112 0 -170.5 -66.5t-58.5 -182.5q0 -119 60.5 -185.5t167.5 -66.5q59 0 104.5 22.5t73 65t32.5 103.5h-172v38h224
v-258h-34l-11 137h-2q-5 -21 -20.5 -47t-42 -49.5t-66 -38.5t-94.5 -15zM301 628q-20 0 -27.5 10.5t-7.5 24.5t7.5 24t27.5 10q21 0 27.5 -10t6.5 -24t-6.5 -24.5t-27.5 -10.5z" />
    <glyph glyph-name="gdotaccent" unicode="&#x121;" horiz-adv-x="444" 
d="M132 -160v43h214v215h-2q-2 -5 -11.5 -22.5t-28 -37.5t-46.5 -34t-68 -14q-58 0 -98.5 28t-61.5 75t-21 105q0 59 21 106.5t62 74.5t99 27q41 0 69.5 -14t46 -34t26 -37.5t10.5 -24.5h2v110h48v-493q0 -22 -5 -38.5t-17.5 -25.5t-36.5 -9h-202zM196 33q41 0 74.5 19
t53.5 56.5t20 89.5t-19 88.5t-50.5 56t-72.5 19.5q-50 0 -83 -23.5t-49 -61t-16 -79.5q0 -41 14.5 -79.5t46 -62t81.5 -23.5zM222 471q-20 0 -27.5 10.5t-7.5 24.5t7.5 24t27.5 10q21 0 27.5 -10t6.5 -24t-6.5 -24.5t-27.5 -10.5z" />
    <glyph glyph-name="uni0122" unicode="&#x122;" horiz-adv-x="603" 
d="M291 -13q-81 0 -140 34.5t-91.5 100t-31.5 157.5q0 93 33 159t94.5 100.5t144.5 34.5q103 0 168 -49t82 -145l-44 -3q-11 53 -39 87t-70 50.5t-97 16.5q-112 0 -170.5 -66.5t-58.5 -182.5q0 -119 60.5 -185.5t167.5 -66.5q59 0 104.5 22.5t73 65t32.5 103.5h-172v38h224
v-258h-34l-11 137h-2q-5 -21 -20.5 -47t-42 -49.5t-66 -38.5t-94.5 -15zM265 -203v39h15q23 0 28.5 12.5t5.5 28.5q-22 -3 -33 6.5t-11 30.5q0 14 7 24.5t27 10.5t27 -11t7 -38q0 -32 -5 -55.5t-17 -35.5t-34 -12h-17z" />
    <glyph glyph-name="uni0123" unicode="&#x123;" horiz-adv-x="444" 
d="M132 -160v43h214v215h-2q-2 -5 -11.5 -22.5t-28 -37.5t-46.5 -34t-68 -14q-58 0 -98.5 28t-61.5 75t-21 105q0 59 21 106.5t62 74.5t99 27q41 0 69.5 -14t46 -34t26 -37.5t10.5 -24.5h2v110h48v-493q0 -22 -5 -38.5t-17.5 -25.5t-36.5 -9h-202zM196 33q41 0 74.5 19
t53.5 56.5t20 89.5t-19 88.5t-50.5 56t-72.5 19.5q-50 0 -83 -23.5t-49 -61t-16 -79.5q0 -41 14.5 -79.5t46 -62t81.5 -23.5zM218 458h-23v8l54 104h44v-13z" />
    <glyph glyph-name="Hbar" unicode="&#x126;" horiz-adv-x="583" 
d="M21 429v37h535v-37h-535zM117 0h-46v563h46v-563zM462 563h45v-563h-45v563zM482 272h-384v39h384v-39z" />
    <glyph glyph-name="hbar" unicode="&#x127;" horiz-adv-x="462" 
d="M363 0v190q0 53 -10.5 92.5t-36 60.5t-73.5 21q-46 0 -77.5 -24t-47 -64.5t-15.5 -92.5v108q-1 -6 1 3.5t11.5 27.5t26.5 37.5t44.5 33t66.5 13.5q42 0 70 -12.5t45.5 -34t26 -49.5t11 -57.5t2.5 -59.5v-193h-45zM57 0v563h46v-563h-46zM237 470h-233v34h233v-34z" />
    <glyph glyph-name="Itilde" unicode="&#x128;" horiz-adv-x="323" 
d="M135 18v527h45v-527h-45zM56 0v40h202v-40h-202zM56 522v41h202v-41h-202zM50 628q-1 16 1 30.5t8 26.5t17.5 19t30.5 7q22 0 35.5 -8t22 -19t18 -19t23.5 -8q18 0 21.5 14t3.5 40h33q1 -16 -1 -31.5t-8 -27t-17.5 -18.5t-29.5 -7q-22 0 -35.5 8.5t-22.5 19t-18 18.5
t-23 8q-17 0 -21.5 -14t-3.5 -39h-34z" />
    <glyph glyph-name="itilde" unicode="&#x129;" horiz-adv-x="153" 
d="M53 0v406h45v-406h-45zM-32 471q-1 16 1 30.5t8 26.5t17.5 19t30.5 7q22 0 35.5 -8t22 -19t18 -19t23.5 -8q18 0 21.5 14t3.5 40h33q1 -16 -1 -31.5t-8 -27t-17.5 -18.5t-29.5 -7q-22 0 -35.5 8.5t-22.5 19t-18 18.5t-23 8q-17 0 -21.5 -14t-3.5 -39h-34z" />
    <glyph glyph-name="Imacron" unicode="&#x12a;" horiz-adv-x="323" 
d="M135 18v527h45v-527h-45zM56 0v40h202v-40h-202zM56 522v41h202v-41h-202zM40 626v38h235v-38h-235z" />
    <glyph glyph-name="imacron" unicode="&#x12b;" horiz-adv-x="153" 
d="M53 0v406h45v-406h-45zM-5 469v38h159v-38h-159z" />
    <glyph glyph-name="Iogonek" unicode="&#x12e;" horiz-adv-x="323" 
d="M135 18v527h45v-527h-45zM56 0v40h202v-40h-202zM56 522v41h202v-41h-202zM158 -195q-24 0 -42.5 10t-29 27.5t-10.5 40.5q0 27 13 48.5t32 38.5t38.5 28.5t32.5 17l13 5.5v-21l-14 -8t-32.5 -22.5t-32 -35.5t-13.5 -46q0 -20 12.5 -33.5t34.5 -13.5q20 0 30 8.5
t14.5 16.5l4.5 8l30 -23l-8.5 -11.5t-26.5 -23t-46 -11.5z" />
    <glyph glyph-name="iogonek" unicode="&#x12f;" horiz-adv-x="153" 
d="M53 0v406h45v-406h-45zM76 471q-20 0 -27.5 10.5t-7.5 24.5t7.5 24t27.5 10q21 0 27.5 -10t6.5 -24t-6.5 -24.5t-27.5 -10.5zM48 -195q-24 0 -42.5 10t-29 27.5t-10.5 40.5q0 27 13 48.5t32 38.5t38.5 28.5t32.5 17l13 5.5v-21l-14 -8t-32.5 -22.5t-32 -35.5t-13.5 -46
q0 -20 12.5 -33.5t34.5 -13.5q20 0 30 8.5t14.5 16.5l4.5 8l30 -23l-8.5 -11.5t-26.5 -23t-46 -11.5z" />
    <glyph glyph-name="Idotaccent" unicode="&#x130;" horiz-adv-x="323" 
d="M135 18v527h45v-527h-45zM56 0v40h202v-40h-202zM56 522v41h202v-41h-202zM158 628q-20 0 -27.5 10.5t-7.5 24.5t7.5 24t27.5 10q21 0 27.5 -10t6.5 -24t-6.5 -24.5t-27.5 -10.5z" />
    <glyph glyph-name="dotlessi" unicode="&#x131;" horiz-adv-x="153" 
d="M53 0v406h45v-406h-45z" />
    <glyph glyph-name="IJ" unicode="&#x132;" horiz-adv-x="736" 
d="M135 18v527h45v-527h-45zM56 0v40h202v-40h-202zM56 522v41h202v-41h-202zM519 -10q-20 0 -46 6.5t-50.5 21.5t-40.5 44t-16 74h42q0 -23 9 -47.5t33.5 -41.5t68.5 -17q55 0 81.5 29t26.5 96v390h45v-386q0 -40 -9 -71.5t-27.5 -53.5t-47 -33t-69.5 -11zM518 524v38h154
v-38h-154z" />
    <glyph glyph-name="ij" unicode="&#x133;" horiz-adv-x="348" 
d="M53 0v406h46v-406h-46zM77 471q-20 0 -27.5 10.5t-7.5 24.5t7.5 24t27.5 10q21 0 27.5 -10t6.5 -24t-6.5 -24.5t-27.5 -10.5zM237 471q-21 0 -28 10.5t-7 24.5t7 24t28 10t27.5 -10t6.5 -24t-6.5 -24.5t-27.5 -10.5zM214 406h46v-505q0 -25 -9 -43t-41 -18h-66v39h70v527
z" />
    <glyph glyph-name="uni0136" unicode="&#x136;" horiz-adv-x="540" 
d="M113 194v56l325 313h60v-10zM72 -1v564h47v-564h-47zM456 0l-249 301l33 32l270 -323v-10h-54zM234 -203v39h15q23 0 28.5 12.5t5.5 28.5q-22 -3 -33 6.5t-11 30.5q0 14 7 24.5t27 10.5t27 -11t7 -38q0 -32 -5 -55.5t-17 -35.5t-34 -12h-17z" />
    <glyph glyph-name="uni0137" unicode="&#x137;" horiz-adv-x="419" 
d="M98 -1h-46v564h46v-564zM209 243l198 -244h-57l-174 213zM91 104v57l252 245h61zM173 -203v39h15q23 0 28.5 12.5t5.5 28.5q-22 -3 -33 6.5t-11 30.5q0 14 7 24.5t27 10.5t27 -11t7 -38q0 -32 -5 -55.5t-17 -35.5t-34 -12h-17z" />
    <glyph glyph-name="Lacute" unicode="&#x139;" horiz-adv-x="466" 
d="M68 12v551h45v-551h-45zM68 0v40h375v-40h-375zM108 610h-24v8l54 104h44v-13z" />
    <glyph glyph-name="lacute" unicode="&#x13a;" horiz-adv-x="152" 
d="M53 0v563h46v-563h-46zM88 605h-24v8l54 104h44v-13z" />
    <glyph glyph-name="uni013B" unicode="&#x13b;" horiz-adv-x="466" 
d="M68 12v551h45v-551h-45zM68 0v40h375v-40h-375zM197 -203v39h15q23 0 28.5 12.5t5.5 28.5q-22 -3 -33 6.5t-11 30.5q0 14 7 24.5t27 10.5t27 -11t7 -38q0 -32 -5 -55.5t-17 -35.5t-34 -12h-17z" />
    <glyph glyph-name="uni013C" unicode="&#x13c;" horiz-adv-x="152" 
d="M53 0v563h46v-563h-46zM40 -203v39h15q23 0 28.5 12.5t5.5 28.5q-22 -3 -33 6.5t-11 30.5q0 14 7 24.5t27 10.5t27 -11t7 -38q0 -32 -5 -55.5t-17 -35.5t-34 -12h-17z" />
    <glyph glyph-name="Lcaron" unicode="&#x13d;" horiz-adv-x="466" 
d="M68 12v551h45v-551h-45zM68 0v40h375v-40h-375zM304 422l35 141h47l-55 -141h-27z" />
    <glyph glyph-name="lcaron" unicode="&#x13e;" horiz-adv-x="224" 
d="M53 0v563h46v-563h-46zM142 432l35 141h47l-55 -141h-27z" />
    <glyph glyph-name="Lslash" unicode="&#x141;" horiz-adv-x="466" 
d="M-5 227v41l261 134v-41zM68 12v551h45v-551h-45zM68 0v40h375v-40h-375z" />
    <glyph glyph-name="lslash" unicode="&#x142;" horiz-adv-x="208" 
d="M-7 227v45l179 134v-45zM53 0v563h46v-563h-46z" />
    <glyph glyph-name="Nacute" unicode="&#x143;" horiz-adv-x="569" 
d="M465 563h45v-563h-84l-324 542h-2v-542h-45v563h79l329 -542h2v542zM296 604h-24v8l54 104h44v-13z" />
    <glyph glyph-name="nacute" unicode="&#x144;" horiz-adv-x="436" 
d="M39 0v406h38l8 -108h2q2 7 10 24t25 36.5t45 33.5t70 14t69.5 -12t45 -32.5t26.5 -47t12 -55.5t3 -58v-201h-45v201q0 50 -11 86.5t-37 56.5t-72 20q-49 0 -80.5 -24t-47 -63t-15.5 -85v-192h-46zM229 447h-24v8l54 104h44v-13z" />
    <glyph glyph-name="uni0145" unicode="&#x145;" horiz-adv-x="569" 
d="M465 563h45v-563h-84l-324 542h-2v-542h-45v563h79l329 -542h2v542zM248 -203v39h15q23 0 28.5 12.5t5.5 28.5q-22 -3 -33 6.5t-11 30.5q0 14 7 24.5t27 10.5t27 -11t7 -38q0 -32 -5 -55.5t-17 -35.5t-34 -12h-17z" />
    <glyph glyph-name="uni0146" unicode="&#x146;" horiz-adv-x="436" 
d="M39 0v406h38l8 -108h2q2 7 10 24t25 36.5t45 33.5t70 14t69.5 -12t45 -32.5t26.5 -47t12 -55.5t3 -58v-201h-45v201q0 50 -11 86.5t-37 56.5t-72 20q-49 0 -80.5 -24t-47 -63t-15.5 -85v-192h-46zM181 -203v39h15q23 0 28.5 12.5t5.5 28.5q-22 -3 -33 6.5t-11 30.5
q0 14 7 24.5t27 10.5t27 -11t7 -38q0 -32 -5 -55.5t-17 -35.5t-34 -12h-17z" />
    <glyph glyph-name="Ncaron" unicode="&#x147;" horiz-adv-x="569" 
d="M465 563h45v-563h-84l-324 542h-2v-542h-45v563h79l329 -542h2v542zM274 604l-105 107v7h47l67 -81h3l68 81h46v-7l-105 -107h-21z" />
    <glyph glyph-name="ncaron" unicode="&#x148;" horiz-adv-x="436" 
d="M39 0v406h38l8 -108h2q2 7 10 24t25 36.5t45 33.5t70 14t69.5 -12t45 -32.5t26.5 -47t12 -55.5t3 -58v-201h-45v201q0 50 -11 86.5t-37 56.5t-72 20q-49 0 -80.5 -24t-47 -63t-15.5 -85v-192h-46zM207 447l-105 107v7h47l67 -81h3l68 81h46v-7l-105 -107h-21z" />
    <glyph glyph-name="Eng" unicode="&#x14a;" horiz-adv-x="600" 
d="M406 -200q-18 0 -32.5 4t-25.5 11t-18 13l28 32q7 -8 18.5 -14.5t27.5 -6.5q31 0 47 18t15 58v112h44v-111q1 -34 -9.5 -60t-33.5 -41t-61 -15zM465 563h45v-563h-84l-324 542h-2v-542h-45v563h79l329 -542h2v542z" />
    <glyph glyph-name="eng" unicode="&#x14b;" horiz-adv-x="469" 
d="M289 -199q-19 0 -34 4.5t-25 11t-18 13.5l29 31q7 -7 18.5 -13.5t27.5 -6.5q30 0 46 18t15 58v112h45v-112q1 -33 -9.5 -59.5t-33.5 -41.5t-61 -15zM39 0v406h38l8 -108h2q2 7 10 24t25 36.5t45 33.5t70 14t69.5 -12t45 -32.5t26.5 -47t12 -55.5t3 -58v-201h-45v201
q0 50 -11 86.5t-37 56.5t-72 20q-49 0 -80.5 -24t-47 -63t-15.5 -85v-192h-46z" />
    <glyph glyph-name="Omacron" unicode="&#x14c;" horiz-adv-x="601" 
d="M293 -14q-132 0 -201 79.5t-69 214.5q0 89 30 154.5t90 102t150 36.5q132 0 200.5 -79.5t68.5 -213.5q0 -87 -30.5 -153.5t-90 -103.5t-148.5 -37zM293 29q75 0 124.5 31.5t75 88t25.5 131.5q0 76 -24.5 132t-75 87t-125.5 31q-111 0 -168 -66t-57 -184q0 -74 24 -130.5
t74.5 -88.5t126.5 -32zM183 626v38h235v-38h-235z" />
    <glyph glyph-name="omacron" unicode="&#x14d;" horiz-adv-x="450" 
d="M218 -10q-63 0 -105.5 26.5t-63.5 73.5t-21 107q0 61 21 108.5t63.5 74t105.5 26.5q92 0 140.5 -57.5t48.5 -151.5q0 -58 -20 -105.5t-62 -74.5t-107 -27zM218 31q56 0 87 25t43.5 63.5t12.5 78.5q0 41 -12.5 79.5t-43.5 63.5t-87 25q-55 0 -87 -25t-44.5 -63.5
t-12.5 -79.5q0 -40 12.5 -78.5t44.5 -63.5t87 -25zM107 469v38h235v-38h-235z" />
    <glyph glyph-name="Ohungarumlaut" unicode="&#x150;" horiz-adv-x="601" 
d="M293 -14q-132 0 -201 79.5t-69 214.5q0 89 30 154.5t90 102t150 36.5q132 0 200.5 -79.5t68.5 -213.5q0 -87 -30.5 -153.5t-90 -103.5t-148.5 -37zM293 29q75 0 124.5 31.5t75 88t25.5 131.5q0 76 -24.5 132t-75 87t-125.5 31q-111 0 -168 -66t-57 -184q0 -74 24 -130.5
t74.5 -88.5t126.5 -32zM211 623l79 132l43 -19l-99 -124zM336 623l79 132l43 -19l-99 -124z" />
    <glyph glyph-name="ohungarumlaut" unicode="&#x151;" horiz-adv-x="450" 
d="M218 -10q-63 0 -105.5 26.5t-63.5 73.5t-21 107q0 61 21 108.5t63.5 74t105.5 26.5q92 0 140.5 -57.5t48.5 -151.5q0 -58 -20 -105.5t-62 -74.5t-107 -27zM218 31q56 0 87 25t43.5 63.5t12.5 78.5q0 41 -12.5 79.5t-43.5 63.5t-87 25q-55 0 -87 -25t-44.5 -63.5
t-12.5 -79.5q0 -40 12.5 -78.5t44.5 -63.5t87 -25zM135 466l79 132l43 -19l-99 -124zM260 466l79 132l43 -19l-99 -124z" />
    <glyph glyph-name="OE" unicode="&#x152;" horiz-adv-x="831" 
d="M363 0q-100 0 -174.5 24t-115.5 85.5t-41 172.5q0 94 41 156t115.5 93.5t174.5 31.5h15.5h25h62.5v-563h-59.5h-26h-17.5zM357 40h10.5h12.5h41v482h-64q-83 0 -146 -26t-97 -79t-34 -135q0 -74 19.5 -121.5t56 -74t87.5 -36.5t114 -10zM421 0v563h365v-42h-320v-216h257
v-40h-257v-226h329v-39h-374z" />
    <glyph glyph-name="oe" unicode="&#x153;" horiz-adv-x="771" 
d="M217 -10q-63 0 -105.5 26.5t-63.5 73.5t-21 107q0 61 21 108.5t63.5 74t105.5 26.5q92 0 140 -57.5t48 -151.5q0 -58 -20 -105.5t-61.5 -74.5t-106.5 -27zM217 31q56 0 87.5 25t44 63.5t12.5 78.5q0 41 -12.5 79.5t-44 63.5t-87.5 25q-55 0 -87 -25t-44.5 -63.5
t-12.5 -79.5q0 -40 12.5 -78.5t44.5 -63.5t87 -25zM553 -10q-66 0 -108.5 31t-63 79.5t-20.5 100.5q0 39 11.5 75.5t35.5 66t60 46.5t85 17q50 0 88 -22.5t62.5 -63.5t28.5 -96q1 -5 1 -12v-13h-328q0 -77 39 -122.5t109 -45.5q52 0 89 27t46 73l45 -4q-9 -40 -34 -71
t-62.5 -48.5t-83.5 -17.5zM408 231h278q-1 19 -8 43t-23 45.5t-41.5 35.5t-61.5 14q-33 0 -58.5 -11t-43.5 -30.5t-28.5 -44t-13.5 -52.5z" />
    <glyph glyph-name="Racute" unicode="&#x154;" horiz-adv-x="520" 
d="M65 0v563h175q71 0 120 -14t74.5 -48t25.5 -96q0 -38 -14 -71t-43.5 -53.5t-76.5 -20.5q39 0 61 -14.5t31.5 -37.5t12 -50t2.5 -53t3 -46t14 -28t35 0v-33q-5 -4 -19.5 -7t-31.5 2t-29 23t-12 55q0 58 -4.5 93t-19 53t-45.5 25t-82.5 7t-130.5 -1v-248h-46zM111 285h147
q55 0 90.5 10.5t53 36t17.5 71.5q0 53 -22 78.5t-63 33.5t-100 8h-123v-238zM257 604h-24v8l54 104h44v-13z" />
    <glyph glyph-name="racute" unicode="&#x155;" horiz-adv-x="284" 
d="M52 0v406h39l7 -117l-1 -87v-202h-45zM97 196l-3 88q2 24 12.5 46t30 39t47 27t64.5 10h22v-51h-22q-51 0 -81.5 -12.5t-45.5 -34t-19.5 -50.5t-4.5 -62zM153 447h-24v8l54 104h44v-13z" />
    <glyph glyph-name="uni0156" unicode="&#x156;" horiz-adv-x="520" 
d="M65 0v563h175q71 0 120 -14t74.5 -48t25.5 -96q0 -38 -14 -71t-43.5 -53.5t-76.5 -20.5q39 0 61 -14.5t31.5 -37.5t12 -50t2.5 -53t3 -46t14 -28t35 0v-33q-5 -4 -19.5 -7t-31.5 2t-29 23t-12 55q0 58 -4.5 93t-19 53t-45.5 25t-82.5 7t-130.5 -1v-248h-46zM111 285h147
q55 0 90.5 10.5t53 36t17.5 71.5q0 53 -22 78.5t-63 33.5t-100 8h-123v-238zM223 -203v39h15q23 0 28.5 12.5t5.5 28.5q-22 -3 -33 6.5t-11 30.5q0 14 7 24.5t27 10.5t27 -11t7 -38q0 -32 -5 -55.5t-17 -35.5t-34 -12h-17z" />
    <glyph glyph-name="uni0157" unicode="&#x157;" horiz-adv-x="284" 
d="M52 0v406h39l7 -117l-1 -87v-202h-45zM97 196l-3 88q2 24 12.5 46t30 39t47 27t64.5 10h22v-51h-22q-51 0 -81.5 -12.5t-45.5 -34t-19.5 -50.5t-4.5 -62zM38 -203v39h15q23 0 28.5 12.5t5.5 28.5q-22 -3 -33 6.5t-11 30.5q0 14 7 24.5t27 10.5t27 -11t7 -38
q0 -32 -5 -55.5t-17 -35.5t-34 -12h-17z" />
    <glyph glyph-name="Rcaron" unicode="&#x158;" horiz-adv-x="520" 
d="M65 0v563h175q71 0 120 -14t74.5 -48t25.5 -96q0 -38 -14 -71t-43.5 -53.5t-76.5 -20.5q39 0 61 -14.5t31.5 -37.5t12 -50t2.5 -53t3 -46t14 -28t35 0v-33q-5 -4 -19.5 -7t-31.5 2t-29 23t-12 55q0 58 -4.5 93t-19 53t-45.5 25t-82.5 7t-130.5 -1v-248h-46zM111 285h147
q55 0 90.5 10.5t53 36t17.5 71.5q0 53 -22 78.5t-63 33.5t-100 8h-123v-238zM234 604l-105 107v7h47l67 -81h3l68 81h46v-7l-105 -107h-21z" />
    <glyph glyph-name="rcaron" unicode="&#x159;" horiz-adv-x="284" 
d="M52 0v406h39l7 -117l-1 -87v-202h-45zM97 196l-3 88q2 24 12.5 46t30 39t47 27t64.5 10h22v-51h-22q-51 0 -81.5 -12.5t-45.5 -34t-19.5 -50.5t-4.5 -62zM131 447l-105 107v7h47l67 -81h3l68 81h46v-7l-105 -107h-21z" />
    <glyph glyph-name="Sacute" unicode="&#x15a;" horiz-adv-x="511" 
d="M266 -13q-44 0 -85 10.5t-75 33t-54 57t-21 83.5h46q0 -3 2 -18t10.5 -36t29 -41t57 -33.5t93.5 -13.5q52 0 83.5 12.5t47.5 31t21.5 35.5t5.5 26q1 38 -19 61.5t-54 38t-74 24.5t-80.5 21.5t-74.5 29t-53.5 47t-17.5 76.5q2 44 30.5 75.5t76 48.5t104.5 17t103.5 -20.5
t74 -60t25.5 -99.5h-45q2 42 -15 69t-43 42t-54 20.5t-50 5.5q-69 0 -113.5 -28.5t-46.5 -72.5q-1 -38 19 -61t54 -36.5t74.5 -23.5t80.5 -21t73.5 -29t53 -48.5t18.5 -78.5q-2 -46 -30 -78t-74 -49t-104 -17zM267 604h-24v8l54 104h44v-13z" />
    <glyph glyph-name="sacute" unicode="&#x15b;" horiz-adv-x="396" 
d="M200 -10q-41 0 -70 11.5t-48 29.5t-30 37t-15.5 35t-4.5 24h45q0 -1 2.5 -16.5t14 -35.5t36.5 -34.5t70 -14.5q33 0 60 7.5t43 24t16 43.5q0 32 -20.5 49.5t-52.5 26t-67 16t-66.5 19.5t-51 35t-19.5 63q1 48 45 77.5t113 29.5q26 0 55 -6t53.5 -21t40 -41t12.5 -68h-44
q1 31 -10.5 50t-31 29.5t-40.5 13.5t-38 3q-47 0 -79.5 -17t-32.5 -52q0 -29 20 -45t52 -24.5t67 -15.5t67 -20t52 -37t20 -67q0 -39 -21.5 -63t-58.5 -35t-83 -11zM210 447h-24v8l54 104h44v-13z" />
    <glyph glyph-name="Scedilla" unicode="&#x15e;" horiz-adv-x="511" 
d="M266 -13q-44 0 -85 10.5t-75 33t-54 57t-21 83.5h46q0 -3 2 -18t10.5 -36t29 -41t57 -33.5t93.5 -13.5q52 0 83.5 12.5t47.5 31t21.5 35.5t5.5 26q1 38 -19 61.5t-54 38t-74 24.5t-80.5 21.5t-74.5 29t-53.5 47t-17.5 76.5q2 44 30.5 75.5t76 48.5t104.5 17t103.5 -20.5
t74 -60t25.5 -99.5h-45q2 42 -15 69t-43 42t-54 20.5t-50 5.5q-69 0 -113.5 -28.5t-46.5 -72.5q-1 -38 19 -61t54 -36.5t74.5 -23.5t80.5 -21t73.5 -29t53 -48.5t18.5 -78.5q-2 -46 -30 -78t-74 -49t-104 -17zM173 -122l19 26q13 -14 35 -23t44 -9q23 0 38.5 10t15.5 30
q0 16 -12 22.5t-27 6.5q-14 0 -30 -5.5t-29 -15.5l-22 18l38 77l28 -11l-40 -62q11 12 28.5 18.5t35.5 6.5q25 0 45 -12.5t20 -42.5q0 -35 -28.5 -53.5t-66.5 -18.5q-23 0 -48 10t-44 28z" />
    <glyph glyph-name="scedilla" unicode="&#x15f;" horiz-adv-x="396" 
d="M200 -10q-41 0 -70 11.5t-48 29.5t-30 37t-15.5 35t-4.5 24h45q0 -1 2.5 -16.5t14 -35.5t36.5 -34.5t70 -14.5q33 0 60 7.5t43 24t16 43.5q0 32 -20.5 49.5t-52.5 26t-67 16t-66.5 19.5t-51 35t-19.5 63q1 48 45 77.5t113 29.5q26 0 55 -6t53.5 -21t40 -41t12.5 -68h-44
q1 31 -10.5 50t-31 29.5t-40.5 13.5t-38 3q-47 0 -79.5 -17t-32.5 -52q0 -29 20 -45t52 -24.5t67 -15.5t67 -20t52 -37t20 -67q0 -39 -21.5 -63t-58.5 -35t-83 -11zM116 -122l19 26q13 -14 35 -23t44 -9q23 0 38.5 10t15.5 30q0 16 -12 22.5t-27 6.5q-14 0 -30 -5.5
t-29 -15.5l-22 18l38 77l28 -11l-40 -62q11 12 28.5 18.5t35.5 6.5q25 0 45 -12.5t20 -42.5q0 -35 -28.5 -53.5t-66.5 -18.5q-23 0 -48 10t-44 28z" />
    <glyph glyph-name="Scaron" unicode="&#x160;" horiz-adv-x="511" 
d="M266 -13q-44 0 -85 10.5t-75 33t-54 57t-21 83.5h46q0 -3 2 -18t10.5 -36t29 -41t57 -33.5t93.5 -13.5q52 0 83.5 12.5t47.5 31t21.5 35.5t5.5 26q1 38 -19 61.5t-54 38t-74 24.5t-80.5 21.5t-74.5 29t-53.5 47t-17.5 76.5q2 44 30.5 75.5t76 48.5t104.5 17t103.5 -20.5
t74 -60t25.5 -99.5h-45q2 42 -15 69t-43 42t-54 20.5t-50 5.5q-69 0 -113.5 -28.5t-46.5 -72.5q-1 -38 19 -61t54 -36.5t74.5 -23.5t80.5 -21t73.5 -29t53 -48.5t18.5 -78.5q-2 -46 -30 -78t-74 -49t-104 -17zM244 604l-105 107v7h47l67 -81h3l68 81h46v-7l-105 -107h-21z
" />
    <glyph glyph-name="scaron" unicode="&#x161;" horiz-adv-x="396" 
d="M200 -10q-41 0 -70 11.5t-48 29.5t-30 37t-15.5 35t-4.5 24h45q0 -1 2.5 -16.5t14 -35.5t36.5 -34.5t70 -14.5q33 0 60 7.5t43 24t16 43.5q0 32 -20.5 49.5t-52.5 26t-67 16t-66.5 19.5t-51 35t-19.5 63q1 48 45 77.5t113 29.5q26 0 55 -6t53.5 -21t40 -41t12.5 -68h-44
q1 31 -10.5 50t-31 29.5t-40.5 13.5t-38 3q-47 0 -79.5 -17t-32.5 -52q0 -29 20 -45t52 -24.5t67 -15.5t67 -20t52 -37t20 -67q0 -39 -21.5 -63t-58.5 -35t-83 -11zM187 447l-105 107v7h47l67 -81h3l68 81h46v-7l-105 -107h-21z" />
    <glyph glyph-name="uni0162" unicode="&#x162;" horiz-adv-x="442" 
d="M243 545v-545h-45v545h45zM10 522v41h420v-41h-420zM138 -122l19 26q13 -14 35 -23t44 -9q23 0 38.5 10t15.5 30q0 16 -12 22.5t-27 6.5q-14 0 -30 -5.5t-29 -15.5l-22 18l38 77l28 -11l-40 -62q11 12 28.5 18.5t35.5 6.5q25 0 45 -12.5t20 -42.5q0 -35 -28.5 -53.5
t-66.5 -18.5q-23 0 -48 10t-44 28z" />
    <glyph glyph-name="uni0163" unicode="&#x163;" horiz-adv-x="262" 
d="M125 0q-31 0 -40.5 18t-9.5 43v316h44v-338h95v-39h-89zM8 369v37q27 0 41 2t20 11.5t7.5 31t1.5 60.5h41v-105h95v-37h-206zM49 -122l19 26q13 -14 35 -23t44 -9q23 0 38.5 10t15.5 30q0 16 -12 22.5t-27 6.5q-14 0 -30 -5.5t-29 -15.5l-22 18l38 77l28 -11l-40 -62
q11 12 28.5 18.5t35.5 6.5q25 0 45 -12.5t20 -42.5q0 -35 -28.5 -53.5t-66.5 -18.5q-23 0 -48 10t-44 28z" />
    <glyph glyph-name="Tcaron" unicode="&#x164;" horiz-adv-x="442" 
d="M243 545v-545h-45v545h45zM10 522v41h420v-41h-420zM209 604l-105 107v7h47l67 -81h3l68 81h46v-7l-105 -107h-21z" />
    <glyph glyph-name="tcaron" unicode="&#x165;" horiz-adv-x="262" 
d="M125 0q-31 0 -40.5 18t-9.5 43v316h44v-338h95v-39h-89zM8 369v37q27 0 41 2t20 11.5t7.5 31t1.5 60.5h41v-105h95v-37h-206zM160 445l35 141h47l-55 -141h-27z" />
    <glyph glyph-name="Tbar" unicode="&#x166;" horiz-adv-x="442" 
d="M10 522v41h420v-41h-420zM56 291v37h329v-37h-329zM243 545v-545h-45v545h45z" />
    <glyph glyph-name="tbar" unicode="&#x167;" horiz-adv-x="262" 
d="M214 17q-24 -20 -48.5 -25.5t-45 3.5t-33 30.5t-12.5 54.5v297h44v-290q0 -25 8.5 -39t21.5 -18.5t27.5 -0.5t28.5 16zM17 201v37h181v-37h-181zM8 367v39q27 0 41 2.5t20 11.5t7.5 31t1.5 60h41v-105h95v-39h-206z" />
    <glyph glyph-name="Utilde" unicode="&#x168;" horiz-adv-x="567" 
d="M280 -14q-109 0 -169 66.5t-60 187.5v323h46v-323q0 -53 13 -92.5t37 -66t58 -39.5t75 -13q60 0 100.5 23t62 70t21.5 118v323h45v-323q0 -123 -58.5 -188.5t-170.5 -65.5zM176 628q-1 16 1 30.5t8 26.5t17.5 19t30.5 7q22 0 35.5 -8t22 -19t18 -19t23.5 -8q18 0 21.5 14
t3.5 40h33q1 -16 -1 -31.5t-8 -27t-17.5 -18.5t-29.5 -7q-22 0 -35.5 8.5t-22.5 19t-18 18.5t-23 8q-17 0 -21.5 -14t-3.5 -39h-34z" />
    <glyph glyph-name="utilde" unicode="&#x169;" horiz-adv-x="438" 
d="M194 -10q-38 0 -65.5 11t-45.5 30.5t-28 45t-14 55.5t-4 62v212h45v-212q0 -45 9.5 -82t36.5 -58.5t77 -21.5q48 0 76.5 22.5t42.5 58t16 75.5v218h47v-406h-38l-8 97h-2q-5 -16 -16 -34t-28.5 -35t-42.5 -27.5t-58 -10.5zM111 471q-1 16 1 30.5t8 26.5t17.5 19t30.5 7
q22 0 35.5 -8t22 -19t18 -19t23.5 -8q18 0 21.5 14t3.5 40h33q1 -16 -1 -31.5t-8 -27t-17.5 -18.5t-29.5 -7q-22 0 -35.5 8.5t-22.5 19t-18 18.5t-23 8q-17 0 -21.5 -14t-3.5 -39h-34z" />
    <glyph glyph-name="Umacron" unicode="&#x16a;" horiz-adv-x="567" 
d="M280 -14q-109 0 -169 66.5t-60 187.5v323h46v-323q0 -53 13 -92.5t37 -66t58 -39.5t75 -13q60 0 100.5 23t62 70t21.5 118v323h45v-323q0 -123 -58.5 -188.5t-170.5 -65.5zM166 626v38h235v-38h-235z" />
    <glyph glyph-name="umacron" unicode="&#x16b;" horiz-adv-x="438" 
d="M194 -10q-38 0 -65.5 11t-45.5 30.5t-28 45t-14 55.5t-4 62v212h45v-212q0 -45 9.5 -82t36.5 -58.5t77 -21.5q48 0 76.5 22.5t42.5 58t16 75.5v218h47v-406h-38l-8 97h-2q-5 -16 -16 -34t-28.5 -35t-42.5 -27.5t-58 -10.5zM101 469v38h235v-38h-235z" />
    <glyph glyph-name="Ubreve" unicode="&#x16c;" horiz-adv-x="567" 
d="M280 -14q-109 0 -169 66.5t-60 187.5v323h46v-323q0 -53 13 -92.5t37 -66t58 -39.5t75 -13q60 0 100.5 23t62 70t21.5 118v323h45v-323q0 -123 -58.5 -188.5t-170.5 -65.5zM285 617q-51 0 -81 23t-30 60h35q0 -32 22 -41t53 -9q30 0 52 8.5t22 41.5h35q0 -37 -28.5 -60
t-79.5 -23z" />
    <glyph glyph-name="ubreve" unicode="&#x16d;" horiz-adv-x="438" 
d="M194 -10q-38 0 -65.5 11t-45.5 30.5t-28 45t-14 55.5t-4 62v212h45v-212q0 -45 9.5 -82t36.5 -58.5t77 -21.5q48 0 76.5 22.5t42.5 58t16 75.5v218h47v-406h-38l-8 97h-2q-5 -16 -16 -34t-28.5 -35t-42.5 -27.5t-58 -10.5zM220 460q-51 0 -81 23t-30 60h35q0 -32 22 -41
t53 -9q30 0 52 8.5t22 41.5h35q0 -37 -28.5 -60t-79.5 -23z" />
    <glyph glyph-name="Uring" unicode="&#x16e;" horiz-adv-x="567" 
d="M280 -14q-109 0 -169 66.5t-60 187.5v323h46v-323q0 -53 13 -92.5t37 -66t58 -39.5t75 -13q60 0 100.5 23t62 70t21.5 118v323h45v-323q0 -123 -58.5 -188.5t-170.5 -65.5zM282 623q-40 0 -63.5 23t-23.5 62q0 40 23 64t64 24t65 -24t24 -64q0 -36 -24 -60.5t-65 -24.5z
M282 652q27 0 42 17t15 41q0 23 -15 40t-42 17t-42 -17t-15 -40q0 -25 16.5 -41.5t40.5 -16.5z" />
    <glyph glyph-name="uring" unicode="&#x16f;" horiz-adv-x="438" 
d="M194 -10q-38 0 -65.5 11t-45.5 30.5t-28 45t-14 55.5t-4 62v212h45v-212q0 -45 9.5 -82t36.5 -58.5t77 -21.5q48 0 76.5 22.5t42.5 58t16 75.5v218h47v-406h-38l-8 97h-2q-5 -16 -16 -34t-28.5 -35t-42.5 -27.5t-58 -10.5zM217 466q-40 0 -63.5 23t-23.5 62q0 40 23 64
t64 24t65 -24t24 -64q0 -36 -24 -60.5t-65 -24.5zM217 495q27 0 42 17t15 41q0 23 -15 40t-42 17t-42 -17t-15 -40q0 -25 16.5 -41.5t40.5 -16.5z" />
    <glyph glyph-name="Uhungarumlaut" unicode="&#x170;" horiz-adv-x="567" 
d="M280 -14q-109 0 -169 66.5t-60 187.5v323h46v-323q0 -53 13 -92.5t37 -66t58 -39.5t75 -13q60 0 100.5 23t62 70t21.5 118v323h45v-323q0 -123 -58.5 -188.5t-170.5 -65.5zM194 623l79 132l43 -19l-99 -124zM319 623l79 132l43 -19l-99 -124z" />
    <glyph glyph-name="uhungarumlaut" unicode="&#x171;" horiz-adv-x="438" 
d="M194 -10q-38 0 -65.5 11t-45.5 30.5t-28 45t-14 55.5t-4 62v212h45v-212q0 -45 9.5 -82t36.5 -58.5t77 -21.5q48 0 76.5 22.5t42.5 58t16 75.5v218h47v-406h-38l-8 97h-2q-5 -16 -16 -34t-28.5 -35t-42.5 -27.5t-58 -10.5zM129 466l79 132l43 -19l-99 -124zM254 466
l79 132l43 -19l-99 -124z" />
    <glyph glyph-name="Uogonek" unicode="&#x172;" horiz-adv-x="567" 
d="M289 -196q-24 0 -42.5 10t-29 27.5t-10.5 40.5q0 27 13 48.5t32.5 37.5t39 26t32.5 15.5l13 5.5l4 -21l-15 -7.5t-34 -21t-33.5 -33.5t-14.5 -45q0 -20 12.5 -33.5t35.5 -13.5q19 0 29.5 8.5t14.5 16.5l4 8l30 -23l-8.5 -11.5t-26.5 -23t-46 -11.5zM280 -14
q-109 0 -169 66.5t-60 187.5v323h46v-323q0 -53 13 -92.5t37 -66t58 -39.5t75 -13q60 0 100.5 23t62 70t21.5 118v323h45v-323q0 -123 -58.5 -188.5t-170.5 -65.5z" />
    <glyph glyph-name="uogonek" unicode="&#x173;" horiz-adv-x="438" 
d="M194 -10q-38 0 -65.5 11t-45.5 30.5t-28 45t-14 55.5t-4 62v212h45v-212q0 -45 9.5 -82t36.5 -58.5t77 -21.5q48 0 76.5 22.5t42.5 58t16 75.5v218h47v-406h-38l-8 97h-2q-5 -16 -16 -34t-28.5 -35t-42.5 -27.5t-58 -10.5zM334 -195q-24 0 -42.5 10t-29 27.5t-10.5 40.5
q0 27 13 48.5t32 38.5t38.5 28.5t32.5 17l13 5.5v-21l-14 -8t-32.5 -22.5t-32 -35.5t-13.5 -46q0 -20 12.5 -33.5t34.5 -13.5q20 0 30 8.5t14.5 16.5l4.5 8l30 -23l-8.5 -11.5t-26.5 -23t-46 -11.5z" />
    <glyph glyph-name="Wcircumflex" unicode="&#x174;" horiz-adv-x="848" 
d="M390 563h49l-25 -63l-162 -500h-76l-173 563h49l163 -540zM778 563h50l-182 -563h-75l-157 500l-23 63h48l169 -540zM309 619v7l104 101h22l105 -101v-7h-46l-69 74h-2l-68 -74h-46z" />
    <glyph glyph-name="wcircumflex" unicode="&#x175;" horiz-adv-x="587" 
d="M118 0l-116 393v13h43l104 -367h2l113 367h42l115 -367h2l102 367h43v-13l-114 -393h-66l-102 326h-2l-101 -326h-65zM178 462v7l104 101h22l105 -101v-7h-46l-69 74h-2l-68 -74h-46z" />
    <glyph glyph-name="Ycircumflex" unicode="&#x176;" horiz-adv-x="422" 
d="M184 205l-193 358h50l166 -310l163 310h50l-195 -358h-41zM182 0v218h46v-218h-46zM95 619v7l104 101h22l105 -101v-7h-46l-69 74h-2l-68 -74h-46z" />
    <glyph glyph-name="ycircumflex" unicode="&#x177;" horiz-adv-x="391" 
d="M-4 -178v38h52q14 0 23 5t18.5 18.5t21.5 39.5l50 109l-159 374h48l135 -324l143 324h49l-226 -491q-13 -30 -24 -48.5t-22 -28.5t-24.5 -13t-30.5 -3h-54zM80 462v7l104 101h22l105 -101v-7h-46l-69 74h-2l-68 -74h-46z" />
    <glyph glyph-name="Ydieresis" unicode="&#x178;" horiz-adv-x="422" 
d="M184 205l-193 358h50l166 -310l163 310h50l-195 -358h-41zM182 0v218h46v-218h-46zM139 620q-24 0 -32.5 12.5t-8.5 28.5t8.5 28t32.5 12t32 -12t8 -28t-8 -28.5t-32 -12.5zM283 620q-24 0 -32.5 12.5t-8.5 28.5t8.5 28t32.5 12q25 0 32.5 -12t7.5 -28t-8 -28.5
t-32 -12.5z" />
    <glyph glyph-name="Zacute" unicode="&#x179;" horiz-adv-x="535" 
d="M33 0v39l399 482h-364v42h422v-39l-397 -482h394v-42h-454zM279 604h-24v8l54 104h44v-13z" />
    <glyph glyph-name="zacute" unicode="&#x17a;" horiz-adv-x="423" 
d="M35 0v34l292 335h-279v37h339v-36l-292 -333h292v-37h-352zM223 447h-24v8l54 104h44v-13z" />
    <glyph glyph-name="Zdotaccent" unicode="&#x17b;" horiz-adv-x="535" 
d="M33 0v39l399 482h-364v42h422v-39l-397 -482h394v-42h-454zM268 628q-20 0 -27.5 10.5t-7.5 24.5t7.5 24t27.5 10q21 0 27.5 -10t6.5 -24t-6.5 -24.5t-27.5 -10.5z" />
    <glyph glyph-name="zdotaccent" unicode="&#x17c;" horiz-adv-x="423" 
d="M35 0v34l292 335h-279v37h339v-36l-292 -333h292v-37h-352zM212 471q-20 0 -27.5 10.5t-7.5 24.5t7.5 24t27.5 10q21 0 27.5 -10t6.5 -24t-6.5 -24.5t-27.5 -10.5z" />
    <glyph glyph-name="Zcaron" unicode="&#x17d;" horiz-adv-x="535" 
d="M33 0v39l399 482h-364v42h422v-39l-397 -482h394v-42h-454zM256 604l-105 107v7h47l67 -81h3l68 81h46v-7l-105 -107h-21z" />
    <glyph glyph-name="zcaron" unicode="&#x17e;" horiz-adv-x="423" 
d="M35 0v34l292 335h-279v37h339v-36l-292 -333h292v-37h-352zM200 447l-105 107v7h47l67 -81h3l68 81h46v-7l-105 -107h-21z" />
    <glyph glyph-name="Ohorn" unicode="&#x1a0;" horiz-adv-x="601" 
d="M293 -14q-132 0 -201 79.5t-69 214.5q0 89 30 154.5t90 102t150 36.5q132 0 200.5 -79.5t68.5 -213.5q0 -87 -30.5 -153.5t-90 -103.5t-148.5 -37zM293 29q75 0 124.5 31.5t75 88t25.5 131.5q0 76 -24.5 132t-75 87t-125.5 31q-111 0 -168 -66t-57 -184q0 -74 24 -130.5
t74.5 -88.5t126.5 -32zM370 531l2 32h22q12 0 18 3t8 10.5t2 21.5h48q0 -25 -9 -39.5t-25.5 -21t-41.5 -6.5h-24z" />
    <glyph glyph-name="ohorn" unicode="&#x1a1;" horiz-adv-x="450" 
d="M218 -10q-63 0 -105.5 26.5t-63.5 73.5t-21 107q0 61 21 108.5t63.5 74t105.5 26.5q92 0 140.5 -57.5t48.5 -151.5q0 -58 -20 -105.5t-62 -74.5t-107 -27zM218 31q56 0 87 25t43.5 63.5t12.5 78.5q0 41 -12.5 79.5t-43.5 63.5t-87 25q-55 0 -87 -25t-44.5 -63.5
t-12.5 -79.5q0 -40 12.5 -78.5t44.5 -63.5t87 -25zM287 359l2 32h22q12 0 18 3t8 10.5t2 21.5h48q0 -25 -9 -39.5t-25.5 -21t-41.5 -6.5h-24z" />
    <glyph glyph-name="Uhorn" unicode="&#x1af;" horiz-adv-x="567" 
d="M280 -14q-109 0 -169 66.5t-60 187.5v323h46v-323q0 -53 13 -92.5t37 -66t58 -39.5t75 -13q60 0 100.5 23t62 70t21.5 118v323h45v-323q0 -123 -58.5 -188.5t-170.5 -65.5zM488 531l2 32h22q12 0 18 3t8 10.5t2 21.5h48q0 -25 -9 -39.5t-25.5 -21t-41.5 -6.5h-24z" />
    <glyph glyph-name="uhorn" unicode="&#x1b0;" horiz-adv-x="438" 
d="M194 -10q-38 0 -65.5 11t-45.5 30.5t-28 45t-14 55.5t-4 62v212h45v-212q0 -45 9.5 -82t36.5 -58.5t77 -21.5q48 0 76.5 22.5t42.5 58t16 75.5v218h47v-406h-38l-8 97h-2q-5 -16 -16 -34t-28.5 -35t-42.5 -27.5t-58 -10.5zM362 374l2 32h22q12 0 18 3t8 10.5t2 21.5h48
q0 -25 -9 -39.5t-25.5 -21t-41.5 -6.5h-24z" />
    <glyph glyph-name="uni0218" unicode="&#x218;" horiz-adv-x="511" 
d="M266 -13q-44 0 -85 10.5t-75 33t-54 57t-21 83.5h46q0 -3 2 -18t10.5 -36t29 -41t57 -33.5t93.5 -13.5q52 0 83.5 12.5t47.5 31t21.5 35.5t5.5 26q1 38 -19 61.5t-54 38t-74 24.5t-80.5 21.5t-74.5 29t-53.5 47t-17.5 76.5q2 44 30.5 75.5t76 48.5t104.5 17t103.5 -20.5
t74 -60t25.5 -99.5h-45q2 42 -15 69t-43 42t-54 20.5t-50 5.5q-69 0 -113.5 -28.5t-46.5 -72.5q-1 -38 19 -61t54 -36.5t74.5 -23.5t80.5 -21t73.5 -29t53 -48.5t18.5 -78.5q-2 -46 -30 -78t-74 -49t-104 -17zM219 -203v39h15q23 0 28.5 12.5t5.5 28.5q-22 -3 -33 6.5
t-11 30.5q0 14 7 24.5t27 10.5t27 -11t7 -38q0 -32 -5 -55.5t-17 -35.5t-34 -12h-17z" />
    <glyph glyph-name="uni0219" unicode="&#x219;" horiz-adv-x="396" 
d="M200 -10q-41 0 -70 11.5t-48 29.5t-30 37t-15.5 35t-4.5 24h45q0 -1 2.5 -16.5t14 -35.5t36.5 -34.5t70 -14.5q33 0 60 7.5t43 24t16 43.5q0 32 -20.5 49.5t-52.5 26t-67 16t-66.5 19.5t-51 35t-19.5 63q1 48 45 77.5t113 29.5q26 0 55 -6t53.5 -21t40 -41t12.5 -68h-44
q1 31 -10.5 50t-31 29.5t-40.5 13.5t-38 3q-47 0 -79.5 -17t-32.5 -52q0 -29 20 -45t52 -24.5t67 -15.5t67 -20t52 -37t20 -67q0 -39 -21.5 -63t-58.5 -35t-83 -11zM162 -203v39h15q23 0 28.5 12.5t5.5 28.5q-22 -3 -33 6.5t-11 30.5q0 14 7 24.5t27 10.5t27 -11t7 -38
q0 -32 -5 -55.5t-17 -35.5t-34 -12h-17z" />
    <glyph glyph-name="uni021A" unicode="&#x21a;" horiz-adv-x="442" 
d="M243 545v-545h-45v545h45zM10 522v41h420v-41h-420zM184 -203v39h15q23 0 28.5 12.5t5.5 28.5q-22 -3 -33 6.5t-11 30.5q0 14 7 24.5t27 10.5t27 -11t7 -38q0 -32 -5 -55.5t-17 -35.5t-34 -12h-17z" />
    <glyph glyph-name="uni021B" unicode="&#x21b;" horiz-adv-x="262" 
d="M125 0q-31 0 -40.5 18t-9.5 43v316h44v-338h95v-39h-89zM8 369v37q27 0 41 2t20 11.5t7.5 31t1.5 60.5h41v-105h95v-37h-206zM95 -203v39h15q23 0 28.5 12.5t5.5 28.5q-22 -3 -33 6.5t-11 30.5q0 14 7 24.5t27 10.5t27 -11t7 -38q0 -32 -5 -55.5t-17 -35.5t-34 -12h-17z
" />
    <glyph glyph-name="uni0237" unicode="&#x237;" horiz-adv-x="195" 
d="M61 406h46v-505q0 -25 -9 -43t-41 -18h-66v39h70v527z" />
    <glyph glyph-name="circumflex" unicode="&#x2c6;" horiz-adv-x="402" 
d="M86 462v7l104 101h22l105 -101v-7h-46l-69 74h-2l-68 -74h-46z" />
    <glyph glyph-name="caron" unicode="&#x2c7;" horiz-adv-x="396" 
d="M187 447l-105 107v7h47l67 -81h3l68 81h46v-7l-105 -107h-21z" />
    <glyph glyph-name="breve" unicode="&#x2d8;" horiz-adv-x="326" 
d="M164 460q-51 0 -81 23t-30 60h35q0 -32 22 -41t53 -9q30 0 52 8.5t22 41.5h35q0 -37 -28.5 -60t-79.5 -23z" />
    <glyph glyph-name="dotaccent" unicode="&#x2d9;" horiz-adv-x="171" 
d="M86 471q-20 0 -27.5 10.5t-7.5 24.5t7.5 24t27.5 10q21 0 27.5 -10t6.5 -24t-6.5 -24.5t-27.5 -10.5z" />
    <glyph glyph-name="ring" unicode="&#x2da;" horiz-adv-x="252" 
d="M125 466q-40 0 -63.5 23t-23.5 62q0 40 23 64t64 24t65 -24t24 -64q0 -36 -24 -60.5t-65 -24.5zM125 495q27 0 42 17t15 41q0 23 -15 40t-42 17t-42 -17t-15 -40q0 -25 16.5 -41.5t40.5 -16.5z" />
    <glyph glyph-name="ogonek" unicode="&#x2db;" horiz-adv-x="239" 
d="M121 -199q-24 0 -42.5 10t-29 27.5t-10.5 40.5q0 27 13 48.5t32 38.5t38.5 28.5t32.5 17l13 5.5v-21l-14 -8t-32.5 -22.5t-32 -35.5t-13.5 -46q0 -20 12.5 -33.5t34.5 -13.5q20 0 30 8.5t14.5 16.5l4.5 8l30 -23l-8.5 -11.5t-26.5 -23t-46 -11.5z" />
    <glyph glyph-name="tilde" unicode="&#x2dc;" horiz-adv-x="359" 
d="M72 471q-1 16 1 30.5t8 26.5t17.5 19t30.5 7q22 0 35.5 -8t22 -19t18 -19t23.5 -8q18 0 21.5 14t3.5 40h33q1 -16 -1 -31.5t-8 -27t-17.5 -18.5t-29.5 -7q-22 0 -35.5 8.5t-22.5 19t-18 18.5t-23 8q-17 0 -21.5 -14t-3.5 -39h-34z" />
    <glyph glyph-name="hungarumlaut" unicode="&#x2dd;" horiz-adv-x="309" 
d="M31 466l79 132l43 -19l-99 -124zM156 466l79 132l43 -19l-99 -124z" />
    <glyph glyph-name="gravecomb" unicode="&#x300;" 
d="M112 447l-75 99v13h44l54 -104v-8h-23z" />
    <glyph glyph-name="acutecomb" unicode="&#x301;" 
d="M61 447h-24v8l54 104h44v-13z" />
    <glyph glyph-name="uni0302" unicode="&#x302;" 
d="M86 462v7l104 101h22l105 -101v-7h-46l-69 74h-2l-68 -74h-46z" />
    <glyph glyph-name="tildecomb" unicode="&#x303;" 
d="M72 471q-1 16 1 30.5t8 26.5t17.5 19t30.5 7q22 0 35.5 -8t22 -19t18 -19t23.5 -8q18 0 21.5 14t3.5 40h33q1 -16 -1 -31.5t-8 -27t-17.5 -18.5t-29.5 -7q-22 0 -35.5 8.5t-22.5 19t-18 18.5t-23 8q-17 0 -21.5 -14t-3.5 -39h-34z" />
    <glyph glyph-name="uni0304" unicode="&#x304;" 
d="M40 469v38h235v-38h-235z" />
    <glyph glyph-name="uni0306" unicode="&#x306;" 
d="M164 460q-51 0 -81 23t-30 60h35q0 -32 22 -41t53 -9q30 0 52 8.5t22 41.5h35q0 -37 -28.5 -60t-79.5 -23z" />
    <glyph glyph-name="uni0307" unicode="&#x307;" 
d="M86 471q-20 0 -27.5 10.5t-7.5 24.5t7.5 24t27.5 10q21 0 27.5 -10t6.5 -24t-6.5 -24.5t-27.5 -10.5z" />
    <glyph glyph-name="uni0308" unicode="&#x308;" 
d="M86 463q-24 0 -32.5 12.5t-8.5 28.5t8.5 28t32.5 12t32 -12t8 -28t-8 -28.5t-32 -12.5zM230 463q-24 0 -32.5 12.5t-8.5 28.5t8.5 28t32.5 12q25 0 32.5 -12t7.5 -28t-8 -28.5t-32 -12.5z" />
    <glyph glyph-name="hookabovecomb" unicode="&#x309;" 
d="M75 462v9q4 13 18 22.5t27 20t13 27.5q0 13 -9.5 20.5t-22.5 7.5q-11 0 -22.5 -7.5t-16.5 -23.5l-27 11q7 25 27 38t42 13q23 0 42 -13t19 -41q0 -25 -13 -38t-26 -22.5t-14 -23.5h-37z" />
    <glyph glyph-name="uni030A" unicode="&#x30a;" 
d="M125 466q-40 0 -63.5 23t-23.5 62q0 40 23 64t64 24t65 -24t24 -64q0 -36 -24 -60.5t-65 -24.5zM125 495q27 0 42 17t15 41q0 23 -15 40t-42 17t-42 -17t-15 -40q0 -25 16.5 -41.5t40.5 -16.5z" />
    <glyph glyph-name="uni030B" unicode="&#x30b;" 
d="M31 466l79 132l43 -19l-99 -124zM156 466l79 132l43 -19l-99 -124z" />
    <glyph glyph-name="uni030C" unicode="&#x30c;" 
d="M187 447l-105 107v7h47l67 -81h3l68 81h46v-7l-105 -107h-21z" />
    <glyph glyph-name="uni0312" unicode="&#x312;" 
d="M91 458h-23v8l54 104h44v-13z" />
    <glyph glyph-name="uni031B" unicode="&#x31b;" 
d="M45 626l2 32h22q12 0 18 3t8 10.5t2 21.5h48q0 -25 -9 -39.5t-25.5 -21t-41.5 -6.5h-24z" />
    <glyph glyph-name="dotbelowcomb" unicode="&#x323;" 
d="M79 -137q-20 0 -27.5 11t-7.5 24q0 14 7.5 24t27.5 10q22 0 28 -10t6 -24q0 -13 -6 -24t-28 -11z" />
    <glyph glyph-name="uni0326" unicode="&#x326;" 
d="M47 -203v39h15q23 0 28.5 12.5t5.5 28.5q-22 -3 -33 6.5t-11 30.5q0 14 7 24.5t27 10.5t27 -11t7 -38q0 -32 -5 -55.5t-17 -35.5t-34 -12h-17z" />
    <glyph glyph-name="uni0327" unicode="&#x327;" 
d="M32 -117l19 26q13 -14 35 -23t44 -9q23 0 38.5 10t15.5 30q0 16 -12 22.5t-27 6.5q-14 0 -30 -5.5t-29 -15.5l-22 18l38 77l28 -11l-40 -62q11 12 28.5 18.5t35.5 6.5q25 0 45 -12.5t20 -42.5q0 -35 -28.5 -53.5t-66.5 -18.5q-23 0 -48 10t-44 28z" />
    <glyph glyph-name="uni0328" unicode="&#x328;" 
d="M121 -199q-24 0 -42.5 10t-29 27.5t-10.5 40.5q0 27 13 48.5t32 38.5t38.5 28.5t32.5 17l13 5.5v-21l-14 -8t-32.5 -22.5t-32 -35.5t-13.5 -46q0 -20 12.5 -33.5t34.5 -13.5q20 0 30 8.5t14.5 16.5l4.5 8l30 -23l-8.5 -11.5t-26.5 -23t-46 -11.5z" />
    <glyph glyph-name="Wgrave" unicode="&#x1e80;" horiz-adv-x="848" 
d="M390 563h49l-25 -63l-162 -500h-76l-173 563h49l163 -540zM778 563h50l-182 -563h-75l-157 500l-23 63h48l169 -540zM422 604l-75 99v13h44l54 -104v-8h-23z" />
    <glyph glyph-name="wgrave" unicode="&#x1e81;" horiz-adv-x="587" 
d="M118 0l-116 393v13h43l104 -367h2l113 367h42l115 -367h2l102 367h43v-13l-114 -393h-66l-102 326h-2l-101 -326h-65zM292 447l-75 99v13h44l54 -104v-8h-23z" />
    <glyph glyph-name="Wacute" unicode="&#x1e82;" horiz-adv-x="848" 
d="M390 563h49l-25 -63l-162 -500h-76l-173 563h49l163 -540zM778 563h50l-182 -563h-75l-157 500l-23 63h48l169 -540zM436 604h-24v8l54 104h44v-13z" />
    <glyph glyph-name="wacute" unicode="&#x1e83;" horiz-adv-x="587" 
d="M118 0l-116 393v13h43l104 -367h2l113 367h42l115 -367h2l102 367h43v-13l-114 -393h-66l-102 326h-2l-101 -326h-65zM306 447h-24v8l54 104h44v-13z" />
    <glyph glyph-name="Wdieresis" unicode="&#x1e84;" horiz-adv-x="848" 
d="M390 563h49l-25 -63l-162 -500h-76l-173 563h49l163 -540zM778 563h50l-182 -563h-75l-157 500l-23 63h48l169 -540zM352 620q-24 0 -32.5 12.5t-8.5 28.5t8.5 28t32.5 12t32 -12t8 -28t-8 -28.5t-32 -12.5zM496 620q-24 0 -32.5 12.5t-8.5 28.5t8.5 28t32.5 12
q25 0 32.5 -12t7.5 -28t-8 -28.5t-32 -12.5z" />
    <glyph glyph-name="wdieresis" unicode="&#x1e85;" horiz-adv-x="587" 
d="M118 0l-116 393v13h43l104 -367h2l113 367h42l115 -367h2l102 367h43v-13l-114 -393h-66l-102 326h-2l-101 -326h-65zM222 463q-24 0 -32.5 12.5t-8.5 28.5t8.5 28t32.5 12t32 -12t8 -28t-8 -28.5t-32 -12.5zM366 463q-24 0 -32.5 12.5t-8.5 28.5t8.5 28t32.5 12
q25 0 32.5 -12t7.5 -28t-8 -28.5t-32 -12.5z" />
    <glyph glyph-name="uni1E9E" unicode="&#x1e9e;" horiz-adv-x="541" 
d="M68 -122v728h405v-728h-405zM113 -82h315v648h-315v-648z" />
    <glyph glyph-name="uni1EA0" unicode="&#x1ea0;" horiz-adv-x="529" 
d="M20 0l207 563h75l209 -563h-48l-198 542l-199 -542h-46zM121 185l9 40h270l8 -40h-287zM264 -137q-20 0 -27.5 11t-7.5 24q0 14 7.5 24t27.5 10q22 0 28 -10t6 -24q0 -13 -6 -24t-28 -11z" />
    <glyph glyph-name="uni1EA1" unicode="&#x1ea1;" horiz-adv-x="413" 
d="M183 -9q-56 0 -93 28t-55 75.5t-18 105.5q0 61 18.5 108t56 74.5t91.5 27.5q30 0 53 -8t41 -21t30.5 -29.5t19.5 -35.5h1v90h47v-406h-38l-8 84h-2q-8 -18 -20.5 -34.5t-30.5 -30t-41 -21t-52 -7.5zM200 33q43 0 71.5 20t42.5 57.5t14 88.5q0 56 -15 92.5t-43.5 55.5
t-69.5 19q-47 0 -77.5 -22t-45 -59t-14.5 -85q0 -49 15 -87t45.5 -59t76.5 -21zM207 -137q-20 0 -27.5 11t-7.5 24q0 14 7.5 24t27.5 10q22 0 28 -10t6 -24q0 -13 -6 -24t-28 -11z" />
    <glyph glyph-name="uni1EA2" unicode="&#x1ea2;" horiz-adv-x="529" 
d="M20 0l207 563h75l209 -563h-48l-198 542l-199 -542h-46zM121 185l9 40h270l8 -40h-287zM243 619v9q4 13 18 22.5t27 20t13 27.5q0 13 -9.5 20.5t-22.5 7.5q-11 0 -22.5 -7.5t-16.5 -23.5l-27 11q7 25 27 38t42 13q23 0 42 -13t19 -41q0 -25 -13 -38t-26 -22.5t-14 -23.5
h-37z" />
    <glyph glyph-name="uni1EA3" unicode="&#x1ea3;" horiz-adv-x="413" 
d="M183 -9q-56 0 -93 28t-55 75.5t-18 105.5q0 61 18.5 108t56 74.5t91.5 27.5q30 0 53 -8t41 -21t30.5 -29.5t19.5 -35.5h1v90h47v-406h-38l-8 84h-2q-8 -18 -20.5 -34.5t-30.5 -30t-41 -21t-52 -7.5zM200 33q43 0 71.5 20t42.5 57.5t14 88.5q0 56 -15 92.5t-43.5 55.5
t-69.5 19q-47 0 -77.5 -22t-45 -59t-14.5 -85q0 -49 15 -87t45.5 -59t76.5 -21zM185 462v9q4 13 18 22.5t27 20t13 27.5q0 13 -9.5 20.5t-22.5 7.5q-11 0 -22.5 -7.5t-16.5 -23.5l-27 11q7 25 27 38t42 13q23 0 42 -13t19 -41q0 -25 -13 -38t-26 -22.5t-14 -23.5h-37z" />
    <glyph glyph-name="uni1EA4" unicode="&#x1ea4;" horiz-adv-x="529" 
d="M20 0l207 563h75l209 -563h-48l-198 542l-199 -542h-46zM121 185l9 40h270l8 -40h-287zM150 619v7l104 101h22l105 -101v-7h-46l-69 74h-2l-68 -74h-46zM384 704h-24v8l54 104h44v-13z" />
    <glyph glyph-name="uni1EA5" unicode="&#x1ea5;" horiz-adv-x="413" 
d="M183 -9q-56 0 -93 28t-55 75.5t-18 105.5q0 61 18.5 108t56 74.5t91.5 27.5q30 0 53 -8t41 -21t30.5 -29.5t19.5 -35.5h1v90h47v-406h-38l-8 84h-2q-8 -18 -20.5 -34.5t-30.5 -30t-41 -21t-52 -7.5zM200 33q43 0 71.5 20t42.5 57.5t14 88.5q0 56 -15 92.5t-43.5 55.5
t-69.5 19q-47 0 -77.5 -22t-45 -59t-14.5 -85q0 -49 15 -87t45.5 -59t76.5 -21zM92 462v7l104 101h22l105 -101v-7h-46l-69 74h-2l-68 -74h-46zM326 547h-24v8l54 104h44v-13z" />
    <glyph glyph-name="uni1EA6" unicode="&#x1ea6;" horiz-adv-x="529" 
d="M20 0l207 563h75l209 -563h-48l-198 542l-199 -542h-46zM121 185l9 40h270l8 -40h-287zM374 704l-75 99v13h44l54 -104v-8h-23zM143 619v7l104 101h22l105 -101v-7h-46l-69 74h-2l-68 -74h-46z" />
    <glyph glyph-name="uni1EA7" unicode="&#x1ea7;" horiz-adv-x="413" 
d="M183 -9q-56 0 -93 28t-55 75.5t-18 105.5q0 61 18.5 108t56 74.5t91.5 27.5q30 0 53 -8t41 -21t30.5 -29.5t19.5 -35.5h1v90h47v-406h-38l-8 84h-2q-8 -18 -20.5 -34.5t-30.5 -30t-41 -21t-52 -7.5zM200 33q43 0 71.5 20t42.5 57.5t14 88.5q0 56 -15 92.5t-43.5 55.5
t-69.5 19q-47 0 -77.5 -22t-45 -59t-14.5 -85q0 -49 15 -87t45.5 -59t76.5 -21zM316 547l-75 99v13h44l54 -104v-8h-23zM85 461v7l104 101h22l105 -101v-7h-46l-69 74h-2l-68 -74h-46z" />
    <glyph glyph-name="uni1EA8" unicode="&#x1ea8;" horiz-adv-x="529" 
d="M20 0l207 563h75l209 -563h-48l-198 542l-199 -542h-46zM121 185l9 40h270l8 -40h-287zM143 619v7l104 101h22l105 -101v-7h-46l-69 74h-2l-68 -74h-46zM350 709v9q4 13 18 22.5t27 20t13 27.5q0 13 -9.5 20.5t-22.5 7.5q-11 0 -22.5 -7.5t-16.5 -23.5l-27 11q7 25 27 38
t42 13q23 0 42 -13t19 -41q0 -25 -13 -38t-26 -22.5t-14 -23.5h-37z" />
    <glyph glyph-name="uni1EA9" unicode="&#x1ea9;" horiz-adv-x="413" 
d="M183 -9q-56 0 -93 28t-55 75.5t-18 105.5q0 61 18.5 108t56 74.5t91.5 27.5q30 0 53 -8t41 -21t30.5 -29.5t19.5 -35.5h1v90h47v-406h-38l-8 84h-2q-8 -18 -20.5 -34.5t-30.5 -30t-41 -21t-52 -7.5zM200 33q43 0 71.5 20t42.5 57.5t14 88.5q0 56 -15 92.5t-43.5 55.5
t-69.5 19q-47 0 -77.5 -22t-45 -59t-14.5 -85q0 -49 15 -87t45.5 -59t76.5 -21zM85 461v7l104 101h22l105 -101v-7h-46l-69 74h-2l-68 -74h-46zM292 552v9q4 13 18 22.5t27 20t13 27.5q0 13 -9.5 20.5t-22.5 7.5q-11 0 -22.5 -7.5t-16.5 -23.5l-27 11q7 25 27 38t42 13
q23 0 42 -13t19 -41q0 -25 -13 -38t-26 -22.5t-14 -23.5h-37z" />
    <glyph glyph-name="uni1EAA" unicode="&#x1eaa;" horiz-adv-x="529" 
d="M20 0l207 563h75l209 -563h-48l-198 542l-199 -542h-46zM121 185l9 40h270l8 -40h-287zM150 619v7l104 101h22l105 -101v-7h-46l-69 74h-2l-68 -74h-46zM156 773q-1 16 1 30.5t8 26.5t17.5 19t30.5 7q22 0 35.5 -8t22 -19t18 -19t23.5 -8q18 0 21.5 14t3.5 40h33
q1 -16 -1 -31.5t-8 -27t-17.5 -18.5t-29.5 -7q-22 0 -35.5 8.5t-22.5 19t-18 18.5t-23 8q-17 0 -21.5 -14t-3.5 -39h-34z" />
    <glyph glyph-name="uni1EAB" unicode="&#x1eab;" horiz-adv-x="413" 
d="M183 -9q-56 0 -93 28t-55 75.5t-18 105.5q0 61 18.5 108t56 74.5t91.5 27.5q30 0 53 -8t41 -21t30.5 -29.5t19.5 -35.5h1v90h47v-406h-38l-8 84h-2q-8 -18 -20.5 -34.5t-30.5 -30t-41 -21t-52 -7.5zM200 33q43 0 71.5 20t42.5 57.5t14 88.5q0 56 -15 92.5t-43.5 55.5
t-69.5 19q-47 0 -77.5 -22t-45 -59t-14.5 -85q0 -49 15 -87t45.5 -59t76.5 -21zM92 461v7l104 101h22l105 -101v-7h-46l-69 74h-2l-68 -74h-46zM98 615q-1 16 1 30.5t8 26.5t17.5 19t30.5 7q22 0 35.5 -8t22 -19t18 -19t23.5 -8q18 0 21.5 14t3.5 40h33q1 -16 -1 -31.5
t-8 -27t-17.5 -18.5t-29.5 -7q-22 0 -35.5 8.5t-22.5 19t-18 18.5t-23 8q-17 0 -21.5 -14t-3.5 -39h-34z" />
    <glyph glyph-name="uni1EAC" unicode="&#x1eac;" horiz-adv-x="529" 
d="M20 0l207 563h75l209 -563h-48l-198 542l-199 -542h-46zM121 185l9 40h270l8 -40h-287zM264 -137q-20 0 -27.5 11t-7.5 24q0 14 7.5 24t27.5 10q22 0 28 -10t6 -24q0 -13 -6 -24t-28 -11zM149 619v7l104 101h22l105 -101v-7h-46l-69 74h-2l-68 -74h-46z" />
    <glyph glyph-name="uni1EAD" unicode="&#x1ead;" horiz-adv-x="413" 
d="M183 -9q-56 0 -93 28t-55 75.5t-18 105.5q0 61 18.5 108t56 74.5t91.5 27.5q30 0 53 -8t41 -21t30.5 -29.5t19.5 -35.5h1v90h47v-406h-38l-8 84h-2q-8 -18 -20.5 -34.5t-30.5 -30t-41 -21t-52 -7.5zM200 33q43 0 71.5 20t42.5 57.5t14 88.5q0 56 -15 92.5t-43.5 55.5
t-69.5 19q-47 0 -77.5 -22t-45 -59t-14.5 -85q0 -49 15 -87t45.5 -59t76.5 -21zM207 -137q-20 0 -27.5 11t-7.5 24q0 14 7.5 24t27.5 10q22 0 28 -10t6 -24q0 -13 -6 -24t-28 -11zM91 462v7l104 101h22l105 -101v-7h-46l-69 74h-2l-68 -74h-46z" />
    <glyph glyph-name="uni1EAE" unicode="&#x1eae;" horiz-adv-x="529" 
d="M20 0l207 563h75l209 -563h-48l-198 542l-199 -542h-46zM121 185l9 40h270l8 -40h-287zM266 617q-51 0 -81 23t-30 60h35q0 -32 22 -41t53 -9q30 0 52 8.5t22 41.5h35q0 -37 -28.5 -60t-79.5 -23zM276 718h-24v8l54 104h44v-13z" />
    <glyph glyph-name="uni1EAF" unicode="&#x1eaf;" horiz-adv-x="413" 
d="M183 -9q-56 0 -93 28t-55 75.5t-18 105.5q0 61 18.5 108t56 74.5t91.5 27.5q30 0 53 -8t41 -21t30.5 -29.5t19.5 -35.5h1v90h47v-406h-38l-8 84h-2q-8 -18 -20.5 -34.5t-30.5 -30t-41 -21t-52 -7.5zM200 33q43 0 71.5 20t42.5 57.5t14 88.5q0 56 -15 92.5t-43.5 55.5
t-69.5 19q-47 0 -77.5 -22t-45 -59t-14.5 -85q0 -49 15 -87t45.5 -59t76.5 -21zM208 460q-51 0 -81 23t-30 60h35q0 -32 22 -41t53 -9q30 0 52 8.5t22 41.5h35q0 -37 -28.5 -60t-79.5 -23zM218 561h-24v8l54 104h44v-13z" />
    <glyph glyph-name="uni1EB0" unicode="&#x1eb0;" horiz-adv-x="529" 
d="M20 0l207 563h75l209 -563h-48l-198 542l-199 -542h-46zM121 185l9 40h270l8 -40h-287zM266 617q-51 0 -81 23t-30 60h35q0 -32 22 -41t53 -9q30 0 52 8.5t22 41.5h35q0 -37 -28.5 -60t-79.5 -23zM262 718l-75 99v13h44l54 -104v-8h-23z" />
    <glyph glyph-name="uni1EB1" unicode="&#x1eb1;" horiz-adv-x="413" 
d="M183 -9q-56 0 -93 28t-55 75.5t-18 105.5q0 61 18.5 108t56 74.5t91.5 27.5q30 0 53 -8t41 -21t30.5 -29.5t19.5 -35.5h1v90h47v-406h-38l-8 84h-2q-8 -18 -20.5 -34.5t-30.5 -30t-41 -21t-52 -7.5zM200 33q43 0 71.5 20t42.5 57.5t14 88.5q0 56 -15 92.5t-43.5 55.5
t-69.5 19q-47 0 -77.5 -22t-45 -59t-14.5 -85q0 -49 15 -87t45.5 -59t76.5 -21zM208 460q-51 0 -81 23t-30 60h35q0 -32 22 -41t53 -9q30 0 52 8.5t22 41.5h35q0 -37 -28.5 -60t-79.5 -23zM204 561l-75 99v13h44l54 -104v-8h-23z" />
    <glyph glyph-name="uni1EB2" unicode="&#x1eb2;" horiz-adv-x="529" 
d="M20 0l207 563h75l209 -563h-48l-198 542l-199 -542h-46zM121 185l9 40h270l8 -40h-287zM266 617q-51 0 -81 23t-30 60h35q0 -32 22 -41t53 -9q30 0 52 8.5t22 41.5h35q0 -37 -28.5 -60t-79.5 -23zM243 733v9q4 13 18 22.5t27 20t13 27.5q0 13 -9.5 20.5t-22.5 7.5
q-11 0 -22.5 -7.5t-16.5 -23.5l-27 11q7 25 27 38t42 13q23 0 42 -13t19 -41q0 -25 -13 -38t-26 -22.5t-14 -23.5h-37z" />
    <glyph glyph-name="uni1EB3" unicode="&#x1eb3;" horiz-adv-x="413" 
d="M183 -9q-56 0 -93 28t-55 75.5t-18 105.5q0 61 18.5 108t56 74.5t91.5 27.5q30 0 53 -8t41 -21t30.5 -29.5t19.5 -35.5h1v90h47v-406h-38l-8 84h-2q-8 -18 -20.5 -34.5t-30.5 -30t-41 -21t-52 -7.5zM200 33q43 0 71.5 20t42.5 57.5t14 88.5q0 56 -15 92.5t-43.5 55.5
t-69.5 19q-47 0 -77.5 -22t-45 -59t-14.5 -85q0 -49 15 -87t45.5 -59t76.5 -21zM208 460q-51 0 -81 23t-30 60h35q0 -32 22 -41t53 -9q30 0 52 8.5t22 41.5h35q0 -37 -28.5 -60t-79.5 -23zM185 576v9q4 13 18 22.5t27 20t13 27.5q0 13 -9.5 20.5t-22.5 7.5q-11 0 -22.5 -7.5
t-16.5 -23.5l-27 11q7 25 27 38t42 13q23 0 42 -13t19 -41q0 -25 -13 -38t-26 -22.5t-14 -23.5h-37z" />
    <glyph glyph-name="uni1EB4" unicode="&#x1eb4;" horiz-adv-x="529" 
d="M20 0l207 563h75l209 -563h-48l-198 542l-199 -542h-46zM121 185l9 40h270l8 -40h-287zM266 617q-51 0 -81 23t-30 60h35q0 -32 22 -41t53 -9q30 0 52 8.5t22 41.5h35q0 -37 -28.5 -60t-79.5 -23zM157 742q-1 16 1 30.5t8 26.5t17.5 19t30.5 7q22 0 35.5 -8t22 -19
t18 -19t23.5 -8q18 0 21.5 14t3.5 40h33q1 -16 -1 -31.5t-8 -27t-17.5 -18.5t-29.5 -7q-22 0 -35.5 8.5t-22.5 19t-18 18.5t-23 8q-17 0 -21.5 -14t-3.5 -39h-34z" />
    <glyph glyph-name="uni1EB5" unicode="&#x1eb5;" horiz-adv-x="413" 
d="M183 -9q-56 0 -93 28t-55 75.5t-18 105.5q0 61 18.5 108t56 74.5t91.5 27.5q30 0 53 -8t41 -21t30.5 -29.5t19.5 -35.5h1v90h47v-406h-38l-8 84h-2q-8 -18 -20.5 -34.5t-30.5 -30t-41 -21t-52 -7.5zM200 33q43 0 71.5 20t42.5 57.5t14 88.5q0 56 -15 92.5t-43.5 55.5
t-69.5 19q-47 0 -77.5 -22t-45 -59t-14.5 -85q0 -49 15 -87t45.5 -59t76.5 -21zM209 460q-51 0 -81 23t-30 60h35q0 -32 22 -41t53 -9q30 0 52 8.5t22 41.5h35q0 -37 -28.5 -60t-79.5 -23zM100 585q-1 16 1 30.5t8 26.5t17.5 19t30.5 7q22 0 35.5 -8t22 -19t18 -19t23.5 -8
q18 0 21.5 14t3.5 40h33q1 -16 -1 -31.5t-8 -27t-17.5 -18.5t-29.5 -7q-22 0 -35.5 8.5t-22.5 19t-18 18.5t-23 8q-17 0 -21.5 -14t-3.5 -39h-34z" />
    <glyph glyph-name="uni1EB6" unicode="&#x1eb6;" horiz-adv-x="529" 
d="M20 0l207 563h75l209 -563h-48l-198 542l-199 -542h-46zM121 185l9 40h270l8 -40h-287zM264 -137q-20 0 -27.5 11t-7.5 24q0 14 7.5 24t27.5 10q22 0 28 -10t6 -24q0 -13 -6 -24t-28 -11zM266 617q-51 0 -81 23t-30 60h35q0 -32 22 -41t53 -9q30 0 52 8.5t22 41.5h35
q0 -37 -28.5 -60t-79.5 -23z" />
    <glyph glyph-name="uni1EB7" unicode="&#x1eb7;" horiz-adv-x="413" 
d="M183 -9q-56 0 -93 28t-55 75.5t-18 105.5q0 61 18.5 108t56 74.5t91.5 27.5q30 0 53 -8t41 -21t30.5 -29.5t19.5 -35.5h1v90h47v-406h-38l-8 84h-2q-8 -18 -20.5 -34.5t-30.5 -30t-41 -21t-52 -7.5zM200 33q43 0 71.5 20t42.5 57.5t14 88.5q0 56 -15 92.5t-43.5 55.5
t-69.5 19q-47 0 -77.5 -22t-45 -59t-14.5 -85q0 -49 15 -87t45.5 -59t76.5 -21zM207 -137q-20 0 -27.5 11t-7.5 24q0 14 7.5 24t27.5 10q22 0 28 -10t6 -24q0 -13 -6 -24t-28 -11zM208 460q-51 0 -81 23t-30 60h35q0 -32 22 -41t53 -9q30 0 52 8.5t22 41.5h35
q0 -37 -28.5 -60t-79.5 -23z" />
    <glyph glyph-name="uni1EB8" unicode="&#x1eb8;" horiz-adv-x="468" 
d="M58 0v563h366v-42h-320v-216h256v-40h-256v-226h329v-39h-375zM234 -137q-20 0 -27.5 11t-7.5 24q0 14 7.5 24t27.5 10q22 0 28 -10t6 -24q0 -13 -6 -24t-28 -11z" />
    <glyph glyph-name="uni1EB9" unicode="&#x1eb9;" horiz-adv-x="445" 
d="M220 -10q-65 0 -107.5 31t-63.5 79.5t-20 100.5q0 54 22 101t64.5 75.5t103.5 28.5q51 0 90.5 -22.5t63.5 -63t27 -96.5q1 -5 1 -12v-13h-328q0 -77 38.5 -123t108.5 -46q51 0 88.5 27t46.5 73h45q-7 -41 -32 -72.5t-63 -49.5t-85 -18zM76 229h278q-1 19 -8.5 42.5
t-23.5 45.5t-41.5 36t-61.5 14q-33 0 -58 -11.5t-42.5 -30.5t-28 -43.5t-14.5 -52.5zM223 -137q-20 0 -27.5 11t-7.5 24q0 14 7.5 24t27.5 10q22 0 28 -10t6 -24q0 -13 -6 -24t-28 -11z" />
    <glyph glyph-name="uni1EBA" unicode="&#x1eba;" horiz-adv-x="468" 
d="M58 0v563h366v-42h-320v-216h256v-40h-256v-226h329v-39h-375zM213 619v9q4 13 18 22.5t27 20t13 27.5q0 13 -9.5 20.5t-22.5 7.5q-11 0 -22.5 -7.5t-16.5 -23.5l-27 11q7 25 27 38t42 13q23 0 42 -13t19 -41q0 -25 -13 -38t-26 -22.5t-14 -23.5h-37z" />
    <glyph glyph-name="uni1EBB" unicode="&#x1ebb;" horiz-adv-x="445" 
d="M220 -10q-65 0 -107.5 31t-63.5 79.5t-20 100.5q0 54 22 101t64.5 75.5t103.5 28.5q51 0 90.5 -22.5t63.5 -63t27 -96.5q1 -5 1 -12v-13h-328q0 -77 38.5 -123t108.5 -46q51 0 88.5 27t46.5 73h45q-7 -41 -32 -72.5t-63 -49.5t-85 -18zM76 229h278q-1 19 -8.5 42.5
t-23.5 45.5t-41.5 36t-61.5 14q-33 0 -58 -11.5t-42.5 -30.5t-28 -43.5t-14.5 -52.5zM201 462v9q4 13 18 22.5t27 20t13 27.5q0 13 -9.5 20.5t-22.5 7.5q-11 0 -22.5 -7.5t-16.5 -23.5l-27 11q7 25 27 38t42 13q23 0 42 -13t19 -41q0 -25 -13 -38t-26 -22.5t-14 -23.5h-37z
" />
    <glyph glyph-name="uni1EBC" unicode="&#x1ebc;" horiz-adv-x="468" 
d="M58 0v563h366v-42h-320v-216h256v-40h-256v-226h329v-39h-375zM127 628q-1 16 1 30.5t8 26.5t17.5 19t30.5 7q22 0 35.5 -8t22 -19t18 -19t23.5 -8q18 0 21.5 14t3.5 40h33q1 -16 -1 -31.5t-8 -27t-17.5 -18.5t-29.5 -7q-22 0 -35.5 8.5t-22.5 19t-18 18.5t-23 8
q-17 0 -21.5 -14t-3.5 -39h-34z" />
    <glyph glyph-name="uni1EBD" unicode="&#x1ebd;" horiz-adv-x="445" 
d="M220 -10q-65 0 -107.5 31t-63.5 79.5t-20 100.5q0 54 22 101t64.5 75.5t103.5 28.5q51 0 90.5 -22.5t63.5 -63t27 -96.5q1 -5 1 -12v-13h-328q0 -77 38.5 -123t108.5 -46q51 0 88.5 27t46.5 73h45q-7 -41 -32 -72.5t-63 -49.5t-85 -18zM76 229h278q-1 19 -8.5 42.5
t-23.5 45.5t-41.5 36t-61.5 14q-33 0 -58 -11.5t-42.5 -30.5t-28 -43.5t-14.5 -52.5zM115 471q-1 16 1 30.5t8 26.5t17.5 19t30.5 7q22 0 35.5 -8t22 -19t18 -19t23.5 -8q18 0 21.5 14t3.5 40h33q1 -16 -1 -31.5t-8 -27t-17.5 -18.5t-29.5 -7q-22 0 -35.5 8.5t-22.5 19
t-18 18.5t-23 8q-17 0 -21.5 -14t-3.5 -39h-34z" />
    <glyph glyph-name="uni1EBE" unicode="&#x1ebe;" horiz-adv-x="468" 
d="M58 0v563h366v-42h-320v-216h256v-40h-256v-226h329v-39h-375zM120 619v7l104 101h22l105 -101v-7h-46l-69 74h-2l-68 -74h-46zM354 704h-24v8l54 104h44v-13z" />
    <glyph glyph-name="uni1EBF" unicode="&#x1ebf;" horiz-adv-x="445" 
d="M220 -10q-65 0 -107.5 31t-63.5 79.5t-20 100.5q0 54 22 101t64.5 75.5t103.5 28.5q51 0 90.5 -22.5t63.5 -63t27 -96.5q1 -5 1 -12v-13h-328q0 -77 38.5 -123t108.5 -46q51 0 88.5 27t46.5 73h45q-7 -41 -32 -72.5t-63 -49.5t-85 -18zM76 229h278q-1 19 -8.5 42.5
t-23.5 45.5t-41.5 36t-61.5 14q-33 0 -58 -11.5t-42.5 -30.5t-28 -43.5t-14.5 -52.5zM108 462v7l104 101h22l105 -101v-7h-46l-69 74h-2l-68 -74h-46zM343 547h-24v8l54 104h44v-13z" />
    <glyph glyph-name="uni1EC0" unicode="&#x1ec0;" horiz-adv-x="468" 
d="M58 0v563h366v-42h-320v-216h256v-40h-256v-226h329v-39h-375zM344 704l-75 99v13h44l54 -104v-8h-23zM113 619v7l104 101h22l105 -101v-7h-46l-69 74h-2l-68 -74h-46z" />
    <glyph glyph-name="uni1EC1" unicode="&#x1ec1;" horiz-adv-x="445" 
d="M220 -10q-65 0 -107.5 31t-63.5 79.5t-20 100.5q0 54 22 101t64.5 75.5t103.5 28.5q51 0 90.5 -22.5t63.5 -63t27 -96.5q1 -5 1 -12v-13h-328q0 -77 38.5 -123t108.5 -46q51 0 88.5 27t46.5 73h45q-7 -41 -32 -72.5t-63 -49.5t-85 -18zM76 229h278q-1 19 -8.5 42.5
t-23.5 45.5t-41.5 36t-61.5 14q-33 0 -58 -11.5t-42.5 -30.5t-28 -43.5t-14.5 -52.5zM332 547l-75 99v13h44l54 -104v-8h-23zM101 461v7l104 101h22l105 -101v-7h-46l-69 74h-2l-68 -74h-46z" />
    <glyph glyph-name="uni1EC2" unicode="&#x1ec2;" horiz-adv-x="468" 
d="M58 0v563h366v-42h-320v-216h256v-40h-256v-226h329v-39h-375zM113 619v7l104 101h22l105 -101v-7h-46l-69 74h-2l-68 -74h-46zM320 709v9q4 13 18 22.5t27 20t13 27.5q0 13 -9.5 20.5t-22.5 7.5q-11 0 -22.5 -7.5t-16.5 -23.5l-27 11q7 25 27 38t42 13q23 0 42 -13
t19 -41q0 -25 -13 -38t-26 -22.5t-14 -23.5h-37z" />
    <glyph glyph-name="uni1EC3" unicode="&#x1ec3;" horiz-adv-x="445" 
d="M220 -10q-65 0 -107.5 31t-63.5 79.5t-20 100.5q0 54 22 101t64.5 75.5t103.5 28.5q51 0 90.5 -22.5t63.5 -63t27 -96.5q1 -5 1 -12v-13h-328q0 -77 38.5 -123t108.5 -46q51 0 88.5 27t46.5 73h45q-7 -41 -32 -72.5t-63 -49.5t-85 -18zM76 229h278q-1 19 -8.5 42.5
t-23.5 45.5t-41.5 36t-61.5 14q-33 0 -58 -11.5t-42.5 -30.5t-28 -43.5t-14.5 -52.5zM101 461v7l104 101h22l105 -101v-7h-46l-69 74h-2l-68 -74h-46zM308 552v9q4 13 18 22.5t27 20t13 27.5q0 13 -9.5 20.5t-22.5 7.5q-11 0 -22.5 -7.5t-16.5 -23.5l-27 11q7 25 27 38
t42 13q23 0 42 -13t19 -41q0 -25 -13 -38t-26 -22.5t-14 -23.5h-37z" />
    <glyph glyph-name="uni1EC4" unicode="&#x1ec4;" horiz-adv-x="468" 
d="M58 0v563h366v-42h-320v-216h256v-40h-256v-226h329v-39h-375zM120 619v7l104 101h22l105 -101v-7h-46l-69 74h-2l-68 -74h-46zM126 773q-1 16 1 30.5t8 26.5t17.5 19t30.5 7q22 0 35.5 -8t22 -19t18 -19t23.5 -8q18 0 21.5 14t3.5 40h33q1 -16 -1 -31.5t-8 -27
t-17.5 -18.5t-29.5 -7q-22 0 -35.5 8.5t-22.5 19t-18 18.5t-23 8q-17 0 -21.5 -14t-3.5 -39h-34z" />
    <glyph glyph-name="uni1EC5" unicode="&#x1ec5;" horiz-adv-x="445" 
d="M220 -10q-65 0 -107.5 31t-63.5 79.5t-20 100.5q0 54 22 101t64.5 75.5t103.5 28.5q51 0 90.5 -22.5t63.5 -63t27 -96.5q1 -5 1 -12v-13h-328q0 -77 38.5 -123t108.5 -46q51 0 88.5 27t46.5 73h45q-7 -41 -32 -72.5t-63 -49.5t-85 -18zM76 229h278q-1 19 -8.5 42.5
t-23.5 45.5t-41.5 36t-61.5 14q-33 0 -58 -11.5t-42.5 -30.5t-28 -43.5t-14.5 -52.5zM108 461v7l104 101h22l105 -101v-7h-46l-69 74h-2l-68 -74h-46zM114 615q-1 16 1 30.5t8 26.5t17.5 19t30.5 7q22 0 35.5 -8t22 -19t18 -19t23.5 -8q18 0 21.5 14t3.5 40h33
q1 -16 -1 -31.5t-8 -27t-17.5 -18.5t-29.5 -7q-22 0 -35.5 8.5t-22.5 19t-18 18.5t-23 8q-17 0 -21.5 -14t-3.5 -39h-34z" />
    <glyph glyph-name="uni1EC6" unicode="&#x1ec6;" horiz-adv-x="468" 
d="M58 0v563h366v-42h-320v-216h256v-40h-256v-226h329v-39h-375zM234 -137q-20 0 -27.5 11t-7.5 24q0 14 7.5 24t27.5 10q22 0 28 -10t6 -24q0 -13 -6 -24t-28 -11zM119 619v7l104 101h22l105 -101v-7h-46l-69 74h-2l-68 -74h-46z" />
    <glyph glyph-name="uni1EC7" unicode="&#x1ec7;" horiz-adv-x="445" 
d="M220 -10q-65 0 -107.5 31t-63.5 79.5t-20 100.5q0 54 22 101t64.5 75.5t103.5 28.5q51 0 90.5 -22.5t63.5 -63t27 -96.5q1 -5 1 -12v-13h-328q0 -77 38.5 -123t108.5 -46q51 0 88.5 27t46.5 73h45q-7 -41 -32 -72.5t-63 -49.5t-85 -18zM76 229h278q-1 19 -8.5 42.5
t-23.5 45.5t-41.5 36t-61.5 14q-33 0 -58 -11.5t-42.5 -30.5t-28 -43.5t-14.5 -52.5zM223 -137q-20 0 -27.5 11t-7.5 24q0 14 7.5 24t27.5 10q22 0 28 -10t6 -24q0 -13 -6 -24t-28 -11zM107 462v7l104 101h22l105 -101v-7h-46l-69 74h-2l-68 -74h-46z" />
    <glyph glyph-name="uni1EC8" unicode="&#x1ec8;" horiz-adv-x="323" 
d="M135 18v527h45v-527h-45zM56 0v40h202v-40h-202zM56 522v41h202v-41h-202zM136 619v9q4 13 18 22.5t27 20t13 27.5q0 13 -9.5 20.5t-22.5 7.5q-11 0 -22.5 -7.5t-16.5 -23.5l-27 11q7 25 27 38t42 13q23 0 42 -13t19 -41q0 -25 -13 -38t-26 -22.5t-14 -23.5h-37z" />
    <glyph glyph-name="uni1EC9" unicode="&#x1ec9;" horiz-adv-x="153" 
d="M53 0v406h45v-406h-45zM54 462v9q4 13 18 22.5t27 20t13 27.5q0 13 -9.5 20.5t-22.5 7.5q-11 0 -22.5 -7.5t-16.5 -23.5l-27 11q7 25 27 38t42 13q23 0 42 -13t19 -41q0 -25 -13 -38t-26 -22.5t-14 -23.5h-37z" />
    <glyph glyph-name="uni1ECA" unicode="&#x1eca;" horiz-adv-x="323" 
d="M135 18v527h45v-527h-45zM56 0v40h202v-40h-202zM56 522v41h202v-41h-202zM162 -137q-20 0 -27.5 11t-7.5 24q0 14 7.5 24t27.5 10q22 0 28 -10t6 -24q0 -13 -6 -24t-28 -11z" />
    <glyph glyph-name="uni1ECB" unicode="&#x1ecb;" horiz-adv-x="153" 
d="M53 0v406h46v-406h-46zM77 471q-20 0 -27.5 10.5t-7.5 24.5t7.5 24t27.5 10q21 0 27.5 -10t6.5 -24t-6.5 -24.5t-27.5 -10.5zM77 -137q-20 0 -27.5 11t-7.5 24q0 14 7.5 24t27.5 10q22 0 28 -10t6 -24q0 -13 -6 -24t-28 -11z" />
    <glyph glyph-name="uni1ECC" unicode="&#x1ecc;" horiz-adv-x="601" 
d="M293 -14q-132 0 -201 79.5t-69 214.5q0 89 30 154.5t90 102t150 36.5q132 0 200.5 -79.5t68.5 -213.5q0 -87 -30.5 -153.5t-90 -103.5t-148.5 -37zM293 29q75 0 124.5 31.5t75 88t25.5 131.5q0 76 -24.5 132t-75 87t-125.5 31q-111 0 -168 -66t-57 -184q0 -74 24 -130.5
t74.5 -88.5t126.5 -32zM301 -137q-20 0 -27.5 11t-7.5 24q0 14 7.5 24t27.5 10q22 0 28 -10t6 -24q0 -13 -6 -24t-28 -11z" />
    <glyph glyph-name="uni1ECD" unicode="&#x1ecd;" horiz-adv-x="450" 
d="M218 -10q-63 0 -105.5 26.5t-63.5 73.5t-21 107q0 61 21 108.5t63.5 74t105.5 26.5q92 0 140.5 -57.5t48.5 -151.5q0 -58 -20 -105.5t-62 -74.5t-107 -27zM218 31q56 0 87 25t43.5 63.5t12.5 78.5q0 41 -12.5 79.5t-43.5 63.5t-87 25q-55 0 -87 -25t-44.5 -63.5
t-12.5 -79.5q0 -40 12.5 -78.5t44.5 -63.5t87 -25zM225 -137q-20 0 -27.5 11t-7.5 24q0 14 7.5 24t27.5 10q22 0 28 -10t6 -24q0 -13 -6 -24t-28 -11z" />
    <glyph glyph-name="uni1ECE" unicode="&#x1ece;" horiz-adv-x="601" 
d="M293 -14q-132 0 -201 79.5t-69 214.5q0 89 30 154.5t90 102t150 36.5q132 0 200.5 -79.5t68.5 -213.5q0 -87 -30.5 -153.5t-90 -103.5t-148.5 -37zM293 29q75 0 124.5 31.5t75 88t25.5 131.5q0 76 -24.5 132t-75 87t-125.5 31q-111 0 -168 -66t-57 -184q0 -74 24 -130.5
t74.5 -88.5t126.5 -32zM279 619v9q4 13 18 22.5t27 20t13 27.5q0 13 -9.5 20.5t-22.5 7.5q-11 0 -22.5 -7.5t-16.5 -23.5l-27 11q7 25 27 38t42 13q23 0 42 -13t19 -41q0 -25 -13 -38t-26 -22.5t-14 -23.5h-37z" />
    <glyph glyph-name="uni1ECF" unicode="&#x1ecf;" horiz-adv-x="450" 
d="M218 -10q-63 0 -105.5 26.5t-63.5 73.5t-21 107q0 61 21 108.5t63.5 74t105.5 26.5q92 0 140.5 -57.5t48.5 -151.5q0 -58 -20 -105.5t-62 -74.5t-107 -27zM218 31q56 0 87 25t43.5 63.5t12.5 78.5q0 41 -12.5 79.5t-43.5 63.5t-87 25q-55 0 -87 -25t-44.5 -63.5
t-12.5 -79.5q0 -40 12.5 -78.5t44.5 -63.5t87 -25zM203 462v9q4 13 18 22.5t27 20t13 27.5q0 13 -9.5 20.5t-22.5 7.5q-11 0 -22.5 -7.5t-16.5 -23.5l-27 11q7 25 27 38t42 13q23 0 42 -13t19 -41q0 -25 -13 -38t-26 -22.5t-14 -23.5h-37z" />
    <glyph glyph-name="uni1ED0" unicode="&#x1ed0;" horiz-adv-x="601" 
d="M293 -14q-132 0 -201 79.5t-69 214.5q0 89 30 154.5t90 102t150 36.5q132 0 200.5 -79.5t68.5 -213.5q0 -87 -30.5 -153.5t-90 -103.5t-148.5 -37zM293 29q75 0 124.5 31.5t75 88t25.5 131.5q0 76 -24.5 132t-75 87t-125.5 31q-111 0 -168 -66t-57 -184q0 -74 24 -130.5
t74.5 -88.5t126.5 -32zM186 619v7l104 101h22l105 -101v-7h-46l-69 74h-2l-68 -74h-46zM421 704h-24v8l54 104h44v-13z" />
    <glyph glyph-name="uni1ED1" unicode="&#x1ed1;" horiz-adv-x="450" 
d="M218 -10q-63 0 -105.5 26.5t-63.5 73.5t-21 107q0 61 21 108.5t63.5 74t105.5 26.5q92 0 140.5 -57.5t48.5 -151.5q0 -58 -20 -105.5t-62 -74.5t-107 -27zM218 31q56 0 87 25t43.5 63.5t12.5 78.5q0 41 -12.5 79.5t-43.5 63.5t-87 25q-55 0 -87 -25t-44.5 -63.5
t-12.5 -79.5q0 -40 12.5 -78.5t44.5 -63.5t87 -25zM110 462v7l104 101h22l105 -101v-7h-46l-69 74h-2l-68 -74h-46zM345 547h-24v8l54 104h44v-13z" />
    <glyph glyph-name="uni1ED2" unicode="&#x1ed2;" horiz-adv-x="601" 
d="M293 -14q-132 0 -201 79.5t-69 214.5q0 89 30 154.5t90 102t150 36.5q132 0 200.5 -79.5t68.5 -213.5q0 -87 -30.5 -153.5t-90 -103.5t-148.5 -37zM293 29q75 0 124.5 31.5t75 88t25.5 131.5q0 76 -24.5 132t-75 87t-125.5 31q-111 0 -168 -66t-57 -184q0 -74 24 -130.5
t74.5 -88.5t126.5 -32zM410 704l-75 99v13h44l54 -104v-8h-23zM179 619v7l104 101h22l105 -101v-7h-46l-69 74h-2l-68 -74h-46z" />
    <glyph glyph-name="uni1ED3" unicode="&#x1ed3;" horiz-adv-x="450" 
d="M218 -10q-63 0 -105.5 26.5t-63.5 73.5t-21 107q0 61 21 108.5t63.5 74t105.5 26.5q92 0 140.5 -57.5t48.5 -151.5q0 -58 -20 -105.5t-62 -74.5t-107 -27zM218 31q56 0 87 25t43.5 63.5t12.5 78.5q0 41 -12.5 79.5t-43.5 63.5t-87 25q-55 0 -87 -25t-44.5 -63.5
t-12.5 -79.5q0 -40 12.5 -78.5t44.5 -63.5t87 -25zM334 547l-75 99v13h44l54 -104v-8h-23zM103 461v7l104 101h22l105 -101v-7h-46l-69 74h-2l-68 -74h-46z" />
    <glyph glyph-name="uni1ED4" unicode="&#x1ed4;" horiz-adv-x="601" 
d="M293 -14q-132 0 -201 79.5t-69 214.5q0 89 30 154.5t90 102t150 36.5q132 0 200.5 -79.5t68.5 -213.5q0 -87 -30.5 -153.5t-90 -103.5t-148.5 -37zM293 29q75 0 124.5 31.5t75 88t25.5 131.5q0 76 -24.5 132t-75 87t-125.5 31q-111 0 -168 -66t-57 -184q0 -74 24 -130.5
t74.5 -88.5t126.5 -32zM179 619v7l104 101h22l105 -101v-7h-46l-69 74h-2l-68 -74h-46zM386 709v9q4 13 18 22.5t27 20t13 27.5q0 13 -9.5 20.5t-22.5 7.5q-11 0 -22.5 -7.5t-16.5 -23.5l-27 11q7 25 27 38t42 13q23 0 42 -13t19 -41q0 -25 -13 -38t-26 -22.5t-14 -23.5h-37
z" />
    <glyph glyph-name="uni1ED5" unicode="&#x1ed5;" horiz-adv-x="450" 
d="M218 -10q-63 0 -105.5 26.5t-63.5 73.5t-21 107q0 61 21 108.5t63.5 74t105.5 26.5q92 0 140.5 -57.5t48.5 -151.5q0 -58 -20 -105.5t-62 -74.5t-107 -27zM218 31q56 0 87 25t43.5 63.5t12.5 78.5q0 41 -12.5 79.5t-43.5 63.5t-87 25q-55 0 -87 -25t-44.5 -63.5
t-12.5 -79.5q0 -40 12.5 -78.5t44.5 -63.5t87 -25zM103 461v7l104 101h22l105 -101v-7h-46l-69 74h-2l-68 -74h-46zM310 552v9q4 13 18 22.5t27 20t13 27.5q0 13 -9.5 20.5t-22.5 7.5q-11 0 -22.5 -7.5t-16.5 -23.5l-27 11q7 25 27 38t42 13q23 0 42 -13t19 -41
q0 -25 -13 -38t-26 -22.5t-14 -23.5h-37z" />
    <glyph glyph-name="uni1ED6" unicode="&#x1ed6;" horiz-adv-x="601" 
d="M293 -14q-132 0 -201 79.5t-69 214.5q0 89 30 154.5t90 102t150 36.5q132 0 200.5 -79.5t68.5 -213.5q0 -87 -30.5 -153.5t-90 -103.5t-148.5 -37zM293 29q75 0 124.5 31.5t75 88t25.5 131.5q0 76 -24.5 132t-75 87t-125.5 31q-111 0 -168 -66t-57 -184q0 -74 24 -130.5
t74.5 -88.5t126.5 -32zM186 619v7l104 101h22l105 -101v-7h-46l-69 74h-2l-68 -74h-46zM192 773q-1 16 1 30.5t8 26.5t17.5 19t30.5 7q22 0 35.5 -8t22 -19t18 -19t23.5 -8q18 0 21.5 14t3.5 40h33q1 -16 -1 -31.5t-8 -27t-17.5 -18.5t-29.5 -7q-22 0 -35.5 8.5t-22.5 19
t-18 18.5t-23 8q-17 0 -21.5 -14t-3.5 -39h-34z" />
    <glyph glyph-name="uni1ED7" unicode="&#x1ed7;" horiz-adv-x="450" 
d="M218 -10q-63 0 -105.5 26.5t-63.5 73.5t-21 107q0 61 21 108.5t63.5 74t105.5 26.5q92 0 140.5 -57.5t48.5 -151.5q0 -58 -20 -105.5t-62 -74.5t-107 -27zM218 31q56 0 87 25t43.5 63.5t12.5 78.5q0 41 -12.5 79.5t-43.5 63.5t-87 25q-55 0 -87 -25t-44.5 -63.5
t-12.5 -79.5q0 -40 12.5 -78.5t44.5 -63.5t87 -25zM110 461v7l104 101h22l105 -101v-7h-46l-69 74h-2l-68 -74h-46zM116 615q-1 16 1 30.5t8 26.5t17.5 19t30.5 7q22 0 35.5 -8t22 -19t18 -19t23.5 -8q18 0 21.5 14t3.5 40h33q1 -16 -1 -31.5t-8 -27t-17.5 -18.5t-29.5 -7
q-22 0 -35.5 8.5t-22.5 19t-18 18.5t-23 8q-17 0 -21.5 -14t-3.5 -39h-34z" />
    <glyph glyph-name="uni1ED8" unicode="&#x1ed8;" horiz-adv-x="601" 
d="M293 -14q-132 0 -201 79.5t-69 214.5q0 89 30 154.5t90 102t150 36.5q132 0 200.5 -79.5t68.5 -213.5q0 -87 -30.5 -153.5t-90 -103.5t-148.5 -37zM293 29q75 0 124.5 31.5t75 88t25.5 131.5q0 76 -24.5 132t-75 87t-125.5 31q-111 0 -168 -66t-57 -184q0 -74 24 -130.5
t74.5 -88.5t126.5 -32zM301 -137q-20 0 -27.5 11t-7.5 24q0 14 7.5 24t27.5 10q22 0 28 -10t6 -24q0 -13 -6 -24t-28 -11zM185 619v7l104 101h22l105 -101v-7h-46l-69 74h-2l-68 -74h-46z" />
    <glyph glyph-name="uni1ED9" unicode="&#x1ed9;" horiz-adv-x="450" 
d="M218 -10q-63 0 -105.5 26.5t-63.5 73.5t-21 107q0 61 21 108.5t63.5 74t105.5 26.5q92 0 140.5 -57.5t48.5 -151.5q0 -58 -20 -105.5t-62 -74.5t-107 -27zM218 31q56 0 87 25t43.5 63.5t12.5 78.5q0 41 -12.5 79.5t-43.5 63.5t-87 25q-55 0 -87 -25t-44.5 -63.5
t-12.5 -79.5q0 -40 12.5 -78.5t44.5 -63.5t87 -25zM225 -137q-20 0 -27.5 11t-7.5 24q0 14 7.5 24t27.5 10q22 0 28 -10t6 -24q0 -13 -6 -24t-28 -11zM109 462v7l104 101h22l105 -101v-7h-46l-69 74h-2l-68 -74h-46z" />
    <glyph glyph-name="uni1EDA" unicode="&#x1eda;" horiz-adv-x="601" 
d="M293 -14q-132 0 -201 79.5t-69 214.5q0 89 30 154.5t90 102t150 36.5q132 0 200.5 -79.5t68.5 -213.5q0 -87 -30.5 -153.5t-90 -103.5t-148.5 -37zM293 29q75 0 124.5 31.5t75 88t25.5 131.5q0 76 -24.5 132t-75 87t-125.5 31q-111 0 -168 -66t-57 -184q0 -74 24 -130.5
t74.5 -88.5t126.5 -32zM370 531l2 32h22q12 0 18 3t8 10.5t2 21.5h48q0 -25 -9 -39.5t-25.5 -21t-41.5 -6.5h-24zM312 604h-24v8l54 104h44v-13z" />
    <glyph glyph-name="uni1EDB" unicode="&#x1edb;" horiz-adv-x="450" 
d="M218 -10q-63 0 -105.5 26.5t-63.5 73.5t-21 107q0 61 21 108.5t63.5 74t105.5 26.5q92 0 140.5 -57.5t48.5 -151.5q0 -58 -20 -105.5t-62 -74.5t-107 -27zM218 31q56 0 87 25t43.5 63.5t12.5 78.5q0 41 -12.5 79.5t-43.5 63.5t-87 25q-55 0 -87 -25t-44.5 -63.5
t-12.5 -79.5q0 -40 12.5 -78.5t44.5 -63.5t87 -25zM287 359l2 32h22q12 0 18 3t8 10.5t2 21.5h48q0 -25 -9 -39.5t-25.5 -21t-41.5 -6.5h-24zM236 447h-24v8l54 104h44v-13z" />
    <glyph glyph-name="uni1EDC" unicode="&#x1edc;" horiz-adv-x="601" 
d="M293 -14q-132 0 -201 79.5t-69 214.5q0 89 30 154.5t90 102t150 36.5q132 0 200.5 -79.5t68.5 -213.5q0 -87 -30.5 -153.5t-90 -103.5t-148.5 -37zM293 29q75 0 124.5 31.5t75 88t25.5 131.5q0 76 -24.5 132t-75 87t-125.5 31q-111 0 -168 -66t-57 -184q0 -74 24 -130.5
t74.5 -88.5t126.5 -32zM370 531l2 32h22q12 0 18 3t8 10.5t2 21.5h48q0 -25 -9 -39.5t-25.5 -21t-41.5 -6.5h-24zM298 604l-75 99v13h44l54 -104v-8h-23z" />
    <glyph glyph-name="uni1EDD" unicode="&#x1edd;" horiz-adv-x="450" 
d="M218 -10q-63 0 -105.5 26.5t-63.5 73.5t-21 107q0 61 21 108.5t63.5 74t105.5 26.5q92 0 140.5 -57.5t48.5 -151.5q0 -58 -20 -105.5t-62 -74.5t-107 -27zM218 31q56 0 87 25t43.5 63.5t12.5 78.5q0 41 -12.5 79.5t-43.5 63.5t-87 25q-55 0 -87 -25t-44.5 -63.5
t-12.5 -79.5q0 -40 12.5 -78.5t44.5 -63.5t87 -25zM287 359l2 32h22q12 0 18 3t8 10.5t2 21.5h48q0 -25 -9 -39.5t-25.5 -21t-41.5 -6.5h-24zM222 447l-75 99v13h44l54 -104v-8h-23z" />
    <glyph glyph-name="uni1EDE" unicode="&#x1ede;" horiz-adv-x="601" 
d="M293 -14q-132 0 -201 79.5t-69 214.5q0 89 30 154.5t90 102t150 36.5q132 0 200.5 -79.5t68.5 -213.5q0 -87 -30.5 -153.5t-90 -103.5t-148.5 -37zM293 29q75 0 124.5 31.5t75 88t25.5 131.5q0 76 -24.5 132t-75 87t-125.5 31q-111 0 -168 -66t-57 -184q0 -74 24 -130.5
t74.5 -88.5t126.5 -32zM370 531l2 32h22q12 0 18 3t8 10.5t2 21.5h48q0 -25 -9 -39.5t-25.5 -21t-41.5 -6.5h-24zM279 619v9q4 13 18 22.5t27 20t13 27.5q0 13 -9.5 20.5t-22.5 7.5q-11 0 -22.5 -7.5t-16.5 -23.5l-27 11q7 25 27 38t42 13q23 0 42 -13t19 -41q0 -25 -13 -38
t-26 -22.5t-14 -23.5h-37z" />
    <glyph glyph-name="uni1EDF" unicode="&#x1edf;" horiz-adv-x="450" 
d="M218 -10q-63 0 -105.5 26.5t-63.5 73.5t-21 107q0 61 21 108.5t63.5 74t105.5 26.5q92 0 140.5 -57.5t48.5 -151.5q0 -58 -20 -105.5t-62 -74.5t-107 -27zM218 31q56 0 87 25t43.5 63.5t12.5 78.5q0 41 -12.5 79.5t-43.5 63.5t-87 25q-55 0 -87 -25t-44.5 -63.5
t-12.5 -79.5q0 -40 12.5 -78.5t44.5 -63.5t87 -25zM287 359l2 32h22q12 0 18 3t8 10.5t2 21.5h48q0 -25 -9 -39.5t-25.5 -21t-41.5 -6.5h-24zM203 462v9q4 13 18 22.5t27 20t13 27.5q0 13 -9.5 20.5t-22.5 7.5q-11 0 -22.5 -7.5t-16.5 -23.5l-27 11q7 25 27 38t42 13
q23 0 42 -13t19 -41q0 -25 -13 -38t-26 -22.5t-14 -23.5h-37z" />
    <glyph glyph-name="uni1EE0" unicode="&#x1ee0;" horiz-adv-x="601" 
d="M293 -14q-132 0 -201 79.5t-69 214.5q0 89 30 154.5t90 102t150 36.5q132 0 200.5 -79.5t68.5 -213.5q0 -87 -30.5 -153.5t-90 -103.5t-148.5 -37zM293 29q75 0 124.5 31.5t75 88t25.5 131.5q0 76 -24.5 132t-75 87t-125.5 31q-111 0 -168 -66t-57 -184q0 -74 24 -130.5
t74.5 -88.5t126.5 -32zM370 531l2 32h22q12 0 18 3t8 10.5t2 21.5h48q0 -25 -9 -39.5t-25.5 -21t-41.5 -6.5h-24zM193 628q-1 16 1 30.5t8 26.5t17.5 19t30.5 7q22 0 35.5 -8t22 -19t18 -19t23.5 -8q18 0 21.5 14t3.5 40h33q1 -16 -1 -31.5t-8 -27t-17.5 -18.5t-29.5 -7
q-22 0 -35.5 8.5t-22.5 19t-18 18.5t-23 8q-17 0 -21.5 -14t-3.5 -39h-34z" />
    <glyph glyph-name="uni1EE1" unicode="&#x1ee1;" horiz-adv-x="450" 
d="M218 -10q-63 0 -105.5 26.5t-63.5 73.5t-21 107q0 61 21 108.5t63.5 74t105.5 26.5q92 0 140.5 -57.5t48.5 -151.5q0 -58 -20 -105.5t-62 -74.5t-107 -27zM218 31q56 0 87 25t43.5 63.5t12.5 78.5q0 41 -12.5 79.5t-43.5 63.5t-87 25q-55 0 -87 -25t-44.5 -63.5
t-12.5 -79.5q0 -40 12.5 -78.5t44.5 -63.5t87 -25zM287 359l2 32h22q12 0 18 3t8 10.5t2 21.5h48q0 -25 -9 -39.5t-25.5 -21t-41.5 -6.5h-24zM117 471q-1 16 1 30.5t8 26.5t17.5 19t30.5 7q22 0 35.5 -8t22 -19t18 -19t23.5 -8q18 0 21.5 14t3.5 40h33q1 -16 -1 -31.5
t-8 -27t-17.5 -18.5t-29.5 -7q-22 0 -35.5 8.5t-22.5 19t-18 18.5t-23 8q-17 0 -21.5 -14t-3.5 -39h-34z" />
    <glyph glyph-name="uni1EE2" unicode="&#x1ee2;" horiz-adv-x="601" 
d="M293 -14q-132 0 -201 79.5t-69 214.5q0 89 30 154.5t90 102t150 36.5q132 0 200.5 -79.5t68.5 -213.5q0 -87 -30.5 -153.5t-90 -103.5t-148.5 -37zM293 29q75 0 124.5 31.5t75 88t25.5 131.5q0 76 -24.5 132t-75 87t-125.5 31q-111 0 -168 -66t-57 -184q0 -74 24 -130.5
t74.5 -88.5t126.5 -32zM370 531l2 32h22q12 0 18 3t8 10.5t2 21.5h48q0 -25 -9 -39.5t-25.5 -21t-41.5 -6.5h-24zM301 -137q-20 0 -27.5 11t-7.5 24q0 14 7.5 24t27.5 10q22 0 28 -10t6 -24q0 -13 -6 -24t-28 -11z" />
    <glyph glyph-name="uni1EE3" unicode="&#x1ee3;" horiz-adv-x="450" 
d="M218 -10q-63 0 -105.5 26.5t-63.5 73.5t-21 107q0 61 21 108.5t63.5 74t105.5 26.5q92 0 140.5 -57.5t48.5 -151.5q0 -58 -20 -105.5t-62 -74.5t-107 -27zM218 31q56 0 87 25t43.5 63.5t12.5 78.5q0 41 -12.5 79.5t-43.5 63.5t-87 25q-55 0 -87 -25t-44.5 -63.5
t-12.5 -79.5q0 -40 12.5 -78.5t44.5 -63.5t87 -25zM287 359l2 32h22q12 0 18 3t8 10.5t2 21.5h48q0 -25 -9 -39.5t-25.5 -21t-41.5 -6.5h-24zM225 -137q-20 0 -27.5 11t-7.5 24q0 14 7.5 24t27.5 10q22 0 28 -10t6 -24q0 -13 -6 -24t-28 -11z" />
    <glyph glyph-name="uni1EE4" unicode="&#x1ee4;" horiz-adv-x="567" 
d="M280 -14q-109 0 -169 66.5t-60 187.5v323h46v-323q0 -53 13 -92.5t37 -66t58 -39.5t75 -13q60 0 100.5 23t62 70t21.5 118v323h45v-323q0 -123 -58.5 -188.5t-170.5 -65.5zM283 -137q-20 0 -27.5 11t-7.5 24q0 14 7.5 24t27.5 10q22 0 28 -10t6 -24q0 -13 -6 -24t-28 -11
z" />
    <glyph glyph-name="uni1EE5" unicode="&#x1ee5;" horiz-adv-x="438" 
d="M194 -10q-38 0 -65.5 11t-45.5 30.5t-28 45t-14 55.5t-4 62v212h45v-212q0 -45 9.5 -82t36.5 -58.5t77 -21.5q48 0 76.5 22.5t42.5 58t16 75.5v218h47v-406h-38l-8 97h-2q-5 -16 -16 -34t-28.5 -35t-42.5 -27.5t-58 -10.5zM219 -137q-20 0 -27.5 11t-7.5 24q0 14 7.5 24
t27.5 10q22 0 28 -10t6 -24q0 -13 -6 -24t-28 -11z" />
    <glyph glyph-name="uni1EE6" unicode="&#x1ee6;" horiz-adv-x="567" 
d="M280 -14q-109 0 -169 66.5t-60 187.5v323h46v-323q0 -53 13 -92.5t37 -66t58 -39.5t75 -13q60 0 100.5 23t62 70t21.5 118v323h45v-323q0 -123 -58.5 -188.5t-170.5 -65.5zM262 619v9q4 13 18 22.5t27 20t13 27.5q0 13 -9.5 20.5t-22.5 7.5q-11 0 -22.5 -7.5t-16.5 -23.5
l-27 11q7 25 27 38t42 13q23 0 42 -13t19 -41q0 -25 -13 -38t-26 -22.5t-14 -23.5h-37z" />
    <glyph glyph-name="uni1EE7" unicode="&#x1ee7;" horiz-adv-x="438" 
d="M194 -10q-38 0 -65.5 11t-45.5 30.5t-28 45t-14 55.5t-4 62v212h45v-212q0 -45 9.5 -82t36.5 -58.5t77 -21.5q48 0 76.5 22.5t42.5 58t16 75.5v218h47v-406h-38l-8 97h-2q-5 -16 -16 -34t-28.5 -35t-42.5 -27.5t-58 -10.5zM197 462v9q4 13 18 22.5t27 20t13 27.5
q0 13 -9.5 20.5t-22.5 7.5q-11 0 -22.5 -7.5t-16.5 -23.5l-27 11q7 25 27 38t42 13q23 0 42 -13t19 -41q0 -25 -13 -38t-26 -22.5t-14 -23.5h-37z" />
    <glyph glyph-name="uni1EE8" unicode="&#x1ee8;" horiz-adv-x="567" 
d="M280 -14q-109 0 -169 66.5t-60 187.5v323h46v-323q0 -53 13 -92.5t37 -66t58 -39.5t75 -13q60 0 100.5 23t62 70t21.5 118v323h45v-323q0 -123 -58.5 -188.5t-170.5 -65.5zM488 531l2 32h22q12 0 18 3t8 10.5t2 21.5h48q0 -25 -9 -39.5t-25.5 -21t-41.5 -6.5h-24z
M295 604h-24v8l54 104h44v-13z" />
    <glyph glyph-name="uni1EE9" unicode="&#x1ee9;" horiz-adv-x="438" 
d="M194 -10q-38 0 -65.5 11t-45.5 30.5t-28 45t-14 55.5t-4 62v212h45v-212q0 -45 9.5 -82t36.5 -58.5t77 -21.5q48 0 76.5 22.5t42.5 58t16 75.5v218h47v-406h-38l-8 97h-2q-5 -16 -16 -34t-28.5 -35t-42.5 -27.5t-58 -10.5zM362 374l2 32h22q12 0 18 3t8 10.5t2 21.5h48
q0 -25 -9 -39.5t-25.5 -21t-41.5 -6.5h-24zM230 447h-24v8l54 104h44v-13z" />
    <glyph glyph-name="uni1EEA" unicode="&#x1eea;" horiz-adv-x="567" 
d="M280 -14q-109 0 -169 66.5t-60 187.5v323h46v-323q0 -53 13 -92.5t37 -66t58 -39.5t75 -13q60 0 100.5 23t62 70t21.5 118v323h45v-323q0 -123 -58.5 -188.5t-170.5 -65.5zM488 531l2 32h22q12 0 18 3t8 10.5t2 21.5h48q0 -25 -9 -39.5t-25.5 -21t-41.5 -6.5h-24z
M281 604l-75 99v13h44l54 -104v-8h-23z" />
    <glyph glyph-name="uni1EEB" unicode="&#x1eeb;" horiz-adv-x="438" 
d="M194 -10q-38 0 -65.5 11t-45.5 30.5t-28 45t-14 55.5t-4 62v212h45v-212q0 -45 9.5 -82t36.5 -58.5t77 -21.5q48 0 76.5 22.5t42.5 58t16 75.5v218h47v-406h-38l-8 97h-2q-5 -16 -16 -34t-28.5 -35t-42.5 -27.5t-58 -10.5zM362 374l2 32h22q12 0 18 3t8 10.5t2 21.5h48
q0 -25 -9 -39.5t-25.5 -21t-41.5 -6.5h-24zM216 447l-75 99v13h44l54 -104v-8h-23z" />
    <glyph glyph-name="uni1EEC" unicode="&#x1eec;" horiz-adv-x="567" 
d="M280 -14q-109 0 -169 66.5t-60 187.5v323h46v-323q0 -53 13 -92.5t37 -66t58 -39.5t75 -13q60 0 100.5 23t62 70t21.5 118v323h45v-323q0 -123 -58.5 -188.5t-170.5 -65.5zM488 531l2 32h22q12 0 18 3t8 10.5t2 21.5h48q0 -25 -9 -39.5t-25.5 -21t-41.5 -6.5h-24z
M262 619v9q4 13 18 22.5t27 20t13 27.5q0 13 -9.5 20.5t-22.5 7.5q-11 0 -22.5 -7.5t-16.5 -23.5l-27 11q7 25 27 38t42 13q23 0 42 -13t19 -41q0 -25 -13 -38t-26 -22.5t-14 -23.5h-37z" />
    <glyph glyph-name="uni1EED" unicode="&#x1eed;" horiz-adv-x="438" 
d="M194 -10q-38 0 -65.5 11t-45.5 30.5t-28 45t-14 55.5t-4 62v212h45v-212q0 -45 9.5 -82t36.5 -58.5t77 -21.5q48 0 76.5 22.5t42.5 58t16 75.5v218h47v-406h-38l-8 97h-2q-5 -16 -16 -34t-28.5 -35t-42.5 -27.5t-58 -10.5zM362 374l2 32h22q12 0 18 3t8 10.5t2 21.5h48
q0 -25 -9 -39.5t-25.5 -21t-41.5 -6.5h-24zM197 462v9q4 13 18 22.5t27 20t13 27.5q0 13 -9.5 20.5t-22.5 7.5q-11 0 -22.5 -7.5t-16.5 -23.5l-27 11q7 25 27 38t42 13q23 0 42 -13t19 -41q0 -25 -13 -38t-26 -22.5t-14 -23.5h-37z" />
    <glyph glyph-name="uni1EEE" unicode="&#x1eee;" horiz-adv-x="567" 
d="M280 -14q-109 0 -169 66.5t-60 187.5v323h46v-323q0 -53 13 -92.5t37 -66t58 -39.5t75 -13q60 0 100.5 23t62 70t21.5 118v323h45v-323q0 -123 -58.5 -188.5t-170.5 -65.5zM488 531l2 32h22q12 0 18 3t8 10.5t2 21.5h48q0 -25 -9 -39.5t-25.5 -21t-41.5 -6.5h-24z
M176 628q-1 16 1 30.5t8 26.5t17.5 19t30.5 7q22 0 35.5 -8t22 -19t18 -19t23.5 -8q18 0 21.5 14t3.5 40h33q1 -16 -1 -31.5t-8 -27t-17.5 -18.5t-29.5 -7q-22 0 -35.5 8.5t-22.5 19t-18 18.5t-23 8q-17 0 -21.5 -14t-3.5 -39h-34z" />
    <glyph glyph-name="uni1EEF" unicode="&#x1eef;" horiz-adv-x="438" 
d="M194 -10q-38 0 -65.5 11t-45.5 30.5t-28 45t-14 55.5t-4 62v212h45v-212q0 -45 9.5 -82t36.5 -58.5t77 -21.5q48 0 76.5 22.5t42.5 58t16 75.5v218h47v-406h-38l-8 97h-2q-5 -16 -16 -34t-28.5 -35t-42.5 -27.5t-58 -10.5zM362 374l2 32h22q12 0 18 3t8 10.5t2 21.5h48
q0 -25 -9 -39.5t-25.5 -21t-41.5 -6.5h-24zM111 471q-1 16 1 30.5t8 26.5t17.5 19t30.5 7q22 0 35.5 -8t22 -19t18 -19t23.5 -8q18 0 21.5 14t3.5 40h33q1 -16 -1 -31.5t-8 -27t-17.5 -18.5t-29.5 -7q-22 0 -35.5 8.5t-22.5 19t-18 18.5t-23 8q-17 0 -21.5 -14t-3.5 -39h-34
z" />
    <glyph glyph-name="uni1EF0" unicode="&#x1ef0;" horiz-adv-x="567" 
d="M280 -14q-109 0 -169 66.5t-60 187.5v323h46v-323q0 -53 13 -92.5t37 -66t58 -39.5t75 -13q60 0 100.5 23t62 70t21.5 118v323h45v-323q0 -123 -58.5 -188.5t-170.5 -65.5zM488 531l2 32h22q12 0 18 3t8 10.5t2 21.5h48q0 -25 -9 -39.5t-25.5 -21t-41.5 -6.5h-24z
M283 -137q-20 0 -27.5 11t-7.5 24q0 14 7.5 24t27.5 10q22 0 28 -10t6 -24q0 -13 -6 -24t-28 -11z" />
    <glyph glyph-name="uni1EF1" unicode="&#x1ef1;" horiz-adv-x="438" 
d="M194 -10q-38 0 -65.5 11t-45.5 30.5t-28 45t-14 55.5t-4 62v212h45v-212q0 -45 9.5 -82t36.5 -58.5t77 -21.5q48 0 76.5 22.5t42.5 58t16 75.5v218h47v-406h-38l-8 97h-2q-5 -16 -16 -34t-28.5 -35t-42.5 -27.5t-58 -10.5zM362 374l2 32h22q12 0 18 3t8 10.5t2 21.5h48
q0 -25 -9 -39.5t-25.5 -21t-41.5 -6.5h-24zM219 -137q-20 0 -27.5 11t-7.5 24q0 14 7.5 24t27.5 10q22 0 28 -10t6 -24q0 -13 -6 -24t-28 -11z" />
    <glyph glyph-name="Ygrave" unicode="&#x1ef2;" horiz-adv-x="422" 
d="M184 205l-193 358h50l166 -310l163 310h50l-195 -358h-41zM182 0v218h46v-218h-46zM209 604l-75 99v13h44l54 -104v-8h-23z" />
    <glyph glyph-name="ygrave" unicode="&#x1ef3;" horiz-adv-x="391" 
d="M-4 -178v38h52q14 0 23 5t18.5 18.5t21.5 39.5l50 109l-159 374h48l135 -324l143 324h49l-226 -491q-13 -30 -24 -48.5t-22 -28.5t-24.5 -13t-30.5 -3h-54zM193 447l-75 99v13h44l54 -104v-8h-23z" />
    <glyph glyph-name="uni1EF4" unicode="&#x1ef4;" horiz-adv-x="422" 
d="M184 205l-193 358h50l166 -310l163 310h50l-195 -358h-41zM182 0v218h46v-218h-46zM205 -137q-20 0 -27.5 11t-7.5 24q0 14 7.5 24t27.5 10q22 0 28 -10t6 -24q0 -13 -6 -24t-28 -11z" />
    <glyph glyph-name="uni1EF5" unicode="&#x1ef5;" horiz-adv-x="391" 
d="M-4 -178v38h52q14 0 23 5t18.5 18.5t21.5 39.5l50 109l-159 374h48l135 -324l143 324h49l-226 -491q-13 -30 -24 -48.5t-22 -28.5t-24.5 -13t-30.5 -3h-54zM291 -137q-20 0 -27.5 11t-7.5 24q0 14 7.5 24t27.5 10q22 0 28 -10t6 -24q0 -13 -6 -24t-28 -11z" />
    <glyph glyph-name="uni1EF6" unicode="&#x1ef6;" horiz-adv-x="422" 
d="M184 205l-193 358h50l166 -310l163 310h50l-195 -358h-41zM182 0v218h46v-218h-46zM189 619v9q4 13 18 22.5t27 20t13 27.5q0 13 -9.5 20.5t-22.5 7.5q-11 0 -22.5 -7.5t-16.5 -23.5l-27 11q7 25 27 38t42 13q23 0 42 -13t19 -41q0 -25 -13 -38t-26 -22.5t-14 -23.5h-37z
" />
    <glyph glyph-name="uni1EF7" unicode="&#x1ef7;" horiz-adv-x="391" 
d="M-4 -178v38h52q14 0 23 5t18.5 18.5t21.5 39.5l50 109l-159 374h48l135 -324l143 324h49l-226 -491q-13 -30 -24 -48.5t-22 -28.5t-24.5 -13t-30.5 -3h-54zM174 462v9q4 13 18 22.5t27 20t13 27.5q0 13 -9.5 20.5t-22.5 7.5q-11 0 -22.5 -7.5t-16.5 -23.5l-27 11
q7 25 27 38t42 13q23 0 42 -13t19 -41q0 -25 -13 -38t-26 -22.5t-14 -23.5h-37z" />
    <glyph glyph-name="uni1EF8" unicode="&#x1ef8;" horiz-adv-x="422" 
d="M184 205l-193 358h50l166 -310l163 310h50l-195 -358h-41zM182 0v218h46v-218h-46zM104 628q-1 16 1 30.5t8 26.5t17.5 19t30.5 7q22 0 35.5 -8t22 -19t18 -19t23.5 -8q18 0 21.5 14t3.5 40h33q1 -16 -1 -31.5t-8 -27t-17.5 -18.5t-29.5 -7q-22 0 -35.5 8.5t-22.5 19
t-18 18.5t-23 8q-17 0 -21.5 -14t-3.5 -39h-34z" />
    <glyph glyph-name="uni1EF9" unicode="&#x1ef9;" horiz-adv-x="391" 
d="M-4 -178v38h52q14 0 23 5t18.5 18.5t21.5 39.5l50 109l-159 374h48l135 -324l143 324h49l-226 -491q-13 -30 -24 -48.5t-22 -28.5t-24.5 -13t-30.5 -3h-54zM88 471q-1 16 1 30.5t8 26.5t17.5 19t30.5 7q22 0 35.5 -8t22 -19t18 -19t23.5 -8q18 0 21.5 14t3.5 40h33
q1 -16 -1 -31.5t-8 -27t-17.5 -18.5t-29.5 -7q-22 0 -35.5 8.5t-22.5 19t-18 18.5t-23 8q-17 0 -21.5 -14t-3.5 -39h-34z" />
    <glyph glyph-name="endash" unicode="&#x2013;" horiz-adv-x="404" 
d="M40 205v38h309v-38h-309z" />
    <glyph glyph-name="emdash" unicode="&#x2014;" horiz-adv-x="517" 
d="M40 205v38h422v-38h-422z" />
    <glyph glyph-name="quoteleft" unicode="&#x2018;" horiz-adv-x="182" 
d="M60 404q-20 0 -27 11t-7 26t6.5 25.5t26.5 10.5t27 -10.5t7 -25.5t-7 -26t-26 -11zM26 441q0 1 0.5 14t5.5 31t15 36t28.5 29.5t46.5 11.5v-43q-26 0 -41 -8.5t-22.5 -20t-9 -23t-0.5 -19.5l1 -8h-24z" />
    <glyph glyph-name="quoteright" unicode="&#x2019;" horiz-adv-x="151" 
d="M20 404v43q27 0 42 8.5t22 20t9 23t1 19.5l-1 8h24q0 -1 -1 -14t-5.5 -30.5t-14.5 -36t-28.5 -30t-47.5 -11.5zM83 490q-20 0 -27 10.5t-7 25.5t7 26t27 11t27 -11t7 -26t-7 -25.5t-27 -10.5z" />
    <glyph glyph-name="quotesinglbase" unicode="&#x201a;" horiz-adv-x="196" 
d="M46 -77v43q26 0 41 8t22.5 20t9 23.5t0.5 19.5l-1 8h24q0 -1 -0.5 -14t-5 -31t-15 -36t-28.5 -29.5t-47 -11.5zM109 9q-20 0 -27 10.5t-7 25.5t7 26t27 11t26.5 -11t6.5 -26t-6.5 -25.5t-26.5 -10.5z" />
    <glyph glyph-name="quotedblleft" unicode="&#x201c;" horiz-adv-x="290" 
d="M135 441q0 1 1 14t5.5 31t14.5 36t28.5 29.5t47.5 11.5v-43q-27 0 -42 -8.5t-22 -20t-9 -23t-1 -19.5l1 -8h-24zM60 404q-20 0 -27 11t-7 26t6.5 25.5t26.5 10.5t27 -10.5t7 -25.5t-7 -26t-26 -11zM26 441q0 1 0.5 14t5.5 31t15 36t28.5 29.5t46.5 11.5v-43
q-26 0 -41 -8.5t-22.5 -20t-9 -23t-0.5 -19.5l1 -8h-24zM169 404q-20 0 -27 11t-7 26t6.5 25.5t26.5 10.5t27 -10.5t7 -25.5t-6.5 -26t-26.5 -11z" />
    <glyph glyph-name="quotedblright" unicode="&#x201d;" horiz-adv-x="290" 
d="M135 404v43q27 0 42 8.5t22 20t9 23t1 19.5l-1 8h24q0 -1 -1 -14t-5.5 -30.5t-14.5 -36t-28.5 -30t-47.5 -11.5zM26 404v43q26 0 41 8.5t22.5 20t9 23t0.5 19.5l-1 8h24q0 -1 -0.5 -14t-5 -30.5t-15 -36t-28.5 -30t-47 -11.5zM89 490q-20 0 -27 10.5t-7 25.5t7 26t27 11
t26.5 -11t6.5 -26t-6.5 -25.5t-26.5 -10.5zM198 490q-20 0 -27 10.5t-7 25.5t7 26t27 11t27 -11t7 -26t-7 -25.5t-27 -10.5z" />
    <glyph glyph-name="quotedblbase" unicode="&#x201e;" horiz-adv-x="299" 
d="M42 -77v43q27 0 42 8t22.5 20t9 23.5t0.5 19.5l-1 8h24q0 -1 -0.5 -14t-5.5 -31t-15 -36t-28.5 -29.5t-47.5 -11.5zM106 9q-20 0 -27 10.5t-7 25.5t6.5 26t26.5 11t27 -11t7 -26t-6.5 -25.5t-26.5 -10.5zM152 -77v43q26 0 41 8t22.5 20t9 23.5t0.5 19.5l-1 8h24
q0 -1 -0.5 -14t-5.5 -31t-15 -36t-28.5 -29.5t-46.5 -11.5zM215 9q-20 0 -27 10.5t-7 25.5t7 26t27 11q19 0 26 -11t7 -26t-6.5 -25.5t-26.5 -10.5z" />
    <glyph glyph-name="bullet" unicode="&#x2022;" horiz-adv-x="206" 
d="M93 198q-28 0 -38 14t-10 34q0 18 10 32t38 14t37 -14t9 -32q0 -20 -9 -34t-37 -14z" />
    <glyph glyph-name="ellipsis" unicode="&#x2026;" horiz-adv-x="435" 
d="M80 0q-20 0 -26.5 11t-6.5 26t6.5 26.5t26.5 11.5q19 0 26 -11.5t7 -26.5t-7 -26t-26 -11zM213 0q-19 0 -26 11t-7 26t7 26.5t26 11.5t26 -11.5t7 -26.5t-7 -26t-26 -11zM347 0q-19 0 -26 11t-7 26t7 26.5t26 11.5t26 -11.5t7 -26.5t-7 -26t-26 -11z" />
    <glyph glyph-name="perthousand" unicode="&#x2030;" horiz-adv-x="772" 
d="M91 0l-33 24l215 270l190 268l32 -23l-204 -258zM433 -10q-49 0 -72 33.5t-23 89.5t22.5 89.5t72.5 33.5q51 0 73.5 -33.5t22.5 -89.5q0 -54 -22.5 -88.5t-73.5 -34.5zM433 20q35 0 49 26.5t14 65.5q0 42 -14 67.5t-49 25.5q-34 0 -48.5 -25t-14.5 -68q0 -39 14.5 -65.5
t48.5 -26.5zM125 327q-50 0 -73 33.5t-23 89.5q0 55 22.5 89t72.5 34q51 0 73.5 -34t22.5 -89q0 -54 -22.5 -88.5t-72.5 -34.5zM124 358q35 0 49 26t14 66q0 41 -14 67t-49 26q-33 0 -48 -25t-15 -69q0 -39 15 -65t48 -26zM662 -10q-49 0 -72 33.5t-23 89.5t22.5 89.5
t72.5 33.5t72.5 -33.5t22.5 -89.5q0 -54 -22.5 -88.5t-72.5 -34.5zM662 20q34 0 48.5 26.5t14.5 65.5q0 42 -14.5 67.5t-48.5 25.5t-48.5 -25t-14.5 -68q0 -39 14.5 -65.5t48.5 -26.5z" />
    <glyph glyph-name="guilsinglleft" unicode="&#x2039;" horiz-adv-x="384" 
d="M344 374v-43l-256 -105l256 -106v-44l-304 150z" />
    <glyph glyph-name="guilsinglright" unicode="&#x203a;" horiz-adv-x="390" 
d="M41 374l304 -148l-304 -150v44l256 106l-256 105v43z" />
    <glyph glyph-name="fraction" unicode="&#x2044;" horiz-adv-x="182" 
d="M-98 1l-27 21l213 272l192 268l27 -20l-201 -261z" />
    <glyph glyph-name="uni2074" unicode="&#x2074;" horiz-adv-x="247" 
d="M15 463v31q33 15 58 46.5t40 69.5t15 73h37q0 -53 -32 -104.5t-81 -84.5h180v-31h-217zM160 406v138h35v-138h-35z" />
    <glyph glyph-name="Euro" unicode="&#x20ac;" horiz-adv-x="611" 
d="M331 -10q-70 0 -126 33t-88.5 97.5t-32.5 160.5q0 97 32 162t88.5 97.5t129.5 32.5q61 0 108.5 -24t78.5 -69.5t42 -112.5l-47 -4q-14 81 -60.5 124.5t-121.5 43.5q-62 0 -108 -29t-71 -84.5t-25 -135.5q0 -123 54 -186.5t147 -63.5q80 0 127.5 44t60.5 122l48 -4
q-11 -65 -42 -110.5t-79.5 -69.5t-114.5 -24zM345 225h-313v32h328zM32 308v32h358l-15 -32h-343z" />
    <glyph glyph-name="trademark" unicode="&#x2122;" horiz-adv-x="446" 
d="M189 354v209h52l59 -194l59 194h52v-209h-31l3 194l-60 -194h-46l-58 194v-194h-30zM56 354v183h-70v26h171v-26h-71v-183h-30z" />
    <glyph glyph-name="oneeighth" unicode="&#x215b;" horiz-adv-x="593" 
d="M75 301v221q-6 -20 -19 -31t-25 -14.5t-16 -3.5v37q4 0 19 3.5t29.5 15.5t14.5 37h30v-265h-33zM30 289v31h117v-31h-117zM64 1l-27 21l213 272l192 268l27 -20l-201 -261zM468 -11q-47 0 -78 21t-31 59q0 26 17.5 46t47.5 27q-21 4 -31.5 15t-14 24t-3.5 22q0 32 26 53
t67 21q42 0 68 -21.5t26 -52.5q0 -9 -3.5 -22t-14 -24t-32.5 -15q30 -7 48 -26.5t18 -46.5q0 -39 -31.5 -59.5t-78.5 -20.5zM468 17q36 0 56 16.5t20 40.5q0 28 -20 43t-56 15q-35 0 -55.5 -15t-20.5 -43q0 -24 20.5 -40.5t55.5 -16.5zM468 150q29 0 46 11.5t17 34.5
q0 25 -17.5 39t-45.5 14t-45.5 -14.5t-17.5 -38.5q0 -23 18 -34.5t45 -11.5z" />
    <glyph glyph-name="threeeighths" unicode="&#x215c;" horiz-adv-x="666" 
d="M121 278q-43 0 -74 23.5t-32 70.5l32 4q2 -34 24 -51t50 -17q27 0 47.5 15.5t20.5 39.5q0 21 -10.5 32.5t-23.5 16t-24 4.5h-36v19h37q22 0 36.5 14t14.5 33q0 26 -17.5 41t-47.5 15q-23 0 -37.5 -10t-21 -23.5t-7.5 -24.5l-31 4q0 8 5 21t16 27t29.5 24t46.5 10
q44 0 69.5 -21t25.5 -56q0 -23 -12.5 -40.5t-33.5 -23.5q22 -4 37.5 -22t15.5 -45q0 -36 -28.5 -58t-70.5 -22zM137 1l-27 21l213 272l192 268l27 -20l-201 -261zM541 -11q-47 0 -78 21t-31 59q0 26 17.5 46t47.5 27q-21 4 -31.5 15t-14 24t-3.5 22q0 32 26 53t67 21
q42 0 68 -21.5t26 -52.5q0 -9 -3.5 -22t-14 -24t-32.5 -15q30 -7 48 -26.5t18 -46.5q0 -39 -31.5 -59.5t-78.5 -20.5zM541 17q36 0 56 16.5t20 40.5q0 28 -20 43t-56 15q-35 0 -55.5 -15t-20.5 -43q0 -24 20.5 -40.5t55.5 -16.5zM541 150q29 0 46 11.5t17 34.5
q0 25 -17.5 39t-45.5 14t-45.5 -14.5t-17.5 -38.5q0 -23 18 -34.5t45 -11.5z" />
    <glyph glyph-name="fiveeighths" unicode="&#x215d;" horiz-adv-x="668" 
d="M117 278q-29 0 -50 10t-34 26.5t-18 36.5l35 5q1 -3 6 -15t20 -22.5t42 -10.5q34 0 52.5 20.5t18.5 43.5q0 25 -16.5 45.5t-51.5 20.5q-23 0 -37 -7.5t-20 -14.5t-6 -8l-34 7l14 140h171v-30h-146l-10 -95l7.5 8.5t24 16.5t44.5 8q50 0 72 -27.5t21 -62.5q0 -37 -28 -66
t-77 -29zM139 1l-27 21l213 272l192 268l27 -20l-201 -261zM543 -11q-47 0 -78 21t-31 59q0 26 17.5 46t47.5 27q-21 4 -31.5 15t-14 24t-3.5 22q0 32 26 53t67 21q42 0 68 -21.5t26 -52.5q0 -9 -3.5 -22t-14 -24t-32.5 -15q30 -7 48 -26.5t18 -46.5q0 -39 -31.5 -59.5
t-78.5 -20.5zM543 17q36 0 56 16.5t20 40.5q0 28 -20 43t-56 15q-35 0 -55.5 -15t-20.5 -43q0 -24 20.5 -40.5t55.5 -16.5zM543 150q29 0 46 11.5t17 34.5q0 25 -17.5 39t-45.5 14t-45.5 -14.5t-17.5 -38.5q0 -23 18 -34.5t45 -11.5z" />
    <glyph glyph-name="seveneighths" unicode="&#x215e;" horiz-adv-x="659" 
d="M57 289q0 85 33.5 140.5t88.5 94.5h-164v31h198v-30q-15 -10 -35 -27t-39.5 -44t-33 -67.5t-13.5 -97.5h-35zM130 1l-27 21l213 272l192 268l27 -20l-201 -261zM534 -11q-47 0 -78 21t-31 59q0 26 17.5 46t47.5 27q-21 4 -31.5 15t-14 24t-3.5 22q0 32 26 53t67 21
q42 0 68 -21.5t26 -52.5q0 -9 -3.5 -22t-14 -24t-32.5 -15q30 -7 48 -26.5t18 -46.5q0 -39 -31.5 -59.5t-78.5 -20.5zM534 17q36 0 56 16.5t20 40.5q0 28 -20 43t-56 15q-35 0 -55.5 -15t-20.5 -43q0 -24 20.5 -40.5t55.5 -16.5zM534 150q29 0 46 11.5t17 34.5
q0 25 -17.5 39t-45.5 14t-45.5 -14.5t-17.5 -38.5q0 -23 18 -34.5t45 -11.5z" />
    <glyph glyph-name="arrowleft" unicode="&#x2190;" horiz-adv-x="394" 
d="M35 206v40q42 0 65 14t33.5 33t13 34t2.5 16h35q0 -1 -2 -15t-8.5 -34t-22.5 -40.5t-44 -34t-72 -13.5zM149 109q0 2 -2.5 16.5t-13 33.5t-33.5 33t-65 14v40q44 0 72 -14t44 -34t22.5 -40.5t8.5 -34.5l2 -14h-35zM35 206v40h324v-40h-324z" />
    <glyph glyph-name="arrowup" unicode="&#x2191;" horiz-adv-x="303" 
d="M268 298l-13.5 2t-34 8.5t-40.5 22.5t-34 44t-14 72h39q0 -42 14 -65t33 -33.5t34 -13t16 -2.5v-35zM132 123v324h39v-324h-39zM35 298v35q2 0 16.5 2.5t33.5 13t33 33.5t14 65h39q0 -44 -13 -72t-33.5 -44t-40.5 -22.5t-34 -8.5t-15 -2z" />
    <glyph glyph-name="arrowright" unicode="&#x2192;" horiz-adv-x="394" 
d="M359 206q-44 0 -72 13.5t-44 34t-22.5 40.5t-8.5 34t-2 15h35q0 -1 2.5 -16t13 -34t33.5 -33t65 -14v-40zM35 206v40h324v-40h-324zM210 109l2 14t8.5 34.5t22.5 40.5t44 34t72 14v-40q-42 0 -65 -14t-33.5 -33t-13 -33.5t-2.5 -16.5h-35z" />
    <glyph glyph-name="arrowdown" unicode="&#x2193;" horiz-adv-x="303" 
d="M132 123q0 44 14 72t34 44t40.5 22.5t34 8.5l13.5 2v-35q-1 0 -16 -2.5t-34 -13t-33 -33.5t-14 -65h-39zM132 123q0 42 -14 65t-33 33.5t-33.5 13t-16.5 2.5v35q1 0 15 -2t34 -8.5t40.5 -22.5t33.5 -44t13 -72h-39zM132 123v324h39v-324h-39z" />
    <glyph glyph-name="arrowboth" unicode="&#x2194;" horiz-adv-x="527" 
d="M492 206q-44 0 -72 13.5t-43.5 34t-22.5 40.5t-8.5 33.5t-1.5 14.5h34q0 -1 2.5 -16t13 -34t33.5 -33t65 -14v-39zM149 109q0 2 -2.5 16.5t-13 33.5t-33.5 33t-65 14v39q44 0 72 -13.5t44 -33.5t22.5 -40.5t8.5 -34.5l2 -14h-35zM35 206v39q42 0 65 14t33.5 33t13 34
t2.5 16h35q0 -1 -2 -14.5t-8.5 -33.5t-22.5 -40.5t-44 -34t-72 -13.5zM35 206v39h324v-39h-324zM168 206v39h324v-39h-324zM344 109l1.5 14t8.5 34.5t22.5 40.5t43.5 33.5t72 13.5v-39q-42 0 -65 -14t-33.5 -33t-13 -33.5t-2.5 -16.5h-34z" />
    <glyph glyph-name="arrowupdn" unicode="&#x2195;" horiz-adv-x="303" 
d="M268 298l-13.5 2t-34 8.5t-40.5 22.5t-34 44t-14 72h39q0 -42 14 -65t33 -33.5t34 -13t16 -2.5v-35zM132 -10q0 42 -14 65t-33 33.5t-33.5 13t-16.5 2.5v34q1 0 15 -1.5t34 -8.5t40.5 -22.5t33.5 -43.5t13 -72h-39zM132 -10q0 44 14 72t34 43.5t40.5 22.5t34 8.5
l13.5 1.5v-34q-1 0 -16 -2.5t-34 -13t-33 -33.5t-14 -65h-39zM132 -10v324h39v-324h-39zM132 123v324h39v-324h-39zM35 298v35q2 0 16.5 2.5t33.5 13t33 33.5t14 65h39q0 -44 -13 -72t-33.5 -44t-40.5 -22.5t-34 -8.5t-15 -2z" />
    <glyph glyph-name="uni2196" unicode="&#x2196;" horiz-adv-x="338" 
d="M237 166l-231 231l28 27l232 -231zM42 223l-24 25q1 1 10 13t15 32.5t-0.5 47t-36.5 56.5l28 27q31 -31 41.5 -60.5t7 -55t-13 -44.5t-18.5 -30zM208 388q-1 -1 -12 -9.5t-30 -18t-44.5 -12.5t-55 7.5t-60.5 41.5l28 27q30 -30 56.5 -36t46.5 0t32.5 15t13.5 10z" />
    <glyph glyph-name="uni2197" unicode="&#x2197;" horiz-adv-x="338" 
d="M35 166l-29 27l232 231l28 -27zM230 223l-9 11t-19 30t-13 44.5t7 55t42 60.5l28 -27q-30 -30 -36.5 -56.5t-0.5 -47t14.5 -32.5t9.5 -13zM63 388l26 25q1 -1 13 -10t32.5 -15t47 0t56.5 36l28 -27q-32 -31 -61 -41.5t-54.5 -7.5t-45 12.5t-30.5 18t-12 9.5z" />
    <glyph glyph-name="uni2198" unicode="&#x2198;" horiz-adv-x="338" 
d="M275 146l-240 239l28 27l240 -240zM275 146q-30 29 -56.5 35.5t-47 0.5t-32.5 -15t-13 -10l-24 25l11 9t30 18t44.5 12t55 -7t60.5 -42zM275 146q-31 31 -41.5 60t-7 54.5t13 45t18 30l8.5 10.5l25 -24q-1 -1 -10 -13t-15 -32.5t0.5 -47t36.5 -57.5z" />
    <glyph glyph-name="uni2199" unicode="&#x2199;" horiz-adv-x="369" 
d="M63 146l-28 26l240 240l28 -27zM63 146l-28 26q30 31 36.5 57.5t1 47t-15 32.5t-10.5 13l25 24l8.5 -10.5t18 -30t13 -45t-7 -54.5t-41.5 -60zM63 146l-28 26q31 32 60.5 42t55 7t44.5 -12t30 -18l11 -9l-23 -25q-1 1 -13.5 10t-32.5 15t-46.5 -0.5t-57.5 -35.5z" />
    <glyph glyph-name="uni21A9" unicode="&#x21a9;" horiz-adv-x="468" 
d="M35 212v26q42 0 65 14t33.5 33t13 34t2.5 16h25q0 -1 -1.5 -13.5t-8 -30.5t-21.5 -36.5t-41 -30.5t-67 -12zM433 212h-398v26h398v-26zM174 115h-25q0 2 -2.5 16.5t-13 33.5t-33.5 33t-65 14v26q41 0 67 -12.5t41 -30.5t21.5 -36.5t8 -31zM405 404h28v-192h-28v192z" />
    <glyph glyph-name="carriagereturn" unicode="&#x21b5;" horiz-adv-x="468" 
d="M35 212v26q42 0 65 14t33.5 33t13 34t2.5 16h25q0 -1 -1.5 -13.5t-8 -30.5t-21.5 -36.5t-41 -30.5t-67 -12zM433 212h-398v26h398v-26zM174 115h-25q0 2 -2.5 16.5t-13 33.5t-33.5 33t-65 14v26q41 0 67 -12.5t41 -30.5t21.5 -36.5t8 -31zM405 404h28v-192h-28v192z" />
    <glyph glyph-name="minus" unicode="&#x2212;" horiz-adv-x="362" 
d="M70 205v38h222v-38h-222z" />
    <glyph glyph-name="uni2215" unicode="&#x2215;" horiz-adv-x="336" 
d="M25 0l254 563h47l-254 -563h-47z" />
    <glyph glyph-name="notequal" unicode="&#x2260;" horiz-adv-x="362" 
d="M76 46l144 321h47l-144 -321h-47zM44 131v35h274v-35h-274zM44 247v35h274v-35h-274z" />
    <glyph glyph-name="uni240D" unicode="&#x240d;" horiz-adv-x="576" 
d="M168 180q-55 0 -91.5 35.5t-36.5 105.5t36 104.5t94 34.5q44 0 76 -23.5t41 -73.5h-13q-8 41 -35 63.5t-69 22.5q-53 0 -85.5 -33t-32.5 -95q0 -64 32 -96.5t84 -32.5q46 0 73.5 22.5t34.5 62.5h14q-9 -48 -41 -72.5t-81 -24.5zM339 184v268h78q50 0 76.5 -15t26.5 -59
q0 -25 -15.5 -46.5t-48.5 -21.5q28 0 39 -13.5t12.5 -33t1 -38t3 -28.5t19.5 -5v-11l-8.5 -0.5t-17 5.5t-8.5 27q0 39 -4 58t-17.5 25.5t-43 6.5h-80.5v-119h-13zM352 316h77q40 0 59.5 14t19.5 48q0 39 -23.5 50t-67.5 11h-65v-123z" />
    <glyph glyph-name="I.ss01" horiz-adv-x="501" 
d="M231 -73q-1 126 -4.5 211.5t-13 139t-31 81.5t-57 38.5t-90.5 10.5v30q72 0 112 15.5t58 46t22 77t4 110.5h32q0 -64 4 -110.5t22.5 -77t60 -46t116.5 -15.5v-30q-57 0 -94.5 -10.5t-59.5 -38.5t-33 -81.5t-14 -139t-4 -212.5zM246 222h3q1 53 2.5 90.5t7.5 61.5t22 35.5
t46 11.5q-39 0 -55.5 9t-19.5 28.5t-3 50.5h-3q0 -31 -3 -50.5t-19 -28.5t-55 -9q31 0 47 -11.5t22 -35.5t7 -61t1 -91z" />
    <glyph glyph-name="N_o.dlig" horiz-adv-x="865" 
d="M701 318q-56 0 -83.5 35.5t-27.5 90.5q0 56 27.5 91.5t83.5 35.5q54 0 82 -35t28 -92q0 -54 -26.5 -90t-83.5 -36zM588 217v37h224v-37h-224zM701 351q28 0 43.5 14t22 35.5t6.5 44.5q0 22 -6.5 43t-22 35.5t-43.5 14.5t-44 -14.5t-22.5 -35.5t-6.5 -43q0 -23 6.5 -44.5
t22.5 -35.5t44 -14zM465 563h45v-563h-84l-324 542h-2v-542h-45v563h79l329 -542h2v542z" />
    <glyph glyph-name="i.loclTRK" horiz-adv-x="153" 
d="M53 0v406h45v-406h-45zM76 471q-20 0 -27.5 10.5t-7.5 24.5t7.5 24t27.5 10q21 0 27.5 -10t6.5 -24t-6.5 -24.5t-27.5 -10.5z" />
    <glyph glyph-name="a.ss01" horiz-adv-x="456" 
d="M381 -9q-14 0 -25.5 5.5t-19 15t-11.5 25t-4 35.5v209q0 29 -15.5 48t-40.5 29.5t-54 10.5q-26 0 -52.5 -10t-44.5 -29.5t-20 -51.5h-45q6 45 30.5 73t60.5 41.5t73 13.5q39 0 74 -13.5t57.5 -42t22.5 -72.5v-198q0 -25 7.5 -36.5t18 -13t21 1t15.5 6.5l6 -31
q-1 -1 -8.5 -5t-19 -7.5t-26.5 -3.5zM144 -9q-52 0 -83.5 28.5t-31.5 74.5q0 35 16.5 57.5t44 36.5t60 22.5t64.5 15.5q45 10 68 17t31 16t8 22l5 -128q-22 -75 -69.5 -118.5t-112.5 -43.5zM156 30q42 0 79.5 28t60 73.5t22.5 99.5q-12 -10 -37 -16t-55 -14
q-40 -9 -74.5 -20t-55.5 -30t-21 -53q1 -32 22 -50.5t59 -17.5z" />
    <glyph glyph-name="aacute.ss01" horiz-adv-x="456" 
d="M381 -9q-14 0 -25.5 5.5t-19 15t-11.5 25t-4 35.5v209q0 29 -15.5 48t-40.5 29.5t-54 10.5q-26 0 -52.5 -10t-44.5 -29.5t-20 -51.5h-45q6 45 30.5 73t60.5 41.5t73 13.5q39 0 74 -13.5t57.5 -42t22.5 -72.5v-198q0 -25 7.5 -36.5t18 -13t21 1t15.5 6.5l6 -31
q-1 -1 -8.5 -5t-19 -7.5t-26.5 -3.5zM144 -9q-52 0 -83.5 28.5t-31.5 74.5q0 35 16.5 57.5t44 36.5t60 22.5t64.5 15.5q45 10 68 17t31 16t8 22l5 -128q-22 -75 -69.5 -118.5t-112.5 -43.5zM156 30q42 0 79.5 28t60 73.5t22.5 99.5q-12 -10 -37 -16t-55 -14
q-40 -9 -74.5 -20t-55.5 -30t-21 -53q1 -32 22 -50.5t59 -17.5zM229 447h-24v8l54 104h44v-13z" />
    <glyph glyph-name="abreve.ss01" horiz-adv-x="456" 
d="M381 -9q-14 0 -25.5 5.5t-19 15t-11.5 25t-4 35.5v209q0 29 -15.5 48t-40.5 29.5t-54 10.5q-26 0 -52.5 -10t-44.5 -29.5t-20 -51.5h-45q6 45 30.5 73t60.5 41.5t73 13.5q39 0 74 -13.5t57.5 -42t22.5 -72.5v-198q0 -25 7.5 -36.5t18 -13t21 1t15.5 6.5l6 -31
q-1 -1 -8.5 -5t-19 -7.5t-26.5 -3.5zM144 -9q-52 0 -83.5 28.5t-31.5 74.5q0 35 16.5 57.5t44 36.5t60 22.5t64.5 15.5q45 10 68 17t31 16t8 22l5 -128q-22 -75 -69.5 -118.5t-112.5 -43.5zM156 30q42 0 79.5 28t60 73.5t22.5 99.5q-12 -10 -37 -16t-55 -14
q-40 -9 -74.5 -20t-55.5 -30t-21 -53q1 -32 22 -50.5t59 -17.5zM219 460q-51 0 -81 23t-30 60h35q0 -32 22 -41t53 -9q30 0 52 8.5t22 41.5h35q0 -37 -28.5 -60t-79.5 -23z" />
    <glyph glyph-name="uni1EAF.ss01" horiz-adv-x="456" 
d="M381 -9q-14 0 -25.5 5.5t-19 15t-11.5 25t-4 35.5v209q0 29 -15.5 48t-40.5 29.5t-54 10.5q-26 0 -52.5 -10t-44.5 -29.5t-20 -51.5h-45q6 45 30.5 73t60.5 41.5t73 13.5q39 0 74 -13.5t57.5 -42t22.5 -72.5v-198q0 -25 7.5 -36.5t18 -13t21 1t15.5 6.5l6 -31
q-1 -1 -8.5 -5t-19 -7.5t-26.5 -3.5zM144 -9q-52 0 -83.5 28.5t-31.5 74.5q0 35 16.5 57.5t44 36.5t60 22.5t64.5 15.5q45 10 68 17t31 16t8 22l5 -128q-22 -75 -69.5 -118.5t-112.5 -43.5zM156 30q42 0 79.5 28t60 73.5t22.5 99.5q-12 -10 -37 -16t-55 -14
q-40 -9 -74.5 -20t-55.5 -30t-21 -53q1 -32 22 -50.5t59 -17.5zM219 460q-51 0 -81 23t-30 60h35q0 -32 22 -41t53 -9q30 0 52 8.5t22 41.5h35q0 -37 -28.5 -60t-79.5 -23zM229 561h-24v8l54 104h44v-13z" />
    <glyph glyph-name="uni1EB7.ss01" horiz-adv-x="456" 
d="M381 -9q-14 0 -25.5 5.5t-19 15t-11.5 25t-4 35.5v209q0 29 -15.5 48t-40.5 29.5t-54 10.5q-26 0 -52.5 -10t-44.5 -29.5t-20 -51.5h-45q6 45 30.5 73t60.5 41.5t73 13.5q39 0 74 -13.5t57.5 -42t22.5 -72.5v-198q0 -25 7.5 -36.5t18 -13t21 1t15.5 6.5l6 -31
q-1 -1 -8.5 -5t-19 -7.5t-26.5 -3.5zM144 -9q-52 0 -83.5 28.5t-31.5 74.5q0 35 16.5 57.5t44 36.5t60 22.5t64.5 15.5q45 10 68 17t31 16t8 22l5 -128q-22 -75 -69.5 -118.5t-112.5 -43.5zM156 30q42 0 79.5 28t60 73.5t22.5 99.5q-12 -10 -37 -16t-55 -14
q-40 -9 -74.5 -20t-55.5 -30t-21 -53q1 -32 22 -50.5t59 -17.5zM228 -137q-20 0 -27.5 11t-7.5 24q0 14 7.5 24t27.5 10q22 0 28 -10t6 -24q0 -13 -6 -24t-28 -11zM219 460q-51 0 -81 23t-30 60h35q0 -32 22 -41t53 -9q30 0 52 8.5t22 41.5h35q0 -37 -28.5 -60t-79.5 -23z
" />
    <glyph glyph-name="uni1EB1.ss01" horiz-adv-x="456" 
d="M381 -9q-14 0 -25.5 5.5t-19 15t-11.5 25t-4 35.5v209q0 29 -15.5 48t-40.5 29.5t-54 10.5q-26 0 -52.5 -10t-44.5 -29.5t-20 -51.5h-45q6 45 30.5 73t60.5 41.5t73 13.5q39 0 74 -13.5t57.5 -42t22.5 -72.5v-198q0 -25 7.5 -36.5t18 -13t21 1t15.5 6.5l6 -31
q-1 -1 -8.5 -5t-19 -7.5t-26.5 -3.5zM144 -9q-52 0 -83.5 28.5t-31.5 74.5q0 35 16.5 57.5t44 36.5t60 22.5t64.5 15.5q45 10 68 17t31 16t8 22l5 -128q-22 -75 -69.5 -118.5t-112.5 -43.5zM156 30q42 0 79.5 28t60 73.5t22.5 99.5q-12 -10 -37 -16t-55 -14
q-40 -9 -74.5 -20t-55.5 -30t-21 -53q1 -32 22 -50.5t59 -17.5zM219 460q-51 0 -81 23t-30 60h35q0 -32 22 -41t53 -9q30 0 52 8.5t22 41.5h35q0 -37 -28.5 -60t-79.5 -23zM215 561l-75 99v13h44l54 -104v-8h-23z" />
    <glyph glyph-name="uni1EB3.ss01" horiz-adv-x="456" 
d="M381 -9q-14 0 -25.5 5.5t-19 15t-11.5 25t-4 35.5v209q0 29 -15.5 48t-40.5 29.5t-54 10.5q-26 0 -52.5 -10t-44.5 -29.5t-20 -51.5h-45q6 45 30.5 73t60.5 41.5t73 13.5q39 0 74 -13.5t57.5 -42t22.5 -72.5v-198q0 -25 7.5 -36.5t18 -13t21 1t15.5 6.5l6 -31
q-1 -1 -8.5 -5t-19 -7.5t-26.5 -3.5zM144 -9q-52 0 -83.5 28.5t-31.5 74.5q0 35 16.5 57.5t44 36.5t60 22.5t64.5 15.5q45 10 68 17t31 16t8 22l5 -128q-22 -75 -69.5 -118.5t-112.5 -43.5zM156 30q42 0 79.5 28t60 73.5t22.5 99.5q-12 -10 -37 -16t-55 -14
q-40 -9 -74.5 -20t-55.5 -30t-21 -53q1 -32 22 -50.5t59 -17.5zM219 460q-51 0 -81 23t-30 60h35q0 -32 22 -41t53 -9q30 0 52 8.5t22 41.5h35q0 -37 -28.5 -60t-79.5 -23zM196 576v9q4 13 18 22.5t27 20t13 27.5q0 13 -9.5 20.5t-22.5 7.5q-11 0 -22.5 -7.5t-16.5 -23.5
l-27 11q7 25 27 38t42 13q23 0 42 -13t19 -41q0 -25 -13 -38t-26 -22.5t-14 -23.5h-37z" />
    <glyph glyph-name="uni1EB5.ss01" horiz-adv-x="456" 
d="M381 -9q-14 0 -25.5 5.5t-19 15t-11.5 25t-4 35.5v209q0 29 -15.5 48t-40.5 29.5t-54 10.5q-26 0 -52.5 -10t-44.5 -29.5t-20 -51.5h-45q6 45 30.5 73t60.5 41.5t73 13.5q39 0 74 -13.5t57.5 -42t22.5 -72.5v-198q0 -25 7.5 -36.5t18 -13t21 1t15.5 6.5l6 -31
q-1 -1 -8.5 -5t-19 -7.5t-26.5 -3.5zM144 -9q-52 0 -83.5 28.5t-31.5 74.5q0 35 16.5 57.5t44 36.5t60 22.5t64.5 15.5q45 10 68 17t31 16t8 22l5 -128q-22 -75 -69.5 -118.5t-112.5 -43.5zM156 30q42 0 79.5 28t60 73.5t22.5 99.5q-12 -10 -37 -16t-55 -14
q-40 -9 -74.5 -20t-55.5 -30t-21 -53q1 -32 22 -50.5t59 -17.5zM219 460q-51 0 -81 23t-30 60h35q0 -32 22 -41t53 -9q30 0 52 8.5t22 41.5h35q0 -37 -28.5 -60t-79.5 -23zM110 585q-1 16 1 30.5t8 26.5t17.5 19t30.5 7q22 0 35.5 -8t22 -19t18 -19t23.5 -8q18 0 21.5 14
t3.5 40h33q1 -16 -1 -31.5t-8 -27t-17.5 -18.5t-29.5 -7q-22 0 -35.5 8.5t-22.5 19t-18 18.5t-23 8q-17 0 -21.5 -14t-3.5 -39h-34z" />
    <glyph glyph-name="acircumflex.ss01" horiz-adv-x="456" 
d="M381 -9q-14 0 -25.5 5.5t-19 15t-11.5 25t-4 35.5v209q0 29 -15.5 48t-40.5 29.5t-54 10.5q-26 0 -52.5 -10t-44.5 -29.5t-20 -51.5h-45q6 45 30.5 73t60.5 41.5t73 13.5q39 0 74 -13.5t57.5 -42t22.5 -72.5v-198q0 -25 7.5 -36.5t18 -13t21 1t15.5 6.5l6 -31
q-1 -1 -8.5 -5t-19 -7.5t-26.5 -3.5zM144 -9q-52 0 -83.5 28.5t-31.5 74.5q0 35 16.5 57.5t44 36.5t60 22.5t64.5 15.5q45 10 68 17t31 16t8 22l5 -128q-22 -75 -69.5 -118.5t-112.5 -43.5zM156 30q42 0 79.5 28t60 73.5t22.5 99.5q-12 -10 -37 -16t-55 -14
q-40 -9 -74.5 -20t-55.5 -30t-21 -53q1 -32 22 -50.5t59 -17.5zM102 462v7l104 101h22l105 -101v-7h-46l-69 74h-2l-68 -74h-46z" />
    <glyph glyph-name="uni1EA5.ss01" horiz-adv-x="456" 
d="M381 -9q-14 0 -25.5 5.5t-19 15t-11.5 25t-4 35.5v209q0 29 -15.5 48t-40.5 29.5t-54 10.5q-26 0 -52.5 -10t-44.5 -29.5t-20 -51.5h-45q6 45 30.5 73t60.5 41.5t73 13.5q39 0 74 -13.5t57.5 -42t22.5 -72.5v-198q0 -25 7.5 -36.5t18 -13t21 1t15.5 6.5l6 -31
q-1 -1 -8.5 -5t-19 -7.5t-26.5 -3.5zM144 -9q-52 0 -83.5 28.5t-31.5 74.5q0 35 16.5 57.5t44 36.5t60 22.5t64.5 15.5q45 10 68 17t31 16t8 22l5 -128q-22 -75 -69.5 -118.5t-112.5 -43.5zM156 30q42 0 79.5 28t60 73.5t22.5 99.5q-12 -10 -37 -16t-55 -14
q-40 -9 -74.5 -20t-55.5 -30t-21 -53q1 -32 22 -50.5t59 -17.5zM103 462v7l104 101h22l105 -101v-7h-46l-69 74h-2l-68 -74h-46zM337 547h-24v8l54 104h44v-13z" />
    <glyph glyph-name="uni1EAD.ss01" horiz-adv-x="456" 
d="M381 -9q-14 0 -25.5 5.5t-19 15t-11.5 25t-4 35.5v209q0 29 -15.5 48t-40.5 29.5t-54 10.5q-26 0 -52.5 -10t-44.5 -29.5t-20 -51.5h-45q6 45 30.5 73t60.5 41.5t73 13.5q39 0 74 -13.5t57.5 -42t22.5 -72.5v-198q0 -25 7.5 -36.5t18 -13t21 1t15.5 6.5l6 -31
q-1 -1 -8.5 -5t-19 -7.5t-26.5 -3.5zM144 -9q-52 0 -83.5 28.5t-31.5 74.5q0 35 16.5 57.5t44 36.5t60 22.5t64.5 15.5q45 10 68 17t31 16t8 22l5 -128q-22 -75 -69.5 -118.5t-112.5 -43.5zM156 30q42 0 79.5 28t60 73.5t22.5 99.5q-12 -10 -37 -16t-55 -14
q-40 -9 -74.5 -20t-55.5 -30t-21 -53q1 -32 22 -50.5t59 -17.5zM228 -137q-20 0 -27.5 11t-7.5 24q0 14 7.5 24t27.5 10q22 0 28 -10t6 -24q0 -13 -6 -24t-28 -11zM102 462v7l104 101h22l105 -101v-7h-46l-69 74h-2l-68 -74h-46z" />
    <glyph glyph-name="uni1EA7.ss01" horiz-adv-x="456" 
d="M381 -9q-14 0 -25.5 5.5t-19 15t-11.5 25t-4 35.5v209q0 29 -15.5 48t-40.5 29.5t-54 10.5q-26 0 -52.5 -10t-44.5 -29.5t-20 -51.5h-45q6 45 30.5 73t60.5 41.5t73 13.5q39 0 74 -13.5t57.5 -42t22.5 -72.5v-198q0 -25 7.5 -36.5t18 -13t21 1t15.5 6.5l6 -31
q-1 -1 -8.5 -5t-19 -7.5t-26.5 -3.5zM144 -9q-52 0 -83.5 28.5t-31.5 74.5q0 35 16.5 57.5t44 36.5t60 22.5t64.5 15.5q45 10 68 17t31 16t8 22l5 -128q-22 -75 -69.5 -118.5t-112.5 -43.5zM156 30q42 0 79.5 28t60 73.5t22.5 99.5q-12 -10 -37 -16t-55 -14
q-40 -9 -74.5 -20t-55.5 -30t-21 -53q1 -32 22 -50.5t59 -17.5zM327 547l-75 99v13h44l54 -104v-8h-23zM96 461v7l104 101h22l105 -101v-7h-46l-69 74h-2l-68 -74h-46z" />
    <glyph glyph-name="uni1EA9.ss01" horiz-adv-x="456" 
d="M381 -9q-14 0 -25.5 5.5t-19 15t-11.5 25t-4 35.5v209q0 29 -15.5 48t-40.5 29.5t-54 10.5q-26 0 -52.5 -10t-44.5 -29.5t-20 -51.5h-45q6 45 30.5 73t60.5 41.5t73 13.5q39 0 74 -13.5t57.5 -42t22.5 -72.5v-198q0 -25 7.5 -36.5t18 -13t21 1t15.5 6.5l6 -31
q-1 -1 -8.5 -5t-19 -7.5t-26.5 -3.5zM144 -9q-52 0 -83.5 28.5t-31.5 74.5q0 35 16.5 57.5t44 36.5t60 22.5t64.5 15.5q45 10 68 17t31 16t8 22l5 -128q-22 -75 -69.5 -118.5t-112.5 -43.5zM156 30q42 0 79.5 28t60 73.5t22.5 99.5q-12 -10 -37 -16t-55 -14
q-40 -9 -74.5 -20t-55.5 -30t-21 -53q1 -32 22 -50.5t59 -17.5zM96 461v7l104 101h22l105 -101v-7h-46l-69 74h-2l-68 -74h-46zM303 552v9q4 13 18 22.5t27 20t13 27.5q0 13 -9.5 20.5t-22.5 7.5q-11 0 -22.5 -7.5t-16.5 -23.5l-27 11q7 25 27 38t42 13q23 0 42 -13t19 -41
q0 -25 -13 -38t-26 -22.5t-14 -23.5h-37z" />
    <glyph glyph-name="uni1EAB.ss01" horiz-adv-x="456" 
d="M381 -9q-14 0 -25.5 5.5t-19 15t-11.5 25t-4 35.5v209q0 29 -15.5 48t-40.5 29.5t-54 10.5q-26 0 -52.5 -10t-44.5 -29.5t-20 -51.5h-45q6 45 30.5 73t60.5 41.5t73 13.5q39 0 74 -13.5t57.5 -42t22.5 -72.5v-198q0 -25 7.5 -36.5t18 -13t21 1t15.5 6.5l6 -31
q-1 -1 -8.5 -5t-19 -7.5t-26.5 -3.5zM144 -9q-52 0 -83.5 28.5t-31.5 74.5q0 35 16.5 57.5t44 36.5t60 22.5t64.5 15.5q45 10 68 17t31 16t8 22l5 -128q-22 -75 -69.5 -118.5t-112.5 -43.5zM156 30q42 0 79.5 28t60 73.5t22.5 99.5q-12 -10 -37 -16t-55 -14
q-40 -9 -74.5 -20t-55.5 -30t-21 -53q1 -32 22 -50.5t59 -17.5zM103 461v7l104 101h22l105 -101v-7h-46l-69 74h-2l-68 -74h-46zM109 615q-1 16 1 30.5t8 26.5t17.5 19t30.5 7q22 0 35.5 -8t22 -19t18 -19t23.5 -8q18 0 21.5 14t3.5 40h33q1 -16 -1 -31.5t-8 -27
t-17.5 -18.5t-29.5 -7q-22 0 -35.5 8.5t-22.5 19t-18 18.5t-23 8q-17 0 -21.5 -14t-3.5 -39h-34z" />
    <glyph glyph-name="adieresis.ss01" horiz-adv-x="456" 
d="M381 -9q-14 0 -25.5 5.5t-19 15t-11.5 25t-4 35.5v209q0 29 -15.5 48t-40.5 29.5t-54 10.5q-26 0 -52.5 -10t-44.5 -29.5t-20 -51.5h-45q6 45 30.5 73t60.5 41.5t73 13.5q39 0 74 -13.5t57.5 -42t22.5 -72.5v-198q0 -25 7.5 -36.5t18 -13t21 1t15.5 6.5l6 -31
q-1 -1 -8.5 -5t-19 -7.5t-26.5 -3.5zM144 -9q-52 0 -83.5 28.5t-31.5 74.5q0 35 16.5 57.5t44 36.5t60 22.5t64.5 15.5q45 10 68 17t31 16t8 22l5 -128q-22 -75 -69.5 -118.5t-112.5 -43.5zM156 30q42 0 79.5 28t60 73.5t22.5 99.5q-12 -10 -37 -16t-55 -14
q-40 -9 -74.5 -20t-55.5 -30t-21 -53q1 -32 22 -50.5t59 -17.5zM145 463q-24 0 -32.5 12.5t-8.5 28.5t8.5 28t32.5 12t32 -12t8 -28t-8 -28.5t-32 -12.5zM289 463q-24 0 -32.5 12.5t-8.5 28.5t8.5 28t32.5 12q25 0 32.5 -12t7.5 -28t-8 -28.5t-32 -12.5z" />
    <glyph glyph-name="uni1EA1.ss01" horiz-adv-x="456" 
d="M381 -9q-14 0 -25.5 5.5t-19 15t-11.5 25t-4 35.5v209q0 29 -15.5 48t-40.5 29.5t-54 10.5q-26 0 -52.5 -10t-44.5 -29.5t-20 -51.5h-45q6 45 30.5 73t60.5 41.5t73 13.5q39 0 74 -13.5t57.5 -42t22.5 -72.5v-198q0 -25 7.5 -36.5t18 -13t21 1t15.5 6.5l6 -31
q-1 -1 -8.5 -5t-19 -7.5t-26.5 -3.5zM144 -9q-52 0 -83.5 28.5t-31.5 74.5q0 35 16.5 57.5t44 36.5t60 22.5t64.5 15.5q45 10 68 17t31 16t8 22l5 -128q-22 -75 -69.5 -118.5t-112.5 -43.5zM156 30q42 0 79.5 28t60 73.5t22.5 99.5q-12 -10 -37 -16t-55 -14
q-40 -9 -74.5 -20t-55.5 -30t-21 -53q1 -32 22 -50.5t59 -17.5zM228 -137q-20 0 -27.5 11t-7.5 24q0 14 7.5 24t27.5 10q22 0 28 -10t6 -24q0 -13 -6 -24t-28 -11z" />
    <glyph glyph-name="agrave.ss01" horiz-adv-x="456" 
d="M381 -9q-14 0 -25.5 5.5t-19 15t-11.5 25t-4 35.5v209q0 29 -15.5 48t-40.5 29.5t-54 10.5q-26 0 -52.5 -10t-44.5 -29.5t-20 -51.5h-45q6 45 30.5 73t60.5 41.5t73 13.5q39 0 74 -13.5t57.5 -42t22.5 -72.5v-198q0 -25 7.5 -36.5t18 -13t21 1t15.5 6.5l6 -31
q-1 -1 -8.5 -5t-19 -7.5t-26.5 -3.5zM144 -9q-52 0 -83.5 28.5t-31.5 74.5q0 35 16.5 57.5t44 36.5t60 22.5t64.5 15.5q45 10 68 17t31 16t8 22l5 -128q-22 -75 -69.5 -118.5t-112.5 -43.5zM156 30q42 0 79.5 28t60 73.5t22.5 99.5q-12 -10 -37 -16t-55 -14
q-40 -9 -74.5 -20t-55.5 -30t-21 -53q1 -32 22 -50.5t59 -17.5zM215 447l-75 99v13h44l54 -104v-8h-23z" />
    <glyph glyph-name="uni1EA3.ss01" horiz-adv-x="456" 
d="M381 -9q-14 0 -25.5 5.5t-19 15t-11.5 25t-4 35.5v209q0 29 -15.5 48t-40.5 29.5t-54 10.5q-26 0 -52.5 -10t-44.5 -29.5t-20 -51.5h-45q6 45 30.5 73t60.5 41.5t73 13.5q39 0 74 -13.5t57.5 -42t22.5 -72.5v-198q0 -25 7.5 -36.5t18 -13t21 1t15.5 6.5l6 -31
q-1 -1 -8.5 -5t-19 -7.5t-26.5 -3.5zM144 -9q-52 0 -83.5 28.5t-31.5 74.5q0 35 16.5 57.5t44 36.5t60 22.5t64.5 15.5q45 10 68 17t31 16t8 22l5 -128q-22 -75 -69.5 -118.5t-112.5 -43.5zM156 30q42 0 79.5 28t60 73.5t22.5 99.5q-12 -10 -37 -16t-55 -14
q-40 -9 -74.5 -20t-55.5 -30t-21 -53q1 -32 22 -50.5t59 -17.5zM196 462v9q4 13 18 22.5t27 20t13 27.5q0 13 -9.5 20.5t-22.5 7.5q-11 0 -22.5 -7.5t-16.5 -23.5l-27 11q7 25 27 38t42 13q23 0 42 -13t19 -41q0 -25 -13 -38t-26 -22.5t-14 -23.5h-37z" />
    <glyph glyph-name="amacron.ss01" horiz-adv-x="456" 
d="M381 -9q-14 0 -25.5 5.5t-19 15t-11.5 25t-4 35.5v209q0 29 -15.5 48t-40.5 29.5t-54 10.5q-26 0 -52.5 -10t-44.5 -29.5t-20 -51.5h-45q6 45 30.5 73t60.5 41.5t73 13.5q39 0 74 -13.5t57.5 -42t22.5 -72.5v-198q0 -25 7.5 -36.5t18 -13t21 1t15.5 6.5l6 -31
q-1 -1 -8.5 -5t-19 -7.5t-26.5 -3.5zM144 -9q-52 0 -83.5 28.5t-31.5 74.5q0 35 16.5 57.5t44 36.5t60 22.5t64.5 15.5q45 10 68 17t31 16t8 22l5 -128q-22 -75 -69.5 -118.5t-112.5 -43.5zM156 30q42 0 79.5 28t60 73.5t22.5 99.5q-12 -10 -37 -16t-55 -14
q-40 -9 -74.5 -20t-55.5 -30t-21 -53q1 -32 22 -50.5t59 -17.5zM100 469v38h235v-38h-235z" />
    <glyph glyph-name="aogonek.ss01" horiz-adv-x="456" 
d="M386 -199q-24 0 -42.5 10t-29 27.5t-10.5 40.5q0 27 12.5 48.5t32.5 38.5t39 28.5t32 17l13 5.5l4 -21l-14.5 -8t-33.5 -22.5t-34 -35.5t-15 -46q0 -20 12.5 -33.5t35.5 -13.5q19 0 29.5 8.5t14.5 16.5l4 8l30 -23l-8.5 -11.5t-26 -23t-45.5 -11.5zM381 -9
q-14 0 -25.5 5.5t-19 15t-11.5 25t-4 35.5v209q0 29 -15.5 48t-40.5 29.5t-54 10.5q-26 0 -52.5 -10t-44.5 -29.5t-20 -51.5h-45q6 45 30.5 73t60.5 41.5t73 13.5q39 0 74 -13.5t57.5 -42t22.5 -72.5v-198q0 -25 7.5 -36.5t18 -13t21 1t15.5 6.5l6 -31q-1 -1 -8.5 -5
t-19 -7.5t-26.5 -3.5zM144 -9q-52 0 -83.5 28.5t-31.5 74.5q0 35 16.5 57.5t44 36.5t60 22.5t64.5 15.5q45 10 68 17t31 16t8 22l5 -128q-22 -75 -69.5 -118.5t-112.5 -43.5zM156 30q42 0 79.5 28t60 73.5t22.5 99.5q-12 -10 -37 -16t-55 -14q-40 -9 -74.5 -20t-55.5 -30
t-21 -53q1 -32 22 -50.5t59 -17.5z" />
    <glyph glyph-name="aring.ss01" horiz-adv-x="456" 
d="M381 -9q-14 0 -25.5 5.5t-19 15t-11.5 25t-4 35.5v209q0 29 -15.5 48t-40.5 29.5t-54 10.5q-26 0 -52.5 -10t-44.5 -29.5t-20 -51.5h-45q6 45 30.5 73t60.5 41.5t73 13.5q39 0 74 -13.5t57.5 -42t22.5 -72.5v-198q0 -25 7.5 -36.5t18 -13t21 1t15.5 6.5l6 -31
q-1 -1 -8.5 -5t-19 -7.5t-26.5 -3.5zM144 -9q-52 0 -83.5 28.5t-31.5 74.5q0 35 16.5 57.5t44 36.5t60 22.5t64.5 15.5q45 10 68 17t31 16t8 22l5 -128q-22 -75 -69.5 -118.5t-112.5 -43.5zM156 30q42 0 79.5 28t60 73.5t22.5 99.5q-12 -10 -37 -16t-55 -14
q-40 -9 -74.5 -20t-55.5 -30t-21 -53q1 -32 22 -50.5t59 -17.5zM216 466q-40 0 -63.5 23t-23.5 62q0 40 23 64t64 24t65 -24t24 -64q0 -36 -24 -60.5t-65 -24.5zM216 495q27 0 42 17t15 41q0 23 -15 40t-42 17t-42 -17t-15 -40q0 -25 16.5 -41.5t40.5 -16.5z" />
    <glyph glyph-name="atilde.ss01" horiz-adv-x="456" 
d="M381 -9q-14 0 -25.5 5.5t-19 15t-11.5 25t-4 35.5v209q0 29 -15.5 48t-40.5 29.5t-54 10.5q-26 0 -52.5 -10t-44.5 -29.5t-20 -51.5h-45q6 45 30.5 73t60.5 41.5t73 13.5q39 0 74 -13.5t57.5 -42t22.5 -72.5v-198q0 -25 7.5 -36.5t18 -13t21 1t15.5 6.5l6 -31
q-1 -1 -8.5 -5t-19 -7.5t-26.5 -3.5zM144 -9q-52 0 -83.5 28.5t-31.5 74.5q0 35 16.5 57.5t44 36.5t60 22.5t64.5 15.5q45 10 68 17t31 16t8 22l5 -128q-22 -75 -69.5 -118.5t-112.5 -43.5zM156 30q42 0 79.5 28t60 73.5t22.5 99.5q-12 -10 -37 -16t-55 -14
q-40 -9 -74.5 -20t-55.5 -30t-21 -53q1 -32 22 -50.5t59 -17.5zM110 471q-1 16 1 30.5t8 26.5t17.5 19t30.5 7q22 0 35.5 -8t22 -19t18 -19t23.5 -8q18 0 21.5 14t3.5 40h33q1 -16 -1 -31.5t-8 -27t-17.5 -18.5t-29.5 -7q-22 0 -35.5 8.5t-22.5 19t-18 18.5t-23 8
q-17 0 -21.5 -14t-3.5 -39h-34z" />
    <glyph glyph-name="f.ss01" horiz-adv-x="311" 
d="M267 304h-108v-304h-45v304h-84v39h237v-39zM157 342q-30 0 -60.5 12.5t-50.5 37t-20 60.5q0 32 18 57t49 39.5t70 14.5q40 0 73 -16.5t55.5 -45.5t30.5 -65h-45q0 3 -5 16t-17.5 29.5t-34.5 28t-57 11.5q-28 0 -49.5 -10.5t-33.5 -27.5t-12 -38q0 -25 12.5 -45t37.5 -33
t62.5 -19.5t86.5 -4.5z" />
    <glyph glyph-name="g.ss01" horiz-adv-x="458" 
d="M100 75q0 -25 17 -35.5t45 -11.5t58 -2q35 0 69.5 -3.5t64 -14t47.5 -32t18 -59.5q0 -41 -29 -65.5t-75 -35.5t-96 -12q-57 -1 -102 10t-70 35t-25 65q1 28 13 49t34.5 32.5t53.5 11.5q-27 6 -45 21.5t-18 44.5q0 24 15.5 36.5t38 17.5t42.5 5q-55 11 -79 46.5t-24 80.5
q0 68 45 107.5t124 39.5h47.5t36.5 7.5t14 31.5t-23 30.5t-57 -5.5l-8 36q27 8 55 5.5t47 -17.5t19 -44q0 -16 -6 -27t-15 -17.5t-16.5 -9.5t-11.5 -5q38 -13 63 -49t25 -83q0 -36 -18 -68.5t-55.5 -52t-96.5 -19.5q-34 0 -61.5 -1t-44 -10t-16.5 -33zM99 260
q0 -41 18.5 -64.5t46.5 -32.5t58 -9q59 0 90 26.5t31 79.5q0 48 -28 79t-94 31q-46 0 -73 -15t-38 -40t-11 -55zM220 -158q41 0 75.5 7.5t55.5 24t21 44.5q0 31 -20.5 47t-55 22t-76.5 6q-43 0 -77 -5t-54 -20.5t-20 -49.5q0 -31 21 -47.5t55.5 -22.5t74.5 -6z" />
    <glyph glyph-name="gbreve.ss01" horiz-adv-x="458" 
d="M100 75q0 -25 17 -35.5t45 -11.5t58 -2q35 0 69.5 -3.5t64 -14t47.5 -32t18 -59.5q0 -41 -29 -65.5t-75 -35.5t-96 -12q-57 -1 -102 10t-70 35t-25 65q1 28 13 49t34.5 32.5t53.5 11.5q-27 6 -45 21.5t-18 44.5q0 24 15.5 36.5t38 17.5t42.5 5q-55 11 -79 46.5t-24 80.5
q0 68 45 107.5t124 39.5h47.5t36.5 7.5t14 31.5t-23 30.5t-57 -5.5l-8 36q27 8 55 5.5t47 -17.5t19 -44q0 -16 -6 -27t-15 -17.5t-16.5 -9.5t-11.5 -5q38 -13 63 -49t25 -83q0 -36 -18 -68.5t-55.5 -52t-96.5 -19.5q-34 0 -61.5 -1t-44 -10t-16.5 -33zM99 260
q0 -41 18.5 -64.5t46.5 -32.5t58 -9q59 0 90 26.5t31 79.5q0 48 -28 79t-94 31q-46 0 -73 -15t-38 -40t-11 -55zM220 -158q41 0 75.5 7.5t55.5 24t21 44.5q0 31 -20.5 47t-55 22t-76.5 6q-43 0 -77 -5t-54 -20.5t-20 -49.5q0 -31 21 -47.5t55.5 -22.5t74.5 -6zM219 543
q-51 0 -81 23t-30 60h35q0 -32 22 -41t53 -9q30 0 52 8.5t22 41.5h35q0 -37 -28.5 -60t-79.5 -23z" />
    <glyph glyph-name="uni0123.ss01" horiz-adv-x="458" 
d="M100 75q0 -25 17 -35.5t45 -11.5t58 -2q35 0 69.5 -3.5t64 -14t47.5 -32t18 -59.5q0 -41 -29 -65.5t-75 -35.5t-96 -12q-57 -1 -102 10t-70 35t-25 65q1 28 13 49t34.5 32.5t53.5 11.5q-27 6 -45 21.5t-18 44.5q0 24 15.5 36.5t38 17.5t42.5 5q-55 11 -79 46.5t-24 80.5
q0 68 45 107.5t124 39.5h47.5t36.5 7.5t14 31.5t-23 30.5t-57 -5.5l-8 36q27 8 55 5.5t47 -17.5t19 -44q0 -16 -6 -27t-15 -17.5t-16.5 -9.5t-11.5 -5q38 -13 63 -49t25 -83q0 -36 -18 -68.5t-55.5 -52t-96.5 -19.5q-34 0 -61.5 -1t-44 -10t-16.5 -33zM99 260
q0 -41 18.5 -64.5t46.5 -32.5t58 -9q59 0 90 26.5t31 79.5q0 48 -28 79t-94 31q-46 0 -73 -15t-38 -40t-11 -55zM220 -158q41 0 75.5 7.5t55.5 24t21 44.5q0 31 -20.5 47t-55 22t-76.5 6q-43 0 -77 -5t-54 -20.5t-20 -49.5q0 -31 21 -47.5t55.5 -22.5t74.5 -6zM213 541h-23
v8l54 104h44v-13z" />
    <glyph glyph-name="gdotaccent.ss01" horiz-adv-x="458" 
d="M100 75q0 -25 17 -35.5t45 -11.5t58 -2q35 0 69.5 -3.5t64 -14t47.5 -32t18 -59.5q0 -41 -29 -65.5t-75 -35.5t-96 -12q-57 -1 -102 10t-70 35t-25 65q1 28 13 49t34.5 32.5t53.5 11.5q-27 6 -45 21.5t-18 44.5q0 24 15.5 36.5t38 17.5t42.5 5q-55 11 -79 46.5t-24 80.5
q0 68 45 107.5t124 39.5h47.5t36.5 7.5t14 31.5t-23 30.5t-57 -5.5l-8 36q27 8 55 5.5t47 -17.5t19 -44q0 -16 -6 -27t-15 -17.5t-16.5 -9.5t-11.5 -5q38 -13 63 -49t25 -83q0 -36 -18 -68.5t-55.5 -52t-96.5 -19.5q-34 0 -61.5 -1t-44 -10t-16.5 -33zM99 260
q0 -41 18.5 -64.5t46.5 -32.5t58 -9q59 0 90 26.5t31 79.5q0 48 -28 79t-94 31q-46 0 -73 -15t-38 -40t-11 -55zM220 -158q41 0 75.5 7.5t55.5 24t21 44.5q0 31 -20.5 47t-55 22t-76.5 6q-43 0 -77 -5t-54 -20.5t-20 -49.5q0 -31 21 -47.5t55.5 -22.5t74.5 -6zM218 554
q-20 0 -27.5 10.5t-7.5 24.5t7.5 24t27.5 10q21 0 27.5 -10t6.5 -24t-6.5 -24.5t-27.5 -10.5z" />
    <glyph glyph-name="lcaron.ss01" horiz-adv-x="152" 
d="M53 0v563h46v-563h-46zM142 432l35 141h47l-55 -141h-27z" />
    <glyph glyph-name="x.ss01" horiz-adv-x="349" 
d="M55 356l27 27l212 -212l-27 -27zM55 172l212 211l26 -26l-211 -212z" />
    <glyph glyph-name="f_f.dlig" horiz-adv-x="504" 
d="M78 -3v509q0 25 9.5 43t40.5 18h127v-38h-130v-532h-47zM12 369v37h235v-37h-235zM325 -3v509q0 25 9.5 43t40.5 18h127v-38h-131v-532h-46zM247 369v37h246v-37h-246z" />
    <glyph glyph-name="f_i.dlig" horiz-adv-x="401" 
d="M78 -3v509q0 25 9.5 43t40.5 18h127v-38h-130v-532h-47zM12 369v37h315v-37h-315zM305 0v406h6.5h15.5h16h7v-406h-45z" />
    <glyph glyph-name="f_t.dlig" horiz-adv-x="499" 
d="M78 -3v509q0 25 9.5 43t40.5 18h127v-38h-130v-532h-47zM12 369v37h235v-37h-235zM362 0q-31 0 -40.5 18t-9.5 43v316h44v-338h96v-39h-90zM246 369v37q26 0 40.5 2t20.5 11.5t7.5 31t1.5 60.5h40v-105h95v-37h-205z" />
    <glyph glyph-name="t_t.dlig" horiz-adv-x="483" 
d="M125 0q-31 0 -40.5 18t-9.5 43v316h44v-338h95v-39h-89zM8 369v37q27 0 41 2t20 11.5t7.5 31t1.5 60.5h41v-105h111v-37h-222zM346 0q-31 0 -40.5 18t-9.5 43v316h44v-338h96v-39h-90zM230 369v37q26 0 40.5 2t20.5 11.5t7.5 31t1.5 60.5h40v-105h95v-37h-205z" />
    <glyph glyph-name="zero.dnom" horiz-adv-x="250" 
d="M125 -11q-56 0 -83 38.5t-27 106.5q0 66 26 104.5t84 38.5q57 0 83.5 -38t26.5 -105q0 -66 -26.5 -105.5t-83.5 -39.5zM124 18q42 0 60.5 29.5t18.5 86.5q0 56 -18.5 85.5t-60.5 29.5q-39 0 -58 -29t-19 -86t18 -86.5t59 -29.5z" />
    <glyph glyph-name="one.dnom" horiz-adv-x="162" 
d="M75 12v221q-6 -20 -19 -31t-25 -14.5t-16 -3.5v37q4 0 19 3.5t29.5 15.5t14.5 37h30v-265h-33zM30 0v31h117v-31h-117z" />
    <glyph glyph-name="two.dnom" horiz-adv-x="232" 
d="M15 0v29q2 0 22 13t47.5 34.5t51.5 45t34 47.5q15 32 -1.5 55.5t-53.5 23.5q-27 0 -45 -17.5t-16 -51.5l-32 3q-2 44 25.5 69.5t71.5 25.5q34 0 57.5 -15.5t31 -41t-5.5 -55.5q-8 -21 -29.5 -43.5t-46.5 -42.5t-46 -33.5t-29 -15.5h166v-30h-202z" />
    <glyph glyph-name="three.dnom" horiz-adv-x="235" 
d="M121 -11q-43 0 -74 23.5t-32 70.5l32 4q2 -34 24 -51t50 -17q27 0 47.5 15.5t20.5 39.5q0 21 -10.5 32.5t-23.5 16t-24 4.5h-36v19h37q22 0 36.5 14t14.5 33q0 26 -17.5 41t-47.5 15q-23 0 -37.5 -10t-21 -23.5t-7.5 -24.5l-31 4q0 8 5 21t16 27t29.5 24t46.5 10
q44 0 69.5 -21t25.5 -56q0 -23 -12.5 -40.5t-33.5 -23.5q22 -4 37.5 -22t15.5 -45q0 -36 -28.5 -58t-70.5 -22z" />
    <glyph glyph-name="four.dnom" horiz-adv-x="247" 
d="M15 57v31q33 15 58 46.5t40 70t15 72.5h37q0 -53 -32 -104.5t-81 -84.5h180v-31h-217zM160 0v138h35v-138h-35z" />
    <glyph glyph-name="five.dnom" horiz-adv-x="237" 
d="M117 -11q-29 0 -50 10t-34 26.5t-18 36.5l35 5q1 -3 6 -15t20 -22.5t42 -10.5q34 0 52.5 20.5t18.5 43.5q0 25 -16.5 45.5t-51.5 20.5q-23 0 -37 -7.5t-20 -14.5t-6 -8l-34 7l14 140h171v-30h-146l-10 -95l7.5 8.5t24 16.5t44.5 8q50 0 72 -27.5t21 -62.5q0 -37 -28 -66
t-77 -29z" />
    <glyph glyph-name="six.dnom" horiz-adv-x="241" 
d="M124 -11q-38 0 -62 19.5t-35.5 51.5t-11.5 69q0 38 13 71.5t39.5 55t66.5 21.5q25 0 41 -7.5t25.5 -17t13 -17.5l3.5 -8l-33 -7l-5 7t-16 13.5t-31 6.5q-27 0 -48 -18t-30.5 -49.5t-4.5 -73.5q2 12 11 29t27.5 29.5t45.5 12.5q48 0 70.5 -26.5t22.5 -58.5
q0 -39 -25.5 -71t-76.5 -32zM125 18q34 0 51.5 22.5t17.5 50.5q0 24 -17 43.5t-51 19.5q-31 0 -51 -23t-20 -52q5 -28 25 -44.5t45 -16.5z" />
    <glyph glyph-name="seven.dnom" horiz-adv-x="228" 
d="M57 0q0 85 33.5 140.5t88.5 94.5h-164v31h198v-30q-15 -10 -35 -27t-39.5 -44t-33 -67.5t-13.5 -97.5h-35z" />
    <glyph glyph-name="eight.dnom" horiz-adv-x="249" 
d="M124 -11q-47 0 -78 21t-31 59q0 26 17.5 46t47.5 27q-21 4 -31.5 15t-14 24t-3.5 22q0 32 26 53t67 21q42 0 68 -21.5t26 -52.5q0 -9 -3.5 -22t-14 -24t-32.5 -15q30 -7 48 -26.5t18 -46.5q0 -39 -31.5 -59.5t-78.5 -20.5zM124 17q36 0 56 16.5t20 40.5q0 28 -20 43
t-56 15q-35 0 -55.5 -15t-20.5 -43q0 -24 20.5 -40.5t55.5 -16.5zM124 150q29 0 46 11.5t17 34.5q0 25 -17.5 39t-45.5 14t-45.5 -14.5t-17.5 -38.5q0 -23 18 -34.5t45 -11.5z" />
    <glyph glyph-name="nine.dnom" horiz-adv-x="243" 
d="M107 -11q-25 0 -41.5 8t-25.5 17.5t-13 17l-4 7.5l34 8l4.5 -7t16 -14t30.5 -7q28 0 48.5 18t30.5 50t4 73q0 -12 -9.5 -28.5t-27.5 -29.5t-47 -13q-48 0 -70 27.5t-22 58.5q0 38 26 70t76 32q38 0 62 -19.5t35.5 -51t11.5 -69.5q0 -37 -13 -70.5t-39 -55.5t-67 -22z
M114 112q33 0 52.5 23t19.5 53q-6 27 -25 44t-46 17q-33 0 -51 -22.5t-18 -51.5q0 -24 17.5 -43.5t50.5 -19.5z" />
    <glyph glyph-name="zero.numr" horiz-adv-x="250" 
d="M125 278q-56 0 -83 38.5t-27 106.5q0 66 26 104.5t84 38.5q57 0 83.5 -38t26.5 -105q0 -66 -26.5 -105.5t-83.5 -39.5zM124 307q42 0 60.5 29.5t18.5 86.5q0 56 -18.5 85.5t-60.5 29.5q-39 0 -58 -29t-19 -86t18 -86.5t59 -29.5z" />
    <glyph glyph-name="one.numr" horiz-adv-x="162" 
d="M75 301v221q-6 -20 -19 -31t-25 -14.5t-16 -3.5v37q4 0 19 3.5t29.5 15.5t14.5 37h30v-265h-33zM30 289v31h117v-31h-117z" />
    <glyph glyph-name="two.numr" horiz-adv-x="232" 
d="M15 289v29q2 0 22 13t47.5 34.5t51.5 45t34 47.5q15 32 -1.5 55.5t-53.5 23.5q-27 0 -45 -17.5t-16 -51.5l-32 3q-2 44 25.5 69.5t71.5 25.5q34 0 57.5 -15.5t31 -41t-5.5 -55.5q-8 -21 -29.5 -43.5t-46.5 -42.5t-46 -33.5t-29 -15.5h166v-30h-202z" />
    <glyph glyph-name="three.numr" horiz-adv-x="235" 
d="M121 278q-43 0 -74 23.5t-32 70.5l32 4q2 -34 24 -51t50 -17q27 0 47.5 15.5t20.5 39.5q0 21 -10.5 32.5t-23.5 16t-24 4.5h-36v19h37q22 0 36.5 14t14.5 33q0 26 -17.5 41t-47.5 15q-23 0 -37.5 -10t-21 -23.5t-7.5 -24.5l-31 4q0 8 5 21t16 27t29.5 24t46.5 10
q44 0 69.5 -21t25.5 -56q0 -23 -12.5 -40.5t-33.5 -23.5q22 -4 37.5 -22t15.5 -45q0 -36 -28.5 -58t-70.5 -22z" />
    <glyph glyph-name="four.numr" horiz-adv-x="247" 
d="M15 346v31q33 15 58 46.5t40 70t15 72.5h37q0 -53 -32 -104.5t-81 -84.5h180v-31h-217zM160 289v138h35v-138h-35z" />
    <glyph glyph-name="five.numr" horiz-adv-x="237" 
d="M117 278q-29 0 -50 10t-34 26.5t-18 36.5l35 5q1 -3 6 -15t20 -22.5t42 -10.5q34 0 52.5 20.5t18.5 43.5q0 25 -16.5 45.5t-51.5 20.5q-23 0 -37 -7.5t-20 -14.5t-6 -8l-34 7l14 140h171v-30h-146l-10 -95l7.5 8.5t24 16.5t44.5 8q50 0 72 -27.5t21 -62.5q0 -37 -28 -66
t-77 -29z" />
    <glyph glyph-name="six.numr" horiz-adv-x="241" 
d="M124 278q-38 0 -62 19.5t-35.5 51.5t-11.5 69q0 38 13 71.5t39.5 55t66.5 21.5q25 0 41 -7.5t25.5 -17t13 -17.5l3.5 -8l-33 -7l-5 7t-16 13.5t-31 6.5q-27 0 -48 -18t-30.5 -49.5t-4.5 -73.5q2 12 11 29t27.5 29.5t45.5 12.5q48 0 70.5 -26.5t22.5 -58.5
q0 -39 -25.5 -71t-76.5 -32zM125 307q34 0 51.5 22.5t17.5 50.5q0 24 -17 43.5t-51 19.5q-31 0 -51 -23t-20 -52q5 -28 25 -44.5t45 -16.5z" />
    <glyph glyph-name="seven.numr" horiz-adv-x="228" 
d="M57 289q0 85 33.5 140.5t88.5 94.5h-164v31h198v-30q-15 -10 -35 -27t-39.5 -44t-33 -67.5t-13.5 -97.5h-35z" />
    <glyph glyph-name="eight.numr" horiz-adv-x="249" 
d="M124 278q-47 0 -78 21t-31 59q0 26 17.5 46t47.5 27q-21 4 -31.5 15t-14 24t-3.5 22q0 32 26 53t67 21q42 0 68 -21.5t26 -52.5q0 -9 -3.5 -22t-14 -24t-32.5 -15q30 -7 48 -26.5t18 -46.5q0 -39 -31.5 -59.5t-78.5 -20.5zM124 306q36 0 56 16.5t20 40.5q0 28 -20 43
t-56 15q-35 0 -55.5 -15t-20.5 -43q0 -24 20.5 -40.5t55.5 -16.5zM124 439q29 0 46 11.5t17 34.5q0 25 -17.5 39t-45.5 14t-45.5 -14.5t-17.5 -38.5q0 -23 18 -34.5t45 -11.5z" />
    <glyph glyph-name="nine.numr" horiz-adv-x="243" 
d="M107 278q-25 0 -41.5 8t-25.5 17.5t-13 17l-4 7.5l34 8l4.5 -7t16 -14t30.5 -7q28 0 48.5 18t30.5 50t4 73q0 -12 -9.5 -28.5t-27.5 -29.5t-47 -13q-48 0 -70 27.5t-22 58.5q0 38 26 70t76 32q38 0 62 -19.5t35.5 -51t11.5 -69.5q0 -37 -13 -70.5t-39 -55.5t-67 -22z
M114 401q33 0 52.5 23t19.5 53q-6 27 -25 44t-46 17q-33 0 -51 -22.5t-18 -51.5q0 -24 17.5 -43.5t50.5 -19.5z" />
    <glyph glyph-name="zero.subs" horiz-adv-x="250" 
d="M125 -150q-56 0 -83 38.5t-27 106.5q0 66 26 104.5t84 38.5q57 0 83.5 -38t26.5 -105q0 -66 -26.5 -105.5t-83.5 -39.5zM124 -121q42 0 60.5 29.5t18.5 86.5q0 56 -18.5 85.5t-60.5 29.5q-39 0 -58 -29t-19 -86t18 -86.5t59 -29.5z" />
    <glyph glyph-name="one.subs" horiz-adv-x="162" 
d="M75 -127v221q-6 -20 -19 -31t-25 -14.5t-16 -3.5v37q4 0 19 3.5t29.5 15.5t14.5 37h30v-265h-33zM30 -139v31h117v-31h-117z" />
    <glyph glyph-name="two.subs" horiz-adv-x="232" 
d="M15 -139v29q2 0 22 13t47.5 34.5t51.5 45t34 47.5q15 32 -1.5 55.5t-53.5 23.5q-27 0 -45 -17.5t-16 -51.5l-32 3q-2 44 25.5 69.5t71.5 25.5q34 0 57.5 -15.5t31 -41t-5.5 -55.5q-8 -21 -29.5 -43.5t-46.5 -42.5t-46 -33.5t-29 -15.5h166v-30h-202z" />
    <glyph glyph-name="three.subs" horiz-adv-x="235" 
d="M121 -150q-43 0 -74 23.5t-32 70.5l32 4q2 -34 24 -51t50 -17q27 0 47.5 15.5t20.5 39.5q0 21 -10.5 32.5t-23.5 16t-24 4.5h-36v19h37q22 0 36.5 14t14.5 33q0 26 -17.5 41t-47.5 15q-23 0 -37.5 -10t-21 -23.5t-7.5 -24.5l-31 4q0 8 5 21t16 27t29.5 24t46.5 10
q44 0 69.5 -21t25.5 -56q0 -23 -12.5 -40.5t-33.5 -23.5q22 -4 37.5 -22t15.5 -45q0 -36 -28.5 -58t-70.5 -22z" />
    <glyph glyph-name="four.subs" horiz-adv-x="247" 
d="M15 -82v31q33 15 58 46.5t40 70t15 72.5h37q0 -53 -32 -104.5t-81 -84.5h180v-31h-217zM160 -139v138h35v-138h-35z" />
    <glyph glyph-name="five.subs" horiz-adv-x="237" 
d="M117 -150q-29 0 -50 10t-34 26.5t-18 36.5l35 5q1 -3 6 -15t20 -22.5t42 -10.5q34 0 52.5 20.5t18.5 43.5q0 25 -16.5 45.5t-51.5 20.5q-23 0 -37 -7.5t-20 -14.5t-6 -8l-34 7l14 140h171v-30h-146l-10 -95l7.5 8.5t24 16.5t44.5 8q50 0 72 -27.5t21 -62.5q0 -37 -28 -66
t-77 -29z" />
    <glyph glyph-name="six.subs" horiz-adv-x="241" 
d="M124 -150q-38 0 -62 19.5t-35.5 51.5t-11.5 69q0 38 13 71.5t39.5 55t66.5 21.5q25 0 41 -7.5t25.5 -17t13 -17.5l3.5 -8l-33 -7l-5 7t-16 13.5t-31 6.5q-27 0 -48 -18t-30.5 -49.5t-4.5 -73.5q2 12 11 29t27.5 29.5t45.5 12.5q48 0 70.5 -26.5t22.5 -58.5
q0 -39 -25.5 -71t-76.5 -32zM125 -121q34 0 51.5 22.5t17.5 50.5q0 24 -17 43.5t-51 19.5q-31 0 -51 -23t-20 -52q5 -28 25 -44.5t45 -16.5z" />
    <glyph glyph-name="seven.subs" horiz-adv-x="228" 
d="M57 -139q0 85 33.5 140.5t88.5 94.5h-164v31h198v-30q-15 -10 -35 -27t-39.5 -44t-33 -67.5t-13.5 -97.5h-35z" />
    <glyph glyph-name="eight.subs" horiz-adv-x="249" 
d="M124 -150q-47 0 -78 21t-31 59q0 26 17.5 46t47.5 27q-21 4 -31.5 15t-14 24t-3.5 22q0 32 26 53t67 21q42 0 68 -21.5t26 -52.5q0 -9 -3.5 -22t-14 -24t-32.5 -15q30 -7 48 -26.5t18 -46.5q0 -39 -31.5 -59.5t-78.5 -20.5zM124 -122q36 0 56 16.5t20 40.5q0 28 -20 43
t-56 15q-35 0 -55.5 -15t-20.5 -43q0 -24 20.5 -40.5t55.5 -16.5zM124 11q29 0 46 11.5t17 34.5q0 25 -17.5 39t-45.5 14t-45.5 -14.5t-17.5 -38.5q0 -23 18 -34.5t45 -11.5z" />
    <glyph glyph-name="nine.subs" horiz-adv-x="243" 
d="M107 -150q-25 0 -41.5 8t-25.5 17.5t-13 17l-4 7.5l34 8l4.5 -7t16 -14t30.5 -7q28 0 48.5 18t30.5 50t4 73q0 -12 -9.5 -28.5t-27.5 -29.5t-47 -13q-48 0 -70 27.5t-22 58.5q0 38 26 70t76 32q38 0 62 -19.5t35.5 -51t11.5 -69.5q0 -37 -13 -70.5t-39 -55.5t-67 -22z
M114 -27q33 0 52.5 23t19.5 53q-6 27 -25 44t-46 17q-33 0 -51 -22.5t-18 -51.5q0 -24 17.5 -43.5t50.5 -19.5z" />
    <glyph glyph-name="zero.sups" horiz-adv-x="250" 
d="M124 403q-55 0 -82 37.5t-27 101.5q0 62 26 100t84 38q57 0 83.5 -37.5t26.5 -100.5q0 -61 -26.5 -100t-84.5 -39zM124 432q42 0 60.5 28.5t18.5 81.5q0 52 -18.5 81t-60.5 29q-39 0 -58 -28t-19 -82q0 -52 18 -81t59 -29z" />
    <glyph glyph-name="five.sups" horiz-adv-x="237" 
d="M117 396q-29 0 -50 9.5t-34 26t-18 37.5l35 4q1 -3 6 -14.5t20 -22.5t42 -11q34 0 52 20t19 43q2 25 -15.5 46.5t-52.5 21.5q-23 0 -37 -7.5t-20 -15t-6 -8.5l-34 7l14 141h171v-31h-146l-10 -94l7.5 8t24 16.5t44.5 8.5q50 0 72.5 -29.5t20.5 -64.5q-2 -34 -29 -62.5
t-76 -28.5z" />
    <glyph glyph-name="six.sups" horiz-adv-x="241" 
d="M124 396q-57 0 -83 38.5t-26 91.5q0 37 13 70.5t39.5 55t66.5 21.5q25 0 41 -7.5t25.5 -17t13 -17l3.5 -7.5l-33 -8l-5 7t-16 13.5t-31 6.5q-27 0 -48 -18t-30.5 -49.5t-4.5 -72.5q2 12 11.5 29t28.5 30.5t50 11.5q36 -1 57.5 -19t27 -44.5t-4 -52.5t-33.5 -44t-62 -18z
M125 424q33 0 50.5 18.5t18.5 43t-14 44t-48 21.5q-37 1 -57 -22.5t-20 -52.5q5 -24 25 -38t45 -14z" />
    <glyph glyph-name="seven.sups" horiz-adv-x="228" 
d="M53 406q0 57 16 102.5t45 81.5t65 62h-164v31h198v-30q-15 -11 -35.5 -29.5t-41 -47.5t-34 -71t-13.5 -99h-36z" />
    <glyph glyph-name="eight.sups" horiz-adv-x="249" 
d="M124 396q-47 0 -78 20t-31 57q0 26 17.5 44.5t47.5 24.5q-21 4 -31.5 15t-14 23t-3.5 21q0 32 26 52t67 20q42 0 68 -20.5t26 -51.5q0 -9 -3.5 -21t-14 -23t-32.5 -15q30 -6 48 -24t18 -45q0 -39 -31.5 -58t-78.5 -19zM124 423q36 0 56 15.5t20 39.5q0 28 -20 41.5
t-56 13.5q-35 0 -55.5 -13.5t-20.5 -41.5q0 -24 20.5 -39.5t55.5 -15.5zM124 551q29 0 46 10t17 33q0 25 -17.5 38t-45.5 13t-45.5 -13.5t-17.5 -37.5q0 -23 18 -33t45 -10z" />
    <glyph glyph-name="nine.sups" horiz-adv-x="243" 
d="M118 396q-28 0 -46.5 8t-29.5 18.5t-16 18.5t-5 9l32 9q1 0 7 -8.5t20.5 -16.5t37.5 -8q28 0 45.5 16t25 46.5t6.5 74.5q-2 -12 -12 -28t-28.5 -28.5t-46.5 -12.5q-38 0 -61 18t-29 45t3 53.5t33 44.5t64 18t65 -19.5t36 -51.5t8 -71q-1 -39 -12 -69.5t-34 -48t-63 -17.5
zM115 517q33 0 52 20t23 49q-7 28 -25 43.5t-47 15.5q-27 0 -43.5 -13.5t-22.5 -32t-1 -37.5t21 -32t43 -13z" />
    <glyph glyph-name="hyphen_greater.dlig" horiz-adv-x="481" 
d="M446 206q-44 0 -72 13.5t-44 34t-23 40.5t-8.5 34t-1.5 15h35q0 -1 2 -16t12.5 -34t34 -33t65.5 -14v-40zM35 206v40h411v-40h-411zM297 109l1.5 14t8.5 34.5t23 40.5t44 34t72 14v-40q-42 0 -65.5 -14t-34 -33t-12.5 -33.5t-2 -16.5h-35z" />
    <glyph glyph-name="parenleft_greater.dlig" horiz-adv-x="657" 
d="M329 -23q-61 0 -114 23t-93.5 63.5t-63.5 93.5t-23 114q0 60 23 113t63.5 93.5t93.5 63.5t114 23t114 -23t93.5 -63.5t63 -93.5t22.5 -113q0 -61 -22.5 -114t-63 -93.5t-93.5 -63.5t-114 -23zM329 8q54 0 101.5 20.5t83.5 57t56.5 83.5t20.5 102q0 54 -20.5 101.5
t-56.5 83t-83.5 56t-101.5 20.5t-101.5 -20.5t-84 -56t-56.5 -83t-20 -101.5q0 -55 20 -102t56.5 -83.5t84 -57t101.5 -20.5zM289 193l117 80l-117 75v-155zM257 135v268l202 -130z" />
    <glyph glyph-name="colon_parenleft.dlig" horiz-adv-x="657" 
d="M329 -14q-61 0 -114.5 23t-93.5 63t-63 93.5t-23 114.5q0 60 23 113t63 93.5t93.5 63.5t114.5 23q60 0 113 -23t93.5 -63.5t63.5 -93.5t23 -113q0 -61 -23 -114.5t-63.5 -93.5t-93.5 -63t-113 -23zM157 125q7 62 53.5 102t118.5 40q48 0 85.5 -18.5t60.5 -51t27 -72.5
h-37q0 16 -7.5 35.5t-23.5 36.5t-42 28t-63 11t-63 -11t-42 -28t-23.5 -36.5t-7.5 -35.5h-36zM195 272v147h35v-147h-35zM329 18q54 0 101 20.5t83 56.5t56.5 83.5t20.5 101.5q0 53 -20.5 100.5t-56.5 83.5t-83 56.5t-101 20.5t-101.5 -20.5t-83.5 -56.5t-56.5 -83
t-20.5 -101t20.5 -101.5t56.5 -83.5t83.5 -56.5t101.5 -20.5zM427 272v147h35v-147h-35z" />
    <glyph glyph-name="colon_parenright.dlig" horiz-adv-x="657" 
d="M329 -14q-61 0 -114.5 23t-93.5 63t-63 93.5t-23 114.5q0 60 23 113t63 93.5t93.5 63.5t114.5 23q60 0 113 -23t93.5 -63.5t63.5 -93.5t23 -113q0 -61 -23 -114.5t-63.5 -93.5t-93.5 -63t-113 -23zM329 79q-60 0 -104.5 27t-69.5 73t-29 103h36q0 -2 2 -20.5t10.5 -43.5
t26.5 -50t49 -41.5t79 -16.5q51 0 82.5 17t49 43t24.5 52t8.5 43l1.5 17h36q-3 -59 -28.5 -104.5t-69.5 -72t-104 -26.5zM195 272v147h35v-147h-35zM329 18q54 0 101 20.5t83 56.5t56.5 83.5t20.5 101.5q0 53 -20.5 100.5t-56.5 83.5t-83 56.5t-101 20.5t-101.5 -20.5
t-83.5 -56.5t-56.5 -83t-20.5 -101t20.5 -101.5t56.5 -83.5t83.5 -56.5t101.5 -20.5zM427 272v147h35v-147h-35z" />
    <glyph glyph-name="periodcentered.case" horiz-adv-x="194" 
d="M93 249q-28 0 -38 14t-10 34q0 18 10 32t38 14t37 -14t9 -32q0 -20 -9 -34t-37 -14z" />
    <glyph glyph-name="bullet.case" horiz-adv-x="206" 
d="M93 249q-28 0 -38 14t-10 34q0 18 10 32t38 14t37 -14t9 -32q0 -20 -9 -34t-37 -14z" />
    <glyph glyph-name="hyphen.case" horiz-adv-x="317" 
d="M40 255v37h222v-37h-222z" />
    <glyph glyph-name="endash.case" horiz-adv-x="404" 
d="M40 255v37h309v-37h-309z" />
    <glyph glyph-name="emdash.case" horiz-adv-x="517" 
d="M40 255v37h422v-37h-422z" />
    <glyph glyph-name="parenleft.case" horiz-adv-x="273" 
d="M232 -147l-19 15.5t-46.5 47t-56 79t-47.5 112t-19 145.5t19 145.5t47.5 113t56 80.5t46.5 48l19 16l34 -37q-4 -3 -24 -17t-47.5 -42t-54 -70.5t-44.5 -101.5t-18 -135q0 -78 19 -137.5t46.5 -101.5t56 -69.5t47.5 -40l19 -12.5z" />
    <glyph glyph-name="parenright.case" horiz-adv-x="263" 
d="M31 -147l-33 38l19 12.5t47 40t55.5 69.5t46.5 101.5t19 137.5q0 76 -17.5 135t-44.5 101.5t-54.5 70.5t-47.5 42t-23 17l33 37l19 -16t47 -48t56 -80.5t47 -113t19 -145.5t-19 -145.5t-47 -112t-56 -79t-47 -47z" />
    <glyph glyph-name="braceleft.case" horiz-adv-x="272" 
d="M250 -144q-60 -9 -95 -1t-50 35t-15.5 76.5t7.5 123.5q6 53 1.5 83t-15.5 42t-24.5 15t-24.5 3v46q11 0 24.5 2.5t24.5 15t15.5 42t-1.5 83.5q-7 74 -6.5 122.5t15 75t49.5 34.5t95 1v-42q-55 12 -82 5t-35 -31.5t-4 -66t11 -96.5q8 -48 8 -81t-17.5 -53.5t-59.5 -34.5
q42 -14 59.5 -34.5t17.5 -52.5t-8 -80q-7 -57 -11 -97.5t4 -65.5t35 -32.5t82 4.5v-41z" />
    <glyph glyph-name="braceright.case" horiz-adv-x="286" 
d="M36 -144v41q55 -12 82 -4.5t35 32.5t4 65.5t-11 97.5q-8 48 -7.5 80t17.5 52.5t59 34.5q-42 14 -59 34.5t-17 53.5t7 81q7 55 11 96.5t-4 66t-35 31.5t-82 -5v42q63 6 98 -2t49 -34.5t13.5 -74.5t-7.5 -122q-6 -54 -1.5 -83.5t15.5 -42t24.5 -15t24.5 -2.5v-46
q-11 0 -24.5 -3t-24.5 -15t-15.5 -42t1.5 -83q8 -74 8.5 -122.5t-14 -75t-49.5 -34.5t-98 -2z" />
    <glyph glyph-name="bracketleft.case" horiz-adv-x="233" 
d="M35 -147v802h186v-43h-145v-718h145v-41h-186z" />
    <glyph glyph-name="bracketright.case" horiz-adv-x="249" 
d="M35 -147v41h153v718h-146v43h187v-802h-194z" />
    <glyph glyph-name="less_hyphen.dlig" horiz-adv-x="490" 
d="M35 206v40q42 0 65 14t33.5 33t13 34t2.5 16h35q0 -1 -2 -15t-8.5 -34t-22.5 -40.5t-44 -34t-72 -13.5zM446 206h-411v40h411v-40zM184 109h-35q0 2 -2.5 16.5t-13 33.5t-33.5 33t-65 14v40q44 0 72 -14t44 -34t22.5 -40.5t8.5 -34.5z" />
    <glyph glyph-name="less_three.dlig" horiz-adv-x="498" 
d="M242 0q-54 20 -96.5 58t-70.5 83.5t-40.5 92.5t-6 85.5t33 62.5t75.5 24q47 0 71.5 -31t32.5 -75q9 49 35.5 77.5t69.5 28.5q51 0 78 -24t33.5 -63t-6.5 -86t-41.5 -92.5t-71 -83t-96.5 -57.5zM242 40q42 17 75.5 46t56.5 66t34 74t7.5 67.5t-22.5 50t-56 19.5
q-23 0 -38.5 -9.5t-24 -26.5t-12 -39t-3.5 -48h-35q0 27 -4 49t-12.5 38.5t-23.5 26t-38 9.5q-36 0 -54.5 -19.5t-21.5 -50.5t9 -68t34.5 -74t55.5 -66t73 -45z" />
    <glyph glyph-name="plus.case" horiz-adv-x="362" 
d="M162 139v267h37v-267h-37zM48 255v38h266v-38h-266z" />
    <glyph glyph-name="minus.case" horiz-adv-x="362" 
d="M70 256v38h222v-38h-222z" />
    <glyph glyph-name="equal.case" horiz-adv-x="362" 
d="M42 339v35h277v-35h-277zM42 223v35h277v-35h-277z" />
    <glyph glyph-name="notequal.case" horiz-adv-x="362" 
d="M76 126l144 320h47l-144 -320h-47zM44 210v35h274v-35h-274zM44 326v35h274v-35h-274z" />
    <glyph glyph-name="greater.case" horiz-adv-x="362" 
d="M29 423l304 -148l-304 -150v44l256 106l-256 105v43z" />
    </font>
</defs>
</svg>
