<?xml version="1.0" standalone="no"?>
<!DOCTYPE svg PUBLIC "-//W3C//DTD SVG 1.1//EN" "http://www.w3.org/Graphics/SVG/1.1/DTD/svg11.dtd" >
<svg xmlns="http://www.w3.org/2000/svg" xmlns:xlink="http://www.w3.org/1999/xlink" version="1.1">
<metadata>
Created by FontForge 20201107 at Wed Apr 26 11:17:09 2023
 By 
Copyright 2019 The Darker Grotesque Project Authors (https://github.com/bettergui/DarkerGrotesque)
</metadata>
<defs>
<font id="DarkerGrotesque-Bold" horiz-adv-x="0" >
  <font-face 
    font-family="Darker Grotesque"
    font-weight="700"
    font-stretch="normal"
    units-per-em="1000"
    panose-1="0 0 0 0 0 0 0 0 0 0"
    ascent="800"
    descent="-200"
    x-height="411"
    cap-height="563"
    bbox="-140 -257 1767 931"
    underline-thickness="50"
    underline-position="-125"
    unicode-range="U+000D-240D"
  />
<missing-glyph horiz-adv-x="574" 
d="M63 -127v743h448v-743h-448zM165 -39h244v568h-244v-568z" />
    <glyph glyph-name="w_w_w.liga" unicode="www" horiz-adv-x="1792" 
d="M102 0l-96 394v18h100l68 -327h2l88 327h88l91 -327h2l68 327h99v-18l-97 -394h-142l-64 235h-2l-61 -235h-144zM680 0l-96 394v18h100l68 -327h2l88 327h88l91 -327h2l68 327h99v-18l-97 -394h-142l-64 235h-2l-61 -235h-144zM1257 0l-96 394v18h100l68 -327h2l88 327
h88l91 -327h2l68 327h99v-18l-97 -394h-142l-64 235h-2l-61 -235h-144z" />
    <glyph glyph-name=".notdef" horiz-adv-x="574" 
d="M63 -127v743h448v-743h-448zM165 -39h244v568h-244v-568z" />
    <glyph glyph-name=".null" 
 />
    <glyph glyph-name="nonmarkingreturn" horiz-adv-x="333" 
 />
    <glyph glyph-name="CR" unicode="&#xd;" horiz-adv-x="600" 
 />
    <glyph glyph-name="space" unicode=" " horiz-adv-x="218" 
 />
    <glyph glyph-name="exclam" unicode="!" horiz-adv-x="222" 
d="M119 -9q-36 0 -48 18t-12 43q0 24 12.5 41t47.5 17q34 0 46.5 -17t12.5 -41q0 -26 -12.5 -43.5t-46.5 -17.5zM84 166q-7 76 -15 138t-12.5 110.5t-1 81.5t17.5 50t45 17q29 0 44 -17t18 -50.5t-1.5 -82t-12 -110.5t-14.5 -137l-9 2t-25 2q-12 0 -23 -2z" />
    <glyph glyph-name="quotedbl" unicode="&#x22;" horiz-adv-x="348" 
d="M38 347v67h24q26 0 35.5 8t9.5 27q-37 -1 -52 15.5t-15 41.5q0 24 13 40.5t45 16.5q25 0 40 -15.5t15 -62.5q0 -37 -9 -68.5t-28.5 -50.5t-52.5 -19h-25zM203 347v67h24q26 0 35.5 8t9.5 27q-37 -1 -52 15.5t-15 41.5q0 24 13 40.5t45 16.5q25 0 40 -15.5t15 -62.5
q0 -37 -9 -68.5t-28.5 -50.5t-52.5 -19h-25z" />
    <glyph glyph-name="numbersign" unicode="#" horiz-adv-x="690" 
d="M75 0l136 332l75 231h96l-138 -334l-74 -229h-95zM23 141v87h556v-87h-556zM276 0l137 332l74 231h96l-136 -335l-74 -228h-97zM78 332v87h553v-87h-553z" />
    <glyph glyph-name="dollar" unicode="$" horiz-adv-x="552" 
d="M285 -11q-53 0 -105.5 19.5t-89.5 62.5t-45 113l101 17q0 -2 1.5 -15t8.5 -31t22.5 -35.5t42 -29t67.5 -11.5q28 0 48.5 6.5t34.5 16.5t21 22.5t7 24.5q1 28 -18 45t-49.5 27.5t-67.5 19.5t-73.5 21t-66.5 31t-47 50.5t-14 79.5q2 46 29 79.5t77 52t119 18.5
q58 0 107 -21.5t79 -64t30 -107.5l-97 -14q0 39 -15.5 62t-39 34t-46.5 14t-36 3q-38 0 -69 -17.5t-33 -50.5q0 -29 19 -46t50.5 -27.5t68.5 -18.5t74 -19.5t67.5 -30t47.5 -50t15 -80.5q-2 -47 -34.5 -81t-82.5 -51.5t-108 -17.5zM241 -109l7 113h88l7 -113h-102zM248 552
l-7 120h102l-7 -120h-88z" />
    <glyph glyph-name="percent" unicode="%" horiz-adv-x="609" 
d="M128 0l-70 50l234 251l191 262l70 -49l-227 -241zM473 -10q-56 0 -81.5 32.5t-25.5 88.5q0 53 25 85.5t82 32.5t83 -32.5t26 -86.5q0 -52 -26 -86t-83 -34zM471 54q26 0 36.5 16.5t10.5 39.5q0 25 -10.5 41.5t-36.5 16.5q-23 0 -34 -16t-11 -42q0 -23 11 -39.5t34 -16.5z
M135 334q-56 0 -82 32.5t-26 85.5q0 55 25.5 88t82.5 33t83.5 -33t26.5 -88q0 -51 -26.5 -84.5t-83.5 -33.5zM134 398q25 0 35 16t10 40q0 25 -10 41.5t-35 16.5q-24 0 -34.5 -16t-10.5 -42q0 -24 10.5 -40t34.5 -16z" />
    <glyph glyph-name="ampersand" unicode="&#x26;" horiz-adv-x="647" 
d="M593 -2q-37 15 -69.5 32t-66.5 39q-42 -39 -96 -58.5t-109 -19.5t-101 19t-74.5 56t-28.5 93q0 41 16.5 68.5t39 45t43 27t29.5 13.5q-5 8 -20 25.5t-28 44.5t-13 61q0 42 22.5 70t58 42.5t75.5 15t75 -13t57.5 -41t22.5 -69.5q0 -35 -17 -61.5t-40 -45.5t-42 -29
t-23 -12q7 -10 24.5 -27t41.5 -38.5t52 -44.5q6 9 13 24t11 33t1 36t-18 32l85 56q5 -5 13 -21.5t14.5 -40.5t8 -53t-6.5 -60t-30 -62q25 -16 51.5 -30.5t65.5 -30.5zM378 126q-28 22 -54 44.5t-49 47t-44 48.5q-31 -16 -56.5 -36.5t-25.5 -58.5q0 -30 16 -50.5t42.5 -31
t57 -10t60.5 12t53 34.5zM248 347q8 4 19 10t23 14t23 18t18 21t8 23q2 24 -11 38t-33 19.5t-40.5 1t-34.5 -18.5t-13 -39q1 -18 11 -40.5t30 -46.5z" />
    <glyph glyph-name="quotesingle" unicode="'" horiz-adv-x="214" 
d="M58 347v67h24q26 0 35.5 8t9.5 27q-37 -1 -52 15.5t-15 41.5q0 24 13 40.5t45 16.5q25 0 40 -15.5t15 -62.5q0 -37 -9 -68.5t-28.5 -50.5t-52.5 -19h-25z" />
    <glyph glyph-name="parenleft" unicode="(" horiz-adv-x="327" 
d="M233 -199l-19.5 16t-47.5 47.5t-57 79.5t-48 112t-19 144q0 81 19 145.5t48 113t57 80t47.5 48l19.5 16.5l79 -79q-4 -3 -25.5 -16.5t-51 -38.5t-58.5 -63t-48 -89t-19 -117q0 -67 20.5 -119t50.5 -89.5t60 -61.5t50.5 -36l20.5 -12z" />
    <glyph glyph-name="parenright" unicode=")" horiz-adv-x="317" 
d="M84 -199l-79 81l20.5 12t50.5 36t60 61.5t50.5 89.5t20.5 119q0 65 -19 116.5t-48 89.5t-58.5 63t-51 38.5t-25.5 16.5l79 79l19.5 -16.5t48 -48t57 -80t47.5 -113t19 -145.5q0 -80 -19 -144t-47.5 -112t-57 -79.5t-48 -47.5z" />
    <glyph glyph-name="asterisk" unicode="*" horiz-adv-x="382" 
d="M354 412l-126 -17l92 -87l-75 -55l-54 114l-54 -114l-75 55l93 87l-127 17l29 87l111 -62l-22 126h92l-24 -126l111 62z" />
    <glyph glyph-name="plus" unicode="+" horiz-adv-x="397" 
d="M163 81v287h71v-287h-71zM55 189v71h287v-71h-287z" />
    <glyph glyph-name="comma" unicode="," horiz-adv-x="225" 
d="M55 -102v67h24q26 0 36 8t10 27q-38 -2 -53 14.5t-15 42.5q0 24 13 40.5t45 16.5q26 0 40.5 -15.5t14.5 -62.5q0 -38 -8.5 -69.5t-28 -50t-53.5 -18.5h-25z" />
    <glyph glyph-name="hyphen" unicode="-" horiz-adv-x="317" 
d="M40 189v71h222v-71h-222z" />
    <glyph glyph-name="period" unicode="." horiz-adv-x="210" 
d="M96 0q-36 0 -48.5 18t-12.5 44q0 24 12.5 42t48.5 18q34 0 46.5 -18t12.5 -42q0 -26 -12.5 -44t-46.5 -18z" />
    <glyph glyph-name="slash" unicode="/" horiz-adv-x="386" 
d="M25 0l254 563h97l-254 -563h-97z" />
    <glyph glyph-name="zero" unicode="0" horiz-adv-x="545" 
d="M272 -14q-124 0 -184 79.5t-60 214.5q0 89 25.5 154.5t80 102t138.5 36.5t138 -36t80 -102t26 -155q0 -87 -26 -153.5t-80 -103.5t-138 -37zM272 71q77 0 113 53.5t36 155.5q0 68 -15.5 114.5t-48.5 70t-85 23.5q-76 0 -112.5 -51t-36.5 -157q0 -68 15.5 -114.5t48 -70.5
t85.5 -24z" />
    <glyph glyph-name="one" unicode="1" horiz-adv-x="377" 
d="M335 88v-88h-269v88h92v352q-8 -35 -26 -55t-38 -28t-36 -9.5t-21 -1.5v111q6 -1 26 0.5t43.5 11.5t41.5 32t20 62h90v-475h77z" />
    <glyph glyph-name="two" unicode="2" horiz-adv-x="519" 
d="M42 0v85q1 1 18.5 10t47.5 26t64.5 40t69 50t62.5 57t44 61q23 47 14.5 81.5t-37.5 54t-69 19.5q-54 0 -86 -36t-22 -111l-95 13q-7 69 19.5 118.5t77.5 75.5t117 26q54 0 97.5 -20t69.5 -55t30 -80t-21 -96q-19 -38 -52.5 -72.5t-72 -62.5t-75 -48.5t-63.5 -33
t-36 -14.5h330v-88h-432z" />
    <glyph glyph-name="three" unicode="3" horiz-adv-x="516" 
d="M267 -10q-67 0 -120 23t-83.5 69.5t-30.5 115.5l98 14q1 -43 19 -72.5t48.5 -45.5t70.5 -16q34 0 60.5 12.5t42 34.5t15.5 50q0 24 -10 40.5t-26.5 27t-36 15t-37.5 4.5h-67v53h69q27 0 50 7.5t36.5 23.5t13.5 42q0 46 -32 73t-86 27q-32 0 -55.5 -10.5t-38.5 -27.5
t-23 -36.5t-8 -37.5l-91 15q0 13 6 35t20.5 47t39 48t61 37.5t86.5 14.5q101 0 157 -43.5t56 -117.5q0 -49 -27 -84t-81 -42q53 -7 86 -43.5t33 -89.5q0 -50 -27.5 -87t-76 -56.5t-111.5 -19.5z" />
    <glyph glyph-name="four" unicode="4" horiz-adv-x="524" 
d="M30 110v88q51 22 91.5 63.5t69 93.5t43.5 106t15 102h110q0 -64 -27.5 -132t-78.5 -128.5t-120 -104.5h355v-88h-458zM316 0v281h101v-281h-101z" />
    <glyph glyph-name="five" unicode="5" horiz-adv-x="524" 
d="M261 -10q-67 0 -113 23t-72 60t-34 78l101 14q2 -7 8 -21.5t19.5 -30t36 -26.5t57.5 -11q38 0 63.5 15.5t39.5 40t16 51.5q3 29 -9 57t-38.5 46t-68.5 18q-29 0 -49 -8t-31.5 -19t-17.5 -19.5t-6 -9.5l-105 18l31 297h368v-88h-297l-19 -178l8.5 11.5t26.5 26.5
t47.5 26.5t72.5 11.5q67 0 110 -28t62.5 -72t15.5 -92t-31.5 -91.5t-76 -71.5t-115.5 -28z" />
    <glyph glyph-name="six" unicode="6" horiz-adv-x="546" 
d="M280 -10q-81 0 -133.5 38t-78 102.5t-25.5 141.5q0 58 16 112t48 96.5t79 67.5t110 25q49 0 82.5 -12t55.5 -30t34 -36.5t17 -31l5 -12.5l-101 -19l-8.5 13t-30 26t-60.5 13q-28 0 -57 -14.5t-51.5 -44.5t-33.5 -77t-4 -111q1 10 10.5 31t30 42.5t53.5 36.5t80 14
q66 0 108 -27t61 -69.5t15.5 -89.5t-30 -89.5t-74.5 -69t-118 -26.5zM286 75q39 0 66 15.5t41 40.5t15 53.5t-11 54t-37 42t-64 18.5q-43 1 -73.5 -18.5t-47.5 -50t-17 -64.5q7 -30 26 -50.5t46 -30.5t56 -10z" />
    <glyph glyph-name="seven" unicode="7" horiz-adv-x="513" 
d="M111 0q0 115 35 207.5t95 160t136 106.5h-333v89h428v-87q-24 -13 -57 -36.5t-68.5 -60t-66 -89.5t-49 -124.5t-18.5 -165.5h-102z" />
    <glyph glyph-name="eight" unicode="8" horiz-adv-x="560" 
d="M278 -11q-68 0 -122 19t-85 56t-31 90q0 55 37.5 95t103.5 49q-35 6 -56.5 21t-32.5 34t-15.5 37.5t-4.5 31.5q0 45 26 79t72.5 53t107.5 19q64 0 110 -19.5t71.5 -53.5t25.5 -78q0 -13 -4 -31.5t-15 -37.5t-32.5 -34t-57.5 -21q67 -10 105 -48.5t38 -95.5q0 -54 -32 -91
t-86 -55.5t-123 -18.5zM279 69q65 0 102.5 28t37.5 74q0 52 -37.5 77t-102.5 25q-64 0 -102 -25t-38 -77q0 -46 38 -74t102 -28zM278 322q54 0 85.5 20.5t31.5 59.5q0 46 -32.5 69t-84.5 23t-83.5 -23t-31.5 -69q0 -27 15 -44.5t41 -26.5t59 -9z" />
    <glyph glyph-name="nine" unicode="9" horiz-adv-x="547" 
d="M261 -10q-53 0 -90 12.5t-61 31.5t-37 38t-18.5 32l-5.5 13l100 22l5.5 -9t17.5 -20.5t34 -20t55 -8.5q30 0 56 13.5t45 42t29 74t8 110.5q-1 -10 -11 -30t-30.5 -41t-51.5 -35.5t-76 -14.5q-66 0 -109.5 26.5t-63.5 68.5t-17.5 89.5t28.5 89.5t74.5 69t119.5 27
q66 0 112 -24t74.5 -64.5t41 -93t10.5 -110.5q-2 -59 -15.5 -111t-41 -92t-72.5 -62.5t-110 -22.5zM253 261q59 0 94 36t39 90q-12 52 -46 76t-78 24q-39 0 -66.5 -16t-41.5 -42t-14.5 -54.5t11.5 -54t37.5 -42t64.5 -17.5z" />
    <glyph glyph-name="colon" unicode=":" horiz-adv-x="230" 
d="M115 32q-35 0 -47.5 18t-12.5 43q0 24 12.5 42t47.5 18q36 0 47.5 -18t11.5 -42q0 -25 -11.5 -43t-47.5 -18zM115 259q-35 0 -47.5 17.5t-12.5 43.5q0 25 12.5 42.5t47.5 17.5q36 0 47.5 -18t11.5 -42q0 -25 -11.5 -43t-47.5 -18z" />
    <glyph glyph-name="semicolon" unicode=";" horiz-adv-x="234" 
d="M122 291q-36 0 -48 18t-12 43t12 42.5t48 17.5q35 0 47 -17.5t12 -42.5q0 -26 -12 -43.5t-47 -17.5zM64 -102v67h24q26 0 36 8t10 27q-38 -2 -53 14.5t-15 42.5q0 24 13 40.5t45 16.5q26 0 40.5 -15.5t14.5 -62.5q0 -38 -8.5 -69.5t-28 -50t-53.5 -18.5h-25z" />
    <glyph glyph-name="less" unicode="&#x3c;" horiz-adv-x="397" 
d="M363 406v-81l-252 -92l252 -91v-82l-329 173z" />
    <glyph glyph-name="equal" unicode="=" horiz-adv-x="397" 
d="M38 259v68h321v-68h-321zM38 118v68h321v-68h-321z" />
    <glyph glyph-name="greater" unicode="&#x3e;" horiz-adv-x="397" 
d="M34 406l329 -173l-329 -173v82l252 91l-252 92v81z" />
    <glyph glyph-name="question" unicode="?" horiz-adv-x="448" 
d="M262 168h-92q0 29 14.5 53.5t36 46.5t43.5 43.5t37 44t17 48.5q1 34 -20 56t-63 22q-30 0 -48 -11.5t-27 -29.5t-11.5 -36t-2.5 -33h-96q-6 35 1 69.5t28.5 63.5t58.5 47t91 18t97 -19t68.5 -53t25.5 -81q0 -38 -16 -66t-39 -50t-46.5 -41.5t-40 -41.5t-16.5 -50zM215 -9
q-35 0 -47 18t-12 42q0 25 12.5 42t46.5 17q35 0 47 -17t12 -42q0 -26 -12 -43t-47 -17z" />
    <glyph glyph-name="at" unicode="@" horiz-adv-x="821" 
d="M413 -167q-73 0 -139 19.5t-117.5 60t-81.5 103t-30 149.5q0 85 30.5 152.5t83 115.5t122 73.5t148.5 25.5q67 0 128 -18.5t109.5 -54t76.5 -86.5t28 -116q0 -57 -23.5 -107.5t-67 -82.5t-104.5 -32q-43 0 -60.5 20t-17.5 48q-1 24 5 47.5t9 43.5l17 137h77l-31 -167
q-7 -36 -2 -60t33 -24q34 0 57 20.5t35.5 54t12.5 71.5q0 69 -36.5 120.5t-98.5 79.5t-137 28q-82 0 -147 -37t-102 -100t-37 -141q0 -81 35 -134.5t95.5 -80.5t136.5 -27q51 0 104 13.5t106 40.5l51 -89q-59 -32 -128.5 -49t-139.5 -17zM376 41q-55 0 -84.5 34.5
t-29.5 88.5q0 46 20 87t55 67t81 26q55 0 84.5 -32.5t29.5 -85.5q0 -46 -19 -88.5t-54 -69.5t-83 -27zM402 98q36 0 57 19t30.5 48t9.5 57q0 30 -15 48t-50 18q-31 0 -53 -16.5t-34.5 -43t-12.5 -56.5q0 -33 17 -53.5t51 -20.5z" />
    <glyph glyph-name="A" unicode="A" horiz-adv-x="566" 
d="M19 0l180 563h167l185 -563h-109l-158 520l-157 -520h-108zM140 159l1 79h285l1 -79h-287z" />
    <glyph glyph-name="B" unicode="B" horiz-adv-x="560" 
d="M55 0v563h223q25 0 54.5 -2t59 -9.5t53.5 -24t39 -44t15 -69.5q0 -32 -12.5 -59t-45.5 -44.5t-96 -20.5v-3q72 -2 111 -20.5t54 -48.5t15 -67q0 -43 -15.5 -71t-42.5 -44.5t-59 -24t-64.5 -9.5t-60.5 -2h-228zM156 82h119q39 0 72 4.5t53 22.5t20 56q0 40 -20.5 58
t-55 23t-75.5 5h-113v-169zM155 329h111q35 0 65 4t48.5 19.5t18.5 50.5q0 37 -18.5 53t-48.5 20t-65 4h-111v-151z" />
    <glyph glyph-name="C" unicode="C" horiz-adv-x="602" 
d="M301 -10q-79 0 -143 32.5t-101.5 96.5t-37.5 160q1 94 38 160t101.5 100t145.5 34q78 0 133 -28t88.5 -76t43.5 -108h-105q-7 44 -32.5 69.5t-59.5 36t-68 10.5q-89 0 -136.5 -50t-47.5 -141q0 -97 46.5 -149t135.5 -52q37 0 72 11.5t60 38t32 71.5h106
q-11 -61 -44 -110.5t-89.5 -77.5t-137.5 -28z" />
    <glyph glyph-name="D" unicode="D" horiz-adv-x="606" 
d="M164 84v391h83q66 0 114 -21.5t74 -64t26 -106.5q0 -61 -14.5 -100t-43 -60.5t-67.5 -30t-89 -8.5h-27.5h-55.5zM570 282q0 94 -43.5 156t-122.5 93.5t-186 31.5h-49.5h-105.5v-563h103h52q107 0 186 24t122.5 85.5t43.5 172.5z" />
    <glyph glyph-name="E" unicode="E" horiz-adv-x="501" 
d="M53 0v563h402v-88h-301v-148h231v-84h-231v-161h311v-82h-412z" />
    <glyph glyph-name="F" unicode="F" horiz-adv-x="474" 
d="M165 0h-100v563h401v-88h-301v-138h230v-83h-230v-254z" />
    <glyph glyph-name="G" unicode="G" horiz-adv-x="623" 
d="M290 -11q-82 0 -143.5 33t-94.5 98t-31 158q2 95 38 161t100.5 100t147.5 34q115 0 178.5 -49.5t83.5 -145.5l-98 -14q-10 42 -34.5 67t-58.5 35.5t-71 10.5q-96 0 -141.5 -52.5t-44.5 -138.5q0 -96 51.5 -147.5t145.5 -51.5q38 0 72.5 12.5t59.5 38t34 65.5h-124v75h220
v-278h-69l-23 98h-2q-7 -19 -23 -38t-40 -35t-57 -26t-76 -10z" />
    <glyph glyph-name="H" unicode="H" horiz-adv-x="588" 
d="M161 0h-103v563h103v-563zM428 563h102v-563h-102v563zM489 247h-384v79h384v-79z" />
    <glyph glyph-name="I" unicode="I" horiz-adv-x="378" 
d="M136 18v527h101v-527h-101zM60 0v87h251v-87h-251zM60 475v88h251v-88h-251z" />
    <glyph glyph-name="J" unicode="J" horiz-adv-x="470" 
d="M224 -10q-42 0 -76 11.5t-58.5 34t-38 56.5t-13.5 79h96q0 -23 7.5 -44.5t26.5 -35t53 -13.5q44 0 64.5 25t20.5 92v350h102v-334q0 -51 -8 -92t-28 -70t-55.5 -44t-92.5 -15zM192 484v79h216v-79h-216z" />
    <glyph glyph-name="K" unicode="K" horiz-adv-x="578" 
d="M163 179v114l253 270h133v-12zM65 0v563h102v-563h-102zM444 0l-212 292l74 72l255 -352v-12h-117z" />
    <glyph glyph-name="L" unicode="L" horiz-adv-x="470" 
d="M63 5v558h102v-558h-102zM63 0v87h380v-87h-380z" />
    <glyph glyph-name="M" unicode="M" horiz-adv-x="734" 
d="M58 0v563h178l132 -519h2l131 519h177v-563h-106l7 517h-1l-135 -517h-150l-133 517h-2l6 -517h-106z" />
    <glyph glyph-name="N" unicode="N" horiz-adv-x="606" 
d="M443 563h106v-563h-194l-193 518h-2v-518h-105v563h180l206 -518h2v518z" />
    <glyph glyph-name="O" unicode="O" horiz-adv-x="612" 
d="M298 -14q-136 0 -208 79.5t-72 214.5q0 89 31 154.5t93.5 102t155.5 36.5q137 0 208.5 -79.5t71.5 -213.5q0 -87 -32 -153.5t-94 -103.5t-154 -37zM297 84q61 0 101 25.5t60 70t20 100.5q0 57 -20 101.5t-60 70t-101 25.5q-88 0 -134 -54t-46 -143q0 -55 19.5 -99.5
t59.5 -70.5t101 -26z" />
    <glyph glyph-name="P" unicode="P" horiz-adv-x="498" 
d="M159 0h-102v563h102v-563zM144 563h139q94 0 146 -47t52 -142q0 -83 -53.5 -130t-144.5 -47h-139v75h125q54 0 87 26t33 78q0 53 -32.5 78.5t-87.5 25.5h-125v83z" />
    <glyph glyph-name="Q" unicode="Q" horiz-adv-x="624" 
d="M314 -14q-137 0 -209 79.5t-72 214.5q0 88 31 154t93.5 102.5t156.5 36.5q92 0 154.5 -36.5t94 -102t31.5 -153.5t-31.5 -154.5t-94 -103.5t-154.5 -37zM386 -128q-19 0 -39 3t-37 15t-27.5 39.5t-10.5 76.5v43h97v-36q0 -23 1 -37t11 -20t34 -6q5 0 20.5 4.5t28.5 4.5
l1 -77q-2 0 -13.5 -1.5t-25.5 -3.5t-26 -3.5t-14 -1.5zM313 86q89 0 133 54t44 143q0 90 -43.5 144t-133.5 54q-87 0 -132 -52t-45 -145q0 -90 44 -144t133 -54z" />
    <glyph glyph-name="R" unicode="R" horiz-adv-x="555" 
d="M56 0v563h207q73 0 124.5 -16t79 -51.5t27.5 -97.5q0 -46 -14.5 -80.5t-43 -54t-70.5 -19.5q30 0 47 -11.5t25.5 -30t11.5 -39.5t5.5 -41t8.5 -34.5t19 -19t38 4.5v-59q-19 -16 -45 -21.5t-51 3.5t-42 35.5t-17 74.5q0 35 -3 59t-13.5 38.5t-33 22t-60.5 9t-98 -1.5v-233
h-102zM158 307h101q50 0 81.5 4.5t47 22.5t15.5 56q0 43 -19 62t-55.5 23.5t-89.5 4.5h-81v-173z" />
    <glyph glyph-name="S" unicode="S" horiz-adv-x="555" 
d="M276 -11q-47 0 -91 10.5t-79.5 34.5t-57 61t-22.5 90h103q0 -4 2 -15.5t10.5 -26.5t25 -29t45 -23.5t71.5 -9.5q30 0 51.5 6t36 16t21.5 22.5t7 24.5q0 28 -19.5 44.5t-52 27t-71 19t-77 20.5t-70.5 31.5t-49.5 50.5t-15.5 79q4 47 33 81t81 52t121 18q60 0 111.5 -21.5
t83 -64t31.5 -108.5h-99q0 31 -14 50.5t-35.5 30t-45.5 14t-43 3.5q-50 0 -82.5 -16.5t-32.5 -50.5q-1 -29 19 -45.5t53 -26.5t72 -18.5t78 -19.5t70.5 -30t50 -50t15.5 -81q-2 -47 -33 -80.5t-82.5 -51.5t-119.5 -18z" />
    <glyph glyph-name="T" unicode="T" horiz-adv-x="465" 
d="M278 545v-545h-102v545h102zM10 475v88h435v-88h-435z" />
    <glyph glyph-name="U" unicode="U" horiz-adv-x="595" 
d="M298 -14q-119 0 -182 66.5t-63 187.5v323h109v-322q0 -47 11.5 -77.5t31 -48t44 -25t49.5 -7.5q38 0 69 13.5t49.5 48t18.5 96.5v322h108v-323q0 -123 -61.5 -188.5t-183.5 -65.5z" />
    <glyph glyph-name="V" unicode="V" horiz-adv-x="556" 
d="M437 563h112l-186 -563h-170l-186 563h111l159 -520z" />
    <glyph glyph-name="W" unicode="W" horiz-adv-x="820" 
d="M353 563h108l-54 -131l-93 -432h-165l-136 563h109l109 -520zM692 563h108l-135 -563h-164l-94 432l-55 131h109l122 -520z" />
    <glyph glyph-name="X" unicode="X" horiz-adv-x="570" 
d="M21 0l200 297l-184 266h121l130 -205l131 205h119l-181 -266l200 -297h-119l-150 233l-149 -233h-118z" />
    <glyph glyph-name="Y" unicode="Y" horiz-adv-x="447" 
d="M171 198l-192 365h114l131 -275l129 275h114l-196 -365h-100zM171 0v211h101v-211h-101z" />
    <glyph glyph-name="Z" unicode="Z" horiz-adv-x="564" 
d="M43 0v86l343 389h-317v88h448v-87l-338 -388h336v-88h-472z" />
    <glyph glyph-name="bracketleft" unicode="[" horiz-adv-x="289" 
d="M35 -199v802h237v-95h-137v-612h137v-95h-237z" />
    <glyph glyph-name="backslash" unicode="\" horiz-adv-x="366" 
d="M249 0l-254 563h97l254 -563h-97z" />
    <glyph glyph-name="bracketright" unicode="]" horiz-adv-x="295" 
d="M35 -199v95h140v612h-137v95h237v-802h-240z" />
    <glyph glyph-name="asciicircum" unicode="^" horiz-adv-x="442" 
d="M28 320v26l193 216l192 -216v-26h-96l-95 159h-2l-95 -159h-97z" />
    <glyph glyph-name="underscore" unicode="_" horiz-adv-x="570" 
d="M33 0v71h482v-71h-482z" />
    <glyph glyph-name="grave" unicode="`" horiz-adv-x="198" 
d="M120 455l-85 95v19h86l45 -100v-14h-46z" />
    <glyph glyph-name="a" unicode="a" horiz-adv-x="453" 
d="M178 -10q-56 0 -91 26.5t-50.5 74t-15.5 109.5q0 63 16 111t50.5 74.5t90.5 26.5q36 0 60.5 -10t40 -24t23.5 -27.5t11 -21.5h2v82h105v-411h-88l-17 67h-2q-2 -7 -11 -19.5t-24.5 -26t-40 -22.5t-59.5 -9zM220 76q37 0 58 16t29 44.5t8 62.5q0 37 -8.5 64.5t-29 43
t-57.5 15.5q-39 0 -60.5 -17t-30 -44.5t-8.5 -61.5t8.5 -62t30 -44.5t60.5 -16.5z" />
    <glyph glyph-name="b" unicode="b" horiz-adv-x="494" 
d="M288 -10q-37 0 -63 11.5t-42.5 27.5t-24 29t-8.5 15h-2l-17 -73h-88v563h105v-242h2q1 3 8 17t22.5 31t42 29.5t65.5 12.5q61 0 98 -26.5t54.5 -74t17.5 -112.5q0 -62 -17 -109t-54.5 -73t-98.5 -26zM255 76q41 0 63.5 17.5t31 46t8.5 59.5t-9 59t-32 45t-65 17
q-37 0 -60 -15.5t-33 -43t-10 -62.5q0 -36 10.5 -63.5t34 -43.5t61.5 -16z" />
    <glyph glyph-name="c" unicode="c" horiz-adv-x="469" 
d="M235 -10q-58 0 -105 23.5t-75 70t-28 113.5q2 67 29.5 115t74.5 74t106 26q62 0 105 -23.5t67 -60.5t27 -78h-94q-7 36 -33 55t-69 19q-36 0 -61 -15t-38.5 -41.5t-13.5 -62.5q0 -58 28.5 -92.5t84.5 -34.5q38 0 66.5 20t35.5 59h94q-3 -43 -27.5 -81t-68 -62t-105.5 -24
z" />
    <glyph glyph-name="d" unicode="d" horiz-adv-x="505" 
d="M212 -10q-61 0 -98.5 26t-54.5 73t-17 109q0 65 17.5 112.5t55 74t97.5 26.5q39 0 65.5 -12.5t42 -29.5t22.5 -31t8 -17h2v242h105v-563h-88l-17 73h-2q-1 -2 -8.5 -15t-24 -29t-42.5 -27.5t-63 -11.5zM245 76q38 0 61.5 16t34 43.5t10.5 63.5q0 35 -10 62.5t-32.5 43
t-60.5 15.5q-41 0 -64.5 -17t-32.5 -45t-9 -59t8.5 -59.5t31 -46t63.5 -17.5z" />
    <glyph glyph-name="e" unicode="e" horiz-adv-x="462" 
d="M229 -10q-71 0 -115.5 30.5t-66 78.5t-22.5 100q-1 62 23.5 110.5t70 76t107.5 27.5q55 0 99 -24t69.5 -67t26.5 -103v-11.5v-14.5h-299q0 -57 28.5 -87.5t76.5 -30.5q38 0 63.5 19t30.5 50h99q-4 -43 -28 -78t-65 -55.5t-98 -20.5zM125 239h194q-1 7 -4 22t-13 31
t-29 27t-49 11t-49 -10t-29 -25t-15 -30t-6 -26z" />
    <glyph glyph-name="f" unicode="f" horiz-adv-x="288" 
d="M73 -1v479q0 54 24.5 78t73.5 24h108v-79h-104v-502h-102zM17 339v72h259v-72h-259z" />
    <glyph glyph-name="g" unicode="g" horiz-adv-x="475" 
d="M152 -183v96h180v160h-2q-1 -2 -9 -15t-23.5 -29t-41 -27.5t-63.5 -11.5q-60 0 -98 26.5t-55.5 73.5t-17.5 109q0 65 18 112.5t56 73.5t97 26q40 0 66 -12.5t41 -29.5t21.5 -31t7.5 -17h2v90h106v-446q0 -55 -14.5 -87.5t-43.5 -46.5t-75 -14h-152zM225 76q38 0 61 16
t34 43.5t11 63.5q0 35 -10.5 62.5t-33 43t-60.5 15.5q-41 0 -64.5 -17t-32.5 -45t-9 -59t8.5 -59.5t31.5 -46t64 -17.5z" />
    <glyph glyph-name="h" unicode="h" horiz-adv-x="479" 
d="M43 0v563h105v-241h2q1 3 7 16.5t21 30.5t40.5 29.5t64.5 12.5q43 0 71 -15t44.5 -39t24 -52.5t9.5 -56t2 -49.5v-199h-99v200q0 33 -6.5 60t-25.5 44t-58 17t-60 -18.5t-29 -46.5t-8 -60v-196h-105z" />
    <glyph glyph-name="i" unicode="i" horiz-adv-x="199" 
d="M49 0v411h102v-411h-102zM100 464q-33 0 -44.5 17t-11.5 39t11.5 38.5t44.5 16.5q34 0 44.5 -16.5t10.5 -38.5t-10.5 -39t-44.5 -17z" />
    <glyph glyph-name="j" unicode="j" horiz-adv-x="244" 
d="M110 464q-34 0 -45.5 17t-11.5 39t11.5 38.5t45.5 16.5q33 0 44 -16.5t11 -38.5t-11 -39t-44 -17zM59 411h102v-492q0 -54 -24.5 -78t-73.5 -24h-73v79h69v515z" />
    <glyph glyph-name="k" unicode="k" horiz-adv-x="448" 
d="M144 0h-102v563h102v-563zM243 284l204 -284h-122l-156 213zM140 99v115l179 199h125z" />
    <glyph glyph-name="l" unicode="l" horiz-adv-x="196" 
d="M48 0v563h100v-563h-100z" />
    <glyph glyph-name="m" unicode="m" horiz-adv-x="682" 
d="M37 0v411h97l2 -89h2q1 4 7.5 17.5t21 30t37.5 29t57 12.5q33 0 55 -13t35.5 -33t19.5 -43h2q1 4 9 18t23 30.5t39.5 28.5t59.5 12q39 0 64.5 -16.5t40.5 -42t22.5 -54.5t9.5 -55.5t2 -43.5v-199h-99v200q0 16 -1.5 36.5t-8 40t-21.5 32t-42 12.5q-33 0 -50.5 -18.5
t-24 -47t-6.5 -59.5v-196h-100v200q0 16 -1 36.5t-8 40t-22 32t-42 12.5q-32 0 -50 -18.5t-24.5 -47t-6.5 -59.5v-196h-99z" />
    <glyph glyph-name="n" unicode="n" horiz-adv-x="466" 
d="M37 0v411h87l17 -89h2q1 3 7.5 16.5t22 30.5t42 29.5t66.5 12.5q44 0 71.5 -14.5t43.5 -38t22.5 -52t8 -56.5t1.5 -51v-199h-100v200q0 33 -6.5 60t-25 44t-57.5 17q-40 0 -61 -18.5t-29 -46.5t-8 -60v-196h-104z" />
    <glyph glyph-name="o" unicode="o" horiz-adv-x="472" 
d="M230 -10q-68 0 -114.5 27t-69.5 74.5t-23 108.5q0 62 23 109.5t69.5 74.5t115.5 27q101 0 153.5 -58t52.5 -153q0 -59 -22 -107t-68 -75.5t-117 -27.5zM230 76q45 0 68.5 19t31.5 48.5t8 59.5q0 32 -8 61t-31.5 48.5t-68.5 19.5q-44 0 -67.5 -19.5t-32 -48.5t-8.5 -61
q0 -30 8.5 -59.5t32 -48.5t67.5 -19z" />
    <glyph glyph-name="p" unicode="p" horiz-adv-x="492" 
d="M292 -10q-38 0 -63.5 11.5t-41 27.5t-23 29t-8.5 15h-2v-256h-105v594h89l17 -90h2q1 3 7 17t21 31t41 29.5t65 12.5q62 0 99.5 -27t55 -75t17.5 -111q0 -64 -18 -110.5t-55.5 -72t-97.5 -25.5zM261 76q42 0 64.5 17.5t31 46t8.5 59.5t-9 59t-32.5 45t-64.5 17
q-37 0 -60 -15.5t-33.5 -43t-10.5 -62.5q0 -36 11 -63.5t34.5 -43.5t60.5 -16z" />
    <glyph glyph-name="q" unicode="q" horiz-adv-x="492" 
d="M201 -10q-60 0 -98 25.5t-56 72.5t-18 110q0 64 17.5 112t56 74.5t98.5 26.5q39 0 65 -12.5t41 -29.5t21.5 -31t7.5 -17h2l16 90h89v-594h-105v256h-2q-1 -2 -8.5 -15t-23 -29t-41 -27.5t-62.5 -11.5zM231 76q38 0 61.5 16t34 43.5t10.5 63.5q0 35 -10 62.5t-33 43
t-60 15.5q-41 0 -64.5 -17t-33 -45t-9.5 -59t8.5 -59.5t31.5 -46t64 -17.5z" />
    <glyph glyph-name="r" unicode="r" horiz-adv-x="338" 
d="M42 0v411h95l8 -120l-1 -88v-203h-102zM144 177l-3 91q0 21 8 45.5t26.5 46.5t48.5 36.5t74 14.5h15v-114h-15q-43 0 -73 -6.5t-47.5 -20.5t-25.5 -37t-8 -56z" />
    <glyph glyph-name="s" unicode="s" horiz-adv-x="415" 
d="M213 -10q-21 0 -46 5.5t-50 17t-45.5 29.5t-32.5 42t-12 56h94q0 -1 1.5 -13t9.5 -26.5t26 -25.5t52 -11q27 0 44 7t25.5 17.5t8.5 23.5q0 22 -18.5 34.5t-47.5 20.5t-61.5 16.5t-61 22.5t-46.5 38.5t-18 63.5q0 58 46 87t117 29q38 0 71.5 -8.5t59.5 -27t41.5 -47
t15.5 -69.5h-94q1 23 -7.5 37.5t-22.5 22.5t-30 11t-31 3q-36 0 -54.5 -12.5t-18.5 -32.5q0 -23 18.5 -35.5t48 -20.5t62.5 -16.5t62 -22.5t47.5 -37.5t18.5 -62.5t-21.5 -64.5t-60 -38.5t-90.5 -13z" />
    <glyph glyph-name="t" unicode="t" horiz-adv-x="305" 
d="M172 0q-49 0 -73.5 24t-24.5 78v248h95v-270h96v-80h-93zM12 339v72q22 0 36 3t22.5 13t12.5 31t4 58h82v-105h94v-72h-251z" />
    <glyph glyph-name="u" unicode="u" horiz-adv-x="461" 
d="M180 -10q-43 0 -70.5 14t-43 37t-22.5 51t-9 56.5t-2 52.5v210h99v-210q0 -31 6 -58.5t25.5 -45t59.5 -17.5q39 0 59 17.5t27 45t8 55.5v213h105v-411h-87l-17 78h-2q-2 -6 -10 -20t-23.5 -30t-40.5 -27t-62 -11z" />
    <glyph glyph-name="v" unicode="v" horiz-adv-x="447" 
d="M321 411h100v-17l-141 -394h-142l-141 393v18h98l115 -327h2z" />
    <glyph glyph-name="w" unicode="w" horiz-adv-x="636" 
d="M102 0l-96 394v18h100l68 -327h2l88 327h88l91 -327h2l68 327h99v-18l-97 -394h-142l-64 235h-2l-61 -235h-144z" />
    <glyph glyph-name="x" unicode="x" horiz-adv-x="446" 
d="M0 0l150 212l-142 199h112l94 -140l94 140h113l-142 -199l151 -212h-112l-104 151l-102 -151h-112z" />
    <glyph glyph-name="y" unicode="y" horiz-adv-x="441" 
d="M-2 -191v79h63q15 0 26.5 3t22.5 15.5t24 40.5l27 60l-160 404h105l105 -299l113 299h105l-202 -474q-18 -42 -33.5 -67.5t-31.5 -38.5t-37 -17.5t-49 -4.5h-78z" />
    <glyph glyph-name="z" unicode="z" horiz-adv-x="445" 
d="M35 0v74l249 263h-235v76h354v-74l-244 -263h244v-76h-368z" />
    <glyph glyph-name="braceleft" unicode="{" horiz-adv-x="344" 
d="M317 -196q-76 -15 -123 -8t-70 36t-26 80.5t9 125.5q6 44 -0.5 68t-20 34t-28.5 12.5t-26 2.5v98q11 0 26 2.5t28.5 12.5t20 34t0.5 68q-11 74 -8 124t25.5 78t69.5 35t123 -4v-95q-55 12 -81 6t-33.5 -26t-3.5 -50t8 -66q8 -48 3.5 -82.5t-28 -56t-73.5 -30.5
q50 -9 73.5 -30t28 -55t-3.5 -82q-4 -36 -8 -66.5t3.5 -50.5t33.5 -26t81 6v-95z" />
    <glyph glyph-name="bar" unicode="|" horiz-adv-x="222" 
d="M60 -151v752h102v-752h-102z" />
    <glyph glyph-name="braceright" unicode="}" horiz-adv-x="356" 
d="M38 -196v95q55 -12 81.5 -6t33.5 26t3.5 50.5t-8.5 66.5q-8 48 -3 82t28.5 55t72.5 30q-49 9 -72.5 30.5t-28 56t2.5 82.5q5 36 8.5 66t-3.5 50t-33.5 26t-81.5 -6v95q85 6 133 -2t68 -34.5t20.5 -74.5t-10.5 -122q-6 -44 0.5 -68t19.5 -34t28.5 -12.5t26.5 -2.5v-98
q-11 0 -26.5 -2.5t-28.5 -12.5t-19.5 -34t-0.5 -68q12 -74 11.5 -122.5t-21 -75t-68.5 -34.5t-133 -2z" />
    <glyph glyph-name="asciitilde" unicode="~" horiz-adv-x="397" 
d="M256 197q-27 0 -42 9.5t-24.5 21.5t-18 22t-23.5 10q-18 0 -21.5 -15.5t-3.5 -41.5h-60q0 14 1 33t7.5 38t23 32t47.5 13q27 0 42 -9.5t24.5 -22t18.5 -22t23 -9.5q18 0 21 16.5t3 40.5h61q0 -17 -1.5 -37t-9 -38t-24 -29.5t-44.5 -11.5z" />
    <glyph glyph-name="uni00A0" unicode="&#xa0;" horiz-adv-x="218" 
 />
    <glyph glyph-name="exclamdown" unicode="&#xa1;" horiz-adv-x="204" 
d="M102 373q32 0 43.5 -16.5t11.5 -41.5q0 -23 -11.5 -39t-43.5 -16q-34 0 -45.5 16t-11.5 39q0 24 11.5 41t45.5 17zM64 196l11 -2t26 -2q19 0 27.5 2l8.5 2q7 -89 13.5 -155t9 -112.5t-1.5 -74t-17.5 -40.5t-40.5 -13q-26 0 -39.5 12.5t-17.5 40.5t-1.5 73.5t9 112
t13.5 156.5z" />
    <glyph glyph-name="cent" unicode="&#xa2;" horiz-adv-x="464" 
d="M230 -10q-57 0 -104.5 23.5t-75.5 70t-28 113.5q2 67 29.5 115t74.5 74t106 26q62 0 104 -22t65.5 -57.5t29.5 -76.5l-93 -16q-9 42 -33 63t-73 21q-36 0 -60.5 -15t-37 -41.5t-12.5 -62.5q0 -58 27 -92.5t83 -34.5q45 0 71 22.5t35 65.5l93 -16q-7 -42 -31 -78.5
t-66 -59t-104 -22.5zM180 -99l7 110h88l7 -110h-102zM187 391l-7 109h102l-7 -109h-88z" />
    <glyph glyph-name="sterling" unicode="&#xa3;" horiz-adv-x="667" 
d="M115 -14l-46 76q22 18 42 38.5t31.5 46.5t9.5 57.5t-22 71.5q-29 54 -30 106.5t22.5 95.5t71.5 69t117 26q76 0 123 -26.5t70 -71.5t26 -100l-97 -14q-4 22 -12 41t-20 35t-28 27.5t-36.5 17.5t-45.5 5q-32 -2 -55.5 -17t-35 -41t-8 -62t26.5 -80q27 -55 26.5 -92
t-17 -63t-38.5 -48q33 16 64.5 16t60 -7.5t54.5 -15.5t49.5 -9t42.5 14q20 15 23.5 41t-7.5 54l99 17q14 -58 6 -99t-34.5 -64t-67.5 -27q-32 -10 -61.5 -9.5t-57.5 7t-56 13.5t-57 9.5t-60 -4.5t-67 -30q-1 -1 -2.5 -1.5t-3.5 -2.5zM45 215v75h364v-75h-364z" />
    <glyph glyph-name="currency" unicode="&#xa4;" horiz-adv-x="567" 
d="M452 6h-34l-41 59q-38 -27 -93 -27q-57 0 -96 28l-42 -60h-31l54 77q-41 46 -41 126q0 90 50 135l-47 65h34l35 -50q34 20 84 20q48 0 82 -19l34 49h35l-47 -65q51 -46 51 -135q0 -79 -41 -126zM284 59q25 0 45 6.5t36 16.5q4 3 7 6l6 6q-9 -10 -9.5 -10t3.5 4l8.5 8.5
l4.5 4.5q32 40 32 108q0 78 -41 118q-8 8 -22 15q-30 16 -70 16q-42 0 -72 -16q-1 -1 -11 -8t-10 -8q-41 -38 -41 -117q0 -33 12.5 -67.5t38.5 -58.5q16 -11 36.5 -17.5t46.5 -6.5z" />
    <glyph glyph-name="yen" unicode="&#xa5;" horiz-adv-x="523" 
d="M210 198l-192 365h115l130 -275l130 275h114l-196 -365h-101zM92 90v58h340v-58h-340zM92 193v58h340v-55zM210 0v211h102v-211h-102z" />
    <glyph glyph-name="brokenbar" unicode="&#xa6;" horiz-adv-x="222" 
d="M60 298v303h102v-303h-102zM60 -151v303h102v-303h-102z" />
    <glyph glyph-name="section" unicode="&#xa7;" horiz-adv-x="600" 
d="M418 223v-2q23 -15 39 -40t15 -60q-3 -56 -51.5 -88t-116.5 -32q-47 0 -90.5 16t-71.5 50t-30 86h31q0 -2 1.5 -15t9 -31t24.5 -35.5t48 -29t80 -11.5q45 0 72 11t40.5 27t18 31t4.5 22q1 38 -21 59.5t-58 33.5t-76.5 21.5t-76.5 24t-58 40t-20 70.5q1 28 20.5 48.5
t47.5 31.5v1q-31 17 -50 42.5t-18 61.5q2 36 25 61.5t61.5 39.5t84.5 14q47 0 84.5 -16.5t59.5 -48.5t20 -81h-30q1 36 -13 59t-36 35.5t-45.5 17.5t-41.5 5q-59 0 -97.5 -25t-40.5 -63q0 -37 22.5 -58t58 -32.5t76 -20.5t76 -23.5t57.5 -41t20 -72.5q-1 -28 -16 -48
t-38 -35zM162 369q0 -35 17.5 -55.5t47.5 -32t65.5 -19.5t69.5 -18q11 -2 15 -3t6 -2q8 -2 12 -0.5t6 2.5q26 17 33 37t7 29q1 33 -16.5 54t-47 34t-64.5 21.5t-69 17.5q-14 3 -21.5 4.5t-20.5 -6.5q-39 -26 -40 -63z" />
    <glyph glyph-name="dieresis" unicode="&#xa8;" horiz-adv-x="394" 
d="M107 458q-37 0 -49.5 18.5t-12.5 43.5q0 24 13 42.5t49 18.5q37 0 48.5 -18.5t11.5 -42.5q0 -25 -11.5 -43.5t-48.5 -18.5zM288 458q-36 0 -49 18.5t-13 43.5q0 24 13 42.5t49 18.5q37 0 49 -18.5t12 -42.5q0 -25 -12 -43.5t-49 -18.5z" />
    <glyph glyph-name="copyright" unicode="&#xa9;" horiz-adv-x="618" 
d="M328 -10q-61 0 -114 22.5t-93.5 63t-63 93.5t-22.5 114q0 59 22.5 111.5t63 92.5t93.5 63t114 23q59 0 111.5 -23t92.5 -63t63 -92.5t23 -111.5q0 -61 -23 -114t-63 -93.5t-92.5 -63t-111.5 -22.5zM328 47q51 0 94 17t74 48t48 74t17 96q0 51 -17 94t-48 74t-74 48
t-94 17q-52 0 -96 -17t-75 -48t-48 -74t-17 -94q0 -53 17 -96t48 -74t75 -48t96 -17zM327 115q-45 0 -82 19t-58.5 56t-21.5 90q2 80 48 124t116 44q46 0 78 -16.5t51 -44.5t24 -62l-62 -11q-8 37 -28.5 56t-62.5 19q-49 0 -74 -28t-25 -76q0 -52 24.5 -81t74.5 -29
q38 0 60.5 21t30.5 63l64 -18q-6 -35 -25.5 -63.5t-52 -45.5t-79.5 -17z" />
    <glyph glyph-name="ordfeminine" unicode="&#xaa;" horiz-adv-x="314" 
d="M129 404q-56 0 -79.5 38t-23.5 100t24 100.5t79 38.5q32 0 50.5 -11t27 -24t11.5 -19v53h72v-269h-60l-11 43h-1q-2 -6 -11 -18t-28 -22t-50 -10zM157 463q37 0 49 22.5t12 55.5q0 35 -12.5 57t-48.5 22q-38 0 -51 -23.5t-13 -55.5t13.5 -55t50.5 -23z" />
    <glyph glyph-name="guillemotleft" unicode="&#xab;" horiz-adv-x="553" 
d="M324 527v-75l-215 -157l215 -164v-71l-300 235zM500 527v-82l-214 -150l214 -157v-78l-300 235z" />
    <glyph glyph-name="logicalnot" unicode="&#xac;" horiz-adv-x="397" 
d="M87 191v66h222v-66h-222zM242 110v147h67v-147h-67z" />
    <glyph glyph-name="registered" unicode="&#xae;" horiz-adv-x="408" 
d="M203 229q-48 0 -87 23t-62.5 62t-23.5 86q0 48 23.5 87t62.5 62t87 23q47 0 85.5 -23t61.5 -62t23 -87q0 -47 -23 -86t-61.5 -62t-85.5 -23zM203 265q40 0 70.5 18.5t47 49t16.5 67.5q0 38 -16.5 69t-47 49t-70.5 18q-41 0 -72 -18t-47.5 -49t-16.5 -69q0 -37 16.5 -67.5
t47.5 -49t72 -18.5zM138 318v171h64q34 0 53 -11.5t19 -39.5q0 -21 -11.5 -34.5t-35.5 -13.5q18 0 24 -9t8 -19.5t5.5 -16.5t16.5 -1v-20q-8 -7 -20.5 -8t-21.5 7.5t-9 29.5q0 15 -3 23t-15 11t-40 1v-70h-34zM172 412h28q22 0 31.5 3.5t9.5 19.5q0 19 -12 22.5t-35 3.5h-22
v-49z" />
    <glyph glyph-name="macron" unicode="&#xaf;" horiz-adv-x="355" 
d="M40 476v72h275v-72h-275z" />
    <glyph glyph-name="degree" unicode="&#xb0;" horiz-adv-x="296" 
d="M139 355q-57 0 -83 29.5t-26 77.5q0 51 25.5 81t83.5 30q57 0 84 -30t27 -81q0 -46 -27 -76.5t-84 -30.5zM138 420q26 0 36 13t10 32t-10 33t-36 14q-25 0 -36 -14t-11 -33t11.5 -32t35.5 -13z" />
    <glyph glyph-name="plusminus" unicode="&#xb1;" horiz-adv-x="397" 
d="M87 43v59h222v-59h-222zM172 147v211h59v-211h-59zM87 223v60h222v-60h-222z" />
    <glyph glyph-name="uni00B2" unicode="&#xb2;" horiz-adv-x="243" 
d="M15 411v45l18.5 9t44.5 25t49.5 36t34.5 43q16 33 1.5 53t-43.5 20q-24 0 -39 -17.5t-10 -54.5l-51 7q-6 53 25.5 82t80.5 29q35 0 60.5 -17.5t34.5 -45t-8 -60.5q-12 -24 -33 -43t-44.5 -33.5t-42 -22t-24.5 -9.5h159v-46h-213z" />
    <glyph glyph-name="uni00B3" unicode="&#xb3;" horiz-adv-x="246" 
d="M128 401q-50 0 -81.5 25t-31.5 75l51 8q1 -30 18 -46t45 -16q23 0 38 12.5t15 30.5q0 15 -8 23t-19.5 11.5t-24.5 3.5h-29v28h31q18 0 32.5 7.5t14.5 24.5q0 21 -14.5 33t-39.5 12q-19 0 -31 -7.5t-18.5 -19.5t-6.5 -24l-48 8q0 8 4.5 22t16.5 29.5t32 26t50 10.5
q49 0 75.5 -20.5t26.5 -56.5q0 -22 -13 -39.5t-39 -20.5q26 -3 41.5 -20.5t15.5 -42.5q0 -36 -29 -56.5t-74 -20.5z" />
    <glyph glyph-name="acute" unicode="&#xb4;" horiz-adv-x="217" 
d="M81 455h-46v14l45 100h86v-19z" />
    <glyph glyph-name="uni00B5" unicode="&#xb5;" horiz-adv-x="543" 
d="M75 -156v566h100v-210q0 -31 6 -58.5t25.5 -44.5t59.5 -17q39 0 58.5 17.5t27 44.5t8.5 55v213h104v-410h-87l-11 55h-2q-8 -15 -19.5 -30t-29.5 -25t-47 -10q-35 0 -56 11.5t-34 30.5h-3v-188h-100z" />
    <glyph glyph-name="paragraph" unicode="&#xb6;" horiz-adv-x="526" 
d="M240 -90v403h-22q-55 1 -101 19t-73.5 60t-27.5 114q0 70 27 112t72.5 61t100.5 20h47h53v-789h-76zM374 -91v789h77v-789h-77zM247 622l-4 76h267v-76h-263z" />
    <glyph glyph-name="periodcentered" unicode="&#xb7;" horiz-adv-x="246" 
d="M119 190q-44 0 -59 21.5t-15 51.5q0 29 15 50.5t59 21.5q43 0 57.5 -21.5t14.5 -49.5q0 -31 -14.5 -52.5t-57.5 -21.5z" />
    <glyph glyph-name="cedilla" unicode="&#xb8;" horiz-adv-x="301" 
d="M37 -119l31 49q11 -10 36.5 -18.5t47.5 -8.5q18 0 30.5 6.5t12.5 22.5q0 12 -11 18t-25 6q-11 0 -22.5 -4t-21.5 -12l-43 23l43 91l47 -18l-37 -61q11 9 26.5 14t32.5 5q29 0 54.5 -15.5t25.5 -50.5q0 -39 -34 -60.5t-81 -21.5q-28 0 -57.5 9t-54.5 26z" />
    <glyph glyph-name="uni00B9" unicode="&#xb9;" horiz-adv-x="181" 
d="M75 422v212q-5 -25 -18 -37t-25.5 -16.5t-16.5 -4.5v60q5 -1 20 1t29.5 12.5t15.5 37.5h49v-265h-54zM29 410v47h137v-47h-137z" />
    <glyph glyph-name="ordmasculine" unicode="&#xba;" horiz-adv-x="315" 
d="M158 411q-72 0 -107.5 41t-35.5 105q-1 62 35 102.5t108 41.5q69 0 105.5 -40t36.5 -104q0 -63 -34.5 -104.5t-107.5 -41.5zM158 470q30 0 46 13.5t22 34t6 40.5q0 21 -6 41.5t-22 34t-46 13.5q-31 0 -47.5 -13.5t-22 -34t-5.5 -41.5q0 -20 5.5 -40.5t22 -34t47.5 -13.5z
" />
    <glyph glyph-name="guillemotright" unicode="&#xbb;" horiz-adv-x="507" 
d="M192 527l300 -232l-300 -235v71l214 164l-214 157v75zM15 527l300 -232l-300 -235v78l214 157l-214 150v82z" />
    <glyph glyph-name="onequarter" unicode="&#xbc;" horiz-adv-x="633" 
d="M75 305v212q-5 -24 -18 -36.5t-25.5 -17t-16.5 -4.5v60q5 0 20 1.5t29.5 12.5t15.5 37h49v-265h-54zM29 293v48h137v-48h-137zM88 5l-47 38l225 258l202 260l47 -38l-215 -250zM390 53v47q35 15 58.5 45.5t35.5 66t12 65.5h60q0 -46 -29.5 -95t-81.5 -82h172v-47h-227z
M529 0v138h55v-138h-55z" />
    <glyph glyph-name="onehalf" unicode="&#xbd;" horiz-adv-x="619" 
d="M75 305v212q-5 -24 -18 -36.5t-25.5 -17t-16.5 -4.5v60q5 0 20 1.5t29.5 12.5t15.5 37h49v-265h-54zM29 293v48h137v-48h-137zM88 5l-47 38l225 258l202 260l47 -38l-215 -250zM390 0v45q7 3 29.5 14.5t49.5 30t48 40.5t25 47q6 25 -8 39.5t-39 14.5q-24 0 -39 -17.5
t-10 -53.5l-51 6q-6 53 25.5 82t80.5 29q31 0 53.5 -13t34 -34.5t6.5 -48.5q-3 -23 -19.5 -45.5t-40 -41t-48 -31t-43.5 -16.5h159v-47h-213z" />
    <glyph glyph-name="threequarters" unicode="&#xbe;" horiz-adv-x="698" 
d="M128 280q-50 0 -81.5 25.5t-31.5 75.5l51 7q1 -29 18 -45.5t45 -16.5q23 0 38 13t15 32q0 15 -8 24.5t-19.5 14.5t-24.5 5h-29v28h31q18 0 32.5 10t14.5 28q0 20 -14.5 32.5t-39.5 12.5q-19 0 -31 -8t-18.5 -20t-6.5 -24l-48 8q0 8 4.5 22t16.5 29.5t32 26t50 10.5
q49 0 75.5 -21.5t26.5 -56.5q0 -23 -13 -42t-39 -23q26 -2 41.5 -21t15.5 -45q0 -36 -29 -58.5t-74 -22.5zM153 5l-47 38l225 258l202 260l47 -38l-215 -250zM455 53v47q35 15 58.5 45.5t35.5 66t12 65.5h60q0 -46 -29.5 -95t-81.5 -82h172v-47h-227zM594 0v138h55v-138h-55
z" />
    <glyph glyph-name="questiondown" unicode="&#xbf;" horiz-adv-x="443" 
d="M199 203h92q0 -29 -14.5 -53.5t-36 -46.5t-43.5 -43.5t-37 -44t-17 -48.5q-1 -34 20 -56t63 -22q30 0 48 11.5t27 29.5t11.5 36.5t2.5 32.5h96q6 -34 -1 -69t-28.5 -64t-58.5 -47t-91 -18t-97 19t-68.5 53.5t-25.5 80.5q0 38 16 66t39.5 50t46.5 41.5t39.5 41.5t16.5 50z
M246 380q35 0 47 -18t12 -42q0 -25 -12 -42t-47 -17t-47 17t-12 42q0 26 12 43t47 17z" />
    <glyph glyph-name="Agrave" unicode="&#xc0;" horiz-adv-x="566" 
d="M19 0l180 563h167l185 -563h-109l-158 520l-157 -520h-108zM140 159l1 79h285l1 -79h-287zM261 607l-85 95v19h86l45 -100v-14h-46z" />
    <glyph glyph-name="Aacute" unicode="&#xc1;" horiz-adv-x="566" 
d="M19 0l180 563h167l185 -563h-109l-158 520l-157 -520h-108zM140 159l1 79h285l1 -79h-287zM307 607h-46v14l45 100h86v-19z" />
    <glyph glyph-name="Acircumflex" unicode="&#xc2;" horiz-adv-x="566" 
d="M19 0l180 563h167l185 -563h-109l-158 520l-157 -520h-108zM140 159l1 79h285l1 -79h-287zM144 618v8l118 109h43l118 -109v-8h-91l-46 51h-5l-44 -51h-93z" />
    <glyph glyph-name="Atilde" unicode="&#xc3;" horiz-adv-x="566" 
d="M19 0l180 563h167l185 -563h-109l-158 520l-157 -520h-108zM140 159l1 79h285l1 -79h-287zM151 626q0 14 1 32.5t7.5 37t22.5 30.5t46 12q26 0 41 -8.5t24.5 -19.5t18.5 -19.5t22 -8.5q16 0 19 14.5t3 39.5h60q1 -18 -1 -37.5t-9 -37t-23 -28t-43 -10.5q-26 0 -41 8.5
t-24.5 19.5t-18 19.5t-22.5 8.5q-16 0 -19.5 -13.5t-2.5 -39.5h-61z" />
    <glyph glyph-name="Adieresis" unicode="&#xc4;" horiz-adv-x="566" 
d="M19 0l180 563h167l185 -563h-109l-158 520l-157 -520h-108zM140 159l1 79h285l1 -79h-287zM193 610q-37 0 -49.5 18.5t-12.5 43.5q0 24 13 42.5t49 18.5q37 0 48.5 -18.5t11.5 -42.5q0 -25 -11.5 -43.5t-48.5 -18.5zM374 610q-36 0 -49 18.5t-13 43.5q0 24 13 42.5
t49 18.5q37 0 49 -18.5t12 -42.5q0 -25 -12 -43.5t-49 -18.5z" />
    <glyph glyph-name="Aring" unicode="&#xc5;" horiz-adv-x="566" 
d="M19 0l180 563h167l185 -563h-109l-158 520l-157 -520h-108zM140 159l1 79h285l1 -79h-287zM281 622q-49 0 -74 26.5t-25 70.5q0 46 24.5 73.5t74.5 27.5t76 -27.5t26 -73.5q0 -42 -26 -69.5t-76 -27.5zM280 681q21 0 31 11.5t10 29.5q0 17 -10 29t-31 12
q-20 0 -30.5 -12.5t-10.5 -29.5t11 -28.5t30 -11.5z" />
    <glyph glyph-name="AE" unicode="&#xc6;" horiz-adv-x="857" 
d="M409 0v563h402v-88h-302v-148h232v-84h-232v-161h312v-82h-412zM163 159v79h276l-3 -79h-273zM19 0l316 563h98l-305 -563h-109z" />
    <glyph glyph-name="Ccedilla" unicode="&#xc7;" horiz-adv-x="602" 
d="M301 -10q-79 0 -143 32.5t-101.5 96.5t-37.5 160q1 94 38 160t101.5 100t145.5 34q78 0 133 -28t88.5 -76t43.5 -108h-105q-7 44 -32.5 69.5t-59.5 36t-68 10.5q-89 0 -136.5 -50t-47.5 -141q0 -97 46.5 -149t135.5 -52q37 0 72 11.5t60 38t32 71.5h106
q-11 -61 -44 -110.5t-89.5 -77.5t-137.5 -28zM198 -140l31 49q11 -10 36.5 -18.5t47.5 -8.5q18 0 30.5 6.5t12.5 22.5q0 12 -11 18t-25 6q-11 0 -22.5 -4t-21.5 -12l-43 23l43 91l47 -18l-37 -61q11 9 26.5 14t32.5 5q29 0 54.5 -15.5t25.5 -50.5q0 -39 -34 -60.5t-81 -21.5
q-28 0 -57.5 9t-54.5 26z" />
    <glyph glyph-name="Egrave" unicode="&#xc8;" horiz-adv-x="501" 
d="M53 0v563h402v-88h-301v-148h231v-84h-231v-161h311v-82h-412zM229 607l-85 95v19h86l45 -100v-14h-46z" />
    <glyph glyph-name="Eacute" unicode="&#xc9;" horiz-adv-x="501" 
d="M53 0v563h402v-88h-301v-148h231v-84h-231v-161h311v-82h-412zM274 607h-46v14l45 100h86v-19z" />
    <glyph glyph-name="Ecircumflex" unicode="&#xca;" horiz-adv-x="501" 
d="M53 0v563h402v-88h-301v-148h231v-84h-231v-161h311v-82h-412zM111 618v8l118 109h43l118 -109v-8h-91l-46 51h-5l-44 -51h-93z" />
    <glyph glyph-name="Edieresis" unicode="&#xcb;" horiz-adv-x="501" 
d="M53 0v563h402v-88h-301v-148h231v-84h-231v-161h311v-82h-412zM161 610q-37 0 -49.5 18.5t-12.5 43.5q0 24 13 42.5t49 18.5q37 0 48.5 -18.5t11.5 -42.5q0 -25 -11.5 -43.5t-48.5 -18.5zM342 610q-36 0 -49 18.5t-13 43.5q0 24 13 42.5t49 18.5q37 0 49 -18.5t12 -42.5
q0 -25 -12 -43.5t-49 -18.5z" />
    <glyph glyph-name="Igrave" unicode="&#xcc;" horiz-adv-x="378" 
d="M136 18v527h101v-527h-101zM60 0v87h251v-87h-251zM60 475v88h251v-88h-251zM164 607l-85 95v19h86l45 -100v-14h-46z" />
    <glyph glyph-name="Iacute" unicode="&#xcd;" horiz-adv-x="378" 
d="M136 18v527h101v-527h-101zM60 0v87h251v-87h-251zM60 475v88h251v-88h-251zM210 607h-46v14l45 100h86v-19z" />
    <glyph glyph-name="Icircumflex" unicode="&#xce;" horiz-adv-x="378" 
d="M136 18v527h101v-527h-101zM60 0v87h251v-87h-251zM60 475v88h251v-88h-251zM47 618v8l118 109h43l118 -109v-8h-91l-46 51h-5l-44 -51h-93z" />
    <glyph glyph-name="Idieresis" unicode="&#xcf;" horiz-adv-x="378" 
d="M136 18v527h101v-527h-101zM60 0v87h251v-87h-251zM60 475v88h251v-88h-251zM97 610q-37 0 -49.5 18.5t-12.5 43.5q0 24 13 42.5t49 18.5q37 0 48.5 -18.5t11.5 -42.5q0 -25 -11.5 -43.5t-48.5 -18.5zM278 610q-36 0 -49 18.5t-13 43.5q0 24 13 42.5t49 18.5
q37 0 49 -18.5t12 -42.5q0 -25 -12 -43.5t-49 -18.5z" />
    <glyph glyph-name="Eth" unicode="&#xd0;" horiz-adv-x="600" 
d="M63 0v563h105.5h49.5q107 0 186 -31.5t122.5 -93.5t43.5 -156q0 -111 -43.5 -172.5t-122.5 -85.5t-186 -24h-52h-103zM0 252v68h308v-68h-308zM164 84h55.5h27.5q50 0 89 8.5t67.5 30t43 60.5t14.5 100q0 64 -26 106.5t-74 64t-114 21.5h-83v-391z" />
    <glyph glyph-name="Ntilde" unicode="&#xd1;" horiz-adv-x="606" 
d="M443 563h106v-563h-194l-193 518h-2v-518h-105v563h180l206 -518h2v518zM170 626q0 14 1 32.5t7.5 37t22.5 30.5t46 12q26 0 41 -8.5t24.5 -19.5t18.5 -19.5t22 -8.5q16 0 19 14.5t3 39.5h60q1 -18 -1 -37.5t-9 -37t-23 -28t-43 -10.5q-26 0 -41 8.5t-24.5 19.5t-18 19.5
t-22.5 8.5q-16 0 -19.5 -13.5t-2.5 -39.5h-61z" />
    <glyph glyph-name="Ograve" unicode="&#xd2;" horiz-adv-x="612" 
d="M298 -14q-136 0 -208 79.5t-72 214.5q0 89 31 154.5t93.5 102t155.5 36.5q137 0 208.5 -79.5t71.5 -213.5q0 -87 -32 -153.5t-94 -103.5t-154 -37zM297 84q61 0 101 25.5t60 70t20 100.5q0 57 -20 101.5t-60 70t-101 25.5q-88 0 -134 -54t-46 -143q0 -55 19.5 -99.5
t59.5 -70.5t101 -26zM284 607l-85 95v19h86l45 -100v-14h-46z" />
    <glyph glyph-name="Oacute" unicode="&#xd3;" horiz-adv-x="612" 
d="M298 -14q-136 0 -208 79.5t-72 214.5q0 89 31 154.5t93.5 102t155.5 36.5q137 0 208.5 -79.5t71.5 -213.5q0 -87 -32 -153.5t-94 -103.5t-154 -37zM297 84q61 0 101 25.5t60 70t20 100.5q0 57 -20 101.5t-60 70t-101 25.5q-88 0 -134 -54t-46 -143q0 -55 19.5 -99.5
t59.5 -70.5t101 -26zM330 607h-46v14l45 100h86v-19z" />
    <glyph glyph-name="Ocircumflex" unicode="&#xd4;" horiz-adv-x="612" 
d="M298 -14q-136 0 -208 79.5t-72 214.5q0 89 31 154.5t93.5 102t155.5 36.5q137 0 208.5 -79.5t71.5 -213.5q0 -87 -32 -153.5t-94 -103.5t-154 -37zM297 84q61 0 101 25.5t60 70t20 100.5q0 57 -20 101.5t-60 70t-101 25.5q-88 0 -134 -54t-46 -143q0 -55 19.5 -99.5
t59.5 -70.5t101 -26zM167 618v8l118 109h43l118 -109v-8h-91l-46 51h-5l-44 -51h-93z" />
    <glyph glyph-name="Otilde" unicode="&#xd5;" horiz-adv-x="612" 
d="M298 -14q-136 0 -208 79.5t-72 214.5q0 89 31 154.5t93.5 102t155.5 36.5q137 0 208.5 -79.5t71.5 -213.5q0 -87 -32 -153.5t-94 -103.5t-154 -37zM297 84q61 0 101 25.5t60 70t20 100.5q0 57 -20 101.5t-60 70t-101 25.5q-88 0 -134 -54t-46 -143q0 -55 19.5 -99.5
t59.5 -70.5t101 -26zM174 626q0 14 1 32.5t7.5 37t22.5 30.5t46 12q26 0 41 -8.5t24.5 -19.5t18.5 -19.5t22 -8.5q16 0 19 14.5t3 39.5h60q1 -18 -1 -37.5t-9 -37t-23 -28t-43 -10.5q-26 0 -41 8.5t-24.5 19.5t-18 19.5t-22.5 8.5q-16 0 -19.5 -13.5t-2.5 -39.5h-61z" />
    <glyph glyph-name="Odieresis" unicode="&#xd6;" horiz-adv-x="612" 
d="M298 -14q-136 0 -208 79.5t-72 214.5q0 89 31 154.5t93.5 102t155.5 36.5q137 0 208.5 -79.5t71.5 -213.5q0 -87 -32 -153.5t-94 -103.5t-154 -37zM297 84q61 0 101 25.5t60 70t20 100.5q0 57 -20 101.5t-60 70t-101 25.5q-88 0 -134 -54t-46 -143q0 -55 19.5 -99.5
t59.5 -70.5t101 -26zM216 610q-37 0 -49.5 18.5t-12.5 43.5q0 24 13 42.5t49 18.5q37 0 48.5 -18.5t11.5 -42.5q0 -25 -11.5 -43.5t-48.5 -18.5zM397 610q-36 0 -49 18.5t-13 43.5q0 24 13 42.5t49 18.5q37 0 49 -18.5t12 -42.5q0 -25 -12 -43.5t-49 -18.5z" />
    <glyph glyph-name="multiply" unicode="&#xd7;" horiz-adv-x="397" 
d="M276 92l-77 77l-77 -78l-48 49l76 76l-76 77l48 48l77 -76l76 76l48 -48l-76 -77l76 -76z" />
    <glyph glyph-name="Oslash" unicode="&#xd8;" horiz-adv-x="600" 
d="M84 -25l427 618l27 -15l-427 -619zM298 -14q-136 0 -208 79.5t-72 214.5q0 89 31 154.5t93.5 102t155.5 36.5q137 0 208.5 -79.5t71.5 -213.5q0 -87 -32 -153.5t-94 -103.5t-154 -37zM297 84q61 0 101 25.5t60 70t20 100.5q0 57 -20 101.5t-60 70t-101 25.5
q-88 0 -134 -54t-46 -143q0 -55 19.5 -99.5t59.5 -70.5t101 -26z" />
    <glyph glyph-name="Ugrave" unicode="&#xd9;" horiz-adv-x="595" 
d="M298 -14q-119 0 -182 66.5t-63 187.5v323h109v-322q0 -47 11.5 -77.5t31 -48t44 -25t49.5 -7.5q38 0 69 13.5t49.5 48t18.5 96.5v322h108v-323q0 -123 -61.5 -188.5t-183.5 -65.5zM275 607l-85 95v19h86l45 -100v-14h-46z" />
    <glyph glyph-name="Uacute" unicode="&#xda;" horiz-adv-x="595" 
d="M298 -14q-119 0 -182 66.5t-63 187.5v323h109v-322q0 -47 11.5 -77.5t31 -48t44 -25t49.5 -7.5q38 0 69 13.5t49.5 48t18.5 96.5v322h108v-323q0 -123 -61.5 -188.5t-183.5 -65.5zM321 607h-46v14l45 100h86v-19z" />
    <glyph glyph-name="Ucircumflex" unicode="&#xdb;" horiz-adv-x="595" 
d="M298 -14q-119 0 -182 66.5t-63 187.5v323h109v-322q0 -47 11.5 -77.5t31 -48t44 -25t49.5 -7.5q38 0 69 13.5t49.5 48t18.5 96.5v322h108v-323q0 -123 -61.5 -188.5t-183.5 -65.5zM158 618v8l118 109h43l118 -109v-8h-91l-46 51h-5l-44 -51h-93z" />
    <glyph glyph-name="Udieresis" unicode="&#xdc;" horiz-adv-x="595" 
d="M298 -14q-119 0 -182 66.5t-63 187.5v323h109v-322q0 -47 11.5 -77.5t31 -48t44 -25t49.5 -7.5q38 0 69 13.5t49.5 48t18.5 96.5v322h108v-323q0 -123 -61.5 -188.5t-183.5 -65.5zM208 610q-37 0 -49.5 18.5t-12.5 43.5q0 24 13 42.5t49 18.5q37 0 48.5 -18.5t11.5 -42.5
q0 -25 -11.5 -43.5t-48.5 -18.5zM389 610q-36 0 -49 18.5t-13 43.5q0 24 13 42.5t49 18.5q37 0 49 -18.5t12 -42.5q0 -25 -12 -43.5t-49 -18.5z" />
    <glyph glyph-name="Yacute" unicode="&#xdd;" horiz-adv-x="447" 
d="M171 198l-192 365h114l131 -275l129 275h114l-196 -365h-100zM171 0v211h101v-211h-101zM247 607h-46v14l45 100h86v-19z" />
    <glyph glyph-name="Thorn" unicode="&#xde;" horiz-adv-x="491" 
d="M159 0h-102v563h102v-563zM144 464h132q94 0 146 -47t52 -141q0 -84 -53.5 -130.5t-144.5 -46.5h-132v74h118q54 0 87 26t33 78q0 53 -32.5 78.5t-87.5 25.5h-118v83z" />
    <glyph glyph-name="germandbls" unicode="&#xdf;" horiz-adv-x="582" 
d="M377 -10q-49 0 -83.5 13t-56 35.5t-32 49.5t-12.5 55h88q0 -1 2.5 -10.5t10.5 -22t25 -22t46 -9.5q30 0 51 11.5t32 30.5t11 40q0 31 -19.5 50.5t-48 33t-57 25t-48.5 26.5t-20 38q0 20 12 31t29 18t34.5 15t29 21.5t11.5 38.5q0 7 -10.5 11.5t-26.5 6.5t-32.5 3t-27.5 1
h-128v-480h-102v563h230q24 0 56.5 -0.5t63.5 -7.5t51.5 -24.5t20.5 -52.5q0 -31 -13 -50t-32.5 -30t-39 -19.5t-32.5 -17.5t-13 -25q0 -17 21 -28t52.5 -21.5t63.5 -27t53.5 -44t21.5 -72.5q0 -47 -26 -81t-67 -53t-89 -19z" />
    <glyph glyph-name="agrave" unicode="&#xe0;" horiz-adv-x="453" 
d="M178 -10q-56 0 -91 26.5t-50.5 74t-15.5 109.5q0 63 16 111t50.5 74.5t90.5 26.5q36 0 60.5 -10t40 -24t23.5 -27.5t11 -21.5h2v82h105v-411h-88l-17 67h-2q-2 -7 -11 -19.5t-24.5 -26t-40 -22.5t-59.5 -9zM220 76q37 0 58 16t29 44.5t8 62.5q0 37 -8.5 64.5t-29 43
t-57.5 15.5q-39 0 -60.5 -17t-30 -44.5t-8.5 -61.5t8.5 -62t30 -44.5t60.5 -16.5zM204 455l-85 95v19h86l45 -100v-14h-46z" />
    <glyph glyph-name="aacute" unicode="&#xe1;" horiz-adv-x="453" 
d="M178 -10q-56 0 -91 26.5t-50.5 74t-15.5 109.5q0 63 16 111t50.5 74.5t90.5 26.5q36 0 60.5 -10t40 -24t23.5 -27.5t11 -21.5h2v82h105v-411h-88l-17 67h-2q-2 -7 -11 -19.5t-24.5 -26t-40 -22.5t-59.5 -9zM220 76q37 0 58 16t29 44.5t8 62.5q0 37 -8.5 64.5t-29 43
t-57.5 15.5q-39 0 -60.5 -17t-30 -44.5t-8.5 -61.5t8.5 -62t30 -44.5t60.5 -16.5zM250 455h-46v14l45 100h86v-19z" />
    <glyph glyph-name="acircumflex" unicode="&#xe2;" horiz-adv-x="453" 
d="M178 -10q-56 0 -91 26.5t-50.5 74t-15.5 109.5q0 63 16 111t50.5 74.5t90.5 26.5q36 0 60.5 -10t40 -24t23.5 -27.5t11 -21.5h2v82h105v-411h-88l-17 67h-2q-2 -7 -11 -19.5t-24.5 -26t-40 -22.5t-59.5 -9zM220 76q37 0 58 16t29 44.5t8 62.5q0 37 -8.5 64.5t-29 43
t-57.5 15.5q-39 0 -60.5 -17t-30 -44.5t-8.5 -61.5t8.5 -62t30 -44.5t60.5 -16.5zM87 466v8l118 109h43l118 -109v-8h-91l-46 51h-5l-44 -51h-93z" />
    <glyph glyph-name="atilde" unicode="&#xe3;" horiz-adv-x="453" 
d="M178 -10q-56 0 -91 26.5t-50.5 74t-15.5 109.5q0 63 16 111t50.5 74.5t90.5 26.5q36 0 60.5 -10t40 -24t23.5 -27.5t11 -21.5h2v82h105v-411h-88l-17 67h-2q-2 -7 -11 -19.5t-24.5 -26t-40 -22.5t-59.5 -9zM220 76q37 0 58 16t29 44.5t8 62.5q0 37 -8.5 64.5t-29 43
t-57.5 15.5q-39 0 -60.5 -17t-30 -44.5t-8.5 -61.5t8.5 -62t30 -44.5t60.5 -16.5zM94 474q0 14 1 32.5t7.5 37t22.5 30.5t46 12q26 0 41 -8.5t24.5 -19.5t18.5 -19.5t22 -8.5q16 0 19 14.5t3 39.5h60q1 -18 -1 -37.5t-9 -37t-23 -28t-43 -10.5q-26 0 -41 8.5t-24.5 19.5
t-18 19.5t-22.5 8.5q-16 0 -19.5 -13.5t-2.5 -39.5h-61z" />
    <glyph glyph-name="adieresis" unicode="&#xe4;" horiz-adv-x="453" 
d="M178 -10q-56 0 -91 26.5t-50.5 74t-15.5 109.5q0 63 16 111t50.5 74.5t90.5 26.5q36 0 60.5 -10t40 -24t23.5 -27.5t11 -21.5h2v82h105v-411h-88l-17 67h-2q-2 -7 -11 -19.5t-24.5 -26t-40 -22.5t-59.5 -9zM220 76q37 0 58 16t29 44.5t8 62.5q0 37 -8.5 64.5t-29 43
t-57.5 15.5q-39 0 -60.5 -17t-30 -44.5t-8.5 -61.5t8.5 -62t30 -44.5t60.5 -16.5zM137 458q-37 0 -49.5 18.5t-12.5 43.5q0 24 13 42.5t49 18.5q37 0 48.5 -18.5t11.5 -42.5q0 -25 -11.5 -43.5t-48.5 -18.5zM318 458q-36 0 -49 18.5t-13 43.5q0 24 13 42.5t49 18.5
q37 0 49 -18.5t12 -42.5q0 -25 -12 -43.5t-49 -18.5z" />
    <glyph glyph-name="aring" unicode="&#xe5;" horiz-adv-x="453" 
d="M178 -10q-56 0 -91 26.5t-50.5 74t-15.5 109.5q0 63 16 111t50.5 74.5t90.5 26.5q36 0 60.5 -10t40 -24t23.5 -27.5t11 -21.5h2v82h105v-411h-88l-17 67h-2q-2 -7 -11 -19.5t-24.5 -26t-40 -22.5t-59.5 -9zM220 76q37 0 58 16t29 44.5t8 62.5q0 37 -8.5 64.5t-29 43
t-57.5 15.5q-39 0 -60.5 -17t-30 -44.5t-8.5 -61.5t8.5 -62t30 -44.5t60.5 -16.5zM225 470q-49 0 -74 26.5t-25 70.5q0 46 24.5 73.5t74.5 27.5t76 -27.5t26 -73.5q0 -42 -26 -69.5t-76 -27.5zM224 529q21 0 31 11.5t10 29.5q0 17 -10 29t-31 12q-20 0 -30.5 -12.5
t-10.5 -29.5t11 -28.5t30 -11.5z" />
    <glyph glyph-name="ae" unicode="&#xe6;" horiz-adv-x="729" 
d="M145 0q-56 0 -90 29.5t-34 77.5q0 33 15 54.5t40 35t55.5 22.5t62.5 16q43 10 65.5 17t29.5 15.5t7 22.5q0 18 -9.5 30.5t-26 19t-36.5 6.5t-40 -7.5t-32.5 -25t-10.5 -47.5h-96q2 56 28.5 90.5t67 50t84.5 15.5q40 0 77 -14t57 -43q24 26 60 42t85 16q53 0 95 -25
t67 -69t26 -100l1 -26h-298q0 -55 29 -85t79 -30q40 0 63.5 19.5t30.5 51.5l98 -18q-11 -39 -35 -71t-63 -51t-93 -19q-58 0 -98.5 19.5t-64.5 52.5t-35 72q-2 -19 -12.5 -43.5t-29.5 -47.5t-48.5 -38t-70.5 -15zM185 73q32 2 57 24.5t39 58t14 76.5q-8 -8 -29.5 -14.5
t-40.5 -12.5q-26 -7 -49.5 -18t-37.5 -27.5t-14 -40.5q2 -25 20.5 -35.5t40.5 -10.5zM396 257h194q0 7 -3 22.5t-11.5 32t-26.5 27.5t-49 11q-29 0 -48.5 -10t-31.5 -25.5t-17.5 -31t-6.5 -26.5z" />
    <glyph glyph-name="ccedilla" unicode="&#xe7;" horiz-adv-x="469" 
d="M235 -10q-58 0 -105 23.5t-75 70t-28 113.5q2 67 29.5 115t74.5 74t106 26q62 0 105 -23.5t67 -60.5t27 -78h-94q-7 36 -33 55t-69 19q-36 0 -61 -15t-38.5 -41.5t-13.5 -62.5q0 -58 28.5 -92.5t84.5 -34.5q38 0 66.5 20t35.5 59h94q-3 -43 -27.5 -81t-68 -62t-105.5 -24
zM132 -140l31 49q11 -10 36.5 -18.5t47.5 -8.5q18 0 30.5 6.5t12.5 22.5q0 12 -11 18t-25 6q-11 0 -22.5 -4t-21.5 -12l-43 23l43 91l47 -18l-37 -61q11 9 26.5 14t32.5 5q29 0 54.5 -15.5t25.5 -50.5q0 -39 -34 -60.5t-81 -21.5q-28 0 -57.5 9t-54.5 26z" />
    <glyph glyph-name="egrave" unicode="&#xe8;" horiz-adv-x="462" 
d="M229 -10q-71 0 -115.5 30.5t-66 78.5t-22.5 100q-1 62 23.5 110.5t70 76t107.5 27.5q55 0 99 -24t69.5 -67t26.5 -103v-11.5v-14.5h-299q0 -57 28.5 -87.5t76.5 -30.5q38 0 63.5 19t30.5 50h99q-4 -43 -28 -78t-65 -55.5t-98 -20.5zM125 239h194q-1 7 -4 22t-13 31
t-29 27t-49 11t-49 -10t-29 -25t-15 -30t-6 -26zM209 455l-85 95v19h86l45 -100v-14h-46z" />
    <glyph glyph-name="eacute" unicode="&#xe9;" horiz-adv-x="462" 
d="M229 -10q-71 0 -115.5 30.5t-66 78.5t-22.5 100q-1 62 23.5 110.5t70 76t107.5 27.5q55 0 99 -24t69.5 -67t26.5 -103v-11.5v-14.5h-299q0 -57 28.5 -87.5t76.5 -30.5q38 0 63.5 19t30.5 50h99q-4 -43 -28 -78t-65 -55.5t-98 -20.5zM125 239h194q-1 7 -4 22t-13 31
t-29 27t-49 11t-49 -10t-29 -25t-15 -30t-6 -26zM255 455h-46v14l45 100h86v-19z" />
    <glyph glyph-name="ecircumflex" unicode="&#xea;" horiz-adv-x="462" 
d="M229 -10q-71 0 -115.5 30.5t-66 78.5t-22.5 100q-1 62 23.5 110.5t70 76t107.5 27.5q55 0 99 -24t69.5 -67t26.5 -103v-11.5v-14.5h-299q0 -57 28.5 -87.5t76.5 -30.5q38 0 63.5 19t30.5 50h99q-4 -43 -28 -78t-65 -55.5t-98 -20.5zM125 239h194q-1 7 -4 22t-13 31
t-29 27t-49 11t-49 -10t-29 -25t-15 -30t-6 -26zM92 466v8l118 109h43l118 -109v-8h-91l-46 51h-5l-44 -51h-93z" />
    <glyph glyph-name="edieresis" unicode="&#xeb;" horiz-adv-x="462" 
d="M229 -10q-71 0 -115.5 30.5t-66 78.5t-22.5 100q-1 62 23.5 110.5t70 76t107.5 27.5q55 0 99 -24t69.5 -67t26.5 -103v-11.5v-14.5h-299q0 -57 28.5 -87.5t76.5 -30.5q38 0 63.5 19t30.5 50h99q-4 -43 -28 -78t-65 -55.5t-98 -20.5zM125 239h194q-1 7 -4 22t-13 31
t-29 27t-49 11t-49 -10t-29 -25t-15 -30t-6 -26zM141 458q-37 0 -49.5 18.5t-12.5 43.5q0 24 13 42.5t49 18.5q37 0 48.5 -18.5t11.5 -42.5q0 -25 -11.5 -43.5t-48.5 -18.5zM322 458q-36 0 -49 18.5t-13 43.5q0 24 13 42.5t49 18.5q37 0 49 -18.5t12 -42.5q0 -25 -12 -43.5
t-49 -18.5z" />
    <glyph glyph-name="igrave" unicode="&#xec;" horiz-adv-x="199" 
d="M48 0v411h102v-411h-102zM77 455l-85 95v19h86l45 -100v-14h-46z" />
    <glyph glyph-name="iacute" unicode="&#xed;" horiz-adv-x="199" 
d="M48 0v411h102v-411h-102zM123 455h-46v14l45 100h86v-19z" />
    <glyph glyph-name="icircumflex" unicode="&#xee;" horiz-adv-x="199" 
d="M48 0v411h102v-411h-102zM-40 466v8l118 109h43l118 -109v-8h-91l-46 51h-5l-44 -51h-93z" />
    <glyph glyph-name="idieresis" unicode="&#xef;" horiz-adv-x="199" 
d="M48 0v411h102v-411h-102zM9 458q-37 0 -49.5 18.5t-12.5 43.5q0 24 13 42.5t49 18.5q37 0 48.5 -18.5t11.5 -42.5q0 -25 -11.5 -43.5t-48.5 -18.5zM190 458q-36 0 -49 18.5t-13 43.5q0 24 13 42.5t49 18.5q37 0 49 -18.5t12 -42.5q0 -25 -12 -43.5t-49 -18.5z" />
    <glyph glyph-name="eth" unicode="&#xf0;" horiz-adv-x="516" 
d="M253 -10q-72 0 -119.5 31.5t-71 80.5t-23.5 100q0 49 19.5 92t58.5 70t97 27q38 0 67 -11.5t49 -28.5t32.5 -34t18.5 -28.5t6 -12.5h2q-8 36 -28.5 70.5t-48 65.5t-56.5 55t-53 40.5t-38 21.5l74 85q58 -27 102 -69.5t74 -94t45.5 -107.5t15.5 -109q0 -66 -24 -121.5
t-73.5 -89t-125.5 -33.5zM390 172q0 47 -21.5 78.5t-54 47.5t-66.5 16q-30 0 -55.5 -12t-40 -36.5t-14.5 -62.5q0 -43 19.5 -71.5t50 -43t60.5 -14.5q41 0 77 24.5t45 73.5zM216 421l-37 31l221 134l37 -32z" />
    <glyph glyph-name="ntilde" unicode="&#xf1;" horiz-adv-x="466" 
d="M37 0v411h87l17 -89h2q1 3 7.5 16.5t22 30.5t42 29.5t66.5 12.5q44 0 71.5 -14.5t43.5 -38t22.5 -52t8 -56.5t1.5 -51v-199h-100v200q0 33 -6.5 60t-25 44t-57.5 17q-40 0 -61 -18.5t-29 -46.5t-8 -60v-196h-104zM100 474q0 14 1 32.5t7.5 37t22.5 30.5t46 12
q26 0 41 -8.5t24.5 -19.5t18.5 -19.5t22 -8.5q16 0 19 14.5t3 39.5h60q1 -18 -1 -37.5t-9 -37t-23 -28t-43 -10.5q-26 0 -41 8.5t-24.5 19.5t-18 19.5t-22.5 8.5q-16 0 -19.5 -13.5t-2.5 -39.5h-61z" />
    <glyph glyph-name="ograve" unicode="&#xf2;" horiz-adv-x="472" 
d="M230 -10q-68 0 -114.5 27t-69.5 74.5t-23 108.5q0 62 23 109.5t69.5 74.5t115.5 27q101 0 153.5 -58t52.5 -153q0 -59 -22 -107t-68 -75.5t-117 -27.5zM230 76q45 0 68.5 19t31.5 48.5t8 59.5q0 32 -8 61t-31.5 48.5t-68.5 19.5q-44 0 -67.5 -19.5t-32 -48.5t-8.5 -61
q0 -30 8.5 -59.5t32 -48.5t67.5 -19zM214 455l-85 95v19h86l45 -100v-14h-46z" />
    <glyph glyph-name="oacute" unicode="&#xf3;" horiz-adv-x="472" 
d="M230 -10q-68 0 -114.5 27t-69.5 74.5t-23 108.5q0 62 23 109.5t69.5 74.5t115.5 27q101 0 153.5 -58t52.5 -153q0 -59 -22 -107t-68 -75.5t-117 -27.5zM230 76q45 0 68.5 19t31.5 48.5t8 59.5q0 32 -8 61t-31.5 48.5t-68.5 19.5q-44 0 -67.5 -19.5t-32 -48.5t-8.5 -61
q0 -30 8.5 -59.5t32 -48.5t67.5 -19zM260 455h-46v14l45 100h86v-19z" />
    <glyph glyph-name="ocircumflex" unicode="&#xf4;" horiz-adv-x="472" 
d="M230 -10q-68 0 -114.5 27t-69.5 74.5t-23 108.5q0 62 23 109.5t69.5 74.5t115.5 27q101 0 153.5 -58t52.5 -153q0 -59 -22 -107t-68 -75.5t-117 -27.5zM230 76q45 0 68.5 19t31.5 48.5t8 59.5q0 32 -8 61t-31.5 48.5t-68.5 19.5q-44 0 -67.5 -19.5t-32 -48.5t-8.5 -61
q0 -30 8.5 -59.5t32 -48.5t67.5 -19zM97 466v8l118 109h43l118 -109v-8h-91l-46 51h-5l-44 -51h-93z" />
    <glyph glyph-name="otilde" unicode="&#xf5;" horiz-adv-x="472" 
d="M230 -10q-68 0 -114.5 27t-69.5 74.5t-23 108.5q0 62 23 109.5t69.5 74.5t115.5 27q101 0 153.5 -58t52.5 -153q0 -59 -22 -107t-68 -75.5t-117 -27.5zM230 76q45 0 68.5 19t31.5 48.5t8 59.5q0 32 -8 61t-31.5 48.5t-68.5 19.5q-44 0 -67.5 -19.5t-32 -48.5t-8.5 -61
q0 -30 8.5 -59.5t32 -48.5t67.5 -19zM104 474q0 14 1 32.5t7.5 37t22.5 30.5t46 12q26 0 41 -8.5t24.5 -19.5t18.5 -19.5t22 -8.5q16 0 19 14.5t3 39.5h60q1 -18 -1 -37.5t-9 -37t-23 -28t-43 -10.5q-26 0 -41 8.5t-24.5 19.5t-18 19.5t-22.5 8.5q-16 0 -19.5 -13.5
t-2.5 -39.5h-61z" />
    <glyph glyph-name="odieresis" unicode="&#xf6;" horiz-adv-x="472" 
d="M230 -10q-68 0 -114.5 27t-69.5 74.5t-23 108.5q0 62 23 109.5t69.5 74.5t115.5 27q101 0 153.5 -58t52.5 -153q0 -59 -22 -107t-68 -75.5t-117 -27.5zM230 76q45 0 68.5 19t31.5 48.5t8 59.5q0 32 -8 61t-31.5 48.5t-68.5 19.5q-44 0 -67.5 -19.5t-32 -48.5t-8.5 -61
q0 -30 8.5 -59.5t32 -48.5t67.5 -19zM146 458q-37 0 -49.5 18.5t-12.5 43.5q0 24 13 42.5t49 18.5q37 0 48.5 -18.5t11.5 -42.5q0 -25 -11.5 -43.5t-48.5 -18.5zM327 458q-36 0 -49 18.5t-13 43.5q0 24 13 42.5t49 18.5q37 0 49 -18.5t12 -42.5q0 -25 -12 -43.5t-49 -18.5z
" />
    <glyph glyph-name="divide" unicode="&#xf7;" horiz-adv-x="397" 
d="M87 189v71h222v-71h-222zM198 296q-20 0 -29.5 11.5t-9.5 28.5q-1 17 9 28.5t30 11.5q19 0 29.5 -11t10.5 -29q0 -17 -9.5 -28.5t-30.5 -11.5zM198 71q-20 0 -29.5 11t-9.5 29q-1 17 9 28.5t30 11.5q19 0 29.5 -11t10.5 -29q0 -17 -9.5 -28.5t-30.5 -11.5z" />
    <glyph glyph-name="oslash" unicode="&#xf8;" horiz-adv-x="465" 
d="M60 -25l300 476l27 -15l-300 -477zM230 -10q-68 0 -114.5 27t-69.5 74.5t-23 108.5q0 62 23 109.5t69.5 74.5t115.5 27q101 0 153.5 -58t52.5 -153q0 -59 -22 -107t-68 -75.5t-117 -27.5zM230 76q45 0 68.5 19t31.5 48.5t8 59.5q0 32 -8 61t-31.5 48.5t-68.5 19.5
q-44 0 -67.5 -19.5t-32 -48.5t-8.5 -61q0 -30 8.5 -59.5t32 -48.5t67.5 -19z" />
    <glyph glyph-name="ugrave" unicode="&#xf9;" horiz-adv-x="461" 
d="M180 -10q-43 0 -70.5 14t-43 37t-22.5 51t-9 56.5t-2 52.5v210h99v-210q0 -31 6 -58.5t25.5 -45t59.5 -17.5q39 0 59 17.5t27 45t8 55.5v213h105v-411h-87l-17 78h-2q-2 -6 -10 -20t-23.5 -30t-40.5 -27t-62 -11zM208 455l-85 95v19h86l45 -100v-14h-46z" />
    <glyph glyph-name="uacute" unicode="&#xfa;" horiz-adv-x="461" 
d="M180 -10q-43 0 -70.5 14t-43 37t-22.5 51t-9 56.5t-2 52.5v210h99v-210q0 -31 6 -58.5t25.5 -45t59.5 -17.5q39 0 59 17.5t27 45t8 55.5v213h105v-411h-87l-17 78h-2q-2 -6 -10 -20t-23.5 -30t-40.5 -27t-62 -11zM254 455h-46v14l45 100h86v-19z" />
    <glyph glyph-name="ucircumflex" unicode="&#xfb;" horiz-adv-x="461" 
d="M180 -10q-43 0 -70.5 14t-43 37t-22.5 51t-9 56.5t-2 52.5v210h99v-210q0 -31 6 -58.5t25.5 -45t59.5 -17.5q39 0 59 17.5t27 45t8 55.5v213h105v-411h-87l-17 78h-2q-2 -6 -10 -20t-23.5 -30t-40.5 -27t-62 -11zM91 466v8l118 109h43l118 -109v-8h-91l-46 51h-5l-44 -51
h-93z" />
    <glyph glyph-name="udieresis" unicode="&#xfc;" horiz-adv-x="461" 
d="M180 -10q-43 0 -70.5 14t-43 37t-22.5 51t-9 56.5t-2 52.5v210h99v-210q0 -31 6 -58.5t25.5 -45t59.5 -17.5q39 0 59 17.5t27 45t8 55.5v213h105v-411h-87l-17 78h-2q-2 -6 -10 -20t-23.5 -30t-40.5 -27t-62 -11zM140 458q-37 0 -49.5 18.5t-12.5 43.5q0 24 13 42.5
t49 18.5q37 0 48.5 -18.5t11.5 -42.5q0 -25 -11.5 -43.5t-48.5 -18.5zM321 458q-36 0 -49 18.5t-13 43.5q0 24 13 42.5t49 18.5q37 0 49 -18.5t12 -42.5q0 -25 -12 -43.5t-49 -18.5z" />
    <glyph glyph-name="yacute" unicode="&#xfd;" horiz-adv-x="441" 
d="M-2 -191v79h63q15 0 26.5 3t22.5 15.5t24 40.5l27 60l-160 404h105l105 -299l113 299h105l-202 -474q-18 -42 -33.5 -67.5t-31.5 -38.5t-37 -17.5t-49 -4.5h-78zM244 455h-46v14l45 100h86v-19z" />
    <glyph glyph-name="thorn" unicode="&#xfe;" horiz-adv-x="494" 
d="M300 -10q-31 0 -55 10t-41 25t-28 29.5t-16 24l-5 9.5v210l7 16.5t23.5 39t44.5 39.5t71 17q55 0 90 -30t51.5 -77t16.5 -99q0 -53 -16 -102.5t-51 -80.5t-92 -31zM50 -199v762h105v-472v-290h-105zM251 75q38 0 59 18t29.5 46t8.5 58q0 32 -9 60t-30.5 46t-59.5 18
q-33 0 -55 -15.5t-32 -43t-10 -65.5q0 -35 10 -62.5t31.5 -43.5t57.5 -16z" />
    <glyph glyph-name="ydieresis" unicode="&#xff;" horiz-adv-x="441" 
d="M-2 -191v79h63q15 0 26.5 3t22.5 15.5t24 40.5l27 60l-160 404h105l105 -299l113 299h105l-202 -474q-18 -42 -33.5 -67.5t-31.5 -38.5t-37 -17.5t-49 -4.5h-78zM130 458q-37 0 -49.5 18.5t-12.5 43.5q0 24 13 42.5t49 18.5q37 0 48.5 -18.5t11.5 -42.5
q0 -25 -11.5 -43.5t-48.5 -18.5zM311 458q-36 0 -49 18.5t-13 43.5q0 24 13 42.5t49 18.5q37 0 49 -18.5t12 -42.5q0 -25 -12 -43.5t-49 -18.5z" />
    <glyph glyph-name="Amacron" unicode="&#x100;" horiz-adv-x="566" 
d="M19 0l180 563h167l185 -563h-109l-158 520l-157 -520h-108zM140 159l1 79h285l1 -79h-287zM146 628v72h275v-72h-275z" />
    <glyph glyph-name="amacron" unicode="&#x101;" horiz-adv-x="453" 
d="M178 -10q-56 0 -91 26.5t-50.5 74t-15.5 109.5q0 63 16 111t50.5 74.5t90.5 26.5q36 0 60.5 -10t40 -24t23.5 -27.5t11 -21.5h2v82h105v-411h-88l-17 67h-2q-2 -7 -11 -19.5t-24.5 -26t-40 -22.5t-59.5 -9zM220 76q37 0 58 16t29 44.5t8 62.5q0 37 -8.5 64.5t-29 43
t-57.5 15.5q-39 0 -60.5 -17t-30 -44.5t-8.5 -61.5t8.5 -62t30 -44.5t60.5 -16.5zM89 476v72h275v-72h-275z" />
    <glyph glyph-name="Abreve" unicode="&#x102;" horiz-adv-x="566" 
d="M19 0l180 563h167l185 -563h-109l-158 520l-157 -520h-108zM140 159l1 79h285l1 -79h-287zM284 614q-62 0 -97 28.5t-35 76.5h72q0 -28 17 -38t43 -10t42.5 9.5t16.5 38.5h72q0 -48 -34 -76.5t-97 -28.5z" />
    <glyph glyph-name="abreve" unicode="&#x103;" horiz-adv-x="453" 
d="M178 -10q-56 0 -91 26.5t-50.5 74t-15.5 109.5q0 63 16 111t50.5 74.5t90.5 26.5q36 0 60.5 -10t40 -24t23.5 -27.5t11 -21.5h2v82h105v-411h-88l-17 67h-2q-2 -7 -11 -19.5t-24.5 -26t-40 -22.5t-59.5 -9zM220 76q37 0 58 16t29 44.5t8 62.5q0 37 -8.5 64.5t-29 43
t-57.5 15.5q-39 0 -60.5 -17t-30 -44.5t-8.5 -61.5t8.5 -62t30 -44.5t60.5 -16.5zM227 462q-62 0 -97 28.5t-35 76.5h72q0 -28 17 -38t43 -10t42.5 9.5t16.5 38.5h72q0 -48 -34 -76.5t-97 -28.5z" />
    <glyph glyph-name="Aogonek" unicode="&#x104;" horiz-adv-x="566" 
d="M479 -186q-24 0 -47 9.5t-38 28.5t-15 50q0 30 15.5 53t38.5 40t45.5 28.5t38 17l15.5 5.5l19 -46l-14.5 -5.5t-34 -16t-34 -25.5t-14.5 -34q0 -14 9 -23t25 -9q15 0 24.5 7.5t14 14.5l4.5 7l55 -48l-11.5 -13.5t-35 -27t-60.5 -13.5zM19 0l180 563h167l185 -563h-109
l-158 520l-157 -520h-108zM140 159l1 79h285l1 -79h-287z" />
    <glyph glyph-name="aogonek" unicode="&#x105;" horiz-adv-x="453" 
d="M178 -10q-56 0 -91 26.5t-50.5 74t-15.5 109.5q0 63 16 111t50.5 74.5t90.5 26.5q36 0 60.5 -10t40 -24t23.5 -27.5t11 -21.5h2v82h105v-411h-88l-17 67h-2q-2 -7 -11 -19.5t-24.5 -26t-40 -22.5t-59.5 -9zM220 76q37 0 58 16t29 44.5t8 62.5q0 37 -8.5 64.5t-29 43
t-57.5 15.5q-39 0 -60.5 -17t-30 -44.5t-8.5 -61.5t8.5 -62t30 -44.5t60.5 -16.5zM369 -199q-24 0 -47 9.5t-38 28.5t-15 50q0 30 15 53t37.5 40t45 28.5t38 17l15.5 5.5v-46l-11.5 -5.5t-27 -16t-27 -25.5t-11.5 -34q0 -14 9.5 -23t24.5 -9t24.5 7.5t14.5 14.5l5 7l54 -48
l-11.5 -13.5t-34.5 -27t-60 -13.5z" />
    <glyph glyph-name="Cacute" unicode="&#x106;" horiz-adv-x="602" 
d="M301 -10q-79 0 -143 32.5t-101.5 96.5t-37.5 160q1 94 38 160t101.5 100t145.5 34q78 0 133 -28t88.5 -76t43.5 -108h-105q-7 44 -32.5 69.5t-59.5 36t-68 10.5q-89 0 -136.5 -50t-47.5 -141q0 -97 46.5 -149t135.5 -52q37 0 72 11.5t60 38t32 71.5h106
q-11 -61 -44 -110.5t-89.5 -77.5t-137.5 -28zM324 607h-46v14l45 100h86v-19z" />
    <glyph glyph-name="cacute" unicode="&#x107;" horiz-adv-x="469" 
d="M235 -10q-58 0 -105 23.5t-75 70t-28 113.5q2 67 29.5 115t74.5 74t106 26q62 0 105 -23.5t67 -60.5t27 -78h-94q-7 36 -33 55t-69 19q-36 0 -61 -15t-38.5 -41.5t-13.5 -62.5q0 -58 28.5 -92.5t84.5 -34.5q38 0 66.5 20t35.5 59h94q-3 -43 -27.5 -81t-68 -62t-105.5 -24
zM258 455h-46v14l45 100h86v-19z" />
    <glyph glyph-name="Cdotaccent" unicode="&#x10a;" horiz-adv-x="602" 
d="M301 -10q-79 0 -143 32.5t-101.5 96.5t-37.5 160q1 94 38 160t101.5 100t145.5 34q78 0 133 -28t88.5 -76t43.5 -108h-105q-7 44 -32.5 69.5t-59.5 36t-68 10.5q-89 0 -136.5 -50t-47.5 -141q0 -97 46.5 -149t135.5 -52q37 0 72 11.5t60 38t32 71.5h106
q-11 -61 -44 -110.5t-89.5 -77.5t-137.5 -28zM302 616q-33 0 -45 17t-12 39t12 38.5t45 16.5q34 0 44.5 -16.5t10.5 -38.5t-10.5 -39t-44.5 -17z" />
    <glyph glyph-name="cdotaccent" unicode="&#x10b;" horiz-adv-x="469" 
d="M235 -10q-58 0 -105 23.5t-75 70t-28 113.5q2 67 29.5 115t74.5 74t106 26q62 0 105 -23.5t67 -60.5t27 -78h-94q-7 36 -33 55t-69 19q-36 0 -61 -15t-38.5 -41.5t-13.5 -62.5q0 -58 28.5 -92.5t84.5 -34.5q38 0 66.5 20t35.5 59h94q-3 -43 -27.5 -81t-68 -62t-105.5 -24
zM235 464q-33 0 -45 17t-12 39t12 38.5t45 16.5q34 0 44.5 -16.5t10.5 -38.5t-10.5 -39t-44.5 -17z" />
    <glyph glyph-name="Ccaron" unicode="&#x10c;" horiz-adv-x="602" 
d="M301 -10q-79 0 -143 32.5t-101.5 96.5t-37.5 160q1 94 38 160t101.5 100t145.5 34q78 0 133 -28t88.5 -76t43.5 -108h-105q-7 44 -32.5 69.5t-59.5 36t-68 10.5q-89 0 -136.5 -50t-47.5 -141q0 -97 46.5 -149t135.5 -52q37 0 72 11.5t60 38t32 71.5h106
q-11 -61 -44 -110.5t-89.5 -77.5t-137.5 -28zM279 607l-118 112v8h93l45 -54h4l47 54h90v-8l-117 -112h-44z" />
    <glyph glyph-name="ccaron" unicode="&#x10d;" horiz-adv-x="469" 
d="M235 -10q-58 0 -105 23.5t-75 70t-28 113.5q2 67 29.5 115t74.5 74t106 26q62 0 105 -23.5t67 -60.5t27 -78h-94q-7 36 -33 55t-69 19q-36 0 -61 -15t-38.5 -41.5t-13.5 -62.5q0 -58 28.5 -92.5t84.5 -34.5q38 0 66.5 20t35.5 59h94q-3 -43 -27.5 -81t-68 -62t-105.5 -24
zM212 455l-118 112v8h93l45 -54h4l47 54h90v-8l-117 -112h-44z" />
    <glyph glyph-name="Dcaron" unicode="&#x10e;" horiz-adv-x="606" 
d="M164 84v391h83q66 0 114 -21.5t74 -64t26 -106.5q0 -61 -14.5 -100t-43 -60.5t-67.5 -30t-89 -8.5h-27.5h-55.5zM570 282q0 94 -43.5 156t-122.5 93.5t-186 31.5h-49.5h-105.5v-563h103h52q107 0 186 24t122.5 85.5t43.5 172.5zM245 607l-118 112v8h93l45 -54h4l47 54h90
v-8l-117 -112h-44z" />
    <glyph glyph-name="dcaron" unicode="&#x10f;" horiz-adv-x="616" 
d="M212 -10q-61 0 -98.5 26t-54.5 73t-17 109q0 65 17.5 112.5t55 74t97.5 26.5q39 0 65.5 -12.5t42 -29.5t22.5 -31t8 -17h2v242h105v-563h-88l-17 73h-2q-1 -2 -8.5 -15t-24 -29t-42.5 -27.5t-63 -11.5zM245 76q38 0 61.5 16t34 43.5t10.5 63.5q0 35 -10 62.5t-32.5 43
t-60.5 15.5q-41 0 -64.5 -17t-32.5 -45t-9 -59t8.5 -59.5t31 -46t63.5 -17.5zM496 406l30 161h97l-68 -161h-59z" />
    <glyph glyph-name="Dcroat" unicode="&#x110;" horiz-adv-x="600" 
d="M63 0v563h105.5h49.5q107 0 186 -31.5t122.5 -93.5t43.5 -156q0 -111 -43.5 -172.5t-122.5 -85.5t-186 -24h-52h-103zM0 252v68h308v-68h-308zM164 84h55.5h27.5q50 0 89 8.5t67.5 30t43 60.5t14.5 100q0 64 -26 106.5t-74 64t-114 21.5h-83v-391z" />
    <glyph glyph-name="dcroat" unicode="&#x111;" horiz-adv-x="505" 
d="M208 -10q-60 0 -97.5 26t-54.5 73t-17 109q0 65 17.5 112.5t55 74t97.5 26.5q39 0 65.5 -12.5t42 -29.5t22.5 -31t8 -17h2v242h105v-563h-89l-16 73h-2q-1 -2 -8.5 -15t-24 -29t-42.5 -27.5t-64 -11.5zM242 76q38 0 61.5 16t34 43.5t10.5 63.5q0 35 -10 62.5t-33 43
t-60 15.5q-41 0 -64.5 -17t-33 -45t-9.5 -59t8.5 -59.5t31.5 -46t64 -17.5zM214 456v61h282v-61h-282z" />
    <glyph glyph-name="Emacron" unicode="&#x112;" horiz-adv-x="501" 
d="M53 0v563h402v-88h-301v-148h231v-84h-231v-161h311v-82h-412zM113 628v72h275v-72h-275z" />
    <glyph glyph-name="emacron" unicode="&#x113;" horiz-adv-x="462" 
d="M229 -10q-71 0 -115.5 30.5t-66 78.5t-22.5 100q-1 62 23.5 110.5t70 76t107.5 27.5q55 0 99 -24t69.5 -67t26.5 -103v-11.5v-14.5h-299q0 -57 28.5 -87.5t76.5 -30.5q38 0 63.5 19t30.5 50h99q-4 -43 -28 -78t-65 -55.5t-98 -20.5zM125 239h194q-1 7 -4 22t-13 31
t-29 27t-49 11t-49 -10t-29 -25t-15 -30t-6 -26zM94 476v72h275v-72h-275z" />
    <glyph glyph-name="Edotaccent" unicode="&#x116;" horiz-adv-x="501" 
d="M53 0v563h402v-88h-301v-148h231v-84h-231v-161h311v-82h-412zM252 616q-33 0 -45 17t-12 39t12 38.5t45 16.5q34 0 44.5 -16.5t10.5 -38.5t-10.5 -39t-44.5 -17z" />
    <glyph glyph-name="edotaccent" unicode="&#x117;" horiz-adv-x="462" 
d="M229 -10q-71 0 -115.5 30.5t-66 78.5t-22.5 100q-1 62 23.5 110.5t70 76t107.5 27.5q55 0 99 -24t69.5 -67t26.5 -103v-11.5v-14.5h-299q0 -57 28.5 -87.5t76.5 -30.5q38 0 63.5 19t30.5 50h99q-4 -43 -28 -78t-65 -55.5t-98 -20.5zM125 239h194q-1 7 -4 22t-13 31
t-29 27t-49 11t-49 -10t-29 -25t-15 -30t-6 -26zM232 464q-33 0 -45 17t-12 39t12 38.5t45 16.5q34 0 44.5 -16.5t10.5 -38.5t-10.5 -39t-44.5 -17z" />
    <glyph glyph-name="Eogonek" unicode="&#x118;" horiz-adv-x="501" 
d="M53 0v563h402v-88h-301v-148h231v-84h-231v-161h311v-82h-412zM410 -186q-24 0 -47 9.5t-38 28.5t-15 50q0 30 15 53t37.5 40t45 28.5t38 17l15.5 5.5v-46l-11.5 -5.5t-27 -16t-27 -25.5t-11.5 -34q0 -14 9.5 -23t24.5 -9t24.5 7.5t14.5 14.5l5 7l54 -48l-11.5 -13.5
t-34.5 -27t-60 -13.5z" />
    <glyph glyph-name="eogonek" unicode="&#x119;" horiz-adv-x="462" 
d="M245 -187q-24 0 -47 9.5t-38 28.5t-15 50q0 30 15.5 53t38 40t45 28.5t37.5 17l15 5.5v-46l-11.5 -5.5t-26.5 -16t-26.5 -25.5t-11.5 -34q0 -14 9 -23t25 -9q15 0 24.5 7.5t14 14.5l4.5 7l55 -48l-11.5 -13.5t-35 -27t-60.5 -13.5zM229 -10q-71 0 -115.5 30.5t-66 78.5
t-22.5 100q-1 62 23.5 110.5t70 76t107.5 27.5q55 0 99 -24t69.5 -67t26.5 -103v-11.5v-14.5h-299q0 -57 28.5 -87.5t76.5 -30.5q38 0 63.5 19t30.5 50h99q-4 -43 -28 -78t-65 -55.5t-98 -20.5zM125 239h194q-1 7 -4 22t-13 31t-29 27t-49 11t-49 -10t-29 -25t-15 -30
t-6 -26z" />
    <glyph glyph-name="Ecaron" unicode="&#x11a;" horiz-adv-x="501" 
d="M53 0v563h402v-88h-301v-148h231v-84h-231v-161h311v-82h-412zM229 607l-118 112v8h93l45 -54h4l47 54h90v-8l-117 -112h-44z" />
    <glyph glyph-name="ecaron" unicode="&#x11b;" horiz-adv-x="462" 
d="M229 -10q-71 0 -115.5 30.5t-66 78.5t-22.5 100q-1 62 23.5 110.5t70 76t107.5 27.5q55 0 99 -24t69.5 -67t26.5 -103v-11.5v-14.5h-299q0 -57 28.5 -87.5t76.5 -30.5q38 0 63.5 19t30.5 50h99q-4 -43 -28 -78t-65 -55.5t-98 -20.5zM125 239h194q-1 7 -4 22t-13 31
t-29 27t-49 11t-49 -10t-29 -25t-15 -30t-6 -26zM209 455l-118 112v8h93l45 -54h4l47 54h90v-8l-117 -112h-44z" />
    <glyph glyph-name="Gbreve" unicode="&#x11e;" horiz-adv-x="623" 
d="M290 -11q-82 0 -143.5 33t-94.5 98t-31 158q2 95 38 161t100.5 100t147.5 34q115 0 178.5 -49.5t83.5 -145.5l-98 -14q-10 42 -34.5 67t-58.5 35.5t-71 10.5q-96 0 -141.5 -52.5t-44.5 -138.5q0 -96 51.5 -147.5t145.5 -51.5q38 0 72.5 12.5t59.5 38t34 65.5h-124v75h220
v-278h-69l-23 98h-2q-7 -19 -23 -38t-40 -35t-57 -26t-76 -10zM312 614q-62 0 -97 28.5t-35 76.5h72q0 -28 17 -38t43 -10t42.5 9.5t16.5 38.5h72q0 -48 -34 -76.5t-97 -28.5z" />
    <glyph glyph-name="gbreve" unicode="&#x11f;" horiz-adv-x="475" 
d="M152 -183v96h180v160h-2q-1 -2 -9 -15t-23.5 -29t-41 -27.5t-63.5 -11.5q-60 0 -98 26.5t-55.5 73.5t-17.5 109q0 65 18 112.5t56 73.5t97 26q40 0 66 -12.5t41 -29.5t21.5 -31t7.5 -17h2v90h106v-446q0 -55 -14.5 -87.5t-43.5 -46.5t-75 -14h-152zM225 76q38 0 61 16
t34 43.5t11 63.5q0 35 -10.5 62.5t-33 43t-60.5 15.5q-41 0 -64.5 -17t-32.5 -45t-9 -59t8.5 -59.5t31.5 -46t64 -17.5zM238 462q-62 0 -97 28.5t-35 76.5h72q0 -28 17 -38t43 -10t42.5 9.5t16.5 38.5h72q0 -48 -34 -76.5t-97 -28.5z" />
    <glyph glyph-name="Gdotaccent" unicode="&#x120;" horiz-adv-x="623" 
d="M290 -11q-82 0 -143.5 33t-94.5 98t-31 158q2 95 38 161t100.5 100t147.5 34q115 0 178.5 -49.5t83.5 -145.5l-98 -14q-10 42 -34.5 67t-58.5 35.5t-71 10.5q-96 0 -141.5 -52.5t-44.5 -138.5q0 -96 51.5 -147.5t145.5 -51.5q38 0 72.5 12.5t59.5 38t34 65.5h-124v75h220
v-278h-69l-23 98h-2q-7 -19 -23 -38t-40 -35t-57 -26t-76 -10zM312 616q-33 0 -45 17t-12 39t12 38.5t45 16.5q34 0 44.5 -16.5t10.5 -38.5t-10.5 -39t-44.5 -17z" />
    <glyph glyph-name="gdotaccent" unicode="&#x121;" horiz-adv-x="475" 
d="M152 -183v96h180v160h-2q-1 -2 -9 -15t-23.5 -29t-41 -27.5t-63.5 -11.5q-60 0 -98 26.5t-55.5 73.5t-17.5 109q0 65 18 112.5t56 73.5t97 26q40 0 66 -12.5t41 -29.5t21.5 -31t7.5 -17h2v90h106v-446q0 -55 -14.5 -87.5t-43.5 -46.5t-75 -14h-152zM225 76q38 0 61 16
t34 43.5t11 63.5q0 35 -10.5 62.5t-33 43t-60.5 15.5q-41 0 -64.5 -17t-32.5 -45t-9 -59t8.5 -59.5t31.5 -46t64 -17.5zM238 464q-33 0 -45 17t-12 39t12 38.5t45 16.5q34 0 44.5 -16.5t10.5 -38.5t-10.5 -39t-44.5 -17z" />
    <glyph glyph-name="uni0122" unicode="&#x122;" horiz-adv-x="623" 
d="M290 -11q-82 0 -143.5 33t-94.5 98t-31 158q2 95 38 161t100.5 100t147.5 34q115 0 178.5 -49.5t83.5 -145.5l-98 -14q-10 42 -34.5 67t-58.5 35.5t-71 10.5q-96 0 -141.5 -52.5t-44.5 -138.5q0 -96 51.5 -147.5t145.5 -51.5q38 0 72.5 12.5t59.5 38t34 65.5h-124v75h220
v-278h-69l-23 98h-2q-7 -19 -23 -38t-40 -35t-57 -26t-76 -10zM253 -257v67h25q25 0 35 8t10 27q-37 -2 -52.5 14.5t-15.5 42.5q0 24 13 40.5t45 16.5q26 0 41 -15.5t15 -62.5q0 -38 -9 -69.5t-28.5 -50t-52.5 -18.5h-26z" />
    <glyph glyph-name="uni0123" unicode="&#x123;" horiz-adv-x="475" 
d="M152 -183v96h180v160h-2q-1 -2 -9 -15t-23.5 -29t-41 -27.5t-63.5 -11.5q-60 0 -98 26.5t-55.5 73.5t-17.5 109q0 65 18 112.5t56 73.5t97 26q40 0 66 -12.5t41 -29.5t21.5 -31t7.5 -17h2v90h106v-446q0 -55 -14.5 -87.5t-43.5 -46.5t-75 -14h-152zM225 76q38 0 61 16
t34 43.5t11 63.5q0 35 -10.5 62.5t-33 43t-60.5 15.5q-41 0 -64.5 -17t-32.5 -45t-9 -59t8.5 -59.5t31.5 -46t64 -17.5zM250 460h-46v14l45 100h86v-19z" />
    <glyph glyph-name="Hbar" unicode="&#x126;" horiz-adv-x="593" 
d="M11 414v72h566v-72h-566zM161 0h-103v563h103v-563zM428 563h102v-563h-102v563zM489 247h-384v79h384v-79z" />
    <glyph glyph-name="hbar" unicode="&#x127;" horiz-adv-x="479" 
d="M328 0v155q0 47 -4 85.5t-22 60.5t-61 22q-31 0 -50.5 -19t-29 -55t-9.5 -86v130q-1 -6 1 4t10.5 28.5t23.5 38.5t39 34.5t58 14.5q46 0 75 -17t44 -45t20.5 -61t6 -65.5t0.5 -59.5v-165h-102zM50 0v563h102v-563h-102zM281 456h-282v61h282v-61z" />
    <glyph glyph-name="Itilde" unicode="&#x128;" horiz-adv-x="378" 
d="M136 18v527h101v-527h-101zM60 0v87h251v-87h-251zM60 475v88h251v-88h-251zM54 626q0 14 1 32.5t7.5 37t22.5 30.5t46 12q26 0 41 -8.5t24.5 -19.5t18.5 -19.5t22 -8.5q16 0 19 14.5t3 39.5h60q1 -18 -1 -37.5t-9 -37t-23 -28t-43 -10.5q-26 0 -41 8.5t-24.5 19.5
t-18 19.5t-22.5 8.5q-16 0 -19.5 -13.5t-2.5 -39.5h-61z" />
    <glyph glyph-name="itilde" unicode="&#x129;" horiz-adv-x="199" 
d="M48 0v411h102v-411h-102zM-33 474q0 14 1 32.5t7.5 37t22.5 30.5t46 12q26 0 41 -8.5t24.5 -19.5t18.5 -19.5t22 -8.5q16 0 19 14.5t3 39.5h60q1 -18 -1 -37.5t-9 -37t-23 -28t-43 -10.5q-26 0 -41 8.5t-24.5 19.5t-18 19.5t-22.5 8.5q-16 0 -19.5 -13.5t-2.5 -39.5h-61z
" />
    <glyph glyph-name="Imacron" unicode="&#x12a;" horiz-adv-x="378" 
d="M136 18v527h101v-527h-101zM60 0v87h251v-87h-251zM60 475v88h251v-88h-251zM49 628v72h275v-72h-275z" />
    <glyph glyph-name="imacron" unicode="&#x12b;" horiz-adv-x="199" 
d="M48 0v411h102v-411h-102zM12 476v72h173v-72h-173z" />
    <glyph glyph-name="Iogonek" unicode="&#x12e;" horiz-adv-x="378" 
d="M136 18v527h101v-527h-101zM60 0v87h251v-87h-251zM60 475v88h251v-88h-251zM190 -186q-24 0 -47 9.5t-38 28.5t-15 50q0 30 15 53t37.5 40t45 28.5t38 17l15.5 5.5v-46l-11.5 -5.5t-27 -16t-27 -25.5t-11.5 -34q0 -14 9.5 -23t24.5 -9t24.5 7.5t14.5 14.5l5 7l54 -48
l-11.5 -13.5t-34.5 -27t-60 -13.5z" />
    <glyph glyph-name="iogonek" unicode="&#x12f;" horiz-adv-x="199" 
d="M48 0v411h102v-411h-102zM100 464q-33 0 -45 17t-12 39t12 38.5t45 16.5q34 0 44.5 -16.5t10.5 -38.5t-10.5 -39t-44.5 -17zM98 -186q-24 0 -47 9.5t-38 28.5t-15 50q0 30 15 53t37.5 40t45 28.5t38 17l15.5 5.5v-46l-11.5 -5.5t-27 -16t-27 -25.5t-11.5 -34
q0 -14 9.5 -23t24.5 -9t24.5 7.5t14.5 14.5l5 7l54 -48l-11.5 -13.5t-34.5 -27t-60 -13.5z" />
    <glyph glyph-name="Idotaccent" unicode="&#x130;" horiz-adv-x="378" 
d="M136 18v527h101v-527h-101zM60 0v87h251v-87h-251zM60 475v88h251v-88h-251zM187 616q-33 0 -45 17t-12 39t12 38.5t45 16.5q34 0 44.5 -16.5t10.5 -38.5t-10.5 -39t-44.5 -17z" />
    <glyph glyph-name="dotlessi" unicode="&#x131;" horiz-adv-x="199" 
d="M48 0v411h102v-411h-102z" />
    <glyph glyph-name="IJ" unicode="&#x132;" horiz-adv-x="848" 
d="M136 18v527h101v-527h-101zM60 0v87h251v-87h-251zM60 475v88h251v-88h-251zM602 -10q-42 0 -76 11.5t-58.5 34t-38 56.5t-13.5 79h96q0 -23 7.5 -44.5t26.5 -35t53 -13.5q44 0 64.5 25t20.5 92v350h102v-334q0 -51 -8 -92t-28 -70t-55.5 -44t-92.5 -15zM570 484v79h216
v-79h-216z" />
    <glyph glyph-name="ij" unicode="&#x133;" horiz-adv-x="443" 
d="M49 0v411h102v-411h-102zM100 464q-33 0 -44.5 17t-11.5 39t11.5 38.5t44.5 16.5q34 0 44.5 -16.5t10.5 -38.5t-10.5 -39t-44.5 -17zM309 464q-34 0 -45.5 17t-11.5 39t11.5 38.5t45.5 16.5q33 0 44 -16.5t11 -38.5t-11 -39t-44 -17zM258 411h102v-492q0 -54 -24.5 -78
t-73.5 -24h-73v79h69v515z" />
    <glyph glyph-name="uni0136" unicode="&#x136;" horiz-adv-x="578" 
d="M163 179v114l253 270h133v-12zM65 0v563h102v-563h-102zM444 0l-212 292l74 72l255 -352v-12h-117zM231 -257v67h25q25 0 35 8t10 27q-37 -2 -52.5 14.5t-15.5 42.5q0 24 13 40.5t45 16.5q26 0 41 -15.5t15 -62.5q0 -38 -9 -69.5t-28.5 -50t-52.5 -18.5h-26z" />
    <glyph glyph-name="uni0137" unicode="&#x137;" horiz-adv-x="448" 
d="M144 0h-102v563h102v-563zM243 284l204 -284h-122l-156 213zM140 99v115l179 199h125zM166 -257v67h25q25 0 35 8t10 27q-37 -2 -52.5 14.5t-15.5 42.5q0 24 13 40.5t45 16.5q26 0 41 -15.5t15 -62.5q0 -38 -9 -69.5t-28.5 -50t-52.5 -18.5h-26z" />
    <glyph glyph-name="Lacute" unicode="&#x139;" horiz-adv-x="470" 
d="M63 5v558h102v-558h-102zM63 0v87h380v-87h-380zM132 610h-46v14l45 100h86v-19z" />
    <glyph glyph-name="lacute" unicode="&#x13a;" horiz-adv-x="196" 
d="M48 0v563h100v-563h-100zM122 608h-46v14l45 100h86v-19z" />
    <glyph glyph-name="uni013B" unicode="&#x13b;" horiz-adv-x="470" 
d="M63 5v558h102v-558h-102zM63 0v87h380v-87h-380zM178 -257v67h25q25 0 35 8t10 27q-37 -2 -52.5 14.5t-15.5 42.5q0 24 13 40.5t45 16.5q26 0 41 -15.5t15 -62.5q0 -38 -9 -69.5t-28.5 -50t-52.5 -18.5h-26z" />
    <glyph glyph-name="uni013C" unicode="&#x13c;" horiz-adv-x="196" 
d="M48 0v563h100v-563h-100zM40 -257v67h25q25 0 35 8t10 27q-37 -2 -52.5 14.5t-15.5 42.5q0 24 13 40.5t45 16.5q26 0 41 -15.5t15 -62.5q0 -38 -9 -69.5t-28.5 -50t-52.5 -18.5h-26z" />
    <glyph glyph-name="Lcaron" unicode="&#x13d;" horiz-adv-x="470" 
d="M63 5v558h102v-558h-102zM63 0v87h380v-87h-380zM293 402l30 161h97l-68 -161h-59z" />
    <glyph glyph-name="lcaron" unicode="&#x13e;" horiz-adv-x="324" 
d="M48 0v563h100v-563h-100zM197 406l30 161h97l-68 -161h-59z" />
    <glyph glyph-name="Lslash" unicode="&#x141;" horiz-adv-x="470" 
d="M-1 187v88l285 134v-88zM63 5v558h102v-558h-102zM63 0v87h380v-87h-380z" />
    <glyph glyph-name="lslash" unicode="&#x142;" horiz-adv-x="254" 
d="M-8 187v90l229 134v-90zM48 0v563h100v-563h-100z" />
    <glyph glyph-name="Nacute" unicode="&#x143;" horiz-adv-x="606" 
d="M443 563h106v-563h-194l-193 518h-2v-518h-105v563h180l206 -518h2v518zM326 607h-46v14l45 100h86v-19z" />
    <glyph glyph-name="nacute" unicode="&#x144;" horiz-adv-x="466" 
d="M37 0v411h87l17 -89h2q1 3 7.5 16.5t22 30.5t42 29.5t66.5 12.5q44 0 71.5 -14.5t43.5 -38t22.5 -52t8 -56.5t1.5 -51v-199h-100v200q0 33 -6.5 60t-25 44t-57.5 17q-40 0 -61 -18.5t-29 -46.5t-8 -60v-196h-104zM256 455h-46v14l45 100h86v-19z" />
    <glyph glyph-name="uni0145" unicode="&#x145;" horiz-adv-x="606" 
d="M443 563h106v-563h-194l-193 518h-2v-518h-105v563h180l206 -518h2v518zM245 -257v67h25q25 0 35 8t10 27q-37 -2 -52.5 14.5t-15.5 42.5q0 24 13 40.5t45 16.5q26 0 41 -15.5t15 -62.5q0 -38 -9 -69.5t-28.5 -50t-52.5 -18.5h-26z" />
    <glyph glyph-name="uni0146" unicode="&#x146;" horiz-adv-x="466" 
d="M37 0v411h87l17 -89h2q1 3 7.5 16.5t22 30.5t42 29.5t66.5 12.5q44 0 71.5 -14.5t43.5 -38t22.5 -52t8 -56.5t1.5 -51v-199h-100v200q0 33 -6.5 60t-25 44t-57.5 17q-40 0 -61 -18.5t-29 -46.5t-8 -60v-196h-104zM175 -257v67h25q25 0 35 8t10 27q-37 -2 -52.5 14.5
t-15.5 42.5q0 24 13 40.5t45 16.5q26 0 41 -15.5t15 -62.5q0 -38 -9 -69.5t-28.5 -50t-52.5 -18.5h-26z" />
    <glyph glyph-name="Ncaron" unicode="&#x147;" horiz-adv-x="606" 
d="M443 563h106v-563h-194l-193 518h-2v-518h-105v563h180l206 -518h2v518zM281 607l-118 112v8h93l45 -54h4l47 54h90v-8l-117 -112h-44z" />
    <glyph glyph-name="ncaron" unicode="&#x148;" horiz-adv-x="466" 
d="M37 0v411h87l17 -89h2q1 3 7.5 16.5t22 30.5t42 29.5t66.5 12.5q44 0 71.5 -14.5t43.5 -38t22.5 -52t8 -56.5t1.5 -51v-199h-100v200q0 33 -6.5 60t-25 44t-57.5 17q-40 0 -61 -18.5t-29 -46.5t-8 -60v-196h-104zM211 455l-118 112v8h93l45 -54h4l47 54h90v-8l-117 -112
h-44z" />
    <glyph glyph-name="Eng" unicode="&#x14a;" horiz-adv-x="600" 
d="M413 -204q-31 0 -53.5 9.5t-35 19.5t-15.5 13l56 68q3 -3 13.5 -10.5t26.5 -7.5q18 0 30.5 12t11.5 40v71h102v-84q0 -35 -13.5 -65t-43.5 -48t-79 -18zM443 563h106v-563h-194l-193 518h-2v-518h-105v563h180l206 -518h2v518z" />
    <glyph glyph-name="eng" unicode="&#x14b;" horiz-adv-x="506" 
d="M294 -198q-31 0 -53.5 9.5t-35 19.5t-15.5 13l56 68q3 -3 13.5 -10.5t26.5 -7.5q18 0 30.5 12t11.5 40v71h100v-84q0 -35 -13 -65t-42.5 -48t-78.5 -18zM37 0v411h87l17 -89h2q1 3 7.5 16.5t22 30.5t42 29.5t66.5 12.5q44 0 71.5 -14.5t43.5 -38t22.5 -52t8 -56.5
t1.5 -51v-199h-100v200q0 33 -6.5 60t-25 44t-57.5 17q-40 0 -61 -18.5t-29 -46.5t-8 -60v-196h-104z" />
    <glyph glyph-name="Omacron" unicode="&#x14c;" horiz-adv-x="612" 
d="M298 -14q-136 0 -208 79.5t-72 214.5q0 89 31 154.5t93.5 102t155.5 36.5q137 0 208.5 -79.5t71.5 -213.5q0 -87 -32 -153.5t-94 -103.5t-154 -37zM297 84q61 0 101 25.5t60 70t20 100.5q0 57 -20 101.5t-60 70t-101 25.5q-88 0 -134 -54t-46 -143q0 -55 19.5 -99.5
t59.5 -70.5t101 -26zM169 628v72h275v-72h-275z" />
    <glyph glyph-name="omacron" unicode="&#x14d;" horiz-adv-x="472" 
d="M230 -10q-68 0 -114.5 27t-69.5 74.5t-23 108.5q0 62 23 109.5t69.5 74.5t115.5 27q101 0 153.5 -58t52.5 -153q0 -59 -22 -107t-68 -75.5t-117 -27.5zM230 76q45 0 68.5 19t31.5 48.5t8 59.5q0 32 -8 61t-31.5 48.5t-68.5 19.5q-44 0 -67.5 -19.5t-32 -48.5t-8.5 -61
q0 -30 8.5 -59.5t32 -48.5t67.5 -19zM99 476v72h275v-72h-275z" />
    <glyph glyph-name="Ohungarumlaut" unicode="&#x150;" horiz-adv-x="612" 
d="M298 -14q-136 0 -208 79.5t-72 214.5q0 89 31 154.5t93.5 102t155.5 36.5q137 0 208.5 -79.5t71.5 -213.5q0 -87 -32 -153.5t-94 -103.5t-154 -37zM297 84q61 0 101 25.5t60 70t20 100.5q0 57 -20 101.5t-60 70t-101 25.5q-88 0 -134 -54t-46 -143q0 -55 19.5 -99.5
t59.5 -70.5t101 -26zM177 634l72 147l81 -39l-106 -131zM348 634l72 147l81 -39l-107 -131z" />
    <glyph glyph-name="ohungarumlaut" unicode="&#x151;" horiz-adv-x="472" 
d="M230 -10q-68 0 -114.5 27t-69.5 74.5t-23 108.5q0 62 23 109.5t69.5 74.5t115.5 27q101 0 153.5 -58t52.5 -153q0 -59 -22 -107t-68 -75.5t-117 -27.5zM230 76q45 0 68.5 19t31.5 48.5t8 59.5q0 32 -8 61t-31.5 48.5t-68.5 19.5q-44 0 -67.5 -19.5t-32 -48.5t-8.5 -61
q0 -30 8.5 -59.5t32 -48.5t67.5 -19zM107 482l72 147l81 -39l-106 -131zM278 482l72 147l81 -39l-107 -131z" />
    <glyph glyph-name="OE" unicode="&#x152;" horiz-adv-x="847" 
d="M382 0q-106 0 -183.5 24t-119.5 85.5t-42 172.5q0 94 42 156t119.5 93.5t183.5 31.5h19h30.5h68.5v-563h-65.5h-31.5h-21zM359 84q6 0 5.5 0t5.5 0h29v391h-40q-65 0 -113.5 -21.5t-74.5 -64t-26 -106.5q0 -61 15 -100t43 -60.5t67.5 -30t88.5 -8.5zM399 0v563h402v-88
h-301v-148h231v-84h-231v-161h311v-82h-412z" />
    <glyph glyph-name="oe" unicode="&#x153;" horiz-adv-x="761" 
d="M225 -10q-69 0 -115 27t-69 74.5t-23 108.5q0 62 23 109.5t69 74.5t115 27q101 0 153.5 -58t52.5 -153q0 -59 -22 -107t-67.5 -75.5t-116.5 -27.5zM225 76q45 0 68.5 19t31.5 48.5t8 59.5q0 32 -8 61t-31.5 48.5t-68.5 19.5q-44 0 -68 -19.5t-32 -48.5t-8 -61
q0 -30 8 -59.5t32 -48.5t68 -19zM541 -10q-73 0 -119 30.5t-67 78.5t-21 100q0 40 11 78t35.5 68.5t64 49t97.5 18.5q52 0 94 -25t67.5 -69t26.5 -100v-11.5v-14.5h-298q0 -55 29 -85t79 -30q40 0 63.5 19.5t31.5 51.5l97 -18q-10 -39 -34.5 -71t-63.5 -51t-93 -19zM433 247
h194q0 7 -2.5 22.5t-11.5 32t-27 27.5t-48 11q-32 0 -51.5 -10t-30.5 -25.5t-16.5 -31t-6.5 -26.5z" />
    <glyph glyph-name="Racute" unicode="&#x154;" horiz-adv-x="555" 
d="M56 0v563h207q73 0 124.5 -16t79 -51.5t27.5 -97.5q0 -46 -14.5 -80.5t-43 -54t-70.5 -19.5q30 0 47 -11.5t25.5 -30t11.5 -39.5t5.5 -41t8.5 -34.5t19 -19t38 4.5v-59q-19 -16 -45 -21.5t-51 3.5t-42 35.5t-17 74.5q0 35 -3 59t-13.5 38.5t-33 22t-60.5 9t-98 -1.5v-233
h-102zM158 307h101q50 0 81.5 4.5t47 22.5t15.5 56q0 43 -19 62t-55.5 23.5t-89.5 4.5h-81v-173zM276 607h-46v14l45 100h86v-19z" />
    <glyph glyph-name="racute" unicode="&#x155;" horiz-adv-x="338" 
d="M42 0v411h95l8 -120l-1 -88v-203h-102zM144 177l-3 91q0 21 8 45.5t26.5 46.5t48.5 36.5t74 14.5h15v-114h-15q-43 0 -73 -6.5t-47.5 -20.5t-25.5 -37t-8 -56zM192 455h-46v14l45 100h86v-19z" />
    <glyph glyph-name="uni0156" unicode="&#x156;" horiz-adv-x="555" 
d="M56 0v563h207q73 0 124.5 -16t79 -51.5t27.5 -97.5q0 -46 -14.5 -80.5t-43 -54t-70.5 -19.5q30 0 47 -11.5t25.5 -30t11.5 -39.5t5.5 -41t8.5 -34.5t19 -19t38 4.5v-59q-19 -16 -45 -21.5t-51 3.5t-42 35.5t-17 74.5q0 35 -3 59t-13.5 38.5t-33 22t-60.5 9t-98 -1.5v-233
h-102zM158 307h101q50 0 81.5 4.5t47 22.5t15.5 56q0 43 -19 62t-55.5 23.5t-89.5 4.5h-81v-173zM219 -257v67h25q25 0 35 8t10 27q-37 -2 -52.5 14.5t-15.5 42.5q0 24 13 40.5t45 16.5q26 0 41 -15.5t15 -62.5q0 -38 -9 -69.5t-28.5 -50t-52.5 -18.5h-26z" />
    <glyph glyph-name="uni0157" unicode="&#x157;" horiz-adv-x="338" 
d="M42 0v411h95l8 -120l-1 -88v-203h-102zM144 177l-3 91q0 21 8 45.5t26.5 46.5t48.5 36.5t74 14.5h15v-114h-15q-43 0 -73 -6.5t-47.5 -20.5t-25.5 -37t-8 -56zM35 -257v67h25q25 0 35 8t10 27q-37 -2 -52.5 14.5t-15.5 42.5q0 24 13 40.5t45 16.5q26 0 41 -15.5t15 -62.5
q0 -38 -9 -69.5t-28.5 -50t-52.5 -18.5h-26z" />
    <glyph glyph-name="Rcaron" unicode="&#x158;" horiz-adv-x="555" 
d="M56 0v563h207q73 0 124.5 -16t79 -51.5t27.5 -97.5q0 -46 -14.5 -80.5t-43 -54t-70.5 -19.5q30 0 47 -11.5t25.5 -30t11.5 -39.5t5.5 -41t8.5 -34.5t19 -19t38 4.5v-59q-19 -16 -45 -21.5t-51 3.5t-42 35.5t-17 74.5q0 35 -3 59t-13.5 38.5t-33 22t-60.5 9t-98 -1.5v-233
h-102zM158 307h101q50 0 81.5 4.5t47 22.5t15.5 56q0 43 -19 62t-55.5 23.5t-89.5 4.5h-81v-173zM231 607l-118 112v8h93l45 -54h4l47 54h90v-8l-117 -112h-44z" />
    <glyph glyph-name="rcaron" unicode="&#x159;" horiz-adv-x="338" 
d="M42 0v411h95l8 -120l-1 -88v-203h-102zM144 177l-3 91q0 21 8 45.5t26.5 46.5t48.5 36.5t74 14.5h15v-114h-15q-43 0 -73 -6.5t-47.5 -20.5t-25.5 -37t-8 -56zM147 455l-118 112v8h93l45 -54h4l47 54h90v-8l-117 -112h-44z" />
    <glyph glyph-name="Sacute" unicode="&#x15a;" horiz-adv-x="555" 
d="M276 -11q-47 0 -91 10.5t-79.5 34.5t-57 61t-22.5 90h103q0 -4 2 -15.5t10.5 -26.5t25 -29t45 -23.5t71.5 -9.5q30 0 51.5 6t36 16t21.5 22.5t7 24.5q0 28 -19.5 44.5t-52 27t-71 19t-77 20.5t-70.5 31.5t-49.5 50.5t-15.5 79q4 47 33 81t81 52t121 18q60 0 111.5 -21.5
t83 -64t31.5 -108.5h-99q0 31 -14 50.5t-35.5 30t-45.5 14t-43 3.5q-50 0 -82.5 -16.5t-32.5 -50.5q-1 -29 19 -45.5t53 -26.5t72 -18.5t78 -19.5t70.5 -30t50 -50t15.5 -81q-2 -47 -33 -80.5t-82.5 -51.5t-119.5 -18zM301 607h-46v14l45 100h86v-19z" />
    <glyph glyph-name="sacute" unicode="&#x15b;" horiz-adv-x="415" 
d="M213 -10q-21 0 -46 5.5t-50 17t-45.5 29.5t-32.5 42t-12 56h94q0 -1 1.5 -13t9.5 -26.5t26 -25.5t52 -11q27 0 44 7t25.5 17.5t8.5 23.5q0 22 -18.5 34.5t-47.5 20.5t-61.5 16.5t-61 22.5t-46.5 38.5t-18 63.5q0 58 46 87t117 29q38 0 71.5 -8.5t59.5 -27t41.5 -47
t15.5 -69.5h-94q1 23 -7.5 37.5t-22.5 22.5t-30 11t-31 3q-36 0 -54.5 -12.5t-18.5 -32.5q0 -23 18.5 -35.5t48 -20.5t62.5 -16.5t62 -22.5t47.5 -37.5t18.5 -62.5t-21.5 -64.5t-60 -38.5t-90.5 -13zM231 455h-46v14l45 100h86v-19z" />
    <glyph glyph-name="Scedilla" unicode="&#x15e;" horiz-adv-x="555" 
d="M276 -11q-47 0 -91 10.5t-79.5 34.5t-57 61t-22.5 90h103q0 -4 2 -15.5t10.5 -26.5t25 -29t45 -23.5t71.5 -9.5q30 0 51.5 6t36 16t21.5 22.5t7 24.5q0 28 -19.5 44.5t-52 27t-71 19t-77 20.5t-70.5 31.5t-49.5 50.5t-15.5 79q4 47 33 81t81 52t121 18q60 0 111.5 -21.5
t83 -64t31.5 -108.5h-99q0 31 -14 50.5t-35.5 30t-45.5 14t-43 3.5q-50 0 -82.5 -16.5t-32.5 -50.5q-1 -29 19 -45.5t53 -26.5t72 -18.5t78 -19.5t70.5 -30t50 -50t15.5 -81q-2 -47 -33 -80.5t-82.5 -51.5t-119.5 -18zM174 -140l31 49q11 -10 36.5 -18.5t47.5 -8.5
q18 0 30.5 6.5t12.5 22.5q0 12 -11 18t-25 6q-11 0 -22.5 -4t-21.5 -12l-43 23l43 91l47 -18l-37 -61q11 9 26.5 14t32.5 5q29 0 54.5 -15.5t25.5 -50.5q0 -39 -34 -60.5t-81 -21.5q-28 0 -57.5 9t-54.5 26z" />
    <glyph glyph-name="scedilla" unicode="&#x15f;" horiz-adv-x="415" 
d="M213 -10q-21 0 -46 5.5t-50 17t-45.5 29.5t-32.5 42t-12 56h94q0 -1 1.5 -13t9.5 -26.5t26 -25.5t52 -11q27 0 44 7t25.5 17.5t8.5 23.5q0 22 -18.5 34.5t-47.5 20.5t-61.5 16.5t-61 22.5t-46.5 38.5t-18 63.5q0 58 46 87t117 29q38 0 71.5 -8.5t59.5 -27t41.5 -47
t15.5 -69.5h-94q1 23 -7.5 37.5t-22.5 22.5t-30 11t-31 3q-36 0 -54.5 -12.5t-18.5 -32.5q0 -23 18.5 -35.5t48 -20.5t62.5 -16.5t62 -22.5t47.5 -37.5t18.5 -62.5t-21.5 -64.5t-60 -38.5t-90.5 -13zM105 -140l31 49q11 -10 36.5 -18.5t47.5 -8.5q18 0 30.5 6.5t12.5 22.5
q0 12 -11 18t-25 6q-11 0 -22.5 -4t-21.5 -12l-43 23l43 91l47 -18l-37 -61q11 9 26.5 14t32.5 5q29 0 54.5 -15.5t25.5 -50.5q0 -39 -34 -60.5t-81 -21.5q-28 0 -57.5 9t-54.5 26z" />
    <glyph glyph-name="Scaron" unicode="&#x160;" horiz-adv-x="555" 
d="M276 -11q-47 0 -91 10.5t-79.5 34.5t-57 61t-22.5 90h103q0 -4 2 -15.5t10.5 -26.5t25 -29t45 -23.5t71.5 -9.5q30 0 51.5 6t36 16t21.5 22.5t7 24.5q0 28 -19.5 44.5t-52 27t-71 19t-77 20.5t-70.5 31.5t-49.5 50.5t-15.5 79q4 47 33 81t81 52t121 18q60 0 111.5 -21.5
t83 -64t31.5 -108.5h-99q0 31 -14 50.5t-35.5 30t-45.5 14t-43 3.5q-50 0 -82.5 -16.5t-32.5 -50.5q-1 -29 19 -45.5t53 -26.5t72 -18.5t78 -19.5t70.5 -30t50 -50t15.5 -81q-2 -47 -33 -80.5t-82.5 -51.5t-119.5 -18zM255 607l-118 112v8h93l45 -54h4l47 54h90v-8
l-117 -112h-44z" />
    <glyph glyph-name="scaron" unicode="&#x161;" horiz-adv-x="415" 
d="M213 -10q-21 0 -46 5.5t-50 17t-45.5 29.5t-32.5 42t-12 56h94q0 -1 1.5 -13t9.5 -26.5t26 -25.5t52 -11q27 0 44 7t25.5 17.5t8.5 23.5q0 22 -18.5 34.5t-47.5 20.5t-61.5 16.5t-61 22.5t-46.5 38.5t-18 63.5q0 58 46 87t117 29q38 0 71.5 -8.5t59.5 -27t41.5 -47
t15.5 -69.5h-94q1 23 -7.5 37.5t-22.5 22.5t-30 11t-31 3q-36 0 -54.5 -12.5t-18.5 -32.5q0 -23 18.5 -35.5t48 -20.5t62.5 -16.5t62 -22.5t47.5 -37.5t18.5 -62.5t-21.5 -64.5t-60 -38.5t-90.5 -13zM185 455l-118 112v8h93l45 -54h4l47 54h90v-8l-117 -112h-44z" />
    <glyph glyph-name="uni0162" unicode="&#x162;" horiz-adv-x="465" 
d="M278 545v-545h-102v545h102zM10 475v88h435v-88h-435zM129 -140l31 49q11 -10 36.5 -18.5t47.5 -8.5q18 0 30.5 6.5t12.5 22.5q0 12 -11 18t-25 6q-11 0 -22.5 -4t-21.5 -12l-43 23l43 91l47 -18l-37 -61q11 9 26.5 14t32.5 5q29 0 54.5 -15.5t25.5 -50.5
q0 -39 -34 -60.5t-81 -21.5q-28 0 -57.5 9t-54.5 26z" />
    <glyph glyph-name="uni0163" unicode="&#x163;" horiz-adv-x="305" 
d="M172 0q-49 0 -73.5 24t-24.5 78v248h95v-270h96v-80h-93zM12 339v72q22 0 36 3t22.5 13t12.5 31t4 58h82v-105h94v-72h-251zM50 -140l31 49q11 -10 36.5 -18.5t47.5 -8.5q18 0 30.5 6.5t12.5 22.5q0 12 -11 18t-25 6q-11 0 -22.5 -4t-21.5 -12l-43 23l43 91l47 -18
l-37 -61q11 9 26.5 14t32.5 5q29 0 54.5 -15.5t25.5 -50.5q0 -39 -34 -60.5t-81 -21.5q-28 0 -57.5 9t-54.5 26z" />
    <glyph glyph-name="Tcaron" unicode="&#x164;" horiz-adv-x="465" 
d="M278 545v-545h-102v545h102zM10 475v88h435v-88h-435zM210 607l-118 112v8h93l45 -54h4l47 54h90v-8l-117 -112h-44z" />
    <glyph glyph-name="tcaron" unicode="&#x165;" horiz-adv-x="305" 
d="M172 0q-49 0 -73.5 24t-24.5 78v248h95v-270h96v-80h-93zM12 339v72q22 0 36 3t22.5 13t12.5 31t4 58h82v-105h94v-72h-251zM210 458l30 161h97l-68 -161h-59z" />
    <glyph glyph-name="Tbar" unicode="&#x166;" horiz-adv-x="465" 
d="M10 475v88h435v-88h-435zM57 259v72h342v-72h-342zM279 545v-545h-102v545h102z" />
    <glyph glyph-name="tbar" unicode="&#x167;" horiz-adv-x="305" 
d="M263 18q-31 -22 -64 -26.5t-61.5 9t-46 43t-17.5 75.5v233h95v-206q0 -35 10 -53.5t24.5 -24t30 -2.5t27.5 10zM16 176v72h241v-72h-241zM12 333v80q22 0 36 3t22.5 13t12.5 31t4 58h82v-105h94v-80h-251z" />
    <glyph glyph-name="Utilde" unicode="&#x168;" horiz-adv-x="595" 
d="M298 -14q-119 0 -182 66.5t-63 187.5v323h109v-322q0 -47 11.5 -77.5t31 -48t44 -25t49.5 -7.5q38 0 69 13.5t49.5 48t18.5 96.5v322h108v-323q0 -123 -61.5 -188.5t-183.5 -65.5zM165 626q0 14 1 32.5t7.5 37t22.5 30.5t46 12q26 0 41 -8.5t24.5 -19.5t18.5 -19.5
t22 -8.5q16 0 19 14.5t3 39.5h60q1 -18 -1 -37.5t-9 -37t-23 -28t-43 -10.5q-26 0 -41 8.5t-24.5 19.5t-18 19.5t-22.5 8.5q-16 0 -19.5 -13.5t-2.5 -39.5h-61z" />
    <glyph glyph-name="utilde" unicode="&#x169;" horiz-adv-x="461" 
d="M180 -10q-43 0 -70.5 14t-43 37t-22.5 51t-9 56.5t-2 52.5v210h99v-210q0 -31 6 -58.5t25.5 -45t59.5 -17.5q39 0 59 17.5t27 45t8 55.5v213h105v-411h-87l-17 78h-2q-2 -6 -10 -20t-23.5 -30t-40.5 -27t-62 -11zM98 474q0 14 1 32.5t7.5 37t22.5 30.5t46 12
q26 0 41 -8.5t24.5 -19.5t18.5 -19.5t22 -8.5q16 0 19 14.5t3 39.5h60q1 -18 -1 -37.5t-9 -37t-23 -28t-43 -10.5q-26 0 -41 8.5t-24.5 19.5t-18 19.5t-22.5 8.5q-16 0 -19.5 -13.5t-2.5 -39.5h-61z" />
    <glyph glyph-name="Umacron" unicode="&#x16a;" horiz-adv-x="595" 
d="M298 -14q-119 0 -182 66.5t-63 187.5v323h109v-322q0 -47 11.5 -77.5t31 -48t44 -25t49.5 -7.5q38 0 69 13.5t49.5 48t18.5 96.5v322h108v-323q0 -123 -61.5 -188.5t-183.5 -65.5zM160 628v72h275v-72h-275z" />
    <glyph glyph-name="umacron" unicode="&#x16b;" horiz-adv-x="461" 
d="M180 -10q-43 0 -70.5 14t-43 37t-22.5 51t-9 56.5t-2 52.5v210h99v-210q0 -31 6 -58.5t25.5 -45t59.5 -17.5q39 0 59 17.5t27 45t8 55.5v213h105v-411h-87l-17 78h-2q-2 -6 -10 -20t-23.5 -30t-40.5 -27t-62 -11zM93 476v72h275v-72h-275z" />
    <glyph glyph-name="Ubreve" unicode="&#x16c;" horiz-adv-x="595" 
d="M298 -14q-119 0 -182 66.5t-63 187.5v323h109v-322q0 -47 11.5 -77.5t31 -48t44 -25t49.5 -7.5q38 0 69 13.5t49.5 48t18.5 96.5v322h108v-323q0 -123 -61.5 -188.5t-183.5 -65.5zM298 614q-62 0 -97 28.5t-35 76.5h72q0 -28 17 -38t43 -10t42.5 9.5t16.5 38.5h72
q0 -48 -34 -76.5t-97 -28.5z" />
    <glyph glyph-name="ubreve" unicode="&#x16d;" horiz-adv-x="461" 
d="M180 -10q-43 0 -70.5 14t-43 37t-22.5 51t-9 56.5t-2 52.5v210h99v-210q0 -31 6 -58.5t25.5 -45t59.5 -17.5q39 0 59 17.5t27 45t8 55.5v213h105v-411h-87l-17 78h-2q-2 -6 -10 -20t-23.5 -30t-40.5 -27t-62 -11zM231 462q-62 0 -97 28.5t-35 76.5h72q0 -28 17 -38
t43 -10t42.5 9.5t16.5 38.5h72q0 -48 -34 -76.5t-97 -28.5z" />
    <glyph glyph-name="Uring" unicode="&#x16e;" horiz-adv-x="595" 
d="M298 -14q-119 0 -182 66.5t-63 187.5v323h109v-322q0 -47 11.5 -77.5t31 -48t44 -25t49.5 -7.5q38 0 69 13.5t49.5 48t18.5 96.5v322h108v-323q0 -123 -61.5 -188.5t-183.5 -65.5zM296 622q-49 0 -74 26.5t-25 70.5q0 46 24.5 73.5t74.5 27.5t76 -27.5t26 -73.5
q0 -42 -26 -69.5t-76 -27.5zM295 681q21 0 31 11.5t10 29.5q0 17 -10 29t-31 12q-20 0 -30.5 -12.5t-10.5 -29.5t11 -28.5t30 -11.5z" />
    <glyph glyph-name="uring" unicode="&#x16f;" horiz-adv-x="461" 
d="M180 -10q-43 0 -70.5 14t-43 37t-22.5 51t-9 56.5t-2 52.5v210h99v-210q0 -31 6 -58.5t25.5 -45t59.5 -17.5q39 0 59 17.5t27 45t8 55.5v213h105v-411h-87l-17 78h-2q-2 -6 -10 -20t-23.5 -30t-40.5 -27t-62 -11zM228 470q-49 0 -74 26.5t-25 70.5q0 46 24.5 73.5
t74.5 27.5t76 -27.5t26 -73.5q0 -42 -26 -69.5t-76 -27.5zM227 529q21 0 31 11.5t10 29.5q0 17 -10 29t-31 12q-20 0 -30.5 -12.5t-10.5 -29.5t11 -28.5t30 -11.5z" />
    <glyph glyph-name="Uhungarumlaut" unicode="&#x170;" horiz-adv-x="595" 
d="M298 -14q-119 0 -182 66.5t-63 187.5v323h109v-322q0 -47 11.5 -77.5t31 -48t44 -25t49.5 -7.5q38 0 69 13.5t49.5 48t18.5 96.5v322h108v-323q0 -123 -61.5 -188.5t-183.5 -65.5zM168 634l72 147l81 -39l-106 -131zM339 634l72 147l81 -39l-107 -131z" />
    <glyph glyph-name="uhungarumlaut" unicode="&#x171;" horiz-adv-x="461" 
d="M180 -10q-43 0 -70.5 14t-43 37t-22.5 51t-9 56.5t-2 52.5v210h99v-210q0 -31 6 -58.5t25.5 -45t59.5 -17.5q39 0 59 17.5t27 45t8 55.5v213h105v-411h-87l-17 78h-2q-2 -6 -10 -20t-23.5 -30t-40.5 -27t-62 -11zM101 482l72 147l81 -39l-106 -131zM272 482l72 147
l81 -39l-107 -131z" />
    <glyph glyph-name="Uogonek" unicode="&#x172;" horiz-adv-x="595" 
d="M305 -190q-24 0 -47 9.5t-38 28.5t-15 50q0 30 15.5 53t38.5 39.5t46 27.5t38.5 16.5l15.5 5.5l2 -46l-12.5 -5.5t-28.5 -15.5t-28 -24.5t-12 -33.5q0 -14 9 -23t25 -9q15 0 24.5 7.5t14 14.5l4.5 7l55 -48l-11.5 -13.5t-35 -27t-60.5 -13.5zM298 -14q-119 0 -182 66.5
t-63 187.5v323h109v-322q0 -47 11.5 -77.5t31 -48t44 -25t49.5 -7.5q38 0 69 13.5t49.5 48t18.5 96.5v322h108v-323q0 -123 -61.5 -188.5t-183.5 -65.5z" />
    <glyph glyph-name="uogonek" unicode="&#x173;" horiz-adv-x="461" 
d="M180 -10q-43 0 -70.5 14t-43 37t-22.5 51t-9 56.5t-2 52.5v210h99v-210q0 -31 6 -58.5t25.5 -45t59.5 -17.5q39 0 59 17.5t27 45t8 55.5v213h105v-411h-87l-17 78h-2q-2 -6 -10 -20t-23.5 -30t-40.5 -27t-62 -11zM363 -186q-24 0 -47 9.5t-38 28.5t-15 50q0 30 15 53
t37.5 40t45 28.5t38 17l15.5 5.5v-46l-11.5 -5.5t-27 -16t-27 -25.5t-11.5 -34q0 -14 9.5 -23t24.5 -9t24.5 7.5t14.5 14.5l5 7l54 -48l-11.5 -13.5t-34.5 -27t-60 -13.5z" />
    <glyph glyph-name="Wcircumflex" unicode="&#x174;" horiz-adv-x="820" 
d="M353 563h108l-54 -131l-93 -432h-165l-136 563h109l109 -520zM692 563h108l-135 -563h-164l-94 432l-55 131h109l122 -520zM271 618v8l118 109h43l118 -109v-8h-91l-46 51h-5l-44 -51h-93z" />
    <glyph glyph-name="wcircumflex" unicode="&#x175;" horiz-adv-x="636" 
d="M102 0l-96 394v18h100l68 -327h2l88 327h88l91 -327h2l68 327h99v-18l-97 -394h-142l-64 235h-2l-61 -235h-144zM179 466v8l118 109h43l118 -109v-8h-91l-46 51h-5l-44 -51h-93z" />
    <glyph glyph-name="Ycircumflex" unicode="&#x176;" horiz-adv-x="447" 
d="M171 198l-192 365h114l131 -275l129 275h114l-196 -365h-100zM171 0v211h101v-211h-101zM84 618v8l118 109h43l118 -109v-8h-91l-46 51h-5l-44 -51h-93z" />
    <glyph glyph-name="ycircumflex" unicode="&#x177;" horiz-adv-x="441" 
d="M-2 -191v79h63q15 0 26.5 3t22.5 15.5t24 40.5l27 60l-160 404h105l105 -299l113 299h105l-202 -474q-18 -42 -33.5 -67.5t-31.5 -38.5t-37 -17.5t-49 -4.5h-78zM81 466v8l118 109h43l118 -109v-8h-91l-46 51h-5l-44 -51h-93z" />
    <glyph glyph-name="Ydieresis" unicode="&#x178;" horiz-adv-x="447" 
d="M171 198l-192 365h114l131 -275l129 275h114l-196 -365h-100zM171 0v211h101v-211h-101zM134 610q-37 0 -49.5 18.5t-12.5 43.5q0 24 13 42.5t49 18.5q37 0 48.5 -18.5t11.5 -42.5q0 -25 -11.5 -43.5t-48.5 -18.5zM315 610q-36 0 -49 18.5t-13 43.5q0 24 13 42.5t49 18.5
q37 0 49 -18.5t12 -42.5q0 -25 -12 -43.5t-49 -18.5z" />
    <glyph glyph-name="Zacute" unicode="&#x179;" horiz-adv-x="564" 
d="M43 0v86l343 389h-317v88h448v-87l-338 -388h336v-88h-472zM306 607h-46v14l45 100h86v-19z" />
    <glyph glyph-name="zacute" unicode="&#x17a;" horiz-adv-x="445" 
d="M35 0v74l249 263h-235v76h354v-74l-244 -263h244v-76h-368zM246 455h-46v14l45 100h86v-19z" />
    <glyph glyph-name="Zdotaccent" unicode="&#x17b;" horiz-adv-x="564" 
d="M43 0v86l343 389h-317v88h448v-87l-338 -388h336v-88h-472zM283 616q-33 0 -45 17t-12 39t12 38.5t45 16.5q34 0 44.5 -16.5t10.5 -38.5t-10.5 -39t-44.5 -17z" />
    <glyph glyph-name="zdotaccent" unicode="&#x17c;" horiz-adv-x="445" 
d="M35 0v74l249 263h-235v76h354v-74l-244 -263h244v-76h-368zM223 464q-33 0 -45 17t-12 39t12 38.5t45 16.5q34 0 44.5 -16.5t10.5 -38.5t-10.5 -39t-44.5 -17z" />
    <glyph glyph-name="Zcaron" unicode="&#x17d;" horiz-adv-x="564" 
d="M43 0v86l343 389h-317v88h448v-87l-338 -388h336v-88h-472zM260 607l-118 112v8h93l45 -54h4l47 54h90v-8l-117 -112h-44z" />
    <glyph glyph-name="zcaron" unicode="&#x17e;" horiz-adv-x="445" 
d="M35 0v74l249 263h-235v76h354v-74l-244 -263h244v-76h-368zM200 455l-118 112v8h93l45 -54h4l47 54h90v-8l-117 -112h-44z" />
    <glyph glyph-name="Ohorn" unicode="&#x1a0;" horiz-adv-x="612" 
d="M298 -14q-136 0 -208 79.5t-72 214.5q0 89 31 154.5t93.5 102t155.5 36.5q137 0 208.5 -79.5t71.5 -213.5q0 -87 -32 -153.5t-94 -103.5t-154 -37zM297 84q61 0 101 25.5t60 70t20 100.5q0 57 -20 101.5t-60 70t-101 25.5q-88 0 -134 -54t-46 -143q0 -55 19.5 -99.5
t59.5 -70.5t101 -26zM373 503l1 60h41q15 0 21 3.5t7.5 14t1.5 32.5h71q0 -41 -10 -65t-33.5 -34.5t-66.5 -10.5h-33z" />
    <glyph glyph-name="ohorn" unicode="&#x1a1;" horiz-adv-x="472" 
d="M230 -10q-68 0 -114.5 27t-69.5 74.5t-23 108.5q0 62 23 109.5t69.5 74.5t115.5 27q101 0 153.5 -58t52.5 -153q0 -59 -22 -107t-68 -75.5t-117 -27.5zM230 76q45 0 68.5 19t31.5 48.5t8 59.5q0 32 -8 61t-31.5 48.5t-68.5 19.5q-44 0 -67.5 -19.5t-32 -48.5t-8.5 -61
q0 -30 8.5 -59.5t32 -48.5t67.5 -19zM275 345l1 60h41q15 0 21 3.5t7.5 14t1.5 32.5h71q0 -41 -10 -65t-33.5 -34.5t-66.5 -10.5h-33z" />
    <glyph glyph-name="Uhorn" unicode="&#x1af;" horiz-adv-x="595" 
d="M298 -14q-119 0 -182 66.5t-63 187.5v323h109v-322q0 -47 11.5 -77.5t31 -48t44 -25t49.5 -7.5q38 0 69 13.5t49.5 48t18.5 96.5v322h108v-323q0 -123 -61.5 -188.5t-183.5 -65.5zM500 503l1 60h41q15 0 21 3.5t7.5 14t1.5 32.5h71q0 -41 -10 -65t-33.5 -34.5
t-66.5 -10.5h-33z" />
    <glyph glyph-name="uhorn" unicode="&#x1b0;" horiz-adv-x="461" 
d="M180 -10q-43 0 -70.5 14t-43 37t-22.5 51t-9 56.5t-2 52.5v210h99v-210q0 -31 6 -58.5t25.5 -45t59.5 -17.5q39 0 59 17.5t27 45t8 55.5v213h105v-411h-87l-17 78h-2q-2 -6 -10 -20t-23.5 -30t-40.5 -27t-62 -11zM363 351l1 60h41q15 0 21 3.5t7.5 14t1.5 32.5h71
q0 -41 -10 -65t-33.5 -34.5t-66.5 -10.5h-33z" />
    <glyph glyph-name="uni0218" unicode="&#x218;" horiz-adv-x="555" 
d="M276 -11q-47 0 -91 10.5t-79.5 34.5t-57 61t-22.5 90h103q0 -4 2 -15.5t10.5 -26.5t25 -29t45 -23.5t71.5 -9.5q30 0 51.5 6t36 16t21.5 22.5t7 24.5q0 28 -19.5 44.5t-52 27t-71 19t-77 20.5t-70.5 31.5t-49.5 50.5t-15.5 79q4 47 33 81t81 52t121 18q60 0 111.5 -21.5
t83 -64t31.5 -108.5h-99q0 31 -14 50.5t-35.5 30t-45.5 14t-43 3.5q-50 0 -82.5 -16.5t-32.5 -50.5q-1 -29 19 -45.5t53 -26.5t72 -18.5t78 -19.5t70.5 -30t50 -50t15.5 -81q-2 -47 -33 -80.5t-82.5 -51.5t-119.5 -18zM219 -257v67h25q25 0 35 8t10 27q-37 -2 -52.5 14.5
t-15.5 42.5q0 24 13 40.5t45 16.5q26 0 41 -15.5t15 -62.5q0 -38 -9 -69.5t-28.5 -50t-52.5 -18.5h-26z" />
    <glyph glyph-name="uni0219" unicode="&#x219;" horiz-adv-x="415" 
d="M213 -10q-21 0 -46 5.5t-50 17t-45.5 29.5t-32.5 42t-12 56h94q0 -1 1.5 -13t9.5 -26.5t26 -25.5t52 -11q27 0 44 7t25.5 17.5t8.5 23.5q0 22 -18.5 34.5t-47.5 20.5t-61.5 16.5t-61 22.5t-46.5 38.5t-18 63.5q0 58 46 87t117 29q38 0 71.5 -8.5t59.5 -27t41.5 -47
t15.5 -69.5h-94q1 23 -7.5 37.5t-22.5 22.5t-30 11t-31 3q-36 0 -54.5 -12.5t-18.5 -32.5q0 -23 18.5 -35.5t48 -20.5t62.5 -16.5t62 -22.5t47.5 -37.5t18.5 -62.5t-21.5 -64.5t-60 -38.5t-90.5 -13zM150 -257v67h25q25 0 35 8t10 27q-37 -2 -52.5 14.5t-15.5 42.5
q0 24 13 40.5t45 16.5q26 0 41 -15.5t15 -62.5q0 -38 -9 -69.5t-28.5 -50t-52.5 -18.5h-26z" />
    <glyph glyph-name="uni021A" unicode="&#x21a;" horiz-adv-x="465" 
d="M278 545v-545h-102v545h102zM10 475v88h435v-88h-435zM174 -257v67h25q25 0 35 8t10 27q-37 -2 -52.5 14.5t-15.5 42.5q0 24 13 40.5t45 16.5q26 0 41 -15.5t15 -62.5q0 -38 -9 -69.5t-28.5 -50t-52.5 -18.5h-26z" />
    <glyph glyph-name="uni021B" unicode="&#x21b;" horiz-adv-x="305" 
d="M172 0q-49 0 -73.5 24t-24.5 78v248h95v-270h96v-80h-93zM12 339v72q22 0 36 3t22.5 13t12.5 31t4 58h82v-105h94v-72h-251zM95 -257v67h25q25 0 35 8t10 27q-37 -2 -52.5 14.5t-15.5 42.5q0 24 13 40.5t45 16.5q26 0 41 -15.5t15 -62.5q0 -38 -9 -69.5t-28.5 -50
t-52.5 -18.5h-26z" />
    <glyph glyph-name="uni0237" unicode="&#x237;" horiz-adv-x="244" 
d="M59 411h102v-492q0 -54 -24.5 -78t-73.5 -24h-73v79h69v515z" />
    <glyph glyph-name="circumflex" unicode="&#x2c6;" horiz-adv-x="454" 
d="M88 466v8l118 109h43l118 -109v-8h-91l-46 51h-5l-44 -51h-93z" />
    <glyph glyph-name="caron" unicode="&#x2c7;" horiz-adv-x="428" 
d="M192 455l-118 112v8h93l45 -54h4l47 54h90v-8l-117 -112h-44z" />
    <glyph glyph-name="breve" unicode="&#x2d8;" horiz-adv-x="371" 
d="M186 462q-62 0 -97 28.5t-35 76.5h72q0 -28 17 -38t43 -10t42.5 9.5t16.5 38.5h72q0 -48 -34 -76.5t-97 -28.5z" />
    <glyph glyph-name="dotaccent" unicode="&#x2d9;" horiz-adv-x="212" 
d="M107 464q-33 0 -45 17t-12 39t12 38.5t45 16.5q34 0 44.5 -16.5t10.5 -38.5t-10.5 -39t-44.5 -17z" />
    <glyph glyph-name="ring" unicode="&#x2da;" horiz-adv-x="267" 
d="M132 470q-49 0 -74 26.5t-25 70.5q0 46 24.5 73.5t74.5 27.5t76 -27.5t26 -73.5q0 -42 -26 -69.5t-76 -27.5zM131 529q21 0 31 11.5t10 29.5q0 17 -10 29t-31 12q-20 0 -30.5 -12.5t-10.5 -29.5t11 -28.5t30 -11.5z" />
    <glyph glyph-name="ogonek" unicode="&#x2db;" horiz-adv-x="291" 
d="M143 -199q-24 0 -47 9.5t-38 28.5t-15 50q0 30 15 53t37.5 40t45 28.5t38 17l15.5 5.5v-46l-11.5 -5.5t-27 -16t-27 -25.5t-11.5 -34q0 -14 9.5 -23t24.5 -9t24.5 7.5t14.5 14.5l5 7l54 -48l-11.5 -13.5t-34.5 -27t-60 -13.5z" />
    <glyph glyph-name="tilde" unicode="&#x2dc;" horiz-adv-x="376" 
d="M55 474q0 14 1 32.5t7.5 37t22.5 30.5t46 12q26 0 41 -8.5t24.5 -19.5t18.5 -19.5t22 -8.5q16 0 19 14.5t3 39.5h60q1 -18 -1 -37.5t-9 -37t-23 -28t-43 -10.5q-26 0 -41 8.5t-24.5 19.5t-18 19.5t-22.5 8.5q-16 0 -19.5 -13.5t-2.5 -39.5h-61z" />
    <glyph glyph-name="hungarumlaut" unicode="&#x2dd;" horiz-adv-x="388" 
d="M32 482l72 147l81 -39l-106 -131zM203 482l72 147l81 -39l-107 -131z" />
    <glyph glyph-name="gravecomb" unicode="&#x300;" 
d="M120 455l-85 95v19h86l45 -100v-14h-46z" />
    <glyph glyph-name="acutecomb" unicode="&#x301;" 
d="M81 455h-46v14l45 100h86v-19z" />
    <glyph glyph-name="uni0302" unicode="&#x302;" 
d="M88 466v8l118 109h43l118 -109v-8h-91l-46 51h-5l-44 -51h-93z" />
    <glyph glyph-name="tildecomb" unicode="&#x303;" 
d="M55 474q0 14 1 32.5t7.5 37t22.5 30.5t46 12q26 0 41 -8.5t24.5 -19.5t18.5 -19.5t22 -8.5q16 0 19 14.5t3 39.5h60q1 -18 -1 -37.5t-9 -37t-23 -28t-43 -10.5q-26 0 -41 8.5t-24.5 19.5t-18 19.5t-22.5 8.5q-16 0 -19.5 -13.5t-2.5 -39.5h-61z" />
    <glyph glyph-name="uni0304" unicode="&#x304;" 
d="M40 476v72h275v-72h-275z" />
    <glyph glyph-name="uni0306" unicode="&#x306;" 
d="M186 462q-62 0 -97 28.5t-35 76.5h72q0 -28 17 -38t43 -10t42.5 9.5t16.5 38.5h72q0 -48 -34 -76.5t-97 -28.5z" />
    <glyph glyph-name="uni0307" unicode="&#x307;" 
d="M107 464q-33 0 -45 17t-12 39t12 38.5t45 16.5q34 0 44.5 -16.5t10.5 -38.5t-10.5 -39t-44.5 -17z" />
    <glyph glyph-name="uni0308" unicode="&#x308;" 
d="M107 458q-37 0 -49.5 18.5t-12.5 43.5q0 24 13 42.5t49 18.5q37 0 48.5 -18.5t11.5 -42.5q0 -25 -11.5 -43.5t-48.5 -18.5zM288 458q-36 0 -49 18.5t-13 43.5q0 24 13 42.5t49 18.5q37 0 49 -18.5t12 -42.5q0 -25 -12 -43.5t-49 -18.5z" />
    <glyph glyph-name="hookabovecomb" unicode="&#x309;" 
d="M94 460v15q6 13 21 22.5t29 20t14 28.5q0 12 -9.5 18.5t-22.5 6.5q-12 0 -24 -7t-17 -21l-42 27q9 32 35.5 48t56.5 16q32 0 58.5 -19t26.5 -58q0 -30 -13 -45.5t-27.5 -26.5t-19.5 -25h-66z" />
    <glyph glyph-name="uni030A" unicode="&#x30a;" 
d="M132 470q-49 0 -74 26.5t-25 70.5q0 46 24.5 73.5t74.5 27.5t76 -27.5t26 -73.5q0 -42 -26 -69.5t-76 -27.5zM131 529q21 0 31 11.5t10 29.5q0 17 -10 29t-31 12q-20 0 -30.5 -12.5t-10.5 -29.5t11 -28.5t30 -11.5z" />
    <glyph glyph-name="uni030B" unicode="&#x30b;" 
d="M32 482l72 147l81 -39l-106 -131zM203 482l72 147l81 -39l-107 -131z" />
    <glyph glyph-name="uni030C" unicode="&#x30c;" 
d="M192 455l-118 112v8h93l45 -54h4l47 54h90v-8l-117 -112h-44z" />
    <glyph glyph-name="uni0312" unicode="&#x312;" 
d="M104 460h-46v14l45 100h86v-19z" />
    <glyph glyph-name="uni031B" unicode="&#x31b;" 
d="M44 598l1 60h41q15 0 21 3.5t7.5 14t1.5 32.5h71q0 -41 -10 -65t-33.5 -34.5t-66.5 -10.5h-33z" />
    <glyph glyph-name="dotbelowcomb" unicode="&#x323;" 
d="M98 -181q-33 0 -44.5 17.5t-11.5 39.5t11.5 38.5t44.5 16.5q34 0 44.5 -16.5t10.5 -38.5t-10.5 -39.5t-44.5 -17.5z" />
    <glyph glyph-name="uni0326" unicode="&#x326;" 
d="M54 -257v67h25q25 0 35 8t10 27q-37 -2 -52.5 14.5t-15.5 42.5q0 24 13 40.5t45 16.5q26 0 41 -15.5t15 -62.5q0 -38 -9 -69.5t-28.5 -50t-52.5 -18.5h-26z" />
    <glyph glyph-name="uni0327" unicode="&#x327;" 
d="M37 -119l31 49q11 -10 36.5 -18.5t47.5 -8.5q18 0 30.5 6.5t12.5 22.5q0 12 -11 18t-25 6q-11 0 -22.5 -4t-21.5 -12l-43 23l43 91l47 -18l-37 -61q11 9 26.5 14t32.5 5q29 0 54.5 -15.5t25.5 -50.5q0 -39 -34 -60.5t-81 -21.5q-28 0 -57.5 9t-54.5 26z" />
    <glyph glyph-name="uni0328" unicode="&#x328;" 
d="M143 -199q-24 0 -47 9.5t-38 28.5t-15 50q0 30 15 53t37.5 40t45 28.5t38 17l15.5 5.5v-46l-11.5 -5.5t-27 -16t-27 -25.5t-11.5 -34q0 -14 9.5 -23t24.5 -9t24.5 7.5t14.5 14.5l5 7l54 -48l-11.5 -13.5t-34.5 -27t-60 -13.5z" />
    <glyph glyph-name="Wgrave" unicode="&#x1e80;" horiz-adv-x="820" 
d="M353 563h108l-54 -131l-93 -432h-165l-136 563h109l109 -520zM692 563h108l-135 -563h-164l-94 432l-55 131h109l122 -520zM388 607l-85 95v19h86l45 -100v-14h-46z" />
    <glyph glyph-name="wgrave" unicode="&#x1e81;" horiz-adv-x="636" 
d="M102 0l-96 394v18h100l68 -327h2l88 327h88l91 -327h2l68 327h99v-18l-97 -394h-142l-64 235h-2l-61 -235h-144zM296 455l-85 95v19h86l45 -100v-14h-46z" />
    <glyph glyph-name="Wacute" unicode="&#x1e82;" horiz-adv-x="820" 
d="M353 563h108l-54 -131l-93 -432h-165l-136 563h109l109 -520zM692 563h108l-135 -563h-164l-94 432l-55 131h109l122 -520zM434 607h-46v14l45 100h86v-19z" />
    <glyph glyph-name="wacute" unicode="&#x1e83;" horiz-adv-x="636" 
d="M102 0l-96 394v18h100l68 -327h2l88 327h88l91 -327h2l68 327h99v-18l-97 -394h-142l-64 235h-2l-61 -235h-144zM342 455h-46v14l45 100h86v-19z" />
    <glyph glyph-name="Wdieresis" unicode="&#x1e84;" horiz-adv-x="820" 
d="M353 563h108l-54 -131l-93 -432h-165l-136 563h109l109 -520zM692 563h108l-135 -563h-164l-94 432l-55 131h109l122 -520zM320 610q-37 0 -49.5 18.5t-12.5 43.5q0 24 13 42.5t49 18.5q37 0 48.5 -18.5t11.5 -42.5q0 -25 -11.5 -43.5t-48.5 -18.5zM501 610
q-36 0 -49 18.5t-13 43.5q0 24 13 42.5t49 18.5q37 0 49 -18.5t12 -42.5q0 -25 -12 -43.5t-49 -18.5z" />
    <glyph glyph-name="wdieresis" unicode="&#x1e85;" horiz-adv-x="636" 
d="M102 0l-96 394v18h100l68 -327h2l88 327h88l91 -327h2l68 327h99v-18l-97 -394h-142l-64 235h-2l-61 -235h-144zM229 458q-37 0 -49.5 18.5t-12.5 43.5q0 24 13 42.5t49 18.5q37 0 48.5 -18.5t11.5 -42.5q0 -25 -11.5 -43.5t-48.5 -18.5zM410 458q-36 0 -49 18.5
t-13 43.5q0 24 13 42.5t49 18.5q37 0 49 -18.5t12 -42.5q0 -25 -12 -43.5t-49 -18.5z" />
    <glyph glyph-name="uni1E9E" unicode="&#x1e9e;" horiz-adv-x="574" 
d="M63 -127v743h448v-743h-448zM165 -39h244v568h-244v-568z" />
    <glyph glyph-name="uni1EA0" unicode="&#x1ea0;" horiz-adv-x="566" 
d="M19 0l180 563h167l185 -563h-109l-158 520l-157 -520h-108zM140 159l1 79h285l1 -79h-287zM284 -181q-33 0 -44.5 17.5t-11.5 39.5t11.5 38.5t44.5 16.5q34 0 44.5 -16.5t10.5 -38.5t-10.5 -39.5t-44.5 -17.5z" />
    <glyph glyph-name="uni1EA1" unicode="&#x1ea1;" horiz-adv-x="453" 
d="M178 -10q-56 0 -91 26.5t-50.5 74t-15.5 109.5q0 63 16 111t50.5 74.5t90.5 26.5q36 0 60.5 -10t40 -24t23.5 -27.5t11 -21.5h2v82h105v-411h-88l-17 67h-2q-2 -7 -11 -19.5t-24.5 -26t-40 -22.5t-59.5 -9zM220 76q37 0 58 16t29 44.5t8 62.5q0 37 -8.5 64.5t-29 43
t-57.5 15.5q-39 0 -60.5 -17t-30 -44.5t-8.5 -61.5t8.5 -62t30 -44.5t60.5 -16.5zM227 -181q-33 0 -44.5 17.5t-11.5 39.5t11.5 38.5t44.5 16.5q34 0 44.5 -16.5t10.5 -38.5t-10.5 -39.5t-44.5 -17.5z" />
    <glyph glyph-name="uni1EA2" unicode="&#x1ea2;" horiz-adv-x="566" 
d="M19 0l180 563h167l185 -563h-109l-158 520l-157 -520h-108zM140 159l1 79h285l1 -79h-287zM249 612v15q6 13 21 22.5t29 20t14 28.5q0 12 -9.5 18.5t-22.5 6.5q-12 0 -24 -7t-17 -21l-42 27q9 32 35.5 48t56.5 16q32 0 58.5 -19t26.5 -58q0 -30 -13 -45.5t-27.5 -26.5
t-19.5 -25h-66z" />
    <glyph glyph-name="uni1EA3" unicode="&#x1ea3;" horiz-adv-x="453" 
d="M178 -10q-56 0 -91 26.5t-50.5 74t-15.5 109.5q0 63 16 111t50.5 74.5t90.5 26.5q36 0 60.5 -10t40 -24t23.5 -27.5t11 -21.5h2v82h105v-411h-88l-17 67h-2q-2 -7 -11 -19.5t-24.5 -26t-40 -22.5t-59.5 -9zM220 76q37 0 58 16t29 44.5t8 62.5q0 37 -8.5 64.5t-29 43
t-57.5 15.5q-39 0 -60.5 -17t-30 -44.5t-8.5 -61.5t8.5 -62t30 -44.5t60.5 -16.5zM192 460v15q6 13 21 22.5t29 20t14 28.5q0 12 -9.5 18.5t-22.5 6.5q-12 0 -24 -7t-17 -21l-42 27q9 32 35.5 48t56.5 16q32 0 58.5 -19t26.5 -58q0 -30 -13 -45.5t-27.5 -26.5t-19.5 -25h-66
z" />
    <glyph glyph-name="uni1EA4" unicode="&#x1ea4;" horiz-adv-x="566" 
d="M19 0l180 563h167l185 -563h-109l-158 520l-157 -520h-108zM140 159l1 79h285l1 -79h-287zM146 618v8l118 109h43l118 -109v-8h-91l-46 51h-5l-44 -51h-93zM425 709h-46v14l45 100h86v-19z" />
    <glyph glyph-name="uni1EA5" unicode="&#x1ea5;" horiz-adv-x="453" 
d="M178 -10q-56 0 -91 26.5t-50.5 74t-15.5 109.5q0 63 16 111t50.5 74.5t90.5 26.5q36 0 60.5 -10t40 -24t23.5 -27.5t11 -21.5h2v82h105v-411h-88l-17 67h-2q-2 -7 -11 -19.5t-24.5 -26t-40 -22.5t-59.5 -9zM220 76q37 0 58 16t29 44.5t8 62.5q0 37 -8.5 64.5t-29 43
t-57.5 15.5q-39 0 -60.5 -17t-30 -44.5t-8.5 -61.5t8.5 -62t30 -44.5t60.5 -16.5zM89 466v8l118 109h43l118 -109v-8h-91l-46 51h-5l-44 -51h-93zM368 557h-46v14l45 100h86v-19z" />
    <glyph glyph-name="uni1EA6" unicode="&#x1ea6;" horiz-adv-x="566" 
d="M19 0l180 563h167l185 -563h-109l-158 520l-157 -520h-108zM140 159l1 79h285l1 -79h-287zM420 708l-85 95v19h86l45 -100v-14h-46zM141 616v8l118 109h43l118 -109v-8h-91l-46 51h-5l-44 -51h-93z" />
    <glyph glyph-name="uni1EA7" unicode="&#x1ea7;" horiz-adv-x="453" 
d="M178 -10q-56 0 -91 26.5t-50.5 74t-15.5 109.5q0 63 16 111t50.5 74.5t90.5 26.5q36 0 60.5 -10t40 -24t23.5 -27.5t11 -21.5h2v82h105v-411h-88l-17 67h-2q-2 -7 -11 -19.5t-24.5 -26t-40 -22.5t-59.5 -9zM220 76q37 0 58 16t29 44.5t8 62.5q0 37 -8.5 64.5t-29 43
t-57.5 15.5q-39 0 -60.5 -17t-30 -44.5t-8.5 -61.5t8.5 -62t30 -44.5t60.5 -16.5zM363 556l-85 95v19h86l45 -100v-14h-46zM85 463v8l118 109h43l118 -109v-8h-91l-46 51h-5l-44 -51h-93z" />
    <glyph glyph-name="uni1EA8" unicode="&#x1ea8;" horiz-adv-x="566" 
d="M19 0l180 563h167l185 -563h-109l-158 520l-157 -520h-108zM140 159l1 79h285l1 -79h-287zM141 616v8l118 109h43l118 -109v-8h-91l-46 51h-5l-44 -51h-93zM369 703v15q6 13 21 22.5t29 20t14 28.5q0 12 -9.5 18.5t-22.5 6.5q-12 0 -24 -7t-17 -21l-42 27q9 32 35.5 48
t56.5 16q32 0 58.5 -19t26.5 -58q0 -30 -13 -45.5t-27.5 -26.5t-19.5 -25h-66z" />
    <glyph glyph-name="uni1EA9" unicode="&#x1ea9;" horiz-adv-x="453" 
d="M178 -10q-56 0 -91 26.5t-50.5 74t-15.5 109.5q0 63 16 111t50.5 74.5t90.5 26.5q36 0 60.5 -10t40 -24t23.5 -27.5t11 -21.5h2v82h105v-411h-88l-17 67h-2q-2 -7 -11 -19.5t-24.5 -26t-40 -22.5t-59.5 -9zM220 76q37 0 58 16t29 44.5t8 62.5q0 37 -8.5 64.5t-29 43
t-57.5 15.5q-39 0 -60.5 -17t-30 -44.5t-8.5 -61.5t8.5 -62t30 -44.5t60.5 -16.5zM85 463v8l118 109h43l118 -109v-8h-91l-46 51h-5l-44 -51h-93zM312 551v15q6 13 21 22.5t29 20t14 28.5q0 12 -9.5 18.5t-22.5 6.5q-12 0 -24 -7t-17 -21l-42 27q9 32 35.5 48t56.5 16
q32 0 58.5 -19t26.5 -58q0 -30 -13 -45.5t-27.5 -26.5t-19.5 -25h-66z" />
    <glyph glyph-name="uni1EAA" unicode="&#x1eaa;" horiz-adv-x="566" 
d="M19 0l180 563h167l185 -563h-109l-158 520l-157 -520h-108zM140 159l1 79h285l1 -79h-287zM145 616v8l118 109h43l118 -109v-8h-91l-46 51h-5l-44 -51h-93zM147 769q0 14 1 32.5t7.5 37t22.5 30.5t46 12q26 0 41 -8.5t24.5 -19.5t18.5 -19.5t22 -8.5q16 0 19 14.5t3 39.5
h60q1 -18 -1 -37.5t-9 -37t-23 -28t-43 -10.5q-26 0 -41 8.5t-24.5 19.5t-18 19.5t-22.5 8.5q-16 0 -19.5 -13.5t-2.5 -39.5h-61z" />
    <glyph glyph-name="uni1EAB" unicode="&#x1eab;" horiz-adv-x="453" 
d="M178 -10q-56 0 -91 26.5t-50.5 74t-15.5 109.5q0 63 16 111t50.5 74.5t90.5 26.5q36 0 60.5 -10t40 -24t23.5 -27.5t11 -21.5h2v82h105v-411h-88l-17 67h-2q-2 -7 -11 -19.5t-24.5 -26t-40 -22.5t-59.5 -9zM220 76q37 0 58 16t29 44.5t8 62.5q0 37 -8.5 64.5t-29 43
t-57.5 15.5q-39 0 -60.5 -17t-30 -44.5t-8.5 -61.5t8.5 -62t30 -44.5t60.5 -16.5zM88 463v8l118 109h43l118 -109v-8h-91l-46 51h-5l-44 -51h-93zM90 616q0 14 1 32.5t7.5 37t22.5 30.5t46 12q26 0 41 -8.5t24.5 -19.5t18.5 -19.5t22 -8.5q16 0 19 14.5t3 39.5h60
q1 -18 -1 -37.5t-9 -37t-23 -28t-43 -10.5q-26 0 -41 8.5t-24.5 19.5t-18 19.5t-22.5 8.5q-16 0 -19.5 -13.5t-2.5 -39.5h-61z" />
    <glyph glyph-name="uni1EAC" unicode="&#x1eac;" horiz-adv-x="566" 
d="M19 0l180 563h167l185 -563h-109l-158 520l-157 -520h-108zM140 159l1 79h285l1 -79h-287zM284 -181q-33 0 -44.5 17.5t-11.5 39.5t11.5 38.5t44.5 16.5q34 0 44.5 -16.5t10.5 -38.5t-10.5 -39.5t-44.5 -17.5zM144 618v8l118 109h43l118 -109v-8h-91l-46 51h-5l-44 -51
h-93z" />
    <glyph glyph-name="uni1EAD" unicode="&#x1ead;" horiz-adv-x="453" 
d="M178 -10q-56 0 -91 26.5t-50.5 74t-15.5 109.5q0 63 16 111t50.5 74.5t90.5 26.5q36 0 60.5 -10t40 -24t23.5 -27.5t11 -21.5h2v82h105v-411h-88l-17 67h-2q-2 -7 -11 -19.5t-24.5 -26t-40 -22.5t-59.5 -9zM220 76q37 0 58 16t29 44.5t8 62.5q0 37 -8.5 64.5t-29 43
t-57.5 15.5q-39 0 -60.5 -17t-30 -44.5t-8.5 -61.5t8.5 -62t30 -44.5t60.5 -16.5zM227 -181q-33 0 -44.5 17.5t-11.5 39.5t11.5 38.5t44.5 16.5q34 0 44.5 -16.5t10.5 -38.5t-10.5 -39.5t-44.5 -17.5zM87 466v8l118 109h43l118 -109v-8h-91l-46 51h-5l-44 -51h-93z" />
    <glyph glyph-name="uni1EAE" unicode="&#x1eae;" horiz-adv-x="566" 
d="M19 0l180 563h167l185 -563h-109l-158 520l-157 -520h-108zM140 159l1 79h285l1 -79h-287zM284 614q-62 0 -97 28.5t-35 76.5h72q0 -28 17 -38t43 -10t42.5 9.5t16.5 38.5h72q0 -48 -34 -76.5t-97 -28.5zM307 752h-46v14l45 100h86v-19z" />
    <glyph glyph-name="uni1EAF" unicode="&#x1eaf;" horiz-adv-x="453" 
d="M178 -10q-56 0 -91 26.5t-50.5 74t-15.5 109.5q0 63 16 111t50.5 74.5t90.5 26.5q36 0 60.5 -10t40 -24t23.5 -27.5t11 -21.5h2v82h105v-411h-88l-17 67h-2q-2 -7 -11 -19.5t-24.5 -26t-40 -22.5t-59.5 -9zM220 76q37 0 58 16t29 44.5t8 62.5q0 37 -8.5 64.5t-29 43
t-57.5 15.5q-39 0 -60.5 -17t-30 -44.5t-8.5 -61.5t8.5 -62t30 -44.5t60.5 -16.5zM227 462q-62 0 -97 28.5t-35 76.5h72q0 -28 17 -38t43 -10t42.5 9.5t16.5 38.5h72q0 -48 -34 -76.5t-97 -28.5zM250 600h-46v14l45 100h86v-19z" />
    <glyph glyph-name="uni1EB0" unicode="&#x1eb0;" horiz-adv-x="566" 
d="M19 0l180 563h167l185 -563h-109l-158 520l-157 -520h-108zM140 159l1 79h285l1 -79h-287zM284 614q-62 0 -97 28.5t-35 76.5h72q0 -28 17 -38t43 -10t42.5 9.5t16.5 38.5h72q0 -48 -34 -76.5t-97 -28.5zM261 752l-85 95v19h86l45 -100v-14h-46z" />
    <glyph glyph-name="uni1EB1" unicode="&#x1eb1;" horiz-adv-x="453" 
d="M178 -10q-56 0 -91 26.5t-50.5 74t-15.5 109.5q0 63 16 111t50.5 74.5t90.5 26.5q36 0 60.5 -10t40 -24t23.5 -27.5t11 -21.5h2v82h105v-411h-88l-17 67h-2q-2 -7 -11 -19.5t-24.5 -26t-40 -22.5t-59.5 -9zM220 76q37 0 58 16t29 44.5t8 62.5q0 37 -8.5 64.5t-29 43
t-57.5 15.5q-39 0 -60.5 -17t-30 -44.5t-8.5 -61.5t8.5 -62t30 -44.5t60.5 -16.5zM227 462q-62 0 -97 28.5t-35 76.5h72q0 -28 17 -38t43 -10t42.5 9.5t16.5 38.5h72q0 -48 -34 -76.5t-97 -28.5zM204 600l-85 95v19h86l45 -100v-14h-46z" />
    <glyph glyph-name="uni1EB2" unicode="&#x1eb2;" horiz-adv-x="566" 
d="M19 0l180 563h167l185 -563h-109l-158 520l-157 -520h-108zM140 159l1 79h285l1 -79h-287zM284 614q-62 0 -97 28.5t-35 76.5h72q0 -28 17 -38t43 -10t42.5 9.5t16.5 38.5h72q0 -48 -34 -76.5t-97 -28.5zM249 757v15q6 13 21 22.5t29 20t14 28.5q0 12 -9.5 18.5
t-22.5 6.5q-12 0 -24 -7t-17 -21l-42 27q9 32 35.5 48t56.5 16q32 0 58.5 -19t26.5 -58q0 -30 -13 -45.5t-27.5 -26.5t-19.5 -25h-66z" />
    <glyph glyph-name="uni1EB3" unicode="&#x1eb3;" horiz-adv-x="453" 
d="M178 -10q-56 0 -91 26.5t-50.5 74t-15.5 109.5q0 63 16 111t50.5 74.5t90.5 26.5q36 0 60.5 -10t40 -24t23.5 -27.5t11 -21.5h2v82h105v-411h-88l-17 67h-2q-2 -7 -11 -19.5t-24.5 -26t-40 -22.5t-59.5 -9zM220 76q37 0 58 16t29 44.5t8 62.5q0 37 -8.5 64.5t-29 43
t-57.5 15.5q-39 0 -60.5 -17t-30 -44.5t-8.5 -61.5t8.5 -62t30 -44.5t60.5 -16.5zM227 462q-62 0 -97 28.5t-35 76.5h72q0 -28 17 -38t43 -10t42.5 9.5t16.5 38.5h72q0 -48 -34 -76.5t-97 -28.5zM192 605v15q6 13 21 22.5t29 20t14 28.5q0 12 -9.5 18.5t-22.5 6.5
q-12 0 -24 -7t-17 -21l-42 27q9 32 35.5 48t56.5 16q32 0 58.5 -19t26.5 -58q0 -30 -13 -45.5t-27.5 -26.5t-19.5 -25h-66z" />
    <glyph glyph-name="uni1EB4" unicode="&#x1eb4;" horiz-adv-x="566" 
d="M19 0l180 563h167l185 -563h-109l-158 520l-157 -520h-108zM140 159l1 79h285l1 -79h-287zM286 614q-62 0 -97 28.5t-35 76.5h72q0 -28 17 -38t43 -10t42.5 9.5t16.5 38.5h72q0 -48 -34 -76.5t-97 -28.5zM153 771q0 14 1 32.5t7.5 37t22.5 30.5t46 12q26 0 41 -8.5
t24.5 -19.5t18.5 -19.5t22 -8.5q16 0 19 14.5t3 39.5h60q1 -18 -1 -37.5t-9 -37t-23 -28t-43 -10.5q-26 0 -41 8.5t-24.5 19.5t-18 19.5t-22.5 8.5q-16 0 -19.5 -13.5t-2.5 -39.5h-61z" />
    <glyph glyph-name="uni1EB5" unicode="&#x1eb5;" horiz-adv-x="453" 
d="M178 -10q-56 0 -91 26.5t-50.5 74t-15.5 109.5q0 63 16 111t50.5 74.5t90.5 26.5q36 0 60.5 -10t40 -24t23.5 -27.5t11 -21.5h2v82h105v-411h-88l-17 67h-2q-2 -7 -11 -19.5t-24.5 -26t-40 -22.5t-59.5 -9zM220 76q37 0 58 16t29 44.5t8 62.5q0 37 -8.5 64.5t-29 43
t-57.5 15.5q-39 0 -60.5 -17t-30 -44.5t-8.5 -61.5t8.5 -62t30 -44.5t60.5 -16.5zM230 462q-62 0 -97 28.5t-35 76.5h72q0 -28 17 -38t43 -10t42.5 9.5t16.5 38.5h72q0 -48 -34 -76.5t-97 -28.5zM97 619q0 14 1 32.5t7.5 37t22.5 30.5t46 12q26 0 41 -8.5t24.5 -19.5
t18.5 -19.5t22 -8.5q16 0 19 14.5t3 39.5h60q1 -18 -1 -37.5t-9 -37t-23 -28t-43 -10.5q-26 0 -41 8.5t-24.5 19.5t-18 19.5t-22.5 8.5q-16 0 -19.5 -13.5t-2.5 -39.5h-61z" />
    <glyph glyph-name="uni1EB6" unicode="&#x1eb6;" horiz-adv-x="566" 
d="M19 0l180 563h167l185 -563h-109l-158 520l-157 -520h-108zM140 159l1 79h285l1 -79h-287zM284 -181q-33 0 -44.5 17.5t-11.5 39.5t11.5 38.5t44.5 16.5q34 0 44.5 -16.5t10.5 -38.5t-10.5 -39.5t-44.5 -17.5zM284 614q-62 0 -97 28.5t-35 76.5h72q0 -28 17 -38t43 -10
t42.5 9.5t16.5 38.5h72q0 -48 -34 -76.5t-97 -28.5z" />
    <glyph glyph-name="uni1EB7" unicode="&#x1eb7;" horiz-adv-x="453" 
d="M178 -10q-56 0 -91 26.5t-50.5 74t-15.5 109.5q0 63 16 111t50.5 74.5t90.5 26.5q36 0 60.5 -10t40 -24t23.5 -27.5t11 -21.5h2v82h105v-411h-88l-17 67h-2q-2 -7 -11 -19.5t-24.5 -26t-40 -22.5t-59.5 -9zM220 76q37 0 58 16t29 44.5t8 62.5q0 37 -8.5 64.5t-29 43
t-57.5 15.5q-39 0 -60.5 -17t-30 -44.5t-8.5 -61.5t8.5 -62t30 -44.5t60.5 -16.5zM227 -181q-33 0 -44.5 17.5t-11.5 39.5t11.5 38.5t44.5 16.5q34 0 44.5 -16.5t10.5 -38.5t-10.5 -39.5t-44.5 -17.5zM227 462q-62 0 -97 28.5t-35 76.5h72q0 -28 17 -38t43 -10t42.5 9.5
t16.5 38.5h72q0 -48 -34 -76.5t-97 -28.5z" />
    <glyph glyph-name="uni1EB8" unicode="&#x1eb8;" horiz-adv-x="501" 
d="M53 0v563h402v-88h-301v-148h231v-84h-231v-161h311v-82h-412zM251 -181q-33 0 -44.5 17.5t-11.5 39.5t11.5 38.5t44.5 16.5q34 0 44.5 -16.5t10.5 -38.5t-10.5 -39.5t-44.5 -17.5z" />
    <glyph glyph-name="uni1EB9" unicode="&#x1eb9;" horiz-adv-x="462" 
d="M229 -10q-71 0 -115.5 30.5t-66 78.5t-22.5 100q-1 62 23.5 110.5t70 76t107.5 27.5q55 0 99 -24t69.5 -67t26.5 -103v-11.5v-14.5h-299q0 -57 28.5 -87.5t76.5 -30.5q38 0 63.5 19t30.5 50h99q-4 -43 -28 -78t-65 -55.5t-98 -20.5zM125 239h194q-1 7 -4 22t-13 31
t-29 27t-49 11t-49 -10t-29 -25t-15 -30t-6 -26zM232 -181q-33 0 -44.5 17.5t-11.5 39.5t11.5 38.5t44.5 16.5q34 0 44.5 -16.5t10.5 -38.5t-10.5 -39.5t-44.5 -17.5z" />
    <glyph glyph-name="uni1EBA" unicode="&#x1eba;" horiz-adv-x="501" 
d="M53 0v563h402v-88h-301v-148h231v-84h-231v-161h311v-82h-412zM216 612v15q6 13 21 22.5t29 20t14 28.5q0 12 -9.5 18.5t-22.5 6.5q-12 0 -24 -7t-17 -21l-42 27q9 32 35.5 48t56.5 16q32 0 58.5 -19t26.5 -58q0 -30 -13 -45.5t-27.5 -26.5t-19.5 -25h-66z" />
    <glyph glyph-name="uni1EBB" unicode="&#x1ebb;" horiz-adv-x="462" 
d="M229 -10q-71 0 -115.5 30.5t-66 78.5t-22.5 100q-1 62 23.5 110.5t70 76t107.5 27.5q55 0 99 -24t69.5 -67t26.5 -103v-11.5v-14.5h-299q0 -57 28.5 -87.5t76.5 -30.5q38 0 63.5 19t30.5 50h99q-4 -43 -28 -78t-65 -55.5t-98 -20.5zM125 239h194q-1 7 -4 22t-13 31
t-29 27t-49 11t-49 -10t-29 -25t-15 -30t-6 -26zM197 460v15q6 13 21 22.5t29 20t14 28.5q0 12 -9.5 18.5t-22.5 6.5q-12 0 -24 -7t-17 -21l-42 27q9 32 35.5 48t56.5 16q32 0 58.5 -19t26.5 -58q0 -30 -13 -45.5t-27.5 -26.5t-19.5 -25h-66z" />
    <glyph glyph-name="uni1EBC" unicode="&#x1ebc;" horiz-adv-x="501" 
d="M53 0v563h402v-88h-301v-148h231v-84h-231v-161h311v-82h-412zM118 626q0 14 1 32.5t7.5 37t22.5 30.5t46 12q26 0 41 -8.5t24.5 -19.5t18.5 -19.5t22 -8.5q16 0 19 14.5t3 39.5h60q1 -18 -1 -37.5t-9 -37t-23 -28t-43 -10.5q-26 0 -41 8.5t-24.5 19.5t-18 19.5
t-22.5 8.5q-16 0 -19.5 -13.5t-2.5 -39.5h-61z" />
    <glyph glyph-name="uni1EBD" unicode="&#x1ebd;" horiz-adv-x="462" 
d="M229 -10q-71 0 -115.5 30.5t-66 78.5t-22.5 100q-1 62 23.5 110.5t70 76t107.5 27.5q55 0 99 -24t69.5 -67t26.5 -103v-11.5v-14.5h-299q0 -57 28.5 -87.5t76.5 -30.5q38 0 63.5 19t30.5 50h99q-4 -43 -28 -78t-65 -55.5t-98 -20.5zM125 239h194q-1 7 -4 22t-13 31
t-29 27t-49 11t-49 -10t-29 -25t-15 -30t-6 -26zM99 474q0 14 1 32.5t7.5 37t22.5 30.5t46 12q26 0 41 -8.5t24.5 -19.5t18.5 -19.5t22 -8.5q16 0 19 14.5t3 39.5h60q1 -18 -1 -37.5t-9 -37t-23 -28t-43 -10.5q-26 0 -41 8.5t-24.5 19.5t-18 19.5t-22.5 8.5
q-16 0 -19.5 -13.5t-2.5 -39.5h-61z" />
    <glyph glyph-name="uni1EBE" unicode="&#x1ebe;" horiz-adv-x="501" 
d="M53 0v563h402v-88h-301v-148h231v-84h-231v-161h311v-82h-412zM114 618v8l118 109h43l118 -109v-8h-91l-46 51h-5l-44 -51h-93zM393 709h-46v14l45 100h86v-19z" />
    <glyph glyph-name="uni1EBF" unicode="&#x1ebf;" horiz-adv-x="462" 
d="M229 -10q-71 0 -115.5 30.5t-66 78.5t-22.5 100q-1 62 23.5 110.5t70 76t107.5 27.5q55 0 99 -24t69.5 -67t26.5 -103v-11.5v-14.5h-299q0 -57 28.5 -87.5t76.5 -30.5q38 0 63.5 19t30.5 50h99q-4 -43 -28 -78t-65 -55.5t-98 -20.5zM125 239h194q-1 7 -4 22t-13 31
t-29 27t-49 11t-49 -10t-29 -25t-15 -30t-6 -26zM94 466v8l118 109h43l118 -109v-8h-91l-46 51h-5l-44 -51h-93zM373 557h-46v14l45 100h86v-19z" />
    <glyph glyph-name="uni1EC0" unicode="&#x1ec0;" horiz-adv-x="501" 
d="M53 0v563h402v-88h-301v-148h231v-84h-231v-161h311v-82h-412zM387 708l-85 95v19h86l45 -100v-14h-46zM109 616v8l118 109h43l118 -109v-8h-91l-46 51h-5l-44 -51h-93z" />
    <glyph glyph-name="uni1EC1" unicode="&#x1ec1;" horiz-adv-x="462" 
d="M229 -10q-71 0 -115.5 30.5t-66 78.5t-22.5 100q-1 62 23.5 110.5t70 76t107.5 27.5q55 0 99 -24t69.5 -67t26.5 -103v-11.5v-14.5h-299q0 -57 28.5 -87.5t76.5 -30.5q38 0 63.5 19t30.5 50h99q-4 -43 -28 -78t-65 -55.5t-98 -20.5zM125 239h194q-1 7 -4 22t-13 31
t-29 27t-49 11t-49 -10t-29 -25t-15 -30t-6 -26zM368 556l-85 95v19h86l45 -100v-14h-46zM89 463v8l118 109h43l118 -109v-8h-91l-46 51h-5l-44 -51h-93z" />
    <glyph glyph-name="uni1EC2" unicode="&#x1ec2;" horiz-adv-x="501" 
d="M53 0v563h402v-88h-301v-148h231v-84h-231v-161h311v-82h-412zM109 616v8l118 109h43l118 -109v-8h-91l-46 51h-5l-44 -51h-93zM337 703v15q6 13 21 22.5t29 20t14 28.5q0 12 -9.5 18.5t-22.5 6.5q-12 0 -24 -7t-17 -21l-42 27q9 32 35.5 48t56.5 16q32 0 58.5 -19
t26.5 -58q0 -30 -13 -45.5t-27.5 -26.5t-19.5 -25h-66z" />
    <glyph glyph-name="uni1EC3" unicode="&#x1ec3;" horiz-adv-x="462" 
d="M229 -10q-71 0 -115.5 30.5t-66 78.5t-22.5 100q-1 62 23.5 110.5t70 76t107.5 27.5q55 0 99 -24t69.5 -67t26.5 -103v-11.5v-14.5h-299q0 -57 28.5 -87.5t76.5 -30.5q38 0 63.5 19t30.5 50h99q-4 -43 -28 -78t-65 -55.5t-98 -20.5zM125 239h194q-1 7 -4 22t-13 31
t-29 27t-49 11t-49 -10t-29 -25t-15 -30t-6 -26zM89 463v8l118 109h43l118 -109v-8h-91l-46 51h-5l-44 -51h-93zM317 551v15q6 13 21 22.5t29 20t14 28.5q0 12 -9.5 18.5t-22.5 6.5q-12 0 -24 -7t-17 -21l-42 27q9 32 35.5 48t56.5 16q32 0 58.5 -19t26.5 -58
q0 -30 -13 -45.5t-27.5 -26.5t-19.5 -25h-66z" />
    <glyph glyph-name="uni1EC4" unicode="&#x1ec4;" horiz-adv-x="501" 
d="M53 0v563h402v-88h-301v-148h231v-84h-231v-161h311v-82h-412zM112 616v8l118 109h43l118 -109v-8h-91l-46 51h-5l-44 -51h-93zM114 769q0 14 1 32.5t7.5 37t22.5 30.5t46 12q26 0 41 -8.5t24.5 -19.5t18.5 -19.5t22 -8.5q16 0 19 14.5t3 39.5h60q1 -18 -1 -37.5t-9 -37
t-23 -28t-43 -10.5q-26 0 -41 8.5t-24.5 19.5t-18 19.5t-22.5 8.5q-16 0 -19.5 -13.5t-2.5 -39.5h-61z" />
    <glyph glyph-name="uni1EC5" unicode="&#x1ec5;" horiz-adv-x="462" 
d="M229 -10q-71 0 -115.5 30.5t-66 78.5t-22.5 100q-1 62 23.5 110.5t70 76t107.5 27.5q55 0 99 -24t69.5 -67t26.5 -103v-11.5v-14.5h-299q0 -57 28.5 -87.5t76.5 -30.5q38 0 63.5 19t30.5 50h99q-4 -43 -28 -78t-65 -55.5t-98 -20.5zM125 239h194q-1 7 -4 22t-13 31
t-29 27t-49 11t-49 -10t-29 -25t-15 -30t-6 -26zM93 463v8l118 109h43l118 -109v-8h-91l-46 51h-5l-44 -51h-93zM95 616q0 14 1 32.5t7.5 37t22.5 30.5t46 12q26 0 41 -8.5t24.5 -19.5t18.5 -19.5t22 -8.5q16 0 19 14.5t3 39.5h60q1 -18 -1 -37.5t-9 -37t-23 -28t-43 -10.5
q-26 0 -41 8.5t-24.5 19.5t-18 19.5t-22.5 8.5q-16 0 -19.5 -13.5t-2.5 -39.5h-61z" />
    <glyph glyph-name="uni1EC6" unicode="&#x1ec6;" horiz-adv-x="501" 
d="M53 0v563h402v-88h-301v-148h231v-84h-231v-161h311v-82h-412zM251 -181q-33 0 -44.5 17.5t-11.5 39.5t11.5 38.5t44.5 16.5q34 0 44.5 -16.5t10.5 -38.5t-10.5 -39.5t-44.5 -17.5zM111 618v8l118 109h43l118 -109v-8h-91l-46 51h-5l-44 -51h-93z" />
    <glyph glyph-name="uni1EC7" unicode="&#x1ec7;" horiz-adv-x="462" 
d="M229 -10q-71 0 -115.5 30.5t-66 78.5t-22.5 100q-1 62 23.5 110.5t70 76t107.5 27.5q55 0 99 -24t69.5 -67t26.5 -103v-11.5v-14.5h-299q0 -57 28.5 -87.5t76.5 -30.5q38 0 63.5 19t30.5 50h99q-4 -43 -28 -78t-65 -55.5t-98 -20.5zM125 239h194q-1 7 -4 22t-13 31
t-29 27t-49 11t-49 -10t-29 -25t-15 -30t-6 -26zM232 -181q-33 0 -44.5 17.5t-11.5 39.5t11.5 38.5t44.5 16.5q34 0 44.5 -16.5t10.5 -38.5t-10.5 -39.5t-44.5 -17.5zM92 466v8l118 109h43l118 -109v-8h-91l-46 51h-5l-44 -51h-93z" />
    <glyph glyph-name="uni1EC8" unicode="&#x1ec8;" horiz-adv-x="378" 
d="M136 18v527h101v-527h-101zM60 0v87h251v-87h-251zM60 475v88h251v-88h-251zM152 612v15q6 13 21 22.5t29 20t14 28.5q0 12 -9.5 18.5t-22.5 6.5q-12 0 -24 -7t-17 -21l-42 27q9 32 35.5 48t56.5 16q32 0 58.5 -19t26.5 -58q0 -30 -13 -45.5t-27.5 -26.5t-19.5 -25h-66z
" />
    <glyph glyph-name="uni1EC9" unicode="&#x1ec9;" horiz-adv-x="199" 
d="M48 0v411h102v-411h-102zM65 460v15q6 13 21 22.5t29 20t14 28.5q0 12 -9.5 18.5t-22.5 6.5q-12 0 -24 -7t-17 -21l-42 27q9 32 35.5 48t56.5 16q32 0 58.5 -19t26.5 -58q0 -30 -13 -45.5t-27.5 -26.5t-19.5 -25h-66z" />
    <glyph glyph-name="uni1ECA" unicode="&#x1eca;" horiz-adv-x="378" 
d="M136 18v527h101v-527h-101zM60 0v87h251v-87h-251zM60 475v88h251v-88h-251zM190 -181q-33 0 -44.5 17.5t-11.5 39.5t11.5 38.5t44.5 16.5q34 0 44.5 -16.5t10.5 -38.5t-10.5 -39.5t-44.5 -17.5z" />
    <glyph glyph-name="uni1ECB" unicode="&#x1ecb;" horiz-adv-x="199" 
d="M49 0v411h102v-411h-102zM100 464q-33 0 -44.5 17t-11.5 39t11.5 38.5t44.5 16.5q34 0 44.5 -16.5t10.5 -38.5t-10.5 -39t-44.5 -17zM103 -181q-33 0 -44.5 17.5t-11.5 39.5t11.5 38.5t44.5 16.5q34 0 44.5 -16.5t10.5 -38.5t-10.5 -39.5t-44.5 -17.5z" />
    <glyph glyph-name="uni1ECC" unicode="&#x1ecc;" horiz-adv-x="612" 
d="M298 -14q-136 0 -208 79.5t-72 214.5q0 89 31 154.5t93.5 102t155.5 36.5q137 0 208.5 -79.5t71.5 -213.5q0 -87 -32 -153.5t-94 -103.5t-154 -37zM297 84q61 0 101 25.5t60 70t20 100.5q0 57 -20 101.5t-60 70t-101 25.5q-88 0 -134 -54t-46 -143q0 -55 19.5 -99.5
t59.5 -70.5t101 -26zM307 -181q-33 0 -44.5 17.5t-11.5 39.5t11.5 38.5t44.5 16.5q34 0 44.5 -16.5t10.5 -38.5t-10.5 -39.5t-44.5 -17.5z" />
    <glyph glyph-name="uni1ECD" unicode="&#x1ecd;" horiz-adv-x="472" 
d="M230 -10q-68 0 -114.5 27t-69.5 74.5t-23 108.5q0 62 23 109.5t69.5 74.5t115.5 27q101 0 153.5 -58t52.5 -153q0 -59 -22 -107t-68 -75.5t-117 -27.5zM230 76q45 0 68.5 19t31.5 48.5t8 59.5q0 32 -8 61t-31.5 48.5t-68.5 19.5q-44 0 -67.5 -19.5t-32 -48.5t-8.5 -61
q0 -30 8.5 -59.5t32 -48.5t67.5 -19zM237 -181q-33 0 -44.5 17.5t-11.5 39.5t11.5 38.5t44.5 16.5q34 0 44.5 -16.5t10.5 -38.5t-10.5 -39.5t-44.5 -17.5z" />
    <glyph glyph-name="uni1ECE" unicode="&#x1ece;" horiz-adv-x="612" 
d="M298 -14q-136 0 -208 79.5t-72 214.5q0 89 31 154.5t93.5 102t155.5 36.5q137 0 208.5 -79.5t71.5 -213.5q0 -87 -32 -153.5t-94 -103.5t-154 -37zM297 84q61 0 101 25.5t60 70t20 100.5q0 57 -20 101.5t-60 70t-101 25.5q-88 0 -134 -54t-46 -143q0 -55 19.5 -99.5
t59.5 -70.5t101 -26zM272 612v15q6 13 21 22.5t29 20t14 28.5q0 12 -9.5 18.5t-22.5 6.5q-12 0 -24 -7t-17 -21l-42 27q9 32 35.5 48t56.5 16q32 0 58.5 -19t26.5 -58q0 -30 -13 -45.5t-27.5 -26.5t-19.5 -25h-66z" />
    <glyph glyph-name="uni1ECF" unicode="&#x1ecf;" horiz-adv-x="472" 
d="M230 -10q-68 0 -114.5 27t-69.5 74.5t-23 108.5q0 62 23 109.5t69.5 74.5t115.5 27q101 0 153.5 -58t52.5 -153q0 -59 -22 -107t-68 -75.5t-117 -27.5zM230 76q45 0 68.5 19t31.5 48.5t8 59.5q0 32 -8 61t-31.5 48.5t-68.5 19.5q-44 0 -67.5 -19.5t-32 -48.5t-8.5 -61
q0 -30 8.5 -59.5t32 -48.5t67.5 -19zM202 460v15q6 13 21 22.5t29 20t14 28.5q0 12 -9.5 18.5t-22.5 6.5q-12 0 -24 -7t-17 -21l-42 27q9 32 35.5 48t56.5 16q32 0 58.5 -19t26.5 -58q0 -30 -13 -45.5t-27.5 -26.5t-19.5 -25h-66z" />
    <glyph glyph-name="uni1ED0" unicode="&#x1ed0;" horiz-adv-x="612" 
d="M298 -14q-136 0 -208 79.5t-72 214.5q0 89 31 154.5t93.5 102t155.5 36.5q137 0 208.5 -79.5t71.5 -213.5q0 -87 -32 -153.5t-94 -103.5t-154 -37zM297 84q61 0 101 25.5t60 70t20 100.5q0 57 -20 101.5t-60 70t-101 25.5q-88 0 -134 -54t-46 -143q0 -55 19.5 -99.5
t59.5 -70.5t101 -26zM169 618v8l118 109h43l118 -109v-8h-91l-46 51h-5l-44 -51h-93zM448 709h-46v14l45 100h86v-19z" />
    <glyph glyph-name="uni1ED1" unicode="&#x1ed1;" horiz-adv-x="472" 
d="M230 -10q-68 0 -114.5 27t-69.5 74.5t-23 108.5q0 62 23 109.5t69.5 74.5t115.5 27q101 0 153.5 -58t52.5 -153q0 -59 -22 -107t-68 -75.5t-117 -27.5zM230 76q45 0 68.5 19t31.5 48.5t8 59.5q0 32 -8 61t-31.5 48.5t-68.5 19.5q-44 0 -67.5 -19.5t-32 -48.5t-8.5 -61
q0 -30 8.5 -59.5t32 -48.5t67.5 -19zM99 466v8l118 109h43l118 -109v-8h-91l-46 51h-5l-44 -51h-93zM378 557h-46v14l45 100h86v-19z" />
    <glyph glyph-name="uni1ED2" unicode="&#x1ed2;" horiz-adv-x="612" 
d="M298 -14q-136 0 -208 79.5t-72 214.5q0 89 31 154.5t93.5 102t155.5 36.5q137 0 208.5 -79.5t71.5 -213.5q0 -87 -32 -153.5t-94 -103.5t-154 -37zM297 84q61 0 101 25.5t60 70t20 100.5q0 57 -20 101.5t-60 70t-101 25.5q-88 0 -134 -54t-46 -143q0 -55 19.5 -99.5
t59.5 -70.5t101 -26zM443 708l-85 95v19h86l45 -100v-14h-46zM164 616v8l118 109h43l118 -109v-8h-91l-46 51h-5l-44 -51h-93z" />
    <glyph glyph-name="uni1ED3" unicode="&#x1ed3;" horiz-adv-x="472" 
d="M230 -10q-68 0 -114.5 27t-69.5 74.5t-23 108.5q0 62 23 109.5t69.5 74.5t115.5 27q101 0 153.5 -58t52.5 -153q0 -59 -22 -107t-68 -75.5t-117 -27.5zM230 76q45 0 68.5 19t31.5 48.5t8 59.5q0 32 -8 61t-31.5 48.5t-68.5 19.5q-44 0 -67.5 -19.5t-32 -48.5t-8.5 -61
q0 -30 8.5 -59.5t32 -48.5t67.5 -19zM373 556l-85 95v19h86l45 -100v-14h-46zM94 463v8l118 109h43l118 -109v-8h-91l-46 51h-5l-44 -51h-93z" />
    <glyph glyph-name="uni1ED4" unicode="&#x1ed4;" horiz-adv-x="612" 
d="M298 -14q-136 0 -208 79.5t-72 214.5q0 89 31 154.5t93.5 102t155.5 36.5q137 0 208.5 -79.5t71.5 -213.5q0 -87 -32 -153.5t-94 -103.5t-154 -37zM297 84q61 0 101 25.5t60 70t20 100.5q0 57 -20 101.5t-60 70t-101 25.5q-88 0 -134 -54t-46 -143q0 -55 19.5 -99.5
t59.5 -70.5t101 -26zM164 616v8l118 109h43l118 -109v-8h-91l-46 51h-5l-44 -51h-93zM392 703v15q6 13 21 22.5t29 20t14 28.5q0 12 -9.5 18.5t-22.5 6.5q-12 0 -24 -7t-17 -21l-42 27q9 32 35.5 48t56.5 16q32 0 58.5 -19t26.5 -58q0 -30 -13 -45.5t-27.5 -26.5t-19.5 -25
h-66z" />
    <glyph glyph-name="uni1ED5" unicode="&#x1ed5;" horiz-adv-x="472" 
d="M230 -10q-68 0 -114.5 27t-69.5 74.5t-23 108.5q0 62 23 109.5t69.5 74.5t115.5 27q101 0 153.5 -58t52.5 -153q0 -59 -22 -107t-68 -75.5t-117 -27.5zM230 76q45 0 68.5 19t31.5 48.5t8 59.5q0 32 -8 61t-31.5 48.5t-68.5 19.5q-44 0 -67.5 -19.5t-32 -48.5t-8.5 -61
q0 -30 8.5 -59.5t32 -48.5t67.5 -19zM94 463v8l118 109h43l118 -109v-8h-91l-46 51h-5l-44 -51h-93zM322 551v15q6 13 21 22.5t29 20t14 28.5q0 12 -9.5 18.5t-22.5 6.5q-12 0 -24 -7t-17 -21l-42 27q9 32 35.5 48t56.5 16q32 0 58.5 -19t26.5 -58q0 -30 -13 -45.5
t-27.5 -26.5t-19.5 -25h-66z" />
    <glyph glyph-name="uni1ED6" unicode="&#x1ed6;" horiz-adv-x="612" 
d="M298 -14q-136 0 -208 79.5t-72 214.5q0 89 31 154.5t93.5 102t155.5 36.5q137 0 208.5 -79.5t71.5 -213.5q0 -87 -32 -153.5t-94 -103.5t-154 -37zM297 84q61 0 101 25.5t60 70t20 100.5q0 57 -20 101.5t-60 70t-101 25.5q-88 0 -134 -54t-46 -143q0 -55 19.5 -99.5
t59.5 -70.5t101 -26zM168 616v8l118 109h43l118 -109v-8h-91l-46 51h-5l-44 -51h-93zM170 769q0 14 1 32.5t7.5 37t22.5 30.5t46 12q26 0 41 -8.5t24.5 -19.5t18.5 -19.5t22 -8.5q16 0 19 14.5t3 39.5h60q1 -18 -1 -37.5t-9 -37t-23 -28t-43 -10.5q-26 0 -41 8.5t-24.5 19.5
t-18 19.5t-22.5 8.5q-16 0 -19.5 -13.5t-2.5 -39.5h-61z" />
    <glyph glyph-name="uni1ED7" unicode="&#x1ed7;" horiz-adv-x="472" 
d="M230 -10q-68 0 -114.5 27t-69.5 74.5t-23 108.5q0 62 23 109.5t69.5 74.5t115.5 27q101 0 153.5 -58t52.5 -153q0 -59 -22 -107t-68 -75.5t-117 -27.5zM230 76q45 0 68.5 19t31.5 48.5t8 59.5q0 32 -8 61t-31.5 48.5t-68.5 19.5q-44 0 -67.5 -19.5t-32 -48.5t-8.5 -61
q0 -30 8.5 -59.5t32 -48.5t67.5 -19zM98 463v8l118 109h43l118 -109v-8h-91l-46 51h-5l-44 -51h-93zM100 616q0 14 1 32.5t7.5 37t22.5 30.5t46 12q26 0 41 -8.5t24.5 -19.5t18.5 -19.5t22 -8.5q16 0 19 14.5t3 39.5h60q1 -18 -1 -37.5t-9 -37t-23 -28t-43 -10.5
q-26 0 -41 8.5t-24.5 19.5t-18 19.5t-22.5 8.5q-16 0 -19.5 -13.5t-2.5 -39.5h-61z" />
    <glyph glyph-name="uni1ED8" unicode="&#x1ed8;" horiz-adv-x="612" 
d="M298 -14q-136 0 -208 79.5t-72 214.5q0 89 31 154.5t93.5 102t155.5 36.5q137 0 208.5 -79.5t71.5 -213.5q0 -87 -32 -153.5t-94 -103.5t-154 -37zM297 84q61 0 101 25.5t60 70t20 100.5q0 57 -20 101.5t-60 70t-101 25.5q-88 0 -134 -54t-46 -143q0 -55 19.5 -99.5
t59.5 -70.5t101 -26zM307 -181q-33 0 -44.5 17.5t-11.5 39.5t11.5 38.5t44.5 16.5q34 0 44.5 -16.5t10.5 -38.5t-10.5 -39.5t-44.5 -17.5zM167 618v8l118 109h43l118 -109v-8h-91l-46 51h-5l-44 -51h-93z" />
    <glyph glyph-name="uni1ED9" unicode="&#x1ed9;" horiz-adv-x="472" 
d="M230 -10q-68 0 -114.5 27t-69.5 74.5t-23 108.5q0 62 23 109.5t69.5 74.5t115.5 27q101 0 153.5 -58t52.5 -153q0 -59 -22 -107t-68 -75.5t-117 -27.5zM230 76q45 0 68.5 19t31.5 48.5t8 59.5q0 32 -8 61t-31.5 48.5t-68.5 19.5q-44 0 -67.5 -19.5t-32 -48.5t-8.5 -61
q0 -30 8.5 -59.5t32 -48.5t67.5 -19zM237 -181q-33 0 -44.5 17.5t-11.5 39.5t11.5 38.5t44.5 16.5q34 0 44.5 -16.5t10.5 -38.5t-10.5 -39.5t-44.5 -17.5zM97 466v8l118 109h43l118 -109v-8h-91l-46 51h-5l-44 -51h-93z" />
    <glyph glyph-name="uni1EDA" unicode="&#x1eda;" horiz-adv-x="612" 
d="M298 -14q-136 0 -208 79.5t-72 214.5q0 89 31 154.5t93.5 102t155.5 36.5q137 0 208.5 -79.5t71.5 -213.5q0 -87 -32 -153.5t-94 -103.5t-154 -37zM297 84q61 0 101 25.5t60 70t20 100.5q0 57 -20 101.5t-60 70t-101 25.5q-88 0 -134 -54t-46 -143q0 -55 19.5 -99.5
t59.5 -70.5t101 -26zM373 503l1 60h41q15 0 21 3.5t7.5 14t1.5 32.5h71q0 -41 -10 -65t-33.5 -34.5t-66.5 -10.5h-33zM330 607h-46v14l45 100h86v-19z" />
    <glyph glyph-name="uni1EDB" unicode="&#x1edb;" horiz-adv-x="472" 
d="M230 -10q-68 0 -114.5 27t-69.5 74.5t-23 108.5q0 62 23 109.5t69.5 74.5t115.5 27q101 0 153.5 -58t52.5 -153q0 -59 -22 -107t-68 -75.5t-117 -27.5zM230 76q45 0 68.5 19t31.5 48.5t8 59.5q0 32 -8 61t-31.5 48.5t-68.5 19.5q-44 0 -67.5 -19.5t-32 -48.5t-8.5 -61
q0 -30 8.5 -59.5t32 -48.5t67.5 -19zM275 345l1 60h41q15 0 21 3.5t7.5 14t1.5 32.5h71q0 -41 -10 -65t-33.5 -34.5t-66.5 -10.5h-33zM260 455h-46v14l45 100h86v-19z" />
    <glyph glyph-name="uni1EDC" unicode="&#x1edc;" horiz-adv-x="612" 
d="M298 -14q-136 0 -208 79.5t-72 214.5q0 89 31 154.5t93.5 102t155.5 36.5q137 0 208.5 -79.5t71.5 -213.5q0 -87 -32 -153.5t-94 -103.5t-154 -37zM297 84q61 0 101 25.5t60 70t20 100.5q0 57 -20 101.5t-60 70t-101 25.5q-88 0 -134 -54t-46 -143q0 -55 19.5 -99.5
t59.5 -70.5t101 -26zM373 503l1 60h41q15 0 21 3.5t7.5 14t1.5 32.5h71q0 -41 -10 -65t-33.5 -34.5t-66.5 -10.5h-33zM284 607l-85 95v19h86l45 -100v-14h-46z" />
    <glyph glyph-name="uni1EDD" unicode="&#x1edd;" horiz-adv-x="472" 
d="M230 -10q-68 0 -114.5 27t-69.5 74.5t-23 108.5q0 62 23 109.5t69.5 74.5t115.5 27q101 0 153.5 -58t52.5 -153q0 -59 -22 -107t-68 -75.5t-117 -27.5zM230 76q45 0 68.5 19t31.5 48.5t8 59.5q0 32 -8 61t-31.5 48.5t-68.5 19.5q-44 0 -67.5 -19.5t-32 -48.5t-8.5 -61
q0 -30 8.5 -59.5t32 -48.5t67.5 -19zM275 345l1 60h41q15 0 21 3.5t7.5 14t1.5 32.5h71q0 -41 -10 -65t-33.5 -34.5t-66.5 -10.5h-33zM214 455l-85 95v19h86l45 -100v-14h-46z" />
    <glyph glyph-name="uni1EDE" unicode="&#x1ede;" horiz-adv-x="612" 
d="M298 -14q-136 0 -208 79.5t-72 214.5q0 89 31 154.5t93.5 102t155.5 36.5q137 0 208.5 -79.5t71.5 -213.5q0 -87 -32 -153.5t-94 -103.5t-154 -37zM297 84q61 0 101 25.5t60 70t20 100.5q0 57 -20 101.5t-60 70t-101 25.5q-88 0 -134 -54t-46 -143q0 -55 19.5 -99.5
t59.5 -70.5t101 -26zM373 503l1 60h41q15 0 21 3.5t7.5 14t1.5 32.5h71q0 -41 -10 -65t-33.5 -34.5t-66.5 -10.5h-33zM272 612v15q6 13 21 22.5t29 20t14 28.5q0 12 -9.5 18.5t-22.5 6.5q-12 0 -24 -7t-17 -21l-42 27q9 32 35.5 48t56.5 16q32 0 58.5 -19t26.5 -58
q0 -30 -13 -45.5t-27.5 -26.5t-19.5 -25h-66z" />
    <glyph glyph-name="uni1EDF" unicode="&#x1edf;" horiz-adv-x="472" 
d="M230 -10q-68 0 -114.5 27t-69.5 74.5t-23 108.5q0 62 23 109.5t69.5 74.5t115.5 27q101 0 153.5 -58t52.5 -153q0 -59 -22 -107t-68 -75.5t-117 -27.5zM230 76q45 0 68.5 19t31.5 48.5t8 59.5q0 32 -8 61t-31.5 48.5t-68.5 19.5q-44 0 -67.5 -19.5t-32 -48.5t-8.5 -61
q0 -30 8.5 -59.5t32 -48.5t67.5 -19zM275 345l1 60h41q15 0 21 3.5t7.5 14t1.5 32.5h71q0 -41 -10 -65t-33.5 -34.5t-66.5 -10.5h-33zM202 460v15q6 13 21 22.5t29 20t14 28.5q0 12 -9.5 18.5t-22.5 6.5q-12 0 -24 -7t-17 -21l-42 27q9 32 35.5 48t56.5 16q32 0 58.5 -19
t26.5 -58q0 -30 -13 -45.5t-27.5 -26.5t-19.5 -25h-66z" />
    <glyph glyph-name="uni1EE0" unicode="&#x1ee0;" horiz-adv-x="612" 
d="M298 -14q-136 0 -208 79.5t-72 214.5q0 89 31 154.5t93.5 102t155.5 36.5q137 0 208.5 -79.5t71.5 -213.5q0 -87 -32 -153.5t-94 -103.5t-154 -37zM297 84q61 0 101 25.5t60 70t20 100.5q0 57 -20 101.5t-60 70t-101 25.5q-88 0 -134 -54t-46 -143q0 -55 19.5 -99.5
t59.5 -70.5t101 -26zM373 503l1 60h41q15 0 21 3.5t7.5 14t1.5 32.5h71q0 -41 -10 -65t-33.5 -34.5t-66.5 -10.5h-33zM174 626q0 14 1 32.5t7.5 37t22.5 30.5t46 12q26 0 41 -8.5t24.5 -19.5t18.5 -19.5t22 -8.5q16 0 19 14.5t3 39.5h60q1 -18 -1 -37.5t-9 -37t-23 -28
t-43 -10.5q-26 0 -41 8.5t-24.5 19.5t-18 19.5t-22.5 8.5q-16 0 -19.5 -13.5t-2.5 -39.5h-61z" />
    <glyph glyph-name="uni1EE1" unicode="&#x1ee1;" horiz-adv-x="472" 
d="M230 -10q-68 0 -114.5 27t-69.5 74.5t-23 108.5q0 62 23 109.5t69.5 74.5t115.5 27q101 0 153.5 -58t52.5 -153q0 -59 -22 -107t-68 -75.5t-117 -27.5zM230 76q45 0 68.5 19t31.5 48.5t8 59.5q0 32 -8 61t-31.5 48.5t-68.5 19.5q-44 0 -67.5 -19.5t-32 -48.5t-8.5 -61
q0 -30 8.5 -59.5t32 -48.5t67.5 -19zM275 345l1 60h41q15 0 21 3.5t7.5 14t1.5 32.5h71q0 -41 -10 -65t-33.5 -34.5t-66.5 -10.5h-33zM104 474q0 14 1 32.5t7.5 37t22.5 30.5t46 12q26 0 41 -8.5t24.5 -19.5t18.5 -19.5t22 -8.5q16 0 19 14.5t3 39.5h60q1 -18 -1 -37.5
t-9 -37t-23 -28t-43 -10.5q-26 0 -41 8.5t-24.5 19.5t-18 19.5t-22.5 8.5q-16 0 -19.5 -13.5t-2.5 -39.5h-61z" />
    <glyph glyph-name="uni1EE2" unicode="&#x1ee2;" horiz-adv-x="612" 
d="M298 -14q-136 0 -208 79.5t-72 214.5q0 89 31 154.5t93.5 102t155.5 36.5q137 0 208.5 -79.5t71.5 -213.5q0 -87 -32 -153.5t-94 -103.5t-154 -37zM297 84q61 0 101 25.5t60 70t20 100.5q0 57 -20 101.5t-60 70t-101 25.5q-88 0 -134 -54t-46 -143q0 -55 19.5 -99.5
t59.5 -70.5t101 -26zM373 503l1 60h41q15 0 21 3.5t7.5 14t1.5 32.5h71q0 -41 -10 -65t-33.5 -34.5t-66.5 -10.5h-33zM307 -181q-33 0 -44.5 17.5t-11.5 39.5t11.5 38.5t44.5 16.5q34 0 44.5 -16.5t10.5 -38.5t-10.5 -39.5t-44.5 -17.5z" />
    <glyph glyph-name="uni1EE3" unicode="&#x1ee3;" horiz-adv-x="472" 
d="M230 -10q-68 0 -114.5 27t-69.5 74.5t-23 108.5q0 62 23 109.5t69.5 74.5t115.5 27q101 0 153.5 -58t52.5 -153q0 -59 -22 -107t-68 -75.5t-117 -27.5zM230 76q45 0 68.5 19t31.5 48.5t8 59.5q0 32 -8 61t-31.5 48.5t-68.5 19.5q-44 0 -67.5 -19.5t-32 -48.5t-8.5 -61
q0 -30 8.5 -59.5t32 -48.5t67.5 -19zM275 345l1 60h41q15 0 21 3.5t7.5 14t1.5 32.5h71q0 -41 -10 -65t-33.5 -34.5t-66.5 -10.5h-33zM237 -181q-33 0 -44.5 17.5t-11.5 39.5t11.5 38.5t44.5 16.5q34 0 44.5 -16.5t10.5 -38.5t-10.5 -39.5t-44.5 -17.5z" />
    <glyph glyph-name="uni1EE4" unicode="&#x1ee4;" horiz-adv-x="595" 
d="M298 -14q-119 0 -182 66.5t-63 187.5v323h109v-322q0 -47 11.5 -77.5t31 -48t44 -25t49.5 -7.5q38 0 69 13.5t49.5 48t18.5 96.5v322h108v-323q0 -123 -61.5 -188.5t-183.5 -65.5zM298 -181q-33 0 -44.5 17.5t-11.5 39.5t11.5 38.5t44.5 16.5q34 0 44.5 -16.5t10.5 -38.5
t-10.5 -39.5t-44.5 -17.5z" />
    <glyph glyph-name="uni1EE5" unicode="&#x1ee5;" horiz-adv-x="461" 
d="M180 -10q-43 0 -70.5 14t-43 37t-22.5 51t-9 56.5t-2 52.5v210h99v-210q0 -31 6 -58.5t25.5 -45t59.5 -17.5q39 0 59 17.5t27 45t8 55.5v213h105v-411h-87l-17 78h-2q-2 -6 -10 -20t-23.5 -30t-40.5 -27t-62 -11zM231 -181q-33 0 -44.5 17.5t-11.5 39.5t11.5 38.5
t44.5 16.5q34 0 44.5 -16.5t10.5 -38.5t-10.5 -39.5t-44.5 -17.5z" />
    <glyph glyph-name="uni1EE6" unicode="&#x1ee6;" horiz-adv-x="595" 
d="M298 -14q-119 0 -182 66.5t-63 187.5v323h109v-322q0 -47 11.5 -77.5t31 -48t44 -25t49.5 -7.5q38 0 69 13.5t49.5 48t18.5 96.5v322h108v-323q0 -123 -61.5 -188.5t-183.5 -65.5zM263 612v15q6 13 21 22.5t29 20t14 28.5q0 12 -9.5 18.5t-22.5 6.5q-12 0 -24 -7t-17 -21
l-42 27q9 32 35.5 48t56.5 16q32 0 58.5 -19t26.5 -58q0 -30 -13 -45.5t-27.5 -26.5t-19.5 -25h-66z" />
    <glyph glyph-name="uni1EE7" unicode="&#x1ee7;" horiz-adv-x="461" 
d="M180 -10q-43 0 -70.5 14t-43 37t-22.5 51t-9 56.5t-2 52.5v210h99v-210q0 -31 6 -58.5t25.5 -45t59.5 -17.5q39 0 59 17.5t27 45t8 55.5v213h105v-411h-87l-17 78h-2q-2 -6 -10 -20t-23.5 -30t-40.5 -27t-62 -11zM196 460v15q6 13 21 22.5t29 20t14 28.5q0 12 -9.5 18.5
t-22.5 6.5q-12 0 -24 -7t-17 -21l-42 27q9 32 35.5 48t56.5 16q32 0 58.5 -19t26.5 -58q0 -30 -13 -45.5t-27.5 -26.5t-19.5 -25h-66z" />
    <glyph glyph-name="uni1EE8" unicode="&#x1ee8;" horiz-adv-x="595" 
d="M298 -14q-119 0 -182 66.5t-63 187.5v323h109v-322q0 -47 11.5 -77.5t31 -48t44 -25t49.5 -7.5q38 0 69 13.5t49.5 48t18.5 96.5v322h108v-323q0 -123 -61.5 -188.5t-183.5 -65.5zM500 503l1 60h41q15 0 21 3.5t7.5 14t1.5 32.5h71q0 -41 -10 -65t-33.5 -34.5
t-66.5 -10.5h-33zM321 607h-46v14l45 100h86v-19z" />
    <glyph glyph-name="uni1EE9" unicode="&#x1ee9;" horiz-adv-x="461" 
d="M180 -10q-43 0 -70.5 14t-43 37t-22.5 51t-9 56.5t-2 52.5v210h99v-210q0 -31 6 -58.5t25.5 -45t59.5 -17.5q39 0 59 17.5t27 45t8 55.5v213h105v-411h-87l-17 78h-2q-2 -6 -10 -20t-23.5 -30t-40.5 -27t-62 -11zM363 351l1 60h41q15 0 21 3.5t7.5 14t1.5 32.5h71
q0 -41 -10 -65t-33.5 -34.5t-66.5 -10.5h-33zM254 455h-46v14l45 100h86v-19z" />
    <glyph glyph-name="uni1EEA" unicode="&#x1eea;" horiz-adv-x="595" 
d="M298 -14q-119 0 -182 66.5t-63 187.5v323h109v-322q0 -47 11.5 -77.5t31 -48t44 -25t49.5 -7.5q38 0 69 13.5t49.5 48t18.5 96.5v322h108v-323q0 -123 -61.5 -188.5t-183.5 -65.5zM500 503l1 60h41q15 0 21 3.5t7.5 14t1.5 32.5h71q0 -41 -10 -65t-33.5 -34.5
t-66.5 -10.5h-33zM275 607l-85 95v19h86l45 -100v-14h-46z" />
    <glyph glyph-name="uni1EEB" unicode="&#x1eeb;" horiz-adv-x="461" 
d="M180 -10q-43 0 -70.5 14t-43 37t-22.5 51t-9 56.5t-2 52.5v210h99v-210q0 -31 6 -58.5t25.5 -45t59.5 -17.5q39 0 59 17.5t27 45t8 55.5v213h105v-411h-87l-17 78h-2q-2 -6 -10 -20t-23.5 -30t-40.5 -27t-62 -11zM363 351l1 60h41q15 0 21 3.5t7.5 14t1.5 32.5h71
q0 -41 -10 -65t-33.5 -34.5t-66.5 -10.5h-33zM208 455l-85 95v19h86l45 -100v-14h-46z" />
    <glyph glyph-name="uni1EEC" unicode="&#x1eec;" horiz-adv-x="595" 
d="M298 -14q-119 0 -182 66.5t-63 187.5v323h109v-322q0 -47 11.5 -77.5t31 -48t44 -25t49.5 -7.5q38 0 69 13.5t49.5 48t18.5 96.5v322h108v-323q0 -123 -61.5 -188.5t-183.5 -65.5zM500 503l1 60h41q15 0 21 3.5t7.5 14t1.5 32.5h71q0 -41 -10 -65t-33.5 -34.5
t-66.5 -10.5h-33zM263 612v15q6 13 21 22.5t29 20t14 28.5q0 12 -9.5 18.5t-22.5 6.5q-12 0 -24 -7t-17 -21l-42 27q9 32 35.5 48t56.5 16q32 0 58.5 -19t26.5 -58q0 -30 -13 -45.5t-27.5 -26.5t-19.5 -25h-66z" />
    <glyph glyph-name="uni1EED" unicode="&#x1eed;" horiz-adv-x="461" 
d="M180 -10q-43 0 -70.5 14t-43 37t-22.5 51t-9 56.5t-2 52.5v210h99v-210q0 -31 6 -58.5t25.5 -45t59.5 -17.5q39 0 59 17.5t27 45t8 55.5v213h105v-411h-87l-17 78h-2q-2 -6 -10 -20t-23.5 -30t-40.5 -27t-62 -11zM363 351l1 60h41q15 0 21 3.5t7.5 14t1.5 32.5h71
q0 -41 -10 -65t-33.5 -34.5t-66.5 -10.5h-33zM196 460v15q6 13 21 22.5t29 20t14 28.5q0 12 -9.5 18.5t-22.5 6.5q-12 0 -24 -7t-17 -21l-42 27q9 32 35.5 48t56.5 16q32 0 58.5 -19t26.5 -58q0 -30 -13 -45.5t-27.5 -26.5t-19.5 -25h-66z" />
    <glyph glyph-name="uni1EEE" unicode="&#x1eee;" horiz-adv-x="595" 
d="M298 -14q-119 0 -182 66.5t-63 187.5v323h109v-322q0 -47 11.5 -77.5t31 -48t44 -25t49.5 -7.5q38 0 69 13.5t49.5 48t18.5 96.5v322h108v-323q0 -123 -61.5 -188.5t-183.5 -65.5zM500 503l1 60h41q15 0 21 3.5t7.5 14t1.5 32.5h71q0 -41 -10 -65t-33.5 -34.5
t-66.5 -10.5h-33zM165 626q0 14 1 32.5t7.5 37t22.5 30.5t46 12q26 0 41 -8.5t24.5 -19.5t18.5 -19.5t22 -8.5q16 0 19 14.5t3 39.5h60q1 -18 -1 -37.5t-9 -37t-23 -28t-43 -10.5q-26 0 -41 8.5t-24.5 19.5t-18 19.5t-22.5 8.5q-16 0 -19.5 -13.5t-2.5 -39.5h-61z" />
    <glyph glyph-name="uni1EEF" unicode="&#x1eef;" horiz-adv-x="461" 
d="M180 -10q-43 0 -70.5 14t-43 37t-22.5 51t-9 56.5t-2 52.5v210h99v-210q0 -31 6 -58.5t25.5 -45t59.5 -17.5q39 0 59 17.5t27 45t8 55.5v213h105v-411h-87l-17 78h-2q-2 -6 -10 -20t-23.5 -30t-40.5 -27t-62 -11zM363 351l1 60h41q15 0 21 3.5t7.5 14t1.5 32.5h71
q0 -41 -10 -65t-33.5 -34.5t-66.5 -10.5h-33zM98 474q0 14 1 32.5t7.5 37t22.5 30.5t46 12q26 0 41 -8.5t24.5 -19.5t18.5 -19.5t22 -8.5q16 0 19 14.5t3 39.5h60q1 -18 -1 -37.5t-9 -37t-23 -28t-43 -10.5q-26 0 -41 8.5t-24.5 19.5t-18 19.5t-22.5 8.5q-16 0 -19.5 -13.5
t-2.5 -39.5h-61z" />
    <glyph glyph-name="uni1EF0" unicode="&#x1ef0;" horiz-adv-x="595" 
d="M298 -14q-119 0 -182 66.5t-63 187.5v323h109v-322q0 -47 11.5 -77.5t31 -48t44 -25t49.5 -7.5q38 0 69 13.5t49.5 48t18.5 96.5v322h108v-323q0 -123 -61.5 -188.5t-183.5 -65.5zM500 503l1 60h41q15 0 21 3.5t7.5 14t1.5 32.5h71q0 -41 -10 -65t-33.5 -34.5
t-66.5 -10.5h-33zM298 -181q-33 0 -44.5 17.5t-11.5 39.5t11.5 38.5t44.5 16.5q34 0 44.5 -16.5t10.5 -38.5t-10.5 -39.5t-44.5 -17.5z" />
    <glyph glyph-name="uni1EF1" unicode="&#x1ef1;" horiz-adv-x="461" 
d="M180 -10q-43 0 -70.5 14t-43 37t-22.5 51t-9 56.5t-2 52.5v210h99v-210q0 -31 6 -58.5t25.5 -45t59.5 -17.5q39 0 59 17.5t27 45t8 55.5v213h105v-411h-87l-17 78h-2q-2 -6 -10 -20t-23.5 -30t-40.5 -27t-62 -11zM363 351l1 60h41q15 0 21 3.5t7.5 14t1.5 32.5h71
q0 -41 -10 -65t-33.5 -34.5t-66.5 -10.5h-33zM231 -181q-33 0 -44.5 17.5t-11.5 39.5t11.5 38.5t44.5 16.5q34 0 44.5 -16.5t10.5 -38.5t-10.5 -39.5t-44.5 -17.5z" />
    <glyph glyph-name="Ygrave" unicode="&#x1ef2;" horiz-adv-x="447" 
d="M171 198l-192 365h114l131 -275l129 275h114l-196 -365h-100zM171 0v211h101v-211h-101zM201 607l-85 95v19h86l45 -100v-14h-46z" />
    <glyph glyph-name="ygrave" unicode="&#x1ef3;" horiz-adv-x="441" 
d="M-2 -191v79h63q15 0 26.5 3t22.5 15.5t24 40.5l27 60l-160 404h105l105 -299l113 299h105l-202 -474q-18 -42 -33.5 -67.5t-31.5 -38.5t-37 -17.5t-49 -4.5h-78zM198 455l-85 95v19h86l45 -100v-14h-46z" />
    <glyph glyph-name="uni1EF4" unicode="&#x1ef4;" horiz-adv-x="447" 
d="M171 198l-192 365h114l131 -275l129 275h114l-196 -365h-100zM171 0v211h101v-211h-101zM222 -181q-33 0 -44.5 17.5t-11.5 39.5t11.5 38.5t44.5 16.5q34 0 44.5 -16.5t10.5 -38.5t-10.5 -39.5t-44.5 -17.5z" />
    <glyph glyph-name="uni1EF5" unicode="&#x1ef5;" horiz-adv-x="441" 
d="M-2 -191v79h63q15 0 26.5 3t22.5 15.5t24 40.5l27 60l-160 404h105l105 -299l113 299h105l-202 -474q-18 -42 -33.5 -67.5t-31.5 -38.5t-37 -17.5t-49 -4.5h-78zM341 -181q-33 0 -44.5 17.5t-11.5 39.5t11.5 38.5t44.5 16.5q34 0 44.5 -16.5t10.5 -38.5t-10.5 -39.5
t-44.5 -17.5z" />
    <glyph glyph-name="uni1EF6" unicode="&#x1ef6;" horiz-adv-x="447" 
d="M171 198l-192 365h114l131 -275l129 275h114l-196 -365h-100zM171 0v211h101v-211h-101zM189 612v15q6 13 21 22.5t29 20t14 28.5q0 12 -9.5 18.5t-22.5 6.5q-12 0 -24 -7t-17 -21l-42 27q9 32 35.5 48t56.5 16q32 0 58.5 -19t26.5 -58q0 -30 -13 -45.5t-27.5 -26.5
t-19.5 -25h-66z" />
    <glyph glyph-name="uni1EF7" unicode="&#x1ef7;" horiz-adv-x="441" 
d="M-2 -191v79h63q15 0 26.5 3t22.5 15.5t24 40.5l27 60l-160 404h105l105 -299l113 299h105l-202 -474q-18 -42 -33.5 -67.5t-31.5 -38.5t-37 -17.5t-49 -4.5h-78zM186 460v15q6 13 21 22.5t29 20t14 28.5q0 12 -9.5 18.5t-22.5 6.5q-12 0 -24 -7t-17 -21l-42 27
q9 32 35.5 48t56.5 16q32 0 58.5 -19t26.5 -58q0 -30 -13 -45.5t-27.5 -26.5t-19.5 -25h-66z" />
    <glyph glyph-name="uni1EF8" unicode="&#x1ef8;" horiz-adv-x="447" 
d="M171 198l-192 365h114l131 -275l129 275h114l-196 -365h-100zM171 0v211h101v-211h-101zM91 626q0 14 1 32.5t7.5 37t22.5 30.5t46 12q26 0 41 -8.5t24.5 -19.5t18.5 -19.5t22 -8.5q16 0 19 14.5t3 39.5h60q1 -18 -1 -37.5t-9 -37t-23 -28t-43 -10.5q-26 0 -41 8.5
t-24.5 19.5t-18 19.5t-22.5 8.5q-16 0 -19.5 -13.5t-2.5 -39.5h-61z" />
    <glyph glyph-name="uni1EF9" unicode="&#x1ef9;" horiz-adv-x="441" 
d="M-2 -191v79h63q15 0 26.5 3t22.5 15.5t24 40.5l27 60l-160 404h105l105 -299l113 299h105l-202 -474q-18 -42 -33.5 -67.5t-31.5 -38.5t-37 -17.5t-49 -4.5h-78zM88 474q0 14 1 32.5t7.5 37t22.5 30.5t46 12q26 0 41 -8.5t24.5 -19.5t18.5 -19.5t22 -8.5q16 0 19 14.5
t3 39.5h60q1 -18 -1 -37.5t-9 -37t-23 -28t-43 -10.5q-26 0 -41 8.5t-24.5 19.5t-18 19.5t-22.5 8.5q-16 0 -19.5 -13.5t-2.5 -39.5h-61z" />
    <glyph glyph-name="endash" unicode="&#x2013;" horiz-adv-x="424" 
d="M40 189v71h329v-71h-329z" />
    <glyph glyph-name="emdash" unicode="&#x2014;" horiz-adv-x="577" 
d="M40 189v71h482v-71h-482z" />
    <glyph glyph-name="quoteleft" unicode="&#x2018;" horiz-adv-x="240" 
d="M100 321q-31 0 -44 16.5t-13 41.5q0 23 11.5 39.5t43.5 16.5q33 0 46 -17t13 -40q0 -24 -13 -40.5t-44 -16.5zM43 377q0 6 1.5 27t8.5 47.5t21.5 52.5t40 42.5t65.5 16.5v-86q-34 0 -53.5 -10t-29 -25t-12 -29.5t-1.5 -25l1 -10.5h-42z" />
    <glyph glyph-name="quoteright" unicode="&#x2019;" horiz-adv-x="219" 
d="M35 321v85q34 0 53.5 10.5t29 25t12 29.5t1.5 25l-1 10h42q0 -6 -1.5 -26.5t-8 -47t-21.5 -52.5t-40.5 -42.5t-65.5 -16.5zM117 449q-32 0 -45 16.5t-13 40.5t12.5 40.5t43.5 16.5q32 0 44.5 -16.5t12.5 -41.5q0 -23 -11.5 -39.5t-43.5 -16.5z" />
    <glyph glyph-name="quotesinglbase" unicode="&#x201a;" horiz-adv-x="234" 
d="M48 -93v86q34 0 53.5 10t29 25t12 30t1.5 25l-1 10h42q0 -6 -1.5 -26.5t-8 -47.5t-21.5 -52.5t-40.5 -42.5t-65.5 -17zM131 35q-33 0 -46 17t-13 40q0 24 12.5 41t44.5 17q31 0 43.5 -16.5t12.5 -41.5q0 -23 -11 -40t-43 -17z" />
    <glyph glyph-name="quotedblleft" unicode="&#x201c;" horiz-adv-x="394" 
d="M204 377q0 6 1.5 27t8 47.5t21.5 52.5t40.5 42.5t65.5 16.5v-86q-34 0 -53.5 -10t-29 -25t-12 -29.5t-1.5 -25l1 -10.5h-42zM100 321q-31 0 -44 16.5t-13 41.5q0 23 11.5 39.5t43.5 16.5q33 0 46 -17t13 -40q0 -24 -13 -40.5t-44 -16.5zM43 377q0 6 1.5 27t8.5 47.5
t21.5 52.5t40 42.5t65.5 16.5v-86q-34 0 -53.5 -10t-29 -25t-12 -29.5t-1.5 -25l1 -10.5h-42zM261 321q-32 0 -44.5 16.5t-12.5 41.5q0 23 11.5 39.5t43.5 16.5t45 -17t13 -40q0 -24 -12.5 -40.5t-43.5 -16.5z" />
    <glyph glyph-name="quotedblright" unicode="&#x201d;" horiz-adv-x="394" 
d="M204 321v85q34 0 53.5 10.5t29 25t12 29.5t1.5 25l-1 10h42q0 -6 -1.5 -26.5t-8 -47t-21.5 -52.5t-40.5 -42.5t-65.5 -16.5zM43 321v85q34 0 53.5 10.5t29 25t12 29.5t1.5 25l-1 10h42q0 -6 -1.5 -26.5t-8 -47t-21.5 -52.5t-40.5 -42.5t-65.5 -16.5zM125 449
q-32 0 -45 16.5t-13 40.5t12.5 40.5t44.5 16.5q31 0 43.5 -16.5t12.5 -41.5q0 -23 -11 -39.5t-44 -16.5zM286 449q-32 0 -45 16.5t-13 40.5t12.5 40.5t43.5 16.5q32 0 44.5 -16.5t12.5 -41.5q0 -23 -11.5 -39.5t-43.5 -16.5z" />
    <glyph glyph-name="quotedblbase" unicode="&#x201e;" horiz-adv-x="372" 
d="M35 -93v86q34 0 53.5 10t29 25t12 30t1.5 25l-1 10h42q0 -6 -1.5 -26.5t-8 -47.5t-21.5 -52.5t-40.5 -42.5t-65.5 -17zM117 35q-32 0 -45 17t-13 41q0 23 12.5 40t43.5 17q32 0 44.5 -16.5t12.5 -41.5q0 -23 -11.5 -40t-43.5 -17zM196 -93v86q34 0 53.5 10t29 25t12 30
t1.5 25l-1 10h42q0 -6 -1.5 -26.5t-8.5 -47.5t-21.5 -52.5t-40 -42.5t-65.5 -17zM278 35q-33 0 -46 17t-13 41q0 23 13 40t44 17t44 -16.5t13 -41.5q0 -23 -11.5 -40t-43.5 -17z" />
    <glyph glyph-name="bullet" unicode="&#x2022;" horiz-adv-x="262" 
d="M119 190q-44 0 -59 21.5t-15 51.5q0 29 15 50.5t59 21.5q43 0 57.5 -21.5t14.5 -49.5q0 -31 -14.5 -52.5t-57.5 -21.5z" />
    <glyph glyph-name="ellipsis" unicode="&#x2026;" horiz-adv-x="621" 
d="M112 0q-36 0 -48 18t-12 44q0 24 12.5 42t47.5 18t47.5 -18t12.5 -42q0 -26 -12.5 -44t-47.5 -18zM310 0q-36 0 -48.5 18t-12.5 44q0 24 12.5 42t48.5 18q34 0 46 -18t12 -43t-12 -43t-46 -18zM507 0q-36 0 -48.5 18t-12.5 44q0 24 12.5 42t48.5 18q34 0 46.5 -18
t12.5 -42q0 -26 -12.5 -44t-46.5 -18z" />
    <glyph glyph-name="perthousand" unicode="&#x2030;" horiz-adv-x="806" 
d="M128 0l-70 50l234 251l191 262l70 -49l-227 -241zM473 -10q-56 0 -81.5 32.5t-25.5 88.5q0 53 25 85.5t82 32.5t83 -32.5t26 -86.5q0 -52 -26 -86t-83 -34zM471 54q26 0 36.5 16.5t10.5 39.5q0 25 -10.5 41.5t-36.5 16.5q-23 0 -34 -16t-11 -42q0 -23 11 -39.5t34 -16.5z
M135 334q-56 0 -82 32.5t-26 85.5q0 55 25.5 88t82.5 33t83.5 -33t26.5 -88q0 -51 -26.5 -84.5t-83.5 -33.5zM134 398q25 0 35 16t10 40q0 25 -10 41.5t-35 16.5q-24 0 -34.5 -16t-10.5 -42q0 -24 10.5 -40t34.5 -16zM730 -10q-55 0 -81 32.5t-26 88.5q0 53 25.5 85.5
t81.5 32.5q58 0 83.5 -32.5t25.5 -86.5q0 -52 -25.5 -86t-83.5 -34zM729 54q26 0 36 16.5t10 39.5q0 25 -10 41.5t-36 16.5q-24 0 -34.5 -16t-10.5 -42q0 -23 10.5 -39.5t34.5 -16.5z" />
    <glyph glyph-name="guilsinglleft" unicode="&#x2039;" horiz-adv-x="409" 
d="M369 406v-81l-252 -92l252 -91v-82l-329 173z" />
    <glyph glyph-name="guilsinglright" unicode="&#x203a;" horiz-adv-x="417" 
d="M43 406l329 -173l-329 -173v82l252 91l-252 92v81z" />
    <glyph glyph-name="fraction" unicode="&#x2044;" horiz-adv-x="194" 
d="M-93 5l-47 38l225 258l202 260l47 -38l-215 -250z" />
    <glyph glyph-name="uni2074" unicode="&#x2074;" horiz-adv-x="257" 
d="M15 464v47q35 15 58.5 45t35.5 66t12 66h60q0 -47 -29.5 -95.5t-81.5 -81.5h172v-47h-227zM154 411v138h55v-138h-55z" />
    <glyph glyph-name="Euro" unicode="&#x20ac;" horiz-adv-x="637" 
d="M346 -10q-72 0 -130.5 32.5t-93 96.5t-34.5 160q0 94 34.5 159.5t93.5 100t133 34.5t124.5 -28t80.5 -76t39 -109l-103 -17q-12 66 -44 101t-97 35q-51 0 -85.5 -25t-52 -69t-17.5 -103q0 -95 38 -145t115 -50q60 0 96.5 35t47.5 101l104 -16q-9 -62 -39.5 -111
t-82 -77.5t-127.5 -28.5zM362 200h-325v58h340zM37 306v56h370l-15 -58z" />
    <glyph glyph-name="trademark" unicode="&#x2122;" horiz-adv-x="465" 
d="M196 354v208h76l41 -189l42 189h75v-208h-46l4 189l-43 -189h-64l-42 189l2 -189h-45zM55 354v172h-67v36h176v-36h-66v-172h-43z" />
    <glyph glyph-name="oneeighth" unicode="&#x215b;" horiz-adv-x="636" 
d="M75 305v212q-5 -24 -18 -36.5t-25.5 -17t-16.5 -4.5v60q5 0 20 1.5t29.5 12.5t15.5 37h49v-265h-54zM29 293v48h137v-48h-137zM88 5l-47 38l225 258l202 260l47 -38l-215 -250zM504 -13q-48 0 -81 21.5t-33 60.5q0 27 18 47t50 27q-23 3 -34 14t-15 24t-4 21
q0 34 27.5 54.5t71.5 20.5q46 0 73 -21t27 -54q0 -8 -3.5 -21t-14.5 -24t-35 -14q33 -7 51 -26.5t18 -47.5q0 -40 -33 -61t-83 -21zM505 30q29 0 46 13.5t17 34.5q0 25 -17 37t-46 12t-46 -12t-17 -37q0 -21 17 -34.5t46 -13.5zM504 154q25 0 39 10t14 28q0 21 -14.5 31.5
t-38.5 10.5q-23 0 -37 -10.5t-14 -31.5q0 -18 14.5 -28t36.5 -10z" />
    <glyph glyph-name="threeeighths" unicode="&#x215c;" horiz-adv-x="701" 
d="M128 280q-50 0 -81.5 25.5t-31.5 75.5l51 7q1 -29 18 -45.5t45 -16.5q23 0 38 13t15 32q0 15 -8 24.5t-19.5 14.5t-24.5 5h-29v28h31q18 0 32.5 10t14.5 28q0 20 -14.5 32.5t-39.5 12.5q-19 0 -31 -8t-18.5 -20t-6.5 -24l-48 8q0 8 4.5 22t16.5 29.5t32 26t50 10.5
q49 0 75.5 -21.5t26.5 -56.5q0 -23 -13 -42t-39 -23q26 -2 41.5 -21t15.5 -45q0 -36 -29 -58.5t-74 -22.5zM153 5l-47 38l225 258l202 260l47 -38l-215 -250zM569 -13q-48 0 -81 21.5t-33 60.5q0 27 18 47t50 27q-23 3 -34 14t-15 24t-4 21q0 34 27.5 54.5t71.5 20.5
q46 0 73 -21t27 -54q0 -8 -3.5 -21t-14.5 -24t-35 -14q33 -7 51 -26.5t18 -47.5q0 -40 -33 -61t-83 -21zM570 30q29 0 46 13.5t17 34.5q0 25 -17 37t-46 12t-46 -12t-17 -37q0 -21 17 -34.5t46 -13.5zM569 154q25 0 39 10t14 28q0 21 -14.5 31.5t-38.5 10.5q-23 0 -37 -10.5
t-14 -31.5q0 -18 14.5 -28t36.5 -10z" />
    <glyph glyph-name="fiveeighths" unicode="&#x215d;" horiz-adv-x="700" 
d="M122 280q-33 0 -56 12t-35.5 30t-15.5 37l54 8q1 -4 6 -14t17 -18.5t32 -8.5q25 0 38.5 15.5t15.5 33.5q1 20 -12 37t-41 17q-17 0 -27 -6.5t-14.5 -12t-4.5 -6.5l-56 9l14 144h181v-47h-143l-9 -81l7.5 9t24 18t42.5 9q49 0 71 -27.5t20 -62.5q-2 -36 -31 -65.5
t-78 -29.5zM153 5l-47 38l225 258l202 260l47 -38l-215 -250zM569 -13q-48 0 -81 21.5t-33 60.5q0 27 18 47t50 27q-23 3 -34 14t-15 24t-4 21q0 34 27.5 54.5t71.5 20.5q46 0 73 -21t27 -54q0 -8 -3.5 -21t-14.5 -24t-35 -14q33 -7 51 -26.5t18 -47.5q0 -40 -33 -61
t-83 -21zM570 30q29 0 46 13.5t17 34.5q0 25 -17 37t-46 12t-46 -12t-17 -37q0 -21 17 -34.5t46 -13.5zM569 154q25 0 39 10t14 28q0 21 -14.5 31.5t-38.5 10.5q-23 0 -37 -10.5t-14 -31.5q0 -18 14.5 -28t36.5 -10z" />
    <glyph glyph-name="seveneighths" unicode="&#x215e;" horiz-adv-x="699" 
d="M59 293q0 85 32 138t87 78h-163v48h214v-47q-15 -7 -34.5 -20.5t-37.5 -37.5t-30.5 -62.5t-12.5 -96.5h-55zM151 5l-47 38l225 258l202 260l47 -38l-215 -250zM567 -13q-48 0 -81 21.5t-33 60.5q0 27 18 47t50 27q-23 3 -34 14t-15 24t-4 21q0 34 27.5 54.5t71.5 20.5
q46 0 73 -21t27 -54q0 -8 -3.5 -21t-14.5 -24t-35 -14q33 -7 51 -26.5t18 -47.5q0 -40 -33 -61t-83 -21zM568 30q29 0 46 13.5t17 34.5q0 25 -17 37t-46 12t-46 -12t-17 -37q0 -21 17 -34.5t46 -13.5zM567 154q25 0 39 10t14 28q0 21 -14.5 31.5t-38.5 10.5q-23 0 -37 -10.5
t-14 -31.5q0 -18 14.5 -28t36.5 -10z" />
    <glyph glyph-name="arrowleft" unicode="&#x2190;" horiz-adv-x="412" 
d="M35 189v79q43 0 66 14t33.5 33t13 34t2.5 16h63q0 -1 -2 -19t-10 -44t-27 -52t-52.5 -43.5t-86.5 -17.5zM150 92q0 2 -2.5 16.5t-13 33.5t-33.5 33t-66 14v79q53 0 86.5 -18t52.5 -43.5t27 -52t10 -44.5l2 -18h-63zM35 189v79h342v-79h-342z" />
    <glyph glyph-name="arrowup" unicode="&#x2191;" horiz-adv-x="343" 
d="M308 269l-18 2t-44.5 10t-52 27t-43.5 52.5t-18 86.5h79q0 -43 14 -66t33 -33.5t34 -13t16 -2.5v-63zM132 105v342h79v-342h-79zM35 269v63q2 0 16.5 2.5t33.5 13t33 33.5t14 66h79q0 -53 -17.5 -86.5t-43.5 -52.5t-52 -27t-44 -10t-19 -2z" />
    <glyph glyph-name="arrowright" unicode="&#x2192;" horiz-adv-x="412" 
d="M377 189q-53 0 -86.5 17.5t-52.5 43.5t-27 52t-10 44t-2 19h63q0 -1 2.5 -16t13 -34t33.5 -33t66 -14v-79zM35 189v79h342v-79h-342zM199 92l2 18t10 44.5t27 52t52.5 43.5t86.5 18v-79q-43 0 -66 -14t-33.5 -33t-13 -33.5t-2.5 -16.5h-63z" />
    <glyph glyph-name="arrowdown" unicode="&#x2193;" horiz-adv-x="343" 
d="M132 105q0 53 18 86.5t43.5 52.5t52 27t44.5 10l18 2v-63q-1 0 -16 -2.5t-34 -13t-33 -33.5t-14 -66h-79zM132 105q0 43 -14 66t-33 33.5t-33.5 13t-16.5 2.5v63q1 0 19 -2t44 -10t52 -27t43.5 -52.5t17.5 -86.5h-79zM132 105v342h79v-342h-79z" />
    <glyph glyph-name="arrowboth" unicode="&#x2194;" horiz-adv-x="534" 
d="M499 188q-53 0 -86.5 17.5t-52 44t-27 52t-10 43.5t-1.5 19h63q0 -1 2 -16t12.5 -34t34 -33t65.5 -14v-79zM150 91q0 2 -2.5 16.5t-13 33.5t-33.5 33t-66 14v79q53 0 86.5 -17.5t52.5 -43.5t27 -52.5t10 -44.5l2 -18h-63zM35 188v79q43 0 66 14t33.5 33t13 34t2.5 16h63
q0 -1 -2 -19t-10 -43.5t-27 -52t-52.5 -44t-86.5 -17.5zM35 188v79h342v-79h-342zM157 188v79h342v-79h-342zM322 91l1.5 18t10 44.5t27 52.5t52 43.5t86.5 17.5v-79q-42 0 -65.5 -14t-34 -33t-12.5 -33.5t-2 -16.5h-63z" />
    <glyph glyph-name="arrowupdn" unicode="&#x2195;" horiz-adv-x="343" 
d="M308 269l-18 2t-44.5 10t-52 27t-43.5 52.5t-18 86.5h79q0 -43 14 -66t33 -33.5t34 -13t16 -2.5v-63zM132 -17q0 42 -14 65.5t-33 34t-33.5 12.5t-16.5 2v63q1 0 19 -1.5t44 -10t52 -27t43.5 -52t17.5 -86.5h-79zM132 -17q0 53 18 86.5t43.5 52t52 27t44.5 10l18 1.5v-63
q-1 0 -16 -2t-34 -12.5t-33 -34t-14 -65.5h-79zM132 -17v342h79v-342h-79zM132 105v342h79v-342h-79zM35 269v63q2 0 16.5 2.5t33.5 13t33 33.5t14 66h79q0 -53 -17.5 -86.5t-43.5 -52.5t-52 -27t-44 -10t-19 -2z" />
    <glyph glyph-name="uni2196" unicode="&#x2196;" horiz-adv-x="383" 
d="M275 126l-252 251l58 53l252 -251zM80 182l-44 45q1 1 10.5 12.5t16 31.5t-0.5 47t-39 59l58 53q38 -38 49.5 -73.5t5.5 -67t-19 -55.5t-25 -38zM274 375q-1 -1 -15 -12t-38 -23.5t-56 -17.5t-68 6.5t-74 48.5l58 53q32 -32 58.5 -38t46.5 1t31 16.5t12 10.5z" />
    <glyph glyph-name="uni2197" unicode="&#x2197;" horiz-adv-x="383" 
d="M82 126l-59 53l252 251l58 -53zM276 182l-12 14t-25 38t-18.5 55.5t5.5 67t49 73.5l58 -53q-32 -32 -39 -59t-0.5 -47t16 -31.5t10.5 -12.5zM82 375l45 45q1 -1 12.5 -10.5t31 -16.5t46 -1t58.5 38l58 -53q-38 -37 -74 -48.5t-67.5 -6.5t-56 17.5t-38.5 23.5t-15 12z" />
    <glyph glyph-name="uni2198" unicode="&#x2198;" horiz-adv-x="383" 
d="M290 118l-255 254l58 53l255 -254zM290 118q-32 31 -58.5 37.5t-46.5 -0.5t-31 -16.5t-12 -10.5l-44 44q0 1 14 12.5t38.5 23.5t56 17.5t67.5 -6t74 -48.5zM290 118q-38 37 -49 73t-5.5 67.5t18.5 55.5t25 37.5l12 13.5l44 -44q-1 -1 -10.5 -12.5t-16 -31.5t0.5 -47
t39 -59z" />
    <glyph glyph-name="uni2199" unicode="&#x2199;" horiz-adv-x="508" 
d="M93 118l-58 53l255 254l58 -53zM93 118l-58 53q32 32 39 59t0.5 47t-16 31.5t-10.5 12.5l44 44l12 -13.5t25 -37.5t18.5 -55.5t-5.5 -67.5t-49 -73zM93 118l-58 53q38 37 74 48.5t67.5 6t56 -17.5t38.5 -23.5t14 -12.5l-44 -44q-1 1 -12 10.5t-31 16.5t-46.5 0.5
t-58.5 -37.5z" />
    <glyph glyph-name="uni21A9" unicode="&#x21a9;" horiz-adv-x="468" 
d="M35 212v26q42 0 65 14t33.5 33t13 34t2.5 16h25q0 -1 -1.5 -13.5t-8 -30.5t-21.5 -36.5t-41 -30.5t-67 -12zM433 212h-398v26h398v-26zM174 115h-25q0 2 -2.5 16.5t-13 33.5t-33.5 33t-65 14v26q41 0 67 -12.5t41 -30.5t21.5 -36.5t8 -31zM405 404h28v-192h-28v192z" />
    <glyph glyph-name="carriagereturn" unicode="&#x21b5;" horiz-adv-x="468" 
d="M35 212v26q42 0 65 14t33.5 33t13 34t2.5 16h25q0 -1 -1.5 -13.5t-8 -30.5t-21.5 -36.5t-41 -30.5t-67 -12zM433 212h-398v26h398v-26zM174 115h-25q0 2 -2.5 16.5t-13 33.5t-33.5 33t-65 14v26q41 0 67 -12.5t41 -30.5t21.5 -36.5t8 -31zM405 404h28v-192h-28v192z" />
    <glyph glyph-name="minus" unicode="&#x2212;" horiz-adv-x="397" 
d="M87 189v71h222v-71h-222z" />
    <glyph glyph-name="uni2215" unicode="&#x2215;" horiz-adv-x="386" 
d="M25 0l254 563h97l-254 -563h-97z" />
    <glyph glyph-name="notequal" unicode="&#x2260;" horiz-adv-x="397" 
d="M66 30l158 353h97l-158 -353h-97zM45 101v68h307v-68h-307zM45 242v68h307v-68h-307z" />
    <glyph glyph-name="uni240D" unicode="&#x240d;" horiz-adv-x="590" 
d="M168 180q-55 0 -91.5 35.5t-36.5 105.5t36 104.5t94 34.5q44 0 76 -23.5t41 -73.5h-13q-8 41 -35 63.5t-69 22.5q-53 0 -85.5 -33t-32.5 -95q0 -64 32 -96.5t84 -32.5q46 0 73.5 22.5t34.5 62.5h14q-9 -48 -41 -72.5t-81 -24.5zM339 184v268h78q50 0 76.5 -15t26.5 -59
q0 -25 -15.5 -46.5t-48.5 -21.5q28 0 39 -13.5t12.5 -33t1 -38t3 -28.5t19.5 -5v-11l-8.5 -0.5t-17 5.5t-8.5 27q0 39 -4 58t-17.5 25.5t-43 6.5h-80.5v-119h-13zM352 316h77q40 0 59.5 14t19.5 48q0 39 -23.5 50t-67.5 11h-65v-123z" />
    <glyph glyph-name="I.ss01" horiz-adv-x="501" 
d="M205 -67q-1 127 -1.5 211t-6.5 133.5t-23.5 74t-50 32.5t-88.5 8v83q63 0 98 11t50 36.5t18.5 68t3.5 106.5h84q0 -64 3.5 -106.5t19 -68t52 -36.5t102.5 -11v-83q-57 0 -92 -8t-53 -32t-25 -74t-7.5 -134t-1.5 -211h-82zM244 204h7q1 73 2 117.5t7 68.5t21.5 32.5
t45.5 8.5q-39 0 -55 9t-18.5 28.5t-2.5 50.5h-7q0 -31 -2.5 -50.5t-18 -28.5t-54.5 -9q31 0 46.5 -8.5t21 -32.5t6.5 -68.5t1 -117.5z" />
    <glyph glyph-name="N_o.dlig" horiz-adv-x="873" 
d="M724 332q-58 0 -86.5 32.5t-28.5 83.5t28 84t87 33q57 0 86 -32t29 -85q0 -49 -27.5 -82.5t-87.5 -33.5zM607 202v71h233v-71h-233zM724 394q17 0 27 8t14.5 20.5t4.5 26.5q0 13 -4.5 25.5t-14.5 21t-27 8.5t-27.5 -8.5t-15 -21t-4.5 -25.5q0 -14 4.5 -26.5t15 -20.5
t27.5 -8zM443 563h106v-563h-194l-193 518h-2v-518h-105v563h180l206 -518h2v518z" />
    <glyph glyph-name="i.loclTRK" horiz-adv-x="199" 
d="M48 0v411h102v-411h-102zM100 464q-33 0 -45 17t-12 39t12 38.5t45 16.5q34 0 44.5 -16.5t10.5 -38.5t-10.5 -39t-44.5 -17z" />
    <glyph glyph-name="a.ss01" horiz-adv-x="481" 
d="M380 -10q-29 0 -46 10t-25 25t-10.5 31.5t-2.5 28.5v195q0 18 -9.5 30.5t-26 19.5t-36.5 7t-40 -8t-32.5 -25.5t-10.5 -47.5h-96q2 57 28.5 91t67 49.5t84.5 15.5t83.5 -14.5t64.5 -46t25 -83.5v-148q0 -16 3.5 -28.5t10.5 -19t17.5 -7t25.5 7.5l2 -58q0 1 -9 -5.5
t-25.5 -13t-42.5 -6.5zM142 -10q-54 0 -87.5 30t-33.5 78q0 32 15 53.5t40 35.5t55.5 22.5t62.5 15.5q43 10 65.5 17t29.5 16t7 22l3 -153q-17 -59 -55.5 -98t-101.5 -39zM183 64q28 2 54 24.5t42 58t16 75.5q-8 -8 -29.5 -14t-40.5 -12q-26 -8 -49.5 -19t-37.5 -27t-14 -41
q2 -24 19.5 -35t39.5 -10z" />
    <glyph glyph-name="aacute.ss01" horiz-adv-x="481" 
d="M380 -10q-29 0 -46 10t-25 25t-10.5 31.5t-2.5 28.5v195q0 18 -9.5 30.5t-26 19.5t-36.5 7t-40 -8t-32.5 -25.5t-10.5 -47.5h-96q2 57 28.5 91t67 49.5t84.5 15.5t83.5 -14.5t64.5 -46t25 -83.5v-148q0 -16 3.5 -28.5t10.5 -19t17.5 -7t25.5 7.5l2 -58q0 1 -9 -5.5
t-25.5 -13t-42.5 -6.5zM142 -10q-54 0 -87.5 30t-33.5 78q0 32 15 53.5t40 35.5t55.5 22.5t62.5 15.5q43 10 65.5 17t29.5 16t7 22l3 -153q-17 -59 -55.5 -98t-101.5 -39zM183 64q28 2 54 24.5t42 58t16 75.5q-8 -8 -29.5 -14t-40.5 -12q-26 -8 -49.5 -19t-37.5 -27t-14 -41
q2 -24 19.5 -35t39.5 -10zM260 455h-46v14l45 100h86v-19z" />
    <glyph glyph-name="abreve.ss01" horiz-adv-x="481" 
d="M380 -10q-29 0 -46 10t-25 25t-10.5 31.5t-2.5 28.5v195q0 18 -9.5 30.5t-26 19.5t-36.5 7t-40 -8t-32.5 -25.5t-10.5 -47.5h-96q2 57 28.5 91t67 49.5t84.5 15.5t83.5 -14.5t64.5 -46t25 -83.5v-148q0 -16 3.5 -28.5t10.5 -19t17.5 -7t25.5 7.5l2 -58q0 1 -9 -5.5
t-25.5 -13t-42.5 -6.5zM142 -10q-54 0 -87.5 30t-33.5 78q0 32 15 53.5t40 35.5t55.5 22.5t62.5 15.5q43 10 65.5 17t29.5 16t7 22l3 -153q-17 -59 -55.5 -98t-101.5 -39zM183 64q28 2 54 24.5t42 58t16 75.5q-8 -8 -29.5 -14t-40.5 -12q-26 -8 -49.5 -19t-37.5 -27t-14 -41
q2 -24 19.5 -35t39.5 -10zM237 462q-62 0 -97 28.5t-35 76.5h72q0 -28 17 -38t43 -10t42.5 9.5t16.5 38.5h72q0 -48 -34 -76.5t-97 -28.5z" />
    <glyph glyph-name="uni1EAF.ss01" horiz-adv-x="481" 
d="M380 -10q-29 0 -46 10t-25 25t-10.5 31.5t-2.5 28.5v195q0 18 -9.5 30.5t-26 19.5t-36.5 7t-40 -8t-32.5 -25.5t-10.5 -47.5h-96q2 57 28.5 91t67 49.5t84.5 15.5t83.5 -14.5t64.5 -46t25 -83.5v-148q0 -16 3.5 -28.5t10.5 -19t17.5 -7t25.5 7.5l2 -58q0 1 -9 -5.5
t-25.5 -13t-42.5 -6.5zM142 -10q-54 0 -87.5 30t-33.5 78q0 32 15 53.5t40 35.5t55.5 22.5t62.5 15.5q43 10 65.5 17t29.5 16t7 22l3 -153q-17 -59 -55.5 -98t-101.5 -39zM183 64q28 2 54 24.5t42 58t16 75.5q-8 -8 -29.5 -14t-40.5 -12q-26 -8 -49.5 -19t-37.5 -27t-14 -41
q2 -24 19.5 -35t39.5 -10zM237 462q-62 0 -97 28.5t-35 76.5h72q0 -28 17 -38t43 -10t42.5 9.5t16.5 38.5h72q0 -48 -34 -76.5t-97 -28.5zM260 600h-46v14l45 100h86v-19z" />
    <glyph glyph-name="uni1EB7.ss01" horiz-adv-x="481" 
d="M380 -10q-29 0 -46 10t-25 25t-10.5 31.5t-2.5 28.5v195q0 18 -9.5 30.5t-26 19.5t-36.5 7t-40 -8t-32.5 -25.5t-10.5 -47.5h-96q2 57 28.5 91t67 49.5t84.5 15.5t83.5 -14.5t64.5 -46t25 -83.5v-148q0 -16 3.5 -28.5t10.5 -19t17.5 -7t25.5 7.5l2 -58q0 1 -9 -5.5
t-25.5 -13t-42.5 -6.5zM142 -10q-54 0 -87.5 30t-33.5 78q0 32 15 53.5t40 35.5t55.5 22.5t62.5 15.5q43 10 65.5 17t29.5 16t7 22l3 -153q-17 -59 -55.5 -98t-101.5 -39zM183 64q28 2 54 24.5t42 58t16 75.5q-8 -8 -29.5 -14t-40.5 -12q-26 -8 -49.5 -19t-37.5 -27t-14 -41
q2 -24 19.5 -35t39.5 -10zM241 -181q-33 0 -44.5 17.5t-11.5 39.5t11.5 38.5t44.5 16.5q34 0 44.5 -16.5t10.5 -38.5t-10.5 -39.5t-44.5 -17.5zM237 462q-62 0 -97 28.5t-35 76.5h72q0 -28 17 -38t43 -10t42.5 9.5t16.5 38.5h72q0 -48 -34 -76.5t-97 -28.5z" />
    <glyph glyph-name="uni1EB1.ss01" horiz-adv-x="481" 
d="M380 -10q-29 0 -46 10t-25 25t-10.5 31.5t-2.5 28.5v195q0 18 -9.5 30.5t-26 19.5t-36.5 7t-40 -8t-32.5 -25.5t-10.5 -47.5h-96q2 57 28.5 91t67 49.5t84.5 15.5t83.5 -14.5t64.5 -46t25 -83.5v-148q0 -16 3.5 -28.5t10.5 -19t17.5 -7t25.5 7.5l2 -58q0 1 -9 -5.5
t-25.5 -13t-42.5 -6.5zM142 -10q-54 0 -87.5 30t-33.5 78q0 32 15 53.5t40 35.5t55.5 22.5t62.5 15.5q43 10 65.5 17t29.5 16t7 22l3 -153q-17 -59 -55.5 -98t-101.5 -39zM183 64q28 2 54 24.5t42 58t16 75.5q-8 -8 -29.5 -14t-40.5 -12q-26 -8 -49.5 -19t-37.5 -27t-14 -41
q2 -24 19.5 -35t39.5 -10zM237 462q-62 0 -97 28.5t-35 76.5h72q0 -28 17 -38t43 -10t42.5 9.5t16.5 38.5h72q0 -48 -34 -76.5t-97 -28.5zM214 600l-85 95v19h86l45 -100v-14h-46z" />
    <glyph glyph-name="uni1EB3.ss01" horiz-adv-x="481" 
d="M380 -10q-29 0 -46 10t-25 25t-10.5 31.5t-2.5 28.5v195q0 18 -9.5 30.5t-26 19.5t-36.5 7t-40 -8t-32.5 -25.5t-10.5 -47.5h-96q2 57 28.5 91t67 49.5t84.5 15.5t83.5 -14.5t64.5 -46t25 -83.5v-148q0 -16 3.5 -28.5t10.5 -19t17.5 -7t25.5 7.5l2 -58q0 1 -9 -5.5
t-25.5 -13t-42.5 -6.5zM142 -10q-54 0 -87.5 30t-33.5 78q0 32 15 53.5t40 35.5t55.5 22.5t62.5 15.5q43 10 65.5 17t29.5 16t7 22l3 -153q-17 -59 -55.5 -98t-101.5 -39zM183 64q28 2 54 24.5t42 58t16 75.5q-8 -8 -29.5 -14t-40.5 -12q-26 -8 -49.5 -19t-37.5 -27t-14 -41
q2 -24 19.5 -35t39.5 -10zM237 462q-62 0 -97 28.5t-35 76.5h72q0 -28 17 -38t43 -10t42.5 9.5t16.5 38.5h72q0 -48 -34 -76.5t-97 -28.5zM202 605v15q6 13 21 22.5t29 20t14 28.5q0 12 -9.5 18.5t-22.5 6.5q-12 0 -24 -7t-17 -21l-42 27q9 32 35.5 48t56.5 16
q32 0 58.5 -19t26.5 -58q0 -30 -13 -45.5t-27.5 -26.5t-19.5 -25h-66z" />
    <glyph glyph-name="uni1EB5.ss01" horiz-adv-x="481" 
d="M380 -10q-29 0 -46 10t-25 25t-10.5 31.5t-2.5 28.5v195q0 18 -9.5 30.5t-26 19.5t-36.5 7t-40 -8t-32.5 -25.5t-10.5 -47.5h-96q2 57 28.5 91t67 49.5t84.5 15.5t83.5 -14.5t64.5 -46t25 -83.5v-148q0 -16 3.5 -28.5t10.5 -19t17.5 -7t25.5 7.5l2 -58q0 1 -9 -5.5
t-25.5 -13t-42.5 -6.5zM142 -10q-54 0 -87.5 30t-33.5 78q0 32 15 53.5t40 35.5t55.5 22.5t62.5 15.5q43 10 65.5 17t29.5 16t7 22l3 -153q-17 -59 -55.5 -98t-101.5 -39zM183 64q28 2 54 24.5t42 58t16 75.5q-8 -8 -29.5 -14t-40.5 -12q-26 -8 -49.5 -19t-37.5 -27t-14 -41
q2 -24 19.5 -35t39.5 -10zM239 462q-62 0 -97 28.5t-35 76.5h72q0 -28 17 -38t43 -10t42.5 9.5t16.5 38.5h72q0 -48 -34 -76.5t-97 -28.5zM106 619q0 14 1 32.5t7.5 37t22.5 30.5t46 12q26 0 41 -8.5t24.5 -19.5t18.5 -19.5t22 -8.5q16 0 19 14.5t3 39.5h60q1 -18 -1 -37.5
t-9 -37t-23 -28t-43 -10.5q-26 0 -41 8.5t-24.5 19.5t-18 19.5t-22.5 8.5q-16 0 -19.5 -13.5t-2.5 -39.5h-61z" />
    <glyph glyph-name="acircumflex.ss01" horiz-adv-x="481" 
d="M380 -10q-29 0 -46 10t-25 25t-10.5 31.5t-2.5 28.5v195q0 18 -9.5 30.5t-26 19.5t-36.5 7t-40 -8t-32.5 -25.5t-10.5 -47.5h-96q2 57 28.5 91t67 49.5t84.5 15.5t83.5 -14.5t64.5 -46t25 -83.5v-148q0 -16 3.5 -28.5t10.5 -19t17.5 -7t25.5 7.5l2 -58q0 1 -9 -5.5
t-25.5 -13t-42.5 -6.5zM142 -10q-54 0 -87.5 30t-33.5 78q0 32 15 53.5t40 35.5t55.5 22.5t62.5 15.5q43 10 65.5 17t29.5 16t7 22l3 -153q-17 -59 -55.5 -98t-101.5 -39zM183 64q28 2 54 24.5t42 58t16 75.5q-8 -8 -29.5 -14t-40.5 -12q-26 -8 -49.5 -19t-37.5 -27t-14 -41
q2 -24 19.5 -35t39.5 -10zM97 466v8l118 109h43l118 -109v-8h-91l-46 51h-5l-44 -51h-93z" />
    <glyph glyph-name="uni1EA5.ss01" horiz-adv-x="481" 
d="M380 -10q-29 0 -46 10t-25 25t-10.5 31.5t-2.5 28.5v195q0 18 -9.5 30.5t-26 19.5t-36.5 7t-40 -8t-32.5 -25.5t-10.5 -47.5h-96q2 57 28.5 91t67 49.5t84.5 15.5t83.5 -14.5t64.5 -46t25 -83.5v-148q0 -16 3.5 -28.5t10.5 -19t17.5 -7t25.5 7.5l2 -58q0 1 -9 -5.5
t-25.5 -13t-42.5 -6.5zM142 -10q-54 0 -87.5 30t-33.5 78q0 32 15 53.5t40 35.5t55.5 22.5t62.5 15.5q43 10 65.5 17t29.5 16t7 22l3 -153q-17 -59 -55.5 -98t-101.5 -39zM183 64q28 2 54 24.5t42 58t16 75.5q-8 -8 -29.5 -14t-40.5 -12q-26 -8 -49.5 -19t-37.5 -27t-14 -41
q2 -24 19.5 -35t39.5 -10zM99 466v8l118 109h43l118 -109v-8h-91l-46 51h-5l-44 -51h-93zM378 557h-46v14l45 100h86v-19z" />
    <glyph glyph-name="uni1EAD.ss01" horiz-adv-x="481" 
d="M380 -10q-29 0 -46 10t-25 25t-10.5 31.5t-2.5 28.5v195q0 18 -9.5 30.5t-26 19.5t-36.5 7t-40 -8t-32.5 -25.5t-10.5 -47.5h-96q2 57 28.5 91t67 49.5t84.5 15.5t83.5 -14.5t64.5 -46t25 -83.5v-148q0 -16 3.5 -28.5t10.5 -19t17.5 -7t25.5 7.5l2 -58q0 1 -9 -5.5
t-25.5 -13t-42.5 -6.5zM142 -10q-54 0 -87.5 30t-33.5 78q0 32 15 53.5t40 35.5t55.5 22.5t62.5 15.5q43 10 65.5 17t29.5 16t7 22l3 -153q-17 -59 -55.5 -98t-101.5 -39zM183 64q28 2 54 24.5t42 58t16 75.5q-8 -8 -29.5 -14t-40.5 -12q-26 -8 -49.5 -19t-37.5 -27t-14 -41
q2 -24 19.5 -35t39.5 -10zM241 -181q-33 0 -44.5 17.5t-11.5 39.5t11.5 38.5t44.5 16.5q34 0 44.5 -16.5t10.5 -38.5t-10.5 -39.5t-44.5 -17.5zM97 466v8l118 109h43l118 -109v-8h-91l-46 51h-5l-44 -51h-93z" />
    <glyph glyph-name="uni1EA7.ss01" horiz-adv-x="481" 
d="M380 -10q-29 0 -46 10t-25 25t-10.5 31.5t-2.5 28.5v195q0 18 -9.5 30.5t-26 19.5t-36.5 7t-40 -8t-32.5 -25.5t-10.5 -47.5h-96q2 57 28.5 91t67 49.5t84.5 15.5t83.5 -14.5t64.5 -46t25 -83.5v-148q0 -16 3.5 -28.5t10.5 -19t17.5 -7t25.5 7.5l2 -58q0 1 -9 -5.5
t-25.5 -13t-42.5 -6.5zM142 -10q-54 0 -87.5 30t-33.5 78q0 32 15 53.5t40 35.5t55.5 22.5t62.5 15.5q43 10 65.5 17t29.5 16t7 22l3 -153q-17 -59 -55.5 -98t-101.5 -39zM183 64q28 2 54 24.5t42 58t16 75.5q-8 -8 -29.5 -14t-40.5 -12q-26 -8 -49.5 -19t-37.5 -27t-14 -41
q2 -24 19.5 -35t39.5 -10zM373 556l-85 95v19h86l45 -100v-14h-46zM94 463v8l118 109h43l118 -109v-8h-91l-46 51h-5l-44 -51h-93z" />
    <glyph glyph-name="uni1EA9.ss01" horiz-adv-x="481" 
d="M380 -10q-29 0 -46 10t-25 25t-10.5 31.5t-2.5 28.5v195q0 18 -9.5 30.5t-26 19.5t-36.5 7t-40 -8t-32.5 -25.5t-10.5 -47.5h-96q2 57 28.5 91t67 49.5t84.5 15.5t83.5 -14.5t64.5 -46t25 -83.5v-148q0 -16 3.5 -28.5t10.5 -19t17.5 -7t25.5 7.5l2 -58q0 1 -9 -5.5
t-25.5 -13t-42.5 -6.5zM142 -10q-54 0 -87.5 30t-33.5 78q0 32 15 53.5t40 35.5t55.5 22.5t62.5 15.5q43 10 65.5 17t29.5 16t7 22l3 -153q-17 -59 -55.5 -98t-101.5 -39zM183 64q28 2 54 24.5t42 58t16 75.5q-8 -8 -29.5 -14t-40.5 -12q-26 -8 -49.5 -19t-37.5 -27t-14 -41
q2 -24 19.5 -35t39.5 -10zM94 463v8l118 109h43l118 -109v-8h-91l-46 51h-5l-44 -51h-93zM322 551v15q6 13 21 22.5t29 20t14 28.5q0 12 -9.5 18.5t-22.5 6.5q-12 0 -24 -7t-17 -21l-42 27q9 32 35.5 48t56.5 16q32 0 58.5 -19t26.5 -58q0 -30 -13 -45.5t-27.5 -26.5
t-19.5 -25h-66z" />
    <glyph glyph-name="uni1EAB.ss01" horiz-adv-x="481" 
d="M380 -10q-29 0 -46 10t-25 25t-10.5 31.5t-2.5 28.5v195q0 18 -9.5 30.5t-26 19.5t-36.5 7t-40 -8t-32.5 -25.5t-10.5 -47.5h-96q2 57 28.5 91t67 49.5t84.5 15.5t83.5 -14.5t64.5 -46t25 -83.5v-148q0 -16 3.5 -28.5t10.5 -19t17.5 -7t25.5 7.5l2 -58q0 1 -9 -5.5
t-25.5 -13t-42.5 -6.5zM142 -10q-54 0 -87.5 30t-33.5 78q0 32 15 53.5t40 35.5t55.5 22.5t62.5 15.5q43 10 65.5 17t29.5 16t7 22l3 -153q-17 -59 -55.5 -98t-101.5 -39zM183 64q28 2 54 24.5t42 58t16 75.5q-8 -8 -29.5 -14t-40.5 -12q-26 -8 -49.5 -19t-37.5 -27t-14 -41
q2 -24 19.5 -35t39.5 -10zM98 463v8l118 109h43l118 -109v-8h-91l-46 51h-5l-44 -51h-93zM100 616q0 14 1 32.5t7.5 37t22.5 30.5t46 12q26 0 41 -8.5t24.5 -19.5t18.5 -19.5t22 -8.5q16 0 19 14.5t3 39.5h60q1 -18 -1 -37.5t-9 -37t-23 -28t-43 -10.5q-26 0 -41 8.5
t-24.5 19.5t-18 19.5t-22.5 8.5q-16 0 -19.5 -13.5t-2.5 -39.5h-61z" />
    <glyph glyph-name="adieresis.ss01" horiz-adv-x="481" 
d="M380 -10q-29 0 -46 10t-25 25t-10.5 31.5t-2.5 28.5v195q0 18 -9.5 30.5t-26 19.5t-36.5 7t-40 -8t-32.5 -25.5t-10.5 -47.5h-96q2 57 28.5 91t67 49.5t84.5 15.5t83.5 -14.5t64.5 -46t25 -83.5v-148q0 -16 3.5 -28.5t10.5 -19t17.5 -7t25.5 7.5l2 -58q0 1 -9 -5.5
t-25.5 -13t-42.5 -6.5zM142 -10q-54 0 -87.5 30t-33.5 78q0 32 15 53.5t40 35.5t55.5 22.5t62.5 15.5q43 10 65.5 17t29.5 16t7 22l3 -153q-17 -59 -55.5 -98t-101.5 -39zM183 64q28 2 54 24.5t42 58t16 75.5q-8 -8 -29.5 -14t-40.5 -12q-26 -8 -49.5 -19t-37.5 -27t-14 -41
q2 -24 19.5 -35t39.5 -10zM146 458q-37 0 -49.5 18.5t-12.5 43.5q0 24 13 42.5t49 18.5q37 0 48.5 -18.5t11.5 -42.5q0 -25 -11.5 -43.5t-48.5 -18.5zM327 458q-36 0 -49 18.5t-13 43.5q0 24 13 42.5t49 18.5q37 0 49 -18.5t12 -42.5q0 -25 -12 -43.5t-49 -18.5z" />
    <glyph glyph-name="uni1EA1.ss01" horiz-adv-x="481" 
d="M380 -10q-29 0 -46 10t-25 25t-10.5 31.5t-2.5 28.5v195q0 18 -9.5 30.5t-26 19.5t-36.5 7t-40 -8t-32.5 -25.5t-10.5 -47.5h-96q2 57 28.5 91t67 49.5t84.5 15.5t83.5 -14.5t64.5 -46t25 -83.5v-148q0 -16 3.5 -28.5t10.5 -19t17.5 -7t25.5 7.5l2 -58q0 1 -9 -5.5
t-25.5 -13t-42.5 -6.5zM142 -10q-54 0 -87.5 30t-33.5 78q0 32 15 53.5t40 35.5t55.5 22.5t62.5 15.5q43 10 65.5 17t29.5 16t7 22l3 -153q-17 -59 -55.5 -98t-101.5 -39zM183 64q28 2 54 24.5t42 58t16 75.5q-8 -8 -29.5 -14t-40.5 -12q-26 -8 -49.5 -19t-37.5 -27t-14 -41
q2 -24 19.5 -35t39.5 -10zM241 -181q-33 0 -44.5 17.5t-11.5 39.5t11.5 38.5t44.5 16.5q34 0 44.5 -16.5t10.5 -38.5t-10.5 -39.5t-44.5 -17.5z" />
    <glyph glyph-name="agrave.ss01" horiz-adv-x="481" 
d="M380 -10q-29 0 -46 10t-25 25t-10.5 31.5t-2.5 28.5v195q0 18 -9.5 30.5t-26 19.5t-36.5 7t-40 -8t-32.5 -25.5t-10.5 -47.5h-96q2 57 28.5 91t67 49.5t84.5 15.5t83.5 -14.5t64.5 -46t25 -83.5v-148q0 -16 3.5 -28.5t10.5 -19t17.5 -7t25.5 7.5l2 -58q0 1 -9 -5.5
t-25.5 -13t-42.5 -6.5zM142 -10q-54 0 -87.5 30t-33.5 78q0 32 15 53.5t40 35.5t55.5 22.5t62.5 15.5q43 10 65.5 17t29.5 16t7 22l3 -153q-17 -59 -55.5 -98t-101.5 -39zM183 64q28 2 54 24.5t42 58t16 75.5q-8 -8 -29.5 -14t-40.5 -12q-26 -8 -49.5 -19t-37.5 -27t-14 -41
q2 -24 19.5 -35t39.5 -10zM214 455l-85 95v19h86l45 -100v-14h-46z" />
    <glyph glyph-name="uni1EA3.ss01" horiz-adv-x="481" 
d="M380 -10q-29 0 -46 10t-25 25t-10.5 31.5t-2.5 28.5v195q0 18 -9.5 30.5t-26 19.5t-36.5 7t-40 -8t-32.5 -25.5t-10.5 -47.5h-96q2 57 28.5 91t67 49.5t84.5 15.5t83.5 -14.5t64.5 -46t25 -83.5v-148q0 -16 3.5 -28.5t10.5 -19t17.5 -7t25.5 7.5l2 -58q0 1 -9 -5.5
t-25.5 -13t-42.5 -6.5zM142 -10q-54 0 -87.5 30t-33.5 78q0 32 15 53.5t40 35.5t55.5 22.5t62.5 15.5q43 10 65.5 17t29.5 16t7 22l3 -153q-17 -59 -55.5 -98t-101.5 -39zM183 64q28 2 54 24.5t42 58t16 75.5q-8 -8 -29.5 -14t-40.5 -12q-26 -8 -49.5 -19t-37.5 -27t-14 -41
q2 -24 19.5 -35t39.5 -10zM202 460v15q6 13 21 22.5t29 20t14 28.5q0 12 -9.5 18.5t-22.5 6.5q-12 0 -24 -7t-17 -21l-42 27q9 32 35.5 48t56.5 16q32 0 58.5 -19t26.5 -58q0 -30 -13 -45.5t-27.5 -26.5t-19.5 -25h-66z" />
    <glyph glyph-name="amacron.ss01" horiz-adv-x="481" 
d="M380 -10q-29 0 -46 10t-25 25t-10.5 31.5t-2.5 28.5v195q0 18 -9.5 30.5t-26 19.5t-36.5 7t-40 -8t-32.5 -25.5t-10.5 -47.5h-96q2 57 28.5 91t67 49.5t84.5 15.5t83.5 -14.5t64.5 -46t25 -83.5v-148q0 -16 3.5 -28.5t10.5 -19t17.5 -7t25.5 7.5l2 -58q0 1 -9 -5.5
t-25.5 -13t-42.5 -6.5zM142 -10q-54 0 -87.5 30t-33.5 78q0 32 15 53.5t40 35.5t55.5 22.5t62.5 15.5q43 10 65.5 17t29.5 16t7 22l3 -153q-17 -59 -55.5 -98t-101.5 -39zM183 64q28 2 54 24.5t42 58t16 75.5q-8 -8 -29.5 -14t-40.5 -12q-26 -8 -49.5 -19t-37.5 -27t-14 -41
q2 -24 19.5 -35t39.5 -10zM99 476v72h275v-72h-275z" />
    <glyph glyph-name="aogonek.ss01" horiz-adv-x="481" 
d="M403 -199q-24 0 -47 9.5t-38 28.5t-15 50q0 30 15 53t38.5 40t46.5 28.5t38 17l15 5.5l2 -46l-12 -5.5t-28 -16t-28.5 -25.5t-12.5 -34q0 -14 9.5 -23t24.5 -9t24.5 7.5t14.5 14.5l5 7l54 -48l-11.5 -13.5t-34.5 -27t-60 -13.5zM380 -10q-29 0 -46 10t-25 25t-10.5 31.5
t-2.5 28.5v195q0 18 -9.5 30.5t-26 19.5t-36.5 7t-40 -8t-32.5 -25.5t-10.5 -47.5h-96q2 57 28.5 91t67 49.5t84.5 15.5t83.5 -14.5t64.5 -46t25 -83.5v-148q0 -16 3.5 -28.5t10.5 -19t17.5 -7t25.5 7.5l2 -58q0 1 -9 -5.5t-25.5 -13t-42.5 -6.5zM142 -10q-54 0 -87.5 30
t-33.5 78q0 32 15 53.5t40 35.5t55.5 22.5t62.5 15.5q43 10 65.5 17t29.5 16t7 22l3 -153q-17 -59 -55.5 -98t-101.5 -39zM183 64q28 2 54 24.5t42 58t16 75.5q-8 -8 -29.5 -14t-40.5 -12q-26 -8 -49.5 -19t-37.5 -27t-14 -41q2 -24 19.5 -35t39.5 -10z" />
    <glyph glyph-name="aring.ss01" horiz-adv-x="481" 
d="M380 -10q-29 0 -46 10t-25 25t-10.5 31.5t-2.5 28.5v195q0 18 -9.5 30.5t-26 19.5t-36.5 7t-40 -8t-32.5 -25.5t-10.5 -47.5h-96q2 57 28.5 91t67 49.5t84.5 15.5t83.5 -14.5t64.5 -46t25 -83.5v-148q0 -16 3.5 -28.5t10.5 -19t17.5 -7t25.5 7.5l2 -58q0 1 -9 -5.5
t-25.5 -13t-42.5 -6.5zM142 -10q-54 0 -87.5 30t-33.5 78q0 32 15 53.5t40 35.5t55.5 22.5t62.5 15.5q43 10 65.5 17t29.5 16t7 22l3 -153q-17 -59 -55.5 -98t-101.5 -39zM183 64q28 2 54 24.5t42 58t16 75.5q-8 -8 -29.5 -14t-40.5 -12q-26 -8 -49.5 -19t-37.5 -27t-14 -41
q2 -24 19.5 -35t39.5 -10zM234 470q-49 0 -74 26.5t-25 70.5q0 46 24.5 73.5t74.5 27.5t76 -27.5t26 -73.5q0 -42 -26 -69.5t-76 -27.5zM233 529q21 0 31 11.5t10 29.5q0 17 -10 29t-31 12q-20 0 -30.5 -12.5t-10.5 -29.5t11 -28.5t30 -11.5z" />
    <glyph glyph-name="atilde.ss01" horiz-adv-x="481" 
d="M380 -10q-29 0 -46 10t-25 25t-10.5 31.5t-2.5 28.5v195q0 18 -9.5 30.5t-26 19.5t-36.5 7t-40 -8t-32.5 -25.5t-10.5 -47.5h-96q2 57 28.5 91t67 49.5t84.5 15.5t83.5 -14.5t64.5 -46t25 -83.5v-148q0 -16 3.5 -28.5t10.5 -19t17.5 -7t25.5 7.5l2 -58q0 1 -9 -5.5
t-25.5 -13t-42.5 -6.5zM142 -10q-54 0 -87.5 30t-33.5 78q0 32 15 53.5t40 35.5t55.5 22.5t62.5 15.5q43 10 65.5 17t29.5 16t7 22l3 -153q-17 -59 -55.5 -98t-101.5 -39zM183 64q28 2 54 24.5t42 58t16 75.5q-8 -8 -29.5 -14t-40.5 -12q-26 -8 -49.5 -19t-37.5 -27t-14 -41
q2 -24 19.5 -35t39.5 -10zM104 474q0 14 1 32.5t7.5 37t22.5 30.5t46 12q26 0 41 -8.5t24.5 -19.5t18.5 -19.5t22 -8.5q16 0 19 14.5t3 39.5h60q1 -18 -1 -37.5t-9 -37t-23 -28t-43 -10.5q-26 0 -41 8.5t-24.5 19.5t-18 19.5t-22.5 8.5q-16 0 -19.5 -13.5t-2.5 -39.5h-61z
" />
    <glyph glyph-name="f.ss01" horiz-adv-x="342" 
d="M299 264h-93v-264h-101v264h-77v79h271v-79zM171 340q-33 -1 -68.5 9.5t-59.5 36t-24 66.5q0 32 21 57t55.5 39.5t76.5 14.5q56 0 93.5 -21.5t58.5 -55t23 -67.5h-99q0 7 -3.5 16.5t-12.5 19t-23.5 16t-36.5 6.5t-36 -8.5t-21 -21t-7 -22.5q0 -18 8 -33.5t28.5 -27
t58 -17.5t96.5 -4z" />
    <glyph glyph-name="g.ss01" horiz-adv-x="468" 
d="M139 87q0 -18 14.5 -24.5t35 -6.5t38.5 -1q36 0 73 -4t69.5 -17.5t52 -39t19.5 -67.5q0 -43 -28.5 -70.5t-77.5 -41t-109 -13.5q-66 -1 -113.5 12t-72.5 39.5t-25 67.5q0 27 13 50t38 37.5t61 14.5q-28 1 -47.5 16t-19.5 38q0 20 15 32t37.5 17.5t44.5 5.5
q-59 9 -86.5 45.5t-27.5 79.5q0 71 49.5 113.5t136.5 42.5h50t39 4.5t15 20.5q0 18 -22.5 23.5t-56.5 -8.5l-14 68q35 12 68 7t55 -23.5t22 -47.5q0 -19 -9.5 -31.5t-22 -19t-22.5 -9t-12 -3.5q42 -13 69.5 -51t27.5 -86q0 -38 -20 -69.5t-62 -50.5t-107 -19h-36.5t-36 -6
t-15.5 -25zM147 261q0 -27 9.5 -45.5t27.5 -27.5t45 -9q42 0 60.5 22t18.5 60q0 37 -18 61.5t-62 24.5q-31 0 -49 -11.5t-25 -31t-7 -43.5zM227 -121q32 0 57.5 5t41 18t15.5 38q0 20 -14.5 33t-40.5 19t-59 6q-31 0 -56.5 -5.5t-40.5 -17.5t-15 -35q0 -25 16 -38.5
t41.5 -18t54.5 -4.5z" />
    <glyph glyph-name="gbreve.ss01" horiz-adv-x="468" 
d="M139 87q0 -18 14.5 -24.5t35 -6.5t38.5 -1q36 0 73 -4t69.5 -17.5t52 -39t19.5 -67.5q0 -43 -28.5 -70.5t-77.5 -41t-109 -13.5q-66 -1 -113.5 12t-72.5 39.5t-25 67.5q0 27 13 50t38 37.5t61 14.5q-28 1 -47.5 16t-19.5 38q0 20 15 32t37.5 17.5t44.5 5.5
q-59 9 -86.5 45.5t-27.5 79.5q0 71 49.5 113.5t136.5 42.5h50t39 4.5t15 20.5q0 18 -22.5 23.5t-56.5 -8.5l-14 68q35 12 68 7t55 -23.5t22 -47.5q0 -19 -9.5 -31.5t-22 -19t-22.5 -9t-12 -3.5q42 -13 69.5 -51t27.5 -86q0 -38 -20 -69.5t-62 -50.5t-107 -19h-36.5t-36 -6
t-15.5 -25zM147 261q0 -27 9.5 -45.5t27.5 -27.5t45 -9q42 0 60.5 22t18.5 60q0 37 -18 61.5t-62 24.5q-31 0 -49 -11.5t-25 -31t-7 -43.5zM227 -121q32 0 57.5 5t41 18t15.5 38q0 20 -14.5 33t-40.5 19t-59 6q-31 0 -56.5 -5.5t-40.5 -17.5t-15 -35q0 -25 16 -38.5
t41.5 -18t54.5 -4.5zM218 555q-62 0 -97 28.5t-35 76.5h72q0 -28 17 -38t43 -10t42.5 9.5t16.5 38.5h72q0 -48 -34 -76.5t-97 -28.5z" />
    <glyph glyph-name="uni0123.ss01" horiz-adv-x="468" 
d="M139 87q0 -18 14.5 -24.5t35 -6.5t38.5 -1q36 0 73 -4t69.5 -17.5t52 -39t19.5 -67.5q0 -43 -28.5 -70.5t-77.5 -41t-109 -13.5q-66 -1 -113.5 12t-72.5 39.5t-25 67.5q0 27 13 50t38 37.5t61 14.5q-28 1 -47.5 16t-19.5 38q0 20 15 32t37.5 17.5t44.5 5.5
q-59 9 -86.5 45.5t-27.5 79.5q0 71 49.5 113.5t136.5 42.5h50t39 4.5t15 20.5q0 18 -22.5 23.5t-56.5 -8.5l-14 68q35 12 68 7t55 -23.5t22 -47.5q0 -19 -9.5 -31.5t-22 -19t-22.5 -9t-12 -3.5q42 -13 69.5 -51t27.5 -86q0 -38 -20 -69.5t-62 -50.5t-107 -19h-36.5t-36 -6
t-15.5 -25zM147 261q0 -27 9.5 -45.5t27.5 -27.5t45 -9q42 0 60.5 22t18.5 60q0 37 -18 61.5t-62 24.5q-31 0 -49 -11.5t-25 -31t-7 -43.5zM227 -121q32 0 57.5 5t41 18t15.5 38q0 20 -14.5 33t-40.5 19t-59 6q-31 0 -56.5 -5.5t-40.5 -17.5t-15 -35q0 -25 16 -38.5
t41.5 -18t54.5 -4.5zM230 553h-46v14l45 100h86v-19z" />
    <glyph glyph-name="gdotaccent.ss01" horiz-adv-x="468" 
d="M139 87q0 -18 14.5 -24.5t35 -6.5t38.5 -1q36 0 73 -4t69.5 -17.5t52 -39t19.5 -67.5q0 -43 -28.5 -70.5t-77.5 -41t-109 -13.5q-66 -1 -113.5 12t-72.5 39.5t-25 67.5q0 27 13 50t38 37.5t61 14.5q-28 1 -47.5 16t-19.5 38q0 20 15 32t37.5 17.5t44.5 5.5
q-59 9 -86.5 45.5t-27.5 79.5q0 71 49.5 113.5t136.5 42.5h50t39 4.5t15 20.5q0 18 -22.5 23.5t-56.5 -8.5l-14 68q35 12 68 7t55 -23.5t22 -47.5q0 -19 -9.5 -31.5t-22 -19t-22.5 -9t-12 -3.5q42 -13 69.5 -51t27.5 -86q0 -38 -20 -69.5t-62 -50.5t-107 -19h-36.5t-36 -6
t-15.5 -25zM147 261q0 -27 9.5 -45.5t27.5 -27.5t45 -9q42 0 60.5 22t18.5 60q0 37 -18 61.5t-62 24.5q-31 0 -49 -11.5t-25 -31t-7 -43.5zM227 -121q32 0 57.5 5t41 18t15.5 38q0 20 -14.5 33t-40.5 19t-59 6q-31 0 -56.5 -5.5t-40.5 -17.5t-15 -35q0 -25 16 -38.5
t41.5 -18t54.5 -4.5zM218 557q-33 0 -45 17t-12 39t12 38.5t45 16.5q34 0 44.5 -16.5t10.5 -38.5t-10.5 -39t-44.5 -17z" />
    <glyph glyph-name="lcaron.ss01" horiz-adv-x="196" 
d="M48 0v563h100v-563h-100zM197 406l30 161h97l-68 -161h-59z" />
    <glyph glyph-name="x.ss01" horiz-adv-x="374" 
d="M55 344l50 51l213 -212l-51 -51zM56 183l212 212l50 -51l-211 -212z" />
    <glyph glyph-name="f_f.dlig" horiz-adv-x="561" 
d="M73 -1v479q0 54 24.5 78t73.5 24h108v-79h-104v-502h-102zM17 339v72h259v-72h-259zM345 -1v479q0 54 25 78t73 24h109v-79h-105v-502h-102zM276 339v72h272v-72h-272z" />
    <glyph glyph-name="f_i.dlig" horiz-adv-x="484" 
d="M73 -1v479q0 54 24.5 78t73.5 24h108v-79h-104v-502h-102zM17 339v72h332v-72h-332zM333 0v411h16h35h35.5h15.5v-411h-102z" />
    <glyph glyph-name="f_t.dlig" horiz-adv-x="568" 
d="M73 -1v479q0 54 24.5 78t73.5 24h108v-79h-104v-502h-102zM17 339v72h259v-72h-259zM435 0q-49 0 -73.5 24t-24.5 78v248h95v-270h96v-80h-93zM275 339v72q22 0 36 3t22.5 13t12.5 31t4 58h82v-105h94v-72h-251z" />
    <glyph glyph-name="t_t.dlig" horiz-adv-x="579" 
d="M172 0q-49 0 -73.5 24t-24.5 78v248h95v-270h96v-80h-93zM12 339v72q22 0 36 3t22.5 13t12.5 31t4 58h82v-105h117v-72h-274zM446 0q-49 0 -73.5 24t-24.5 78v248h95v-270h96v-80h-93zM286 339v72q22 0 36 3t22.5 13t12.5 31t4 58h82v-105h94v-72h-251z" />
    <glyph glyph-name="zero.dnom" horiz-adv-x="264" 
d="M132 -13q-59 0 -88 38.5t-29 107.5q0 67 28 105.5t89 38.5q60 0 88.5 -38.5t28.5 -105.5t-28.5 -106.5t-88.5 -39.5zM131 31q36 0 52.5 25t16.5 77q0 51 -16.5 75.5t-52.5 24.5q-34 0 -50.5 -23.5t-16.5 -76.5q0 -52 16 -77t51 -25z" />
    <glyph glyph-name="one.dnom" horiz-adv-x="181" 
d="M75 12v212q-5 -24 -18 -36.5t-25.5 -17t-16.5 -4.5v60q5 0 20 1.5t29.5 12.5t15.5 37h49v-265h-54zM29 0v48h137v-48h-137z" />
    <glyph glyph-name="two.dnom" horiz-adv-x="243" 
d="M15 0v45q7 3 29.5 14.5t49.5 30t48 40.5t25 47q6 25 -8 39.5t-39 14.5q-24 0 -39 -17.5t-10 -53.5l-51 6q-6 53 25.5 82t80.5 29q31 0 53.5 -13t34 -34.5t6.5 -48.5q-3 -23 -19.5 -45.5t-40 -41t-48 -31t-43.5 -16.5h159v-47h-213z" />
    <glyph glyph-name="three.dnom" horiz-adv-x="246" 
d="M128 -13q-50 0 -81.5 25.5t-31.5 75.5l51 7q1 -29 18 -45.5t45 -16.5q23 0 38 13t15 32q0 15 -8 24.5t-19.5 14.5t-24.5 5h-29v28h31q18 0 32.5 10t14.5 28q0 20 -14.5 32.5t-39.5 12.5q-19 0 -31 -8t-18.5 -20t-6.5 -24l-48 8q0 8 4.5 22t16.5 29.5t32 26t50 10.5
q49 0 75.5 -21.5t26.5 -56.5q0 -23 -13 -42t-39 -23q26 -2 41.5 -21t15.5 -45q0 -36 -29 -58.5t-74 -22.5z" />
    <glyph glyph-name="four.dnom" horiz-adv-x="257" 
d="M15 53v47q35 15 58.5 45.5t35.5 66t12 65.5h60q0 -46 -29.5 -95t-81.5 -82h172v-47h-227zM154 0v138h55v-138h-55z" />
    <glyph glyph-name="five.dnom" horiz-adv-x="246" 
d="M122 -13q-33 0 -56 12t-35.5 30t-15.5 37l54 8q1 -4 6 -14t17 -18.5t32 -8.5q25 0 38.5 15.5t15.5 33.5q1 20 -12 37t-41 17q-17 0 -27 -6.5t-14.5 -12t-4.5 -6.5l-56 9l14 144h181v-47h-143l-9 -81l7.5 9t24 18t42.5 9q49 0 71 -27.5t20 -62.5q-2 -36 -31 -65.5
t-78 -29.5z" />
    <glyph glyph-name="six.dnom" horiz-adv-x="251" 
d="M129 -13q-39 0 -64 19.5t-37.5 52t-12.5 71.5t14 72t41 54t66 21q30 0 48.5 -9.5t28.5 -22t13.5 -22l3.5 -9.5l-53 -10l-3.5 7t-13 13.5t-27.5 6.5q-15 0 -32 -11.5t-27.5 -36.5t-6.5 -67q1 5 8.5 18.5t24.5 25.5t45 12q46 0 68.5 -26t22.5 -58q0 -37 -26.5 -69
t-80.5 -32zM132 32q28 0 41 18t13 39q0 20 -13.5 36t-39.5 16q-25 0 -42 -19t-17 -44q5 -23 22 -34.5t36 -11.5z" />
    <glyph glyph-name="seven.dnom" horiz-adv-x="244" 
d="M59 0q0 85 32 138t87 78h-163v48h214v-47q-15 -7 -34.5 -20.5t-37.5 -37.5t-30.5 -62.5t-12.5 -96.5h-55z" />
    <glyph glyph-name="eight.dnom" horiz-adv-x="260" 
d="M129 -13q-48 0 -81 21.5t-33 60.5q0 27 18 47t50 27q-23 3 -34 14t-15 24t-4 21q0 34 27.5 54.5t71.5 20.5q46 0 73 -21t27 -54q0 -8 -3.5 -21t-14.5 -24t-35 -14q33 -7 51 -26.5t18 -47.5q0 -40 -33 -61t-83 -21zM130 30q29 0 46 13.5t17 34.5q0 25 -17 37t-46 12
t-46 -12t-17 -37q0 -21 17 -34.5t46 -13.5zM129 154q25 0 39 10t14 28q0 21 -14.5 31.5t-38.5 10.5q-23 0 -37 -10.5t-14 -31.5q0 -18 14.5 -28t36.5 -10z" />
    <glyph glyph-name="nine.dnom" horiz-adv-x="253" 
d="M115 -13q-30 0 -48.5 10t-28.5 22t-13.5 21.5l-3.5 9.5l53 11l3.5 -7t13 -14t27.5 -7q16 0 32.5 11.5t27 37t6.5 67.5q0 -5 -8 -19t-24.5 -26t-45.5 -12q-46 0 -68.5 26.5t-22.5 57.5q0 38 27 69.5t80 31.5q39 0 64 -19t37.5 -51.5t12.5 -72.5q0 -38 -14 -71.5
t-40.5 -54.5t-66.5 -21zM118 123q25 0 42 19.5t17 44.5q-5 22 -22 34t-36 12q-27 0 -40.5 -18t-13.5 -39t13.5 -37t39.5 -16z" />
    <glyph glyph-name="zero.numr" horiz-adv-x="264" 
d="M132 280q-59 0 -88 38.5t-29 107.5q0 67 28 105.5t89 38.5q60 0 88.5 -38.5t28.5 -105.5t-28.5 -106.5t-88.5 -39.5zM131 324q36 0 52.5 25t16.5 77q0 51 -16.5 75.5t-52.5 24.5q-34 0 -50.5 -23.5t-16.5 -76.5q0 -52 16 -77t51 -25z" />
    <glyph glyph-name="one.numr" horiz-adv-x="181" 
d="M75 305v212q-5 -24 -18 -36.5t-25.5 -17t-16.5 -4.5v60q5 0 20 1.5t29.5 12.5t15.5 37h49v-265h-54zM29 293v48h137v-48h-137z" />
    <glyph glyph-name="two.numr" horiz-adv-x="243" 
d="M15 293v45q7 3 29.5 14.5t49.5 30t48 40.5t25 47q6 25 -8 39.5t-39 14.5q-24 0 -39 -17.5t-10 -53.5l-51 6q-6 53 25.5 82t80.5 29q31 0 53.5 -13t34 -34.5t6.5 -48.5q-3 -23 -19.5 -45.5t-40 -41t-48 -31t-43.5 -16.5h159v-47h-213z" />
    <glyph glyph-name="three.numr" horiz-adv-x="246" 
d="M128 280q-50 0 -81.5 25.5t-31.5 75.5l51 7q1 -29 18 -45.5t45 -16.5q23 0 38 13t15 32q0 15 -8 24.5t-19.5 14.5t-24.5 5h-29v28h31q18 0 32.5 10t14.5 28q0 20 -14.5 32.5t-39.5 12.5q-19 0 -31 -8t-18.5 -20t-6.5 -24l-48 8q0 8 4.5 22t16.5 29.5t32 26t50 10.5
q49 0 75.5 -21.5t26.5 -56.5q0 -23 -13 -42t-39 -23q26 -2 41.5 -21t15.5 -45q0 -36 -29 -58.5t-74 -22.5z" />
    <glyph glyph-name="four.numr" horiz-adv-x="257" 
d="M15 346v47q35 15 58.5 45.5t35.5 66t12 65.5h60q0 -46 -29.5 -95t-81.5 -82h172v-47h-227zM154 293v138h55v-138h-55z" />
    <glyph glyph-name="five.numr" horiz-adv-x="246" 
d="M122 280q-33 0 -56 12t-35.5 30t-15.5 37l54 8q1 -4 6 -14t17 -18.5t32 -8.5q25 0 38.5 15.5t15.5 33.5q1 20 -12 37t-41 17q-17 0 -27 -6.5t-14.5 -12t-4.5 -6.5l-56 9l14 144h181v-47h-143l-9 -81l7.5 9t24 18t42.5 9q49 0 71 -27.5t20 -62.5q-2 -36 -31 -65.5
t-78 -29.5z" />
    <glyph glyph-name="six.numr" horiz-adv-x="251" 
d="M129 280q-39 0 -64 19.5t-37.5 52t-12.5 71.5t14 72t41 54t66 21q30 0 48.5 -9.5t28.5 -22t13.5 -22l3.5 -9.5l-53 -10l-3.5 7t-13 13.5t-27.5 6.5q-15 0 -32 -11.5t-27.5 -36.5t-6.5 -67q1 5 8.5 18.5t24.5 25.5t45 12q46 0 68.5 -26t22.5 -58q0 -37 -26.5 -69
t-80.5 -32zM132 325q28 0 41 18t13 39q0 20 -13.5 36t-39.5 16q-25 0 -42 -19t-17 -44q5 -23 22 -34.5t36 -11.5z" />
    <glyph glyph-name="seven.numr" horiz-adv-x="244" 
d="M59 293q0 85 32 138t87 78h-163v48h214v-47q-15 -7 -34.5 -20.5t-37.5 -37.5t-30.5 -62.5t-12.5 -96.5h-55z" />
    <glyph glyph-name="eight.numr" horiz-adv-x="260" 
d="M129 280q-48 0 -81 21.5t-33 60.5q0 27 18 47t50 27q-23 3 -34 14t-15 24t-4 21q0 34 27.5 54.5t71.5 20.5q46 0 73 -21t27 -54q0 -8 -3.5 -21t-14.5 -24t-35 -14q33 -7 51 -26.5t18 -47.5q0 -40 -33 -61t-83 -21zM130 323q29 0 46 13.5t17 34.5q0 25 -17 37t-46 12
t-46 -12t-17 -37q0 -21 17 -34.5t46 -13.5zM129 447q25 0 39 10t14 28q0 21 -14.5 31.5t-38.5 10.5q-23 0 -37 -10.5t-14 -31.5q0 -18 14.5 -28t36.5 -10z" />
    <glyph glyph-name="nine.numr" horiz-adv-x="253" 
d="M115 280q-30 0 -48.5 10t-28.5 22t-13.5 21.5l-3.5 9.5l53 11l3.5 -7t13 -14t27.5 -7q16 0 32.5 11.5t27 37t6.5 67.5q0 -5 -8 -19t-24.5 -26t-45.5 -12q-46 0 -68.5 26.5t-22.5 57.5q0 38 27 69.5t80 31.5q39 0 64 -19t37.5 -51.5t12.5 -72.5q0 -38 -14 -71.5
t-40.5 -54.5t-66.5 -21zM118 416q25 0 42 19.5t17 44.5q-5 22 -22 34t-36 12q-27 0 -40.5 -18t-13.5 -39t13.5 -37t39.5 -16z" />
    <glyph glyph-name="zero.subs" horiz-adv-x="264" 
d="M132 -151q-59 0 -88 38.5t-29 107.5q0 67 28 105.5t89 38.5q60 0 88.5 -38.5t28.5 -105.5t-28.5 -106.5t-88.5 -39.5zM131 -107q36 0 52.5 25t16.5 77q0 51 -16.5 75.5t-52.5 24.5q-34 0 -50.5 -23.5t-16.5 -76.5q0 -52 16 -77t51 -25z" />
    <glyph glyph-name="one.subs" horiz-adv-x="181" 
d="M75 -127v212q-5 -24 -18 -36.5t-25.5 -17t-16.5 -4.5v60q5 0 20 1.5t29.5 12.5t15.5 37h49v-265h-54zM29 -139v48h137v-48h-137z" />
    <glyph glyph-name="two.subs" horiz-adv-x="243" 
d="M15 -139v45q7 3 29.5 14.5t49.5 30t48 40.5t25 47q6 25 -8 39.5t-39 14.5q-24 0 -39 -17.5t-10 -53.5l-51 6q-6 53 25.5 82t80.5 29q31 0 53.5 -13t34 -34.5t6.5 -48.5q-3 -23 -19.5 -45.5t-40 -41t-48 -31t-43.5 -16.5h159v-47h-213z" />
    <glyph glyph-name="three.subs" horiz-adv-x="246" 
d="M128 -152q-50 0 -81.5 25.5t-31.5 75.5l51 7q1 -29 18 -45.5t45 -16.5q23 0 38 13t15 32q0 15 -8 24.5t-19.5 14.5t-24.5 5h-29v28h31q18 0 32.5 10t14.5 28q0 20 -14.5 32.5t-39.5 12.5q-19 0 -31 -8t-18.5 -20t-6.5 -24l-48 8q0 8 4.5 22t16.5 29.5t32 26t50 10.5
q49 0 75.5 -21.5t26.5 -56.5q0 -23 -13 -42t-39 -23q26 -2 41.5 -21t15.5 -45q0 -36 -29 -58.5t-74 -22.5z" />
    <glyph glyph-name="four.subs" horiz-adv-x="257" 
d="M15 -86v47q35 15 58.5 45.5t35.5 66t12 65.5h60q0 -46 -29.5 -95t-81.5 -82h172v-47h-227zM154 -139v138h55v-138h-55z" />
    <glyph glyph-name="five.subs" horiz-adv-x="246" 
d="M122 -151q-33 0 -56 12t-35.5 30t-15.5 37l54 8q1 -4 6 -14t17 -18.5t32 -8.5q25 0 38.5 15.5t15.5 33.5q1 20 -12 37t-41 17q-17 0 -27 -6.5t-14.5 -12t-4.5 -6.5l-56 9l14 144h181v-47h-143l-9 -81l7.5 9t24 18t42.5 9q49 0 71 -27.5t20 -62.5q-2 -36 -31 -65.5
t-78 -29.5z" />
    <glyph glyph-name="six.subs" horiz-adv-x="251" 
d="M129 -152q-39 0 -64 19.5t-37.5 52t-12.5 71.5t14 72t41 54t66 21q30 0 48.5 -9.5t28.5 -22t13.5 -22l3.5 -9.5l-53 -10l-3.5 7t-13 13.5t-27.5 6.5q-15 0 -32 -11.5t-27.5 -36.5t-6.5 -67q1 5 8.5 18.5t24.5 25.5t45 12q46 0 68.5 -26t22.5 -58q0 -37 -26.5 -69
t-80.5 -32zM132 -107q28 0 41 18t13 39q0 20 -13.5 36t-39.5 16q-25 0 -42 -19t-17 -44q5 -23 22 -34.5t36 -11.5z" />
    <glyph glyph-name="seven.subs" horiz-adv-x="244" 
d="M59 -139q0 85 32 138t87 78h-163v48h214v-47q-15 -7 -34.5 -20.5t-37.5 -37.5t-30.5 -62.5t-12.5 -96.5h-55z" />
    <glyph glyph-name="eight.subs" horiz-adv-x="260" 
d="M129 -152q-48 0 -81 21.5t-33 60.5q0 27 18 47t50 27q-23 3 -34 14t-15 24t-4 21q0 34 27.5 54.5t71.5 20.5q46 0 73 -21t27 -54q0 -8 -3.5 -21t-14.5 -24t-35 -14q33 -7 51 -26.5t18 -47.5q0 -40 -33 -61t-83 -21zM130 -109q29 0 46 13.5t17 34.5q0 25 -17 37t-46 12
t-46 -12t-17 -37q0 -21 17 -34.5t46 -13.5zM129 15q25 0 39 10t14 28q0 21 -14.5 31.5t-38.5 10.5q-23 0 -37 -10.5t-14 -31.5q0 -18 14.5 -28t36.5 -10z" />
    <glyph glyph-name="nine.subs" horiz-adv-x="253" 
d="M115 -152q-30 0 -48.5 10t-28.5 22t-13.5 21.5l-3.5 9.5l53 11l3.5 -7t13 -14t27.5 -7q16 0 32.5 11.5t27 37t6.5 67.5q0 -5 -8 -19t-24.5 -26t-45.5 -12q-46 0 -68.5 26.5t-22.5 57.5q0 38 27 69.5t80 31.5q39 0 64 -19t37.5 -51.5t12.5 -72.5q0 -38 -14 -71.5
t-40.5 -54.5t-66.5 -21zM118 -16q25 0 42 19.5t17 44.5q-5 22 -22 34t-36 12q-27 0 -40.5 -18t-13.5 -39t13.5 -37t39.5 -16z" />
    <glyph glyph-name="zero.sups" horiz-adv-x="264" 
d="M132 401q-59 0 -88 37.5t-29 101.5q0 62 28 100t89 38q60 0 88.5 -37.5t28.5 -100.5q0 -61 -28.5 -100t-88.5 -39zM131 445q36 0 52.5 24t16.5 72q0 46 -16.5 70t-52.5 24q-34 0 -50.5 -23.5t-16.5 -71.5q0 -46 16 -70.5t51 -24.5z" />
    <glyph glyph-name="five.sups" horiz-adv-x="246" 
d="M122 401q-33 0 -56 12t-35.5 30t-15.5 37l54 7q1 -4 6 -14t17 -18.5t32 -8.5q25 0 38.5 15t15.5 34q2 20 -11.5 37t-41.5 17q-17 0 -27 -6t-14.5 -12t-4.5 -7l-56 9l14 145h181v-47h-143l-9 -82l7.5 9.5t24 18.5t42.5 9q49 0 71.5 -28.5t19.5 -63.5t-31.5 -64t-77.5 -29z
" />
    <glyph glyph-name="six.sups" horiz-adv-x="251" 
d="M129 401q-58 0 -86 39.5t-28 95.5q0 37 14 69t41 52.5t66 20.5q30 0 48.5 -9.5t28.5 -21.5t13.5 -21l3.5 -9l-53 -10l-3.5 6.5t-13 12.5t-27.5 6q-15 0 -32 -11t-27.5 -35t-6.5 -65q1 5 8.5 18.5t25 26t46.5 10.5q38 0 59.5 -17.5t27.5 -44t-4 -52.5t-35.5 -43.5
t-65.5 -17.5zM132 445q27 0 40.5 14.5t14 34t-12 34.5t-38.5 16q-28 1 -45 -17t-17 -42q5 -20 22 -30t36 -10z" />
    <glyph glyph-name="seven.sups" horiz-adv-x="244" 
d="M46 411q0 57 17.5 102t48 77t66.5 49h-163v49h214v-48q-15 -7 -36.5 -22.5t-42.5 -42t-35 -67t-14 -97.5h-55z" />
    <glyph glyph-name="eight.sups" horiz-adv-x="260" 
d="M129 400q-48 0 -81 20.5t-33 57.5q0 26 18 45t50 24q-23 3 -34 14.5t-15 23.5t-4 20q0 33 27.5 52.5t71.5 19.5q46 0 73 -20t27 -52q0 -8 -3.5 -20t-14.5 -23.5t-35 -14.5q33 -5 51 -23t18 -46q0 -38 -33 -58t-83 -20zM130 441q29 0 46 13t17 33q0 24 -17 35.5t-46 11.5
t-46 -11.5t-17 -35.5q0 -20 17 -33t46 -13zM129 559q25 0 39 9.5t14 26.5q0 21 -14.5 31t-38.5 10q-23 0 -37 -10t-14 -31q0 -17 14.5 -26.5t36.5 -9.5z" />
    <glyph glyph-name="nine.sups" horiz-adv-x="253" 
d="M122 401q-32 0 -52.5 9.5t-31.5 21.5t-15 21.5t-4 10.5l53 11l4 -6.5t15.5 -13.5t30.5 -7q16 0 31 10t24 33.5t8 64.5q-1 -4 -9 -17.5t-25 -25.5t-45 -12q-38 0 -60.5 18t-28.5 44.5t4 52.5t35.5 44t65.5 18q43 0 68.5 -19.5t36.5 -51t10 -68.5q0 -37 -11.5 -68.5
t-36.5 -50.5t-67 -19zM118 533q27 0 42.5 16.5t17.5 40.5q-5 23 -20.5 34t-35.5 11q-21 0 -34 -10.5t-18 -25t-1 -30t16 -25.5t33 -11z" />
    <glyph glyph-name="hyphen_greater.dlig" horiz-adv-x="519" 
d="M484 189q-53 0 -87 17.5t-52.5 43.5t-26.5 52t-10 44t-2 19h63q0 -1 2 -16t13 -34t34 -33t66 -14v-79zM35 189v79h449v-79h-449zM306 92l2 18t10 44.5t26.5 52t52.5 43.5t87 18v-79q-43 0 -66 -14t-34 -33t-13 -33.5t-2 -16.5h-63z" />
    <glyph glyph-name="parenleft_greater.dlig" horiz-adv-x="657" 
d="M329 -18q-61 0 -114.5 23t-93.5 63.5t-63 93.5t-23 114q0 60 23 113t63 93.5t93.5 63.5t114.5 23t113.5 -23t93 -63.5t63.5 -93.5t23 -113q0 -61 -23 -114t-63.5 -93.5t-93.5 -63.5t-113 -23zM329 33q50 0 94 19t77 52.5t52.5 77.5t19.5 94t-19.5 94t-52.5 77t-77 52
t-94 19t-94 -19t-77.5 -52t-52.5 -77t-19 -94t19 -94t52.5 -77.5t77.5 -52.5t94 -19zM306 224l77 53l-77 49v-102zM257 139v268l202 -130z" />
    <glyph glyph-name="colon_parenleft.dlig" horiz-adv-x="657" 
d="M329 -14q-61 0 -114.5 23t-93.5 63t-63 93.5t-23 114.5q0 60 23 113t63 93.5t93.5 63.5t114.5 23q60 0 113 -23t93.5 -63.5t63.5 -93.5t23 -113q0 -61 -23 -114.5t-63.5 -93.5t-93.5 -63t-113 -23zM172 127q5 64 47 104.5t111 40.5q45 0 79.5 -19t55 -52t23.5 -74h-66
q0 6 -3 21.5t-13 32.5t-28 29t-48 12q-32 0 -50.5 -12t-27.5 -29t-12 -32.5t-3 -21.5h-65zM190 288v112h62v-112h-62zM329 37q50 0 94 19t77 52.5t52 77.5t19 93q0 50 -19 94t-52 77t-77 52.5t-94 19.5t-94.5 -19t-77.5 -52.5t-52 -77.5t-19 -94q0 -49 19 -93t52 -77.5
t77.5 -52.5t94.5 -19zM406 288v112h62v-112h-62z" />
    <glyph glyph-name="colon_parenright.dlig" horiz-adv-x="657" 
d="M329 -14q-61 0 -114.5 23t-93.5 63t-63 93.5t-23 114.5q0 60 23 113t63 93.5t93.5 63.5t114.5 23q60 0 113 -23t93.5 -63.5t63.5 -93.5t23 -113q0 -61 -23 -114.5t-63.5 -93.5t-93.5 -63t-113 -23zM330 98q-50 0 -87.5 22.5t-58.5 61.5t-24 86h65q0 -1 1 -13.5t5.5 -30
t16 -35t31 -29.5t51.5 -12q34 0 54.5 12t31 30t14 36t4 30l0.5 12h65q-2 -49 -23.5 -87.5t-58.5 -60.5t-87 -22zM190 288v112h62v-112h-62zM329 37q50 0 94 19t77 52.5t52 77.5t19 93q0 50 -19 94t-52 77t-77 52.5t-94 19.5t-94.5 -19t-77.5 -52.5t-52 -77.5t-19 -94
q0 -49 19 -93t52 -77.5t77.5 -52.5t94.5 -19zM406 288v112h62v-112h-62z" />
    <glyph glyph-name="periodcentered.case" horiz-adv-x="246" 
d="M119 228q-44 0 -59 21.5t-15 52.5q0 28 15 50t59 22q43 0 57.5 -22t14.5 -50q0 -30 -14.5 -52t-57.5 -22z" />
    <glyph glyph-name="bullet.case" horiz-adv-x="262" 
d="M119 228q-44 0 -59 21.5t-15 52.5q0 28 15 50t59 22q43 0 57.5 -22t14.5 -50q0 -30 -14.5 -52t-57.5 -22z" />
    <glyph glyph-name="hyphen.case" horiz-adv-x="317" 
d="M40 236v71h222v-71h-222z" />
    <glyph glyph-name="endash.case" horiz-adv-x="424" 
d="M40 236v71h329v-71h-329z" />
    <glyph glyph-name="emdash.case" horiz-adv-x="577" 
d="M40 236v71h482v-71h-482z" />
    <glyph glyph-name="parenleft.case" horiz-adv-x="327" 
d="M233 -142l-19.5 15.5t-47.5 47.5t-57 80t-48 111.5t-19 144.5q0 80 19 144.5t48 113t57 80.5t47.5 48.5l19.5 16.5l79 -80q-4 -3 -25.5 -16.5t-51 -38.5t-58.5 -62.5t-48 -88.5t-19 -117q0 -67 20.5 -119t50.5 -89.5t60 -62t50.5 -36l20.5 -11.5z" />
    <glyph glyph-name="parenright.case" horiz-adv-x="317" 
d="M84 -142l-79 81l20.5 11.5t50.5 36t60 62t50.5 89.5t20.5 119q0 65 -19 116.5t-48 89t-58.5 62.5t-51 38.5t-25.5 16.5l79 80l19.5 -16.5t48 -48.5t57 -80.5t47.5 -113t19 -144.5q0 -81 -19 -144.5t-47.5 -111.5t-57 -80t-48 -47.5z" />
    <glyph glyph-name="braceleft.case" horiz-adv-x="344" 
d="M317 -139q-76 -15 -123 -8t-70 36t-26 80.5t9 125.5q6 43 -0.5 67.5t-20 34.5t-28.5 12t-26 2v99q11 0 26 2.5t28.5 12.5t20 34t0.5 68q-11 74 -8 124t25.5 77.5t69.5 35t123 -3.5v-95q-55 12 -81 6t-33.5 -26t-3.5 -50t8 -66q8 -48 3.5 -83t-28 -56t-73.5 -30
q50 -9 73.5 -30t28 -55t-3.5 -82q-4 -37 -8 -67t3.5 -50t33.5 -26.5t81 5.5v-94z" />
    </font>
</defs>
</svg>
