<svg width="373" height="312" viewBox="0 0 373 312" fill="none" xmlns="http://www.w3.org/2000/svg">
<g clip-path="url(#clip0_3786_20877)">
<path d="M0 12C0 5.37259 5.37258 0 12 0H373V312H12C5.37259 312 0 306.627 0 300V12Z" fill="white"/>
<path fill-rule="evenodd" clip-rule="evenodd" d="M209.812 29.6561C210.094 29.9205 210.108 30.3635 209.843 30.6456L205.292 35.5001L209.843 40.3547C210.108 40.6367 210.094 41.0797 209.812 41.3441C209.53 41.6086 209.087 41.5943 208.822 41.3122L203.822 35.9789C203.57 35.7096 203.57 35.2906 203.822 35.0214L208.822 29.688C209.087 29.406 209.53 29.3917 209.812 29.6561Z" fill="#121118"/>
<path d="M236.84 42V40.3C236.853 40.2867 236.973 40.22 237.2 40.1C237.44 39.98 237.76 39.8067 238.16 39.58C238.56 39.3533 238.987 39.0867 239.44 38.78C239.907 38.4733 240.367 38.14 240.82 37.78C241.287 37.42 241.707 37.04 242.08 36.64C242.453 36.24 242.747 35.8333 242.96 35.42C243.267 34.7933 243.36 34.2533 243.24 33.8C243.133 33.3333 242.887 32.9733 242.5 32.72C242.113 32.4533 241.653 32.32 241.12 32.32C240.4 32.32 239.827 32.56 239.4 33.04C238.973 33.52 238.827 34.26 238.96 35.26L237.06 35C236.967 34.08 237.093 33.2933 237.44 32.64C237.8 31.9733 238.32 31.4667 239 31.12C239.68 30.7733 240.46 30.6 241.34 30.6C242.06 30.6 242.707 30.7333 243.28 31C243.867 31.2667 244.333 31.6333 244.68 32.1C245.027 32.5667 245.227 33.1 245.28 33.7C245.333 34.3 245.193 34.94 244.86 35.62C244.607 36.1267 244.253 36.6133 243.8 37.08C243.36 37.5333 242.88 37.9467 242.36 38.32C241.853 38.6933 241.353 39.02 240.86 39.3C240.38 39.5667 239.96 39.7867 239.6 39.96C239.24 40.12 239 40.2133 238.88 40.24H245.48V42H236.84ZM251.811 42.28C250.158 42.28 248.931 41.7533 248.131 40.7C247.331 39.6333 246.931 38.2 246.931 36.4C246.931 35.2133 247.098 34.1867 247.431 33.32C247.778 32.44 248.311 31.76 249.031 31.28C249.764 30.7867 250.691 30.54 251.811 30.54C252.931 30.54 253.851 30.78 254.571 31.26C255.291 31.74 255.824 32.42 256.171 33.3C256.518 34.18 256.691 35.2133 256.691 36.4C256.691 37.56 256.518 38.5867 256.171 39.48C255.824 40.36 255.291 41.0467 254.571 41.54C253.851 42.0333 252.931 42.28 251.811 42.28ZM251.811 40.58C252.838 40.58 253.591 40.2267 254.071 39.52C254.551 38.8 254.791 37.76 254.791 36.4C254.791 35.4933 254.684 34.7333 254.471 34.12C254.271 33.4933 253.951 33.0267 253.511 32.72C253.071 32.4 252.504 32.24 251.811 32.24C250.798 32.24 250.044 32.58 249.551 33.26C249.071 33.94 248.831 34.9867 248.831 36.4C248.831 37.3067 248.931 38.0733 249.131 38.7C249.344 39.3133 249.664 39.78 250.091 40.1C250.531 40.42 251.104 40.58 251.811 40.58ZM258.11 42V40.3C258.123 40.2867 258.243 40.22 258.47 40.1C258.71 39.98 259.03 39.8067 259.43 39.58C259.83 39.3533 260.256 39.0867 260.71 38.78C261.176 38.4733 261.636 38.14 262.09 37.78C262.556 37.42 262.976 37.04 263.35 36.64C263.723 36.24 264.016 35.8333 264.23 35.42C264.536 34.7933 264.63 34.2533 264.51 33.8C264.403 33.3333 264.156 32.9733 263.77 32.72C263.383 32.4533 262.923 32.32 262.39 32.32C261.67 32.32 261.096 32.56 260.67 33.04C260.243 33.52 260.096 34.26 260.23 35.26L258.33 35C258.236 34.08 258.363 33.2933 258.71 32.64C259.07 31.9733 259.59 31.4667 260.27 31.12C260.95 30.7733 261.73 30.6 262.61 30.6C263.33 30.6 263.976 30.7333 264.55 31C265.136 31.2667 265.603 31.6333 265.95 32.1C266.296 32.5667 266.496 33.1 266.55 33.7C266.603 34.3 266.463 34.94 266.13 35.62C265.876 36.1267 265.523 36.6133 265.07 37.08C264.63 37.5333 264.15 37.9467 263.63 38.32C263.123 38.6933 262.623 39.02 262.13 39.3C261.65 39.5667 261.23 39.7867 260.87 39.96C260.51 40.12 260.27 40.2133 260.15 40.24H266.75V42H258.11ZM272.981 42.2C272.087 42.2 271.287 42.0467 270.581 41.74C269.874 41.4333 269.314 40.9733 268.901 40.36C268.501 39.7333 268.301 38.96 268.301 38.04L270.261 37.76C270.274 38.3333 270.401 38.82 270.641 39.22C270.881 39.6067 271.201 39.9067 271.601 40.12C272.014 40.3333 272.487 40.44 273.021 40.44C273.474 40.44 273.874 40.36 274.221 40.2C274.581 40.0267 274.861 39.7933 275.061 39.5C275.274 39.2067 275.381 38.8733 275.381 38.5C275.381 38.18 275.314 37.9133 275.181 37.7C275.047 37.4733 274.867 37.2933 274.641 37.16C274.427 37.0133 274.187 36.9133 273.921 36.86C273.667 36.7933 273.421 36.76 273.181 36.76H271.841V35.7H273.221C273.581 35.7 273.914 35.6533 274.221 35.56C274.527 35.4533 274.767 35.2933 274.941 35.08C275.127 34.8667 275.221 34.5867 275.221 34.24C275.221 33.6267 275.007 33.14 274.581 32.78C274.154 32.42 273.581 32.24 272.861 32.24C272.434 32.24 272.061 32.3133 271.741 32.46C271.434 32.5933 271.181 32.7733 270.981 33C270.781 33.2267 270.627 33.4733 270.521 33.74C270.414 33.9933 270.361 34.24 270.361 34.48L268.541 34.18C268.541 34.0067 268.581 33.7733 268.661 33.48C268.741 33.1867 268.874 32.8733 269.061 32.54C269.261 32.2067 269.521 31.8867 269.841 31.58C270.174 31.2733 270.581 31.0267 271.061 30.84C271.554 30.64 272.134 30.54 272.801 30.54C274.147 30.54 275.194 30.8333 275.941 31.42C276.687 31.9933 277.061 32.7733 277.061 33.76C277.061 34.4133 276.881 34.9733 276.521 35.44C276.161 35.9067 275.621 36.1867 274.901 36.28C275.607 36.3733 276.181 36.6667 276.621 37.16C277.061 37.64 277.281 38.2333 277.281 38.94C277.281 39.6067 277.094 40.1867 276.721 40.68C276.361 41.1733 275.854 41.5533 275.201 41.82C274.561 42.0733 273.821 42.2 272.981 42.2Z" fill="#121118"/>
<path fill-rule="evenodd" clip-rule="evenodd" d="M304.188 29.6559C304.47 29.3914 304.913 29.4057 305.177 29.6878L310.177 35.0211C310.43 35.2904 310.43 35.7094 310.177 35.9786L305.177 41.312C304.913 41.594 304.47 41.6083 304.188 41.3439C303.906 41.0795 303.892 40.6365 304.156 40.3544L308.707 35.4999L304.156 30.6453C303.892 30.3633 303.906 29.9203 304.188 29.6559Z" fill="#121118"/>
<path d="M172.906 105.008C172.417 105.008 172.031 104.938 171.75 104.797V103.664C172.12 103.768 172.505 103.82 172.906 103.82C173.422 103.82 173.812 103.664 174.078 103.352C174.349 103.039 174.484 102.589 174.484 102V90.5781H175.812V101.891C175.812 102.88 175.562 103.646 175.062 104.188C174.562 104.734 173.844 105.008 172.906 105.008ZM183.922 102L183.664 100.781H183.602C183.174 101.318 182.747 101.682 182.32 101.875C181.898 102.062 181.37 102.156 180.734 102.156C179.885 102.156 179.219 101.938 178.734 101.5C178.255 101.062 178.016 100.44 178.016 99.6328C178.016 97.9036 179.398 96.9974 182.164 96.9141L183.617 96.8672V96.3359C183.617 95.6641 183.471 95.1693 183.18 94.8516C182.893 94.5286 182.432 94.3672 181.797 94.3672C181.083 94.3672 180.276 94.5859 179.375 95.0234L178.977 94.0312C179.398 93.8021 179.859 93.6224 180.359 93.4922C180.865 93.362 181.37 93.2969 181.875 93.2969C182.896 93.2969 183.651 93.5234 184.141 93.9766C184.635 94.4297 184.883 95.1562 184.883 96.1562V102H183.922ZM180.992 101.086C181.799 101.086 182.432 100.865 182.891 100.422C183.354 99.9792 183.586 99.3594 183.586 98.5625V97.7891L182.289 97.8438C181.258 97.8802 180.513 98.0417 180.055 98.3281C179.602 98.6094 179.375 99.0495 179.375 99.6484C179.375 100.117 179.516 100.474 179.797 100.719C180.083 100.964 180.482 101.086 180.992 101.086ZM193.422 102V96.4609C193.422 95.763 193.263 95.2422 192.945 94.8984C192.628 94.5547 192.13 94.3828 191.453 94.3828C190.557 94.3828 189.901 94.625 189.484 95.1094C189.068 95.5938 188.859 96.3932 188.859 97.5078V102H187.562V93.4375H188.617L188.828 94.6094H188.891C189.156 94.1875 189.529 93.862 190.008 93.6328C190.487 93.3984 191.021 93.2812 191.609 93.2812C192.641 93.2812 193.417 93.5312 193.938 94.0312C194.458 94.526 194.719 95.3203 194.719 96.4141V102H193.422Z" fill="#121118"/>
<path d="M269.898 102H268.57V90.5781H274.938V91.7578H269.898V95.9375H274.633V97.1172H269.898V102ZM280.258 102.156C278.992 102.156 277.992 101.771 277.258 101C276.529 100.229 276.164 99.1589 276.164 97.7891C276.164 96.4089 276.503 95.3125 277.18 94.5C277.862 93.6875 278.776 93.2812 279.922 93.2812C280.995 93.2812 281.844 93.6354 282.469 94.3438C283.094 95.0469 283.406 95.9766 283.406 97.1328V97.9531H277.508C277.534 98.9583 277.786 99.7214 278.266 100.242C278.75 100.763 279.43 101.023 280.305 101.023C281.227 101.023 282.138 100.831 283.039 100.445V101.602C282.581 101.799 282.146 101.94 281.734 102.023C281.328 102.112 280.836 102.156 280.258 102.156ZM279.906 94.3672C279.219 94.3672 278.669 94.5911 278.258 95.0391C277.852 95.487 277.612 96.1068 277.539 96.8984H282.016C282.016 96.0807 281.833 95.4557 281.469 95.0234C281.104 94.5859 280.583 94.3672 279.906 94.3672ZM289.609 93.2969C290.734 93.2969 291.607 93.6823 292.227 94.4531C292.852 95.2188 293.164 96.3047 293.164 97.7109C293.164 99.1172 292.849 100.211 292.219 100.992C291.594 101.768 290.724 102.156 289.609 102.156C289.052 102.156 288.542 102.055 288.078 101.852C287.62 101.643 287.234 101.326 286.922 100.898H286.828L286.555 102H285.625V89.8438H286.922V92.7969C286.922 93.4583 286.901 94.0521 286.859 94.5781H286.922C287.526 93.724 288.422 93.2969 289.609 93.2969ZM289.422 94.3828C288.536 94.3828 287.898 94.638 287.508 95.1484C287.117 95.6536 286.922 96.5078 286.922 97.7109C286.922 98.9141 287.122 99.776 287.523 100.297C287.924 100.812 288.568 101.07 289.453 101.07C290.25 101.07 290.844 100.781 291.234 100.203C291.625 99.6198 291.82 98.7839 291.82 97.6953C291.82 96.5807 291.625 95.75 291.234 95.2031C290.844 94.6562 290.24 94.3828 289.422 94.3828Z" fill="#121118"/>
<path d="M368.625 102L364.75 91.875H364.688C364.76 92.6771 364.797 93.6302 364.797 94.7344V102H363.57V90.5781H365.57L369.188 100H369.25L372.898 90.5781H374.883V102H373.555V94.6406C373.555 93.7969 373.591 92.8802 373.664 91.8906H373.602L369.695 102H368.625ZM383.094 102L382.836 100.781H382.773C382.346 101.318 381.919 101.682 381.492 101.875C381.07 102.062 380.542 102.156 379.906 102.156C379.057 102.156 378.391 101.938 377.906 101.5C377.427 101.062 377.188 100.44 377.188 99.6328C377.188 97.9036 378.57 96.9974 381.336 96.9141L382.789 96.8672V96.3359C382.789 95.6641 382.643 95.1693 382.352 94.8516C382.065 94.5286 381.604 94.3672 380.969 94.3672C380.255 94.3672 379.448 94.5859 378.547 95.0234L378.148 94.0312C378.57 93.8021 379.031 93.6224 379.531 93.4922C380.036 93.362 380.542 93.2969 381.047 93.2969C382.068 93.2969 382.823 93.5234 383.312 93.9766C383.807 94.4297 384.055 95.1562 384.055 96.1562V102H383.094ZM380.164 101.086C380.971 101.086 381.604 100.865 382.062 100.422C382.526 99.9792 382.758 99.3594 382.758 98.5625V97.7891L381.461 97.8438C380.43 97.8802 379.685 98.0417 379.227 98.3281C378.773 98.6094 378.547 99.0495 378.547 99.6484C378.547 100.117 378.688 100.474 378.969 100.719C379.255 100.964 379.654 101.086 380.164 101.086ZM390.641 93.2812C391.021 93.2812 391.362 93.3125 391.664 93.375L391.484 94.5781C391.13 94.5 390.818 94.4609 390.547 94.4609C389.854 94.4609 389.26 94.7422 388.766 95.3047C388.276 95.8672 388.031 96.5677 388.031 97.4062V102H386.734V93.4375H387.805L387.953 95.0234H388.016C388.333 94.4661 388.716 94.0365 389.164 93.7344C389.612 93.4323 390.104 93.2812 390.641 93.2812Z" fill="#121118"/>
<path d="M91.9375 134H85.5703V122.578H91.9375V123.758H86.8984V127.438H91.6328V128.609H86.8984V132.812H91.9375V134ZM100.109 132.852H100.039C99.4401 133.721 98.5443 134.156 97.3516 134.156C96.2318 134.156 95.3594 133.773 94.7344 133.008C94.1146 132.242 93.8047 131.154 93.8047 129.742C93.8047 128.331 94.1172 127.234 94.7422 126.453C95.3672 125.672 96.237 125.281 97.3516 125.281C98.513 125.281 99.4036 125.703 100.023 126.547H100.125L100.07 125.93L100.039 125.328V121.844H101.336V134H100.281L100.109 132.852ZM97.5156 133.07C98.401 133.07 99.0417 132.831 99.4375 132.352C99.8385 131.867 100.039 131.089 100.039 130.016V129.742C100.039 128.529 99.8359 127.664 99.4297 127.148C99.0286 126.628 98.3854 126.367 97.5 126.367C96.7396 126.367 96.1562 126.664 95.75 127.258C95.349 127.846 95.1484 128.68 95.1484 129.758C95.1484 130.852 95.349 131.677 95.75 132.234C96.151 132.792 96.7396 133.07 97.5156 133.07ZM105.391 134H104.094V125.438H105.391V134ZM103.984 123.117C103.984 122.82 104.057 122.604 104.203 122.469C104.349 122.328 104.531 122.258 104.75 122.258C104.958 122.258 105.138 122.328 105.289 122.469C105.44 122.609 105.516 122.826 105.516 123.117C105.516 123.409 105.44 123.628 105.289 123.773C105.138 123.914 104.958 123.984 104.75 123.984C104.531 123.984 104.349 123.914 104.203 123.773C104.057 123.628 103.984 123.409 103.984 123.117ZM110.906 133.086C111.135 133.086 111.357 133.07 111.57 133.039C111.784 133.003 111.953 132.966 112.078 132.93V133.922C111.938 133.99 111.729 134.044 111.453 134.086C111.182 134.133 110.938 134.156 110.719 134.156C109.062 134.156 108.234 133.284 108.234 131.539V126.445H107.008V125.82L108.234 125.281L108.781 123.453H109.531V125.438H112.016V126.445H109.531V131.484C109.531 132 109.654 132.396 109.898 132.672C110.143 132.948 110.479 133.086 110.906 133.086ZM119.32 131.664C119.32 132.461 119.023 133.076 118.43 133.508C117.836 133.94 117.003 134.156 115.93 134.156C114.794 134.156 113.909 133.977 113.273 133.617V132.414C113.685 132.622 114.125 132.786 114.594 132.906C115.068 133.026 115.523 133.086 115.961 133.086C116.638 133.086 117.159 132.979 117.523 132.766C117.888 132.547 118.07 132.216 118.07 131.773C118.07 131.44 117.924 131.156 117.633 130.922C117.346 130.682 116.784 130.401 115.945 130.078C115.148 129.781 114.581 129.523 114.242 129.305C113.909 129.081 113.659 128.828 113.492 128.547C113.331 128.266 113.25 127.93 113.25 127.539C113.25 126.841 113.534 126.292 114.102 125.891C114.669 125.484 115.448 125.281 116.438 125.281C117.359 125.281 118.26 125.469 119.141 125.844L118.68 126.898C117.82 126.544 117.042 126.367 116.344 126.367C115.729 126.367 115.266 126.464 114.953 126.656C114.641 126.849 114.484 127.115 114.484 127.453C114.484 127.682 114.542 127.878 114.656 128.039C114.776 128.201 114.966 128.354 115.227 128.5C115.487 128.646 115.987 128.857 116.727 129.133C117.742 129.503 118.427 129.875 118.781 130.25C119.141 130.625 119.32 131.096 119.32 131.664Z" fill="#121118"/>
<path d="M30.4609 147.602C29.2057 147.602 28.2135 148.021 27.4844 148.859C26.7604 149.693 26.3984 150.836 26.3984 152.289C26.3984 153.784 26.7474 154.94 27.4453 155.758C28.1484 156.57 29.1484 156.977 30.4453 156.977C31.2422 156.977 32.151 156.833 33.1719 156.547V157.711C32.3802 158.008 31.4036 158.156 30.2422 158.156C28.5599 158.156 27.2604 157.646 26.3438 156.625C25.4323 155.604 24.9766 154.154 24.9766 152.273C24.9766 151.096 25.1953 150.065 25.6328 149.18C26.0755 148.294 26.7109 147.612 27.5391 147.133C28.3724 146.654 29.3516 146.414 30.4766 146.414C31.6745 146.414 32.7214 146.633 33.6172 147.07L33.0547 148.211C32.1901 147.805 31.3255 147.602 30.4609 147.602ZM42.8594 153.711C42.8594 155.107 42.5078 156.198 41.8047 156.984C41.1016 157.766 40.1302 158.156 38.8906 158.156C38.125 158.156 37.4453 157.977 36.8516 157.617C36.2578 157.258 35.7995 156.742 35.4766 156.07C35.1536 155.398 34.9922 154.612 34.9922 153.711C34.9922 152.315 35.3411 151.229 36.0391 150.453C36.737 149.672 37.7057 149.281 38.9453 149.281C40.1432 149.281 41.0938 149.68 41.7969 150.477C42.5052 151.273 42.8594 152.352 42.8594 153.711ZM36.3359 153.711C36.3359 154.805 36.5547 155.638 36.9922 156.211C37.4297 156.784 38.0729 157.07 38.9219 157.07C39.7708 157.07 40.4141 156.786 40.8516 156.219C41.2943 155.646 41.5156 154.81 41.5156 153.711C41.5156 152.622 41.2943 151.797 40.8516 151.234C40.4141 150.667 39.7656 150.383 38.9062 150.383C38.0573 150.383 37.4167 150.661 36.9844 151.219C36.5521 151.776 36.3359 152.607 36.3359 153.711ZM56.0547 158V152.43C56.0547 151.747 55.9089 151.237 55.6172 150.898C55.3255 150.555 54.8724 150.383 54.2578 150.383C53.4505 150.383 52.8542 150.615 52.4688 151.078C52.0833 151.542 51.8906 152.255 51.8906 153.219V158H50.5938V152.43C50.5938 151.747 50.4479 151.237 50.1562 150.898C49.8646 150.555 49.4089 150.383 48.7891 150.383C47.9766 150.383 47.3802 150.628 47 151.117C46.625 151.602 46.4375 152.398 46.4375 153.508V158H45.1406V149.438H46.1953L46.4062 150.609H46.4688C46.7135 150.193 47.0573 149.867 47.5 149.633C47.9479 149.398 48.4479 149.281 49 149.281C50.3385 149.281 51.2135 149.766 51.625 150.734H51.6875C51.9427 150.286 52.3125 149.932 52.7969 149.672C53.2812 149.411 53.8333 149.281 54.4531 149.281C55.4219 149.281 56.1458 149.531 56.625 150.031C57.1094 150.526 57.3516 151.32 57.3516 152.414V158H56.0547ZM64.0156 158.156C63.4583 158.156 62.9479 158.055 62.4844 157.852C62.026 157.643 61.6406 157.326 61.3281 156.898H61.2344C61.2969 157.398 61.3281 157.872 61.3281 158.32V161.844H60.0312V149.438H61.0859L61.2656 150.609H61.3281C61.6615 150.141 62.0495 149.802 62.4922 149.594C62.9349 149.385 63.4427 149.281 64.0156 149.281C65.151 149.281 66.026 149.669 66.6406 150.445C67.2604 151.221 67.5703 152.31 67.5703 153.711C67.5703 155.117 67.2552 156.211 66.625 156.992C66 157.768 65.1302 158.156 64.0156 158.156ZM63.8281 150.383C62.9531 150.383 62.3203 150.625 61.9297 151.109C61.5391 151.594 61.3385 152.365 61.3281 153.422V153.711C61.3281 154.914 61.5286 155.776 61.9297 156.297C62.3307 156.812 62.974 157.07 63.8594 157.07C64.599 157.07 65.1771 156.771 65.5938 156.172C66.0156 155.573 66.2266 154.747 66.2266 153.695C66.2266 152.628 66.0156 151.81 65.5938 151.242C65.1771 150.669 64.5885 150.383 63.8281 150.383ZM77.2344 153.711C77.2344 155.107 76.8828 156.198 76.1797 156.984C75.4766 157.766 74.5052 158.156 73.2656 158.156C72.5 158.156 71.8203 157.977 71.2266 157.617C70.6328 157.258 70.1745 156.742 69.8516 156.07C69.5286 155.398 69.3672 154.612 69.3672 153.711C69.3672 152.315 69.7161 151.229 70.4141 150.453C71.112 149.672 72.0807 149.281 73.3203 149.281C74.5182 149.281 75.4688 149.68 76.1719 150.477C76.8802 151.273 77.2344 152.352 77.2344 153.711ZM70.7109 153.711C70.7109 154.805 70.9297 155.638 71.3672 156.211C71.8047 156.784 72.4479 157.07 73.2969 157.07C74.1458 157.07 74.7891 156.786 75.2266 156.219C75.6693 155.646 75.8906 154.81 75.8906 153.711C75.8906 152.622 75.6693 151.797 75.2266 151.234C74.7891 150.667 74.1406 150.383 73.2812 150.383C72.4323 150.383 71.7917 150.661 71.3594 151.219C70.9271 151.776 70.7109 152.607 70.7109 153.711ZM85.375 158V152.461C85.375 151.763 85.2161 151.242 84.8984 150.898C84.5807 150.555 84.0833 150.383 83.4062 150.383C82.5104 150.383 81.8542 150.625 81.4375 151.109C81.0208 151.594 80.8125 152.393 80.8125 153.508V158H79.5156V149.438H80.5703L80.7812 150.609H80.8438C81.1094 150.188 81.4818 149.862 81.9609 149.633C82.4401 149.398 82.974 149.281 83.5625 149.281C84.5938 149.281 85.3698 149.531 85.8906 150.031C86.4115 150.526 86.6719 151.32 86.6719 152.414V158H85.375ZM92.9609 158.156C91.6953 158.156 90.6953 157.771 89.9609 157C89.2318 156.229 88.8672 155.159 88.8672 153.789C88.8672 152.409 89.2057 151.312 89.8828 150.5C90.5651 149.688 91.4792 149.281 92.625 149.281C93.6979 149.281 94.5469 149.635 95.1719 150.344C95.7969 151.047 96.1094 151.977 96.1094 153.133V153.953H90.2109C90.237 154.958 90.4896 155.721 90.9688 156.242C91.4531 156.763 92.1328 157.023 93.0078 157.023C93.9297 157.023 94.8411 156.831 95.7422 156.445V157.602C95.2839 157.799 94.849 157.94 94.4375 158.023C94.0312 158.112 93.5391 158.156 92.9609 158.156ZM92.6094 150.367C91.9219 150.367 91.3724 150.591 90.9609 151.039C90.5547 151.487 90.3151 152.107 90.2422 152.898H94.7188C94.7188 152.081 94.5365 151.456 94.1719 151.023C93.8073 150.586 93.2865 150.367 92.6094 150.367ZM104.188 158V152.461C104.188 151.763 104.029 151.242 103.711 150.898C103.393 150.555 102.896 150.383 102.219 150.383C101.323 150.383 100.667 150.625 100.25 151.109C99.8333 151.594 99.625 152.393 99.625 153.508V158H98.3281V149.438H99.3828L99.5938 150.609H99.6562C99.9219 150.188 100.294 149.862 100.773 149.633C101.253 149.398 101.786 149.281 102.375 149.281C103.406 149.281 104.182 149.531 104.703 150.031C105.224 150.526 105.484 151.32 105.484 152.414V158H104.188ZM110.922 157.086C111.151 157.086 111.372 157.07 111.586 157.039C111.799 157.003 111.969 156.966 112.094 156.93V157.922C111.953 157.99 111.745 158.044 111.469 158.086C111.198 158.133 110.953 158.156 110.734 158.156C109.078 158.156 108.25 157.284 108.25 155.539V150.445H107.023V149.82L108.25 149.281L108.797 147.453H109.547V149.438H112.031V150.445H109.547V155.484C109.547 156 109.669 156.396 109.914 156.672C110.159 156.948 110.495 157.086 110.922 157.086ZM119.336 155.664C119.336 156.461 119.039 157.076 118.445 157.508C117.852 157.94 117.018 158.156 115.945 158.156C114.81 158.156 113.924 157.977 113.289 157.617V156.414C113.701 156.622 114.141 156.786 114.609 156.906C115.083 157.026 115.539 157.086 115.977 157.086C116.654 157.086 117.174 156.979 117.539 156.766C117.904 156.547 118.086 156.216 118.086 155.773C118.086 155.44 117.94 155.156 117.648 154.922C117.362 154.682 116.799 154.401 115.961 154.078C115.164 153.781 114.596 153.523 114.258 153.305C113.924 153.081 113.674 152.828 113.508 152.547C113.346 152.266 113.266 151.93 113.266 151.539C113.266 150.841 113.549 150.292 114.117 149.891C114.685 149.484 115.464 149.281 116.453 149.281C117.375 149.281 118.276 149.469 119.156 149.844L118.695 150.898C117.836 150.544 117.057 150.367 116.359 150.367C115.745 150.367 115.281 150.464 114.969 150.656C114.656 150.849 114.5 151.115 114.5 151.453C114.5 151.682 114.557 151.878 114.672 152.039C114.792 152.201 114.982 152.354 115.242 152.5C115.503 152.646 116.003 152.857 116.742 153.133C117.758 153.503 118.443 153.875 118.797 154.25C119.156 154.625 119.336 155.096 119.336 155.664Z" fill="#121118"/>
<path d="M59.6875 176.18C59.6875 178.065 59.1745 179.508 58.1484 180.508C57.1276 181.503 55.6562 182 53.7344 182H50.5703V170.578H54.0703C55.8464 170.578 57.2266 171.07 58.2109 172.055C59.1953 173.039 59.6875 174.414 59.6875 176.18ZM58.2812 176.227C58.2812 174.737 57.9062 173.615 57.1562 172.859C56.4115 172.104 55.3021 171.727 53.8281 171.727H51.8984V180.852H53.5156C55.099 180.852 56.2891 180.464 57.0859 179.688C57.8828 178.906 58.2812 177.753 58.2812 176.227ZM65.6641 182.156C64.3984 182.156 63.3984 181.771 62.6641 181C61.9349 180.229 61.5703 179.159 61.5703 177.789C61.5703 176.409 61.9089 175.312 62.5859 174.5C63.2682 173.688 64.1823 173.281 65.3281 173.281C66.401 173.281 67.25 173.635 67.875 174.344C68.5 175.047 68.8125 175.977 68.8125 177.133V177.953H62.9141C62.9401 178.958 63.1927 179.721 63.6719 180.242C64.1562 180.763 64.8359 181.023 65.7109 181.023C66.6328 181.023 67.5443 180.831 68.4453 180.445V181.602C67.987 181.799 67.5521 181.94 67.1406 182.023C66.7344 182.112 66.2422 182.156 65.6641 182.156ZM65.3125 174.367C64.625 174.367 64.0755 174.591 63.6641 175.039C63.2578 175.487 63.0182 176.107 62.9453 176.898H67.4219C67.4219 176.081 67.2396 175.456 66.875 175.023C66.5104 174.586 65.9896 174.367 65.3125 174.367ZM73.7969 181.086C74.026 181.086 74.2474 181.07 74.4609 181.039C74.6745 181.003 74.8438 180.966 74.9688 180.93V181.922C74.8281 181.99 74.6198 182.044 74.3438 182.086C74.0729 182.133 73.8281 182.156 73.6094 182.156C71.9531 182.156 71.125 181.284 71.125 179.539V174.445H69.8984V173.82L71.125 173.281L71.6719 171.453H72.4219V173.438H74.9062V174.445H72.4219V179.484C72.4219 180 72.5443 180.396 72.7891 180.672C73.0339 180.948 73.3698 181.086 73.7969 181.086ZM81.9531 182L81.6953 180.781H81.6328C81.2057 181.318 80.7786 181.682 80.3516 181.875C79.9297 182.062 79.401 182.156 78.7656 182.156C77.9167 182.156 77.25 181.938 76.7656 181.5C76.2865 181.062 76.0469 180.44 76.0469 179.633C76.0469 177.904 77.4297 176.997 80.1953 176.914L81.6484 176.867V176.336C81.6484 175.664 81.5026 175.169 81.2109 174.852C80.9245 174.529 80.4635 174.367 79.8281 174.367C79.1146 174.367 78.3073 174.586 77.4062 175.023L77.0078 174.031C77.4297 173.802 77.8906 173.622 78.3906 173.492C78.8958 173.362 79.401 173.297 79.9062 173.297C80.9271 173.297 81.6823 173.523 82.1719 173.977C82.6667 174.43 82.9141 175.156 82.9141 176.156V182H81.9531ZM79.0234 181.086C79.8307 181.086 80.4635 180.865 80.9219 180.422C81.3854 179.979 81.6172 179.359 81.6172 178.562V177.789L80.3203 177.844C79.2891 177.88 78.5443 178.042 78.0859 178.328C77.6328 178.609 77.4062 179.049 77.4062 179.648C77.4062 180.117 77.5469 180.474 77.8281 180.719C78.1146 180.964 78.513 181.086 79.0234 181.086ZM89.0156 182.156C87.776 182.156 86.8151 181.776 86.1328 181.016C85.4557 180.25 85.1172 179.169 85.1172 177.773C85.1172 176.341 85.4609 175.234 86.1484 174.453C86.8411 173.672 87.8255 173.281 89.1016 173.281C89.513 173.281 89.9245 173.326 90.3359 173.414C90.7474 173.503 91.0703 173.607 91.3047 173.727L90.9062 174.828C90.6198 174.714 90.3073 174.62 89.9688 174.547C89.6302 174.469 89.3307 174.43 89.0703 174.43C87.3307 174.43 86.4609 175.539 86.4609 177.758C86.4609 178.81 86.6719 179.617 87.0938 180.18C87.5208 180.742 88.151 181.023 88.9844 181.023C89.6979 181.023 90.4297 180.87 91.1797 180.562V181.711C90.6068 182.008 89.8854 182.156 89.0156 182.156ZM99.0781 182V176.461C99.0781 175.763 98.9193 175.242 98.6016 174.898C98.2839 174.555 97.7865 174.383 97.1094 174.383C96.2083 174.383 95.5495 174.628 95.1328 175.117C94.7214 175.607 94.5156 176.409 94.5156 177.523V182H93.2188V169.844H94.5156V173.523C94.5156 173.966 94.4948 174.333 94.4531 174.625H94.5312C94.7865 174.214 95.1484 173.891 95.6172 173.656C96.0911 173.417 96.6302 173.297 97.2344 173.297C98.2812 173.297 99.0651 173.547 99.5859 174.047C100.112 174.542 100.375 175.331 100.375 176.414V182H99.0781ZM106.664 182.156C105.398 182.156 104.398 181.771 103.664 181C102.935 180.229 102.57 179.159 102.57 177.789C102.57 176.409 102.909 175.312 103.586 174.5C104.268 173.688 105.182 173.281 106.328 173.281C107.401 173.281 108.25 173.635 108.875 174.344C109.5 175.047 109.812 175.977 109.812 177.133V177.953H103.914C103.94 178.958 104.193 179.721 104.672 180.242C105.156 180.763 105.836 181.023 106.711 181.023C107.633 181.023 108.544 180.831 109.445 180.445V181.602C108.987 181.799 108.552 181.94 108.141 182.023C107.734 182.112 107.242 182.156 106.664 182.156ZM106.312 174.367C105.625 174.367 105.076 174.591 104.664 175.039C104.258 175.487 104.018 176.107 103.945 176.898H108.422C108.422 176.081 108.24 175.456 107.875 175.023C107.51 174.586 106.99 174.367 106.312 174.367ZM117.859 180.852H117.789C117.19 181.721 116.294 182.156 115.102 182.156C113.982 182.156 113.109 181.773 112.484 181.008C111.865 180.242 111.555 179.154 111.555 177.742C111.555 176.331 111.867 175.234 112.492 174.453C113.117 173.672 113.987 173.281 115.102 173.281C116.263 173.281 117.154 173.703 117.773 174.547H117.875L117.82 173.93L117.789 173.328V169.844H119.086V182H118.031L117.859 180.852ZM115.266 181.07C116.151 181.07 116.792 180.831 117.188 180.352C117.589 179.867 117.789 179.089 117.789 178.016V177.742C117.789 176.529 117.586 175.664 117.18 175.148C116.779 174.628 116.135 174.367 115.25 174.367C114.49 174.367 113.906 174.664 113.5 175.258C113.099 175.846 112.898 176.68 112.898 177.758C112.898 178.852 113.099 179.677 113.5 180.234C113.901 180.792 114.49 181.07 115.266 181.07Z" fill="#121118"/>
<path d="M45.4609 195.602C44.2057 195.602 43.2135 196.021 42.4844 196.859C41.7604 197.693 41.3984 198.836 41.3984 200.289C41.3984 201.784 41.7474 202.94 42.4453 203.758C43.1484 204.57 44.1484 204.977 45.4453 204.977C46.2422 204.977 47.151 204.833 48.1719 204.547V205.711C47.3802 206.008 46.4036 206.156 45.2422 206.156C43.5599 206.156 42.2604 205.646 41.3438 204.625C40.4323 203.604 39.9766 202.154 39.9766 200.273C39.9766 199.096 40.1953 198.065 40.6328 197.18C41.0755 196.294 41.7109 195.612 42.5391 195.133C43.3724 194.654 44.3516 194.414 45.4766 194.414C46.6745 194.414 47.7214 194.633 48.6172 195.07L48.0547 196.211C47.1901 195.805 46.3255 195.602 45.4609 195.602ZM57.8594 201.711C57.8594 203.107 57.5078 204.198 56.8047 204.984C56.1016 205.766 55.1302 206.156 53.8906 206.156C53.125 206.156 52.4453 205.977 51.8516 205.617C51.2578 205.258 50.7995 204.742 50.4766 204.07C50.1536 203.398 49.9922 202.612 49.9922 201.711C49.9922 200.315 50.3411 199.229 51.0391 198.453C51.737 197.672 52.7057 197.281 53.9453 197.281C55.1432 197.281 56.0938 197.68 56.7969 198.477C57.5052 199.273 57.8594 200.352 57.8594 201.711ZM51.3359 201.711C51.3359 202.805 51.5547 203.638 51.9922 204.211C52.4297 204.784 53.0729 205.07 53.9219 205.07C54.7708 205.07 55.4141 204.786 55.8516 204.219C56.2943 203.646 56.5156 202.81 56.5156 201.711C56.5156 200.622 56.2943 199.797 55.8516 199.234C55.4141 198.667 54.7656 198.383 53.9062 198.383C53.0573 198.383 52.4167 198.661 51.9844 199.219C51.5521 199.776 51.3359 200.607 51.3359 201.711ZM71.0547 206V200.43C71.0547 199.747 70.9089 199.237 70.6172 198.898C70.3255 198.555 69.8724 198.383 69.2578 198.383C68.4505 198.383 67.8542 198.615 67.4688 199.078C67.0833 199.542 66.8906 200.255 66.8906 201.219V206H65.5938V200.43C65.5938 199.747 65.4479 199.237 65.1562 198.898C64.8646 198.555 64.4089 198.383 63.7891 198.383C62.9766 198.383 62.3802 198.628 62 199.117C61.625 199.602 61.4375 200.398 61.4375 201.508V206H60.1406V197.438H61.1953L61.4062 198.609H61.4688C61.7135 198.193 62.0573 197.867 62.5 197.633C62.9479 197.398 63.4479 197.281 64 197.281C65.3385 197.281 66.2135 197.766 66.625 198.734H66.6875C66.9427 198.286 67.3125 197.932 67.7969 197.672C68.2812 197.411 68.8333 197.281 69.4531 197.281C70.4219 197.281 71.1458 197.531 71.625 198.031C72.1094 198.526 72.3516 199.32 72.3516 200.414V206H71.0547ZM85.9453 206V200.43C85.9453 199.747 85.7995 199.237 85.5078 198.898C85.2161 198.555 84.763 198.383 84.1484 198.383C83.3411 198.383 82.7448 198.615 82.3594 199.078C81.974 199.542 81.7812 200.255 81.7812 201.219V206H80.4844V200.43C80.4844 199.747 80.3385 199.237 80.0469 198.898C79.7552 198.555 79.2995 198.383 78.6797 198.383C77.8672 198.383 77.2708 198.628 76.8906 199.117C76.5156 199.602 76.3281 200.398 76.3281 201.508V206H75.0312V197.438H76.0859L76.2969 198.609H76.3594C76.6042 198.193 76.9479 197.867 77.3906 197.633C77.8385 197.398 78.3385 197.281 78.8906 197.281C80.2292 197.281 81.1042 197.766 81.5156 198.734H81.5781C81.8333 198.286 82.2031 197.932 82.6875 197.672C83.1719 197.411 83.724 197.281 84.3438 197.281C85.3125 197.281 86.0365 197.531 86.5156 198.031C87 198.526 87.2422 199.32 87.2422 200.414V206H85.9453ZM93.5391 206.156C92.2734 206.156 91.2734 205.771 90.5391 205C89.8099 204.229 89.4453 203.159 89.4453 201.789C89.4453 200.409 89.7839 199.312 90.4609 198.5C91.1432 197.688 92.0573 197.281 93.2031 197.281C94.276 197.281 95.125 197.635 95.75 198.344C96.375 199.047 96.6875 199.977 96.6875 201.133V201.953H90.7891C90.8151 202.958 91.0677 203.721 91.5469 204.242C92.0312 204.763 92.7109 205.023 93.5859 205.023C94.5078 205.023 95.4193 204.831 96.3203 204.445V205.602C95.862 205.799 95.4271 205.94 95.0156 206.023C94.6094 206.112 94.1172 206.156 93.5391 206.156ZM93.1875 198.367C92.5 198.367 91.9505 198.591 91.5391 199.039C91.1328 199.487 90.8932 200.107 90.8203 200.898H95.2969C95.2969 200.081 95.1146 199.456 94.75 199.023C94.3854 198.586 93.8646 198.367 93.1875 198.367ZM104.766 206V200.461C104.766 199.763 104.607 199.242 104.289 198.898C103.971 198.555 103.474 198.383 102.797 198.383C101.901 198.383 101.245 198.625 100.828 199.109C100.411 199.594 100.203 200.393 100.203 201.508V206H98.9062V197.438H99.9609L100.172 198.609H100.234C100.5 198.188 100.872 197.862 101.352 197.633C101.831 197.398 102.365 197.281 102.953 197.281C103.984 197.281 104.76 197.531 105.281 198.031C105.802 198.526 106.062 199.32 106.062 200.414V206H104.766ZM111.5 205.086C111.729 205.086 111.951 205.07 112.164 205.039C112.378 205.003 112.547 204.966 112.672 204.93V205.922C112.531 205.99 112.323 206.044 112.047 206.086C111.776 206.133 111.531 206.156 111.312 206.156C109.656 206.156 108.828 205.284 108.828 203.539V198.445H107.602V197.82L108.828 197.281L109.375 195.453H110.125V197.438H112.609V198.445H110.125V203.484C110.125 204 110.247 204.396 110.492 204.672C110.737 204.948 111.073 205.086 111.5 205.086ZM119.914 203.664C119.914 204.461 119.617 205.076 119.023 205.508C118.43 205.94 117.596 206.156 116.523 206.156C115.388 206.156 114.503 205.977 113.867 205.617V204.414C114.279 204.622 114.719 204.786 115.188 204.906C115.661 205.026 116.117 205.086 116.555 205.086C117.232 205.086 117.753 204.979 118.117 204.766C118.482 204.547 118.664 204.216 118.664 203.773C118.664 203.44 118.518 203.156 118.227 202.922C117.94 202.682 117.378 202.401 116.539 202.078C115.742 201.781 115.174 201.523 114.836 201.305C114.503 201.081 114.253 200.828 114.086 200.547C113.924 200.266 113.844 199.93 113.844 199.539C113.844 198.841 114.128 198.292 114.695 197.891C115.263 197.484 116.042 197.281 117.031 197.281C117.953 197.281 118.854 197.469 119.734 197.844L119.273 198.898C118.414 198.544 117.635 198.367 116.938 198.367C116.323 198.367 115.859 198.464 115.547 198.656C115.234 198.849 115.078 199.115 115.078 199.453C115.078 199.682 115.135 199.878 115.25 200.039C115.37 200.201 115.56 200.354 115.82 200.5C116.081 200.646 116.581 200.857 117.32 201.133C118.336 201.503 119.021 201.875 119.375 202.25C119.734 202.625 119.914 203.096 119.914 203.664Z" fill="#121118"/>
<rect x="143" y="122" width="12" height="12" rx="2" fill="#00ebff"/>
<rect x="143" y="146" width="12" height="12" rx="2" fill="#EBEAEC"/>
<rect x="143" y="170" width="12" height="12" rx="2" fill="#db4d42"/>
<rect x="143" y="194" width="12" height="12" rx="2" fill="#00ebff"/>
<rect x="167" y="122" width="12" height="12" rx="2" fill="#00ebff"/>
<rect x="167" y="146" width="12" height="12" rx="2" fill="#EBEAEC"/>
<rect x="167" y="170" width="12" height="12" rx="2" fill="#EBEAEC"/>
<rect x="167" y="194" width="12" height="12" rx="2" fill="#EBEAEC"/>
<rect x="191" y="122" width="12" height="12" rx="2" fill="#EBEAEC"/>
<rect x="191" y="146" width="12" height="12" rx="2" fill="#EBEAEC"/>
<rect x="191" y="170" width="12" height="12" rx="2" fill="#db4d42"/>
<rect x="191" y="194" width="12" height="12" rx="2" fill="#00ebff"/>
<rect x="215" y="122" width="12" height="12" rx="2" fill="#00ebff"/>
<rect x="215" y="146" width="12" height="12" rx="2" fill="#EBEAEC"/>
<rect x="215" y="170" width="12" height="12" rx="2" fill="#db4d42"/>
<rect x="215" y="194" width="12" height="12" rx="2" fill="#00ebff"/>
<rect x="239" y="122" width="12" height="12" rx="2" fill="#EBEAEC"/>
<rect x="239" y="146" width="12" height="12" rx="2" fill="#EBEAEC"/>
<rect x="239" y="170" width="12" height="12" rx="2" fill="#EBEAEC"/>
<rect x="239" y="194" width="12" height="12" rx="2" fill="#EBEAEC"/>
<rect x="263" y="122" width="12" height="12" rx="2" fill="#00ebff"/>
<rect x="263" y="146" width="12" height="12" rx="2" fill="#00ebff"/>
<rect x="263" y="170" width="12" height="12" rx="2" fill="#EBEAEC"/>
<rect x="263" y="194" width="12" height="12" rx="2" fill="#EBEAEC"/>
<rect x="287" y="122" width="12" height="12" rx="2" fill="#EBEAEC"/>
<rect x="287" y="146" width="12" height="12" rx="2" fill="#EBEAEC"/>
<rect x="287" y="170" width="12" height="12" rx="2" fill="#EBEAEC"/>
<rect x="287" y="194" width="12" height="12" rx="2" fill="#EBEAEC"/>
<rect x="311" y="122" width="12" height="12" rx="2" fill="#EBEAEC"/>
<rect x="311" y="146" width="12" height="12" rx="2" fill="#00ebff"/>
<rect x="311" y="170" width="12" height="12" rx="2" fill="#EBEAEC"/>
<rect x="311" y="194" width="12" height="12" rx="2" fill="#00ebff"/>
<rect x="335" y="122" width="12" height="12" rx="2" fill="#00ebff"/>
<rect x="335" y="146" width="12" height="12" rx="2" fill="#EBEAEC"/>
<rect x="335" y="170" width="12" height="12" rx="2" fill="#EBEAEC"/>
<rect x="335" y="194" width="12" height="12" rx="2" fill="#00ebff"/>
<rect x="359" y="122" width="12" height="12" rx="2" fill="#EBEAEC"/>
<rect x="359" y="146" width="12" height="12" rx="2" fill="#EBEAEC"/>
<rect x="359" y="170" width="12" height="12" rx="2" fill="#EBEAEC"/>
<rect x="359" y="194" width="12" height="12" rx="2" fill="#EBEAEC"/>
<path d="M31.9375 266H25.5703V254.578H31.9375V255.758H26.8984V259.438H31.6328V260.609H26.8984V264.812H31.9375V266ZM40.1094 264.852H40.0391C39.4401 265.721 38.5443 266.156 37.3516 266.156C36.2318 266.156 35.3594 265.773 34.7344 265.008C34.1146 264.242 33.8047 263.154 33.8047 261.742C33.8047 260.331 34.1172 259.234 34.7422 258.453C35.3672 257.672 36.237 257.281 37.3516 257.281C38.513 257.281 39.4036 257.703 40.0234 258.547H40.125L40.0703 257.93L40.0391 257.328V253.844H41.3359V266H40.2812L40.1094 264.852ZM37.5156 265.07C38.401 265.07 39.0417 264.831 39.4375 264.352C39.8385 263.867 40.0391 263.089 40.0391 262.016V261.742C40.0391 260.529 39.8359 259.664 39.4297 259.148C39.0286 258.628 38.3854 258.367 37.5 258.367C36.7396 258.367 36.1562 258.664 35.75 259.258C35.349 259.846 35.1484 260.68 35.1484 261.758C35.1484 262.852 35.349 263.677 35.75 264.234C36.151 264.792 36.7396 265.07 37.5156 265.07ZM45.3906 266H44.0938V257.438H45.3906V266ZM43.9844 255.117C43.9844 254.82 44.0573 254.604 44.2031 254.469C44.349 254.328 44.5312 254.258 44.75 254.258C44.9583 254.258 45.138 254.328 45.2891 254.469C45.4401 254.609 45.5156 254.826 45.5156 255.117C45.5156 255.409 45.4401 255.628 45.2891 255.773C45.138 255.914 44.9583 255.984 44.75 255.984C44.5312 255.984 44.349 255.914 44.2031 255.773C44.0573 255.628 43.9844 255.409 43.9844 255.117ZM50.9062 265.086C51.1354 265.086 51.3568 265.07 51.5703 265.039C51.7839 265.003 51.9531 264.966 52.0781 264.93V265.922C51.9375 265.99 51.7292 266.044 51.4531 266.086C51.1823 266.133 50.9375 266.156 50.7188 266.156C49.0625 266.156 48.2344 265.284 48.2344 263.539V258.445H47.0078V257.82L48.2344 257.281L48.7812 255.453H49.5312V257.438H52.0156V258.445H49.5312V263.484C49.5312 264 49.6536 264.396 49.8984 264.672C50.1432 264.948 50.4792 265.086 50.9062 265.086ZM59.3203 263.664C59.3203 264.461 59.0234 265.076 58.4297 265.508C57.8359 265.94 57.0026 266.156 55.9297 266.156C54.7943 266.156 53.9089 265.977 53.2734 265.617V264.414C53.6849 264.622 54.125 264.786 54.5938 264.906C55.0677 265.026 55.5234 265.086 55.9609 265.086C56.638 265.086 57.1589 264.979 57.5234 264.766C57.888 264.547 58.0703 264.216 58.0703 263.773C58.0703 263.44 57.9245 263.156 57.6328 262.922C57.3464 262.682 56.7839 262.401 55.9453 262.078C55.1484 261.781 54.5807 261.523 54.2422 261.305C53.9089 261.081 53.6589 260.828 53.4922 260.547C53.3307 260.266 53.25 259.93 53.25 259.539C53.25 258.841 53.5339 258.292 54.1016 257.891C54.6693 257.484 55.4479 257.281 56.4375 257.281C57.3594 257.281 58.2604 257.469 59.1406 257.844L58.6797 258.898C57.8203 258.544 57.0417 258.367 56.3438 258.367C55.7292 258.367 55.2656 258.464 54.9531 258.656C54.6406 258.849 54.4844 259.115 54.4844 259.453C54.4844 259.682 54.5417 259.878 54.6562 260.039C54.776 260.201 54.9661 260.354 55.2266 260.5C55.487 260.646 55.987 260.857 56.7266 261.133C57.7422 261.503 58.4271 261.875 58.7812 262.25C59.1406 262.625 59.3203 263.096 59.3203 263.664ZM61.25 265.172C61.25 264.823 61.3281 264.56 61.4844 264.383C61.6458 264.201 61.875 264.109 62.1719 264.109C62.474 264.109 62.7083 264.201 62.875 264.383C63.0469 264.56 63.1328 264.823 63.1328 265.172C63.1328 265.51 63.0469 265.771 62.875 265.953C62.7031 266.135 62.4688 266.227 62.1719 266.227C61.9062 266.227 61.6849 266.146 61.5078 265.984C61.3359 265.818 61.25 265.547 61.25 265.172ZM61.25 258.273C61.25 257.57 61.5573 257.219 62.1719 257.219C62.8125 257.219 63.1328 257.57 63.1328 258.273C63.1328 258.612 63.0469 258.872 62.875 259.055C62.7031 259.237 62.4688 259.328 62.1719 259.328C61.9062 259.328 61.6849 259.247 61.5078 259.086C61.3359 258.919 61.25 258.648 61.25 258.273Z" fill="#121118"/>
<rect x="81" y="272" width="4" height="4" fill="#211A29"/>
<rect x="73" y="264" width="4" height="4" fill="#211A29"/>
<rect x="73" y="260" width="4" height="4" fill="#211A29"/>
<rect x="73" y="256" width="4" height="4" fill="#211A29"/>
<rect x="73" y="252" width="4" height="4" fill="#211A29"/>
<rect x="73" y="248" width="4" height="4" fill="#211A29"/>
<rect x="73" y="244" width="4" height="4" fill="#211A29"/>
<rect x="73" y="240" width="4" height="4" fill="#211A29"/>
<rect x="77" y="240" width="4" height="4" fill="#211A29"/>
<rect x="77" y="244" width="4" height="4" fill="#00ebff"/>
<rect x="77" y="248" width="4" height="4" fill="#00ebff"/>
<rect x="81" y="248" width="4" height="4" fill="#00ebff"/>
<rect x="81" y="244" width="4" height="4" fill="#00ebff"/>
<rect x="77" y="252" width="4" height="4" fill="#00ebff"/>
<rect x="81" y="252" width="4" height="4" fill="#00ebff"/>
<rect x="77" y="256" width="4" height="4" fill="#00ebff"/>
<rect x="81" y="256" width="4" height="4" fill="#00ebff"/>
<rect x="77" y="260" width="4" height="4" fill="#00ebff"/>
<rect x="81" y="260" width="4" height="4" fill="#00ebff"/>
<rect x="77" y="264" width="4" height="4" fill="#00ebff"/>
<rect x="81" y="264" width="4" height="4" fill="#00ebff"/>
<rect x="81" y="268" width="4" height="4" fill="#00ebff"/>
<rect x="81" y="240" width="4" height="4" fill="#211A29"/>
<rect x="77" y="268" width="4" height="4" fill="#211A29"/>
<mask id="path-79-inside-1_3786_20877" fill="white">
<path d="M85 240H104V280H85V240Z"/>
</mask>
<path d="M85 240H104V280H85V240Z" fill="#00ebff"/>
<path d="M85 244H104V236H85V244ZM104 272H85V288H104V272Z" fill="#211A29" mask="url(#path-79-inside-1_3786_20877)"/>
<path d="M93.625 264H85.6406V262.32L88.5078 259.422C89.3568 258.552 89.9115 257.951 90.1719 257.617C90.4323 257.279 90.6198 256.966 90.7344 256.68C90.849 256.393 90.9062 256.096 90.9062 255.789C90.9062 255.331 90.7786 254.99 90.5234 254.766C90.2734 254.542 89.9375 254.43 89.5156 254.43C89.0729 254.43 88.6432 254.531 88.2266 254.734C87.8099 254.938 87.375 255.227 86.9219 255.602L85.6094 254.047C86.1719 253.568 86.638 253.229 87.0078 253.031C87.3776 252.833 87.7812 252.682 88.2188 252.578C88.6562 252.469 89.1458 252.414 89.6875 252.414C90.401 252.414 91.0312 252.544 91.5781 252.805C92.125 253.065 92.5495 253.43 92.8516 253.898C93.1536 254.367 93.3047 254.904 93.3047 255.508C93.3047 256.034 93.2109 256.529 93.0234 256.992C92.8411 257.451 92.5547 257.922 92.1641 258.406C91.7786 258.891 91.0964 259.581 90.1172 260.477L88.6484 261.859V261.969H93.625V264ZM102.32 255.133C102.32 255.846 102.104 256.453 101.672 256.953C101.24 257.453 100.633 257.797 99.8516 257.984V258.031C100.773 258.146 101.471 258.427 101.945 258.875C102.419 259.318 102.656 259.917 102.656 260.672C102.656 261.771 102.258 262.628 101.461 263.242C100.664 263.852 99.526 264.156 98.0469 264.156C96.8073 264.156 95.7083 263.951 94.75 263.539V261.484C95.1927 261.708 95.6797 261.891 96.2109 262.031C96.7422 262.172 97.2682 262.242 97.7891 262.242C98.5859 262.242 99.1745 262.107 99.5547 261.836C99.9349 261.565 100.125 261.13 100.125 260.531C100.125 259.995 99.9062 259.615 99.4688 259.391C99.0312 259.167 98.3333 259.055 97.375 259.055H96.5078V257.203H97.3906C98.276 257.203 98.9219 257.089 99.3281 256.859C99.7396 256.625 99.9453 256.227 99.9453 255.664C99.9453 254.799 99.4036 254.367 98.3203 254.367C97.9453 254.367 97.5625 254.43 97.1719 254.555C96.7865 254.68 96.3568 254.896 95.8828 255.203L94.7656 253.539C95.8073 252.789 97.0495 252.414 98.4922 252.414C99.6745 252.414 100.607 252.654 101.289 253.133C101.977 253.612 102.32 254.279 102.32 255.133Z" fill="#121118"/>
<rect x="108" y="244" width="4" height="4" fill="#00ebff"/>
<rect x="108" y="248" width="4" height="4" fill="#00ebff"/>
<rect x="104" y="248" width="4" height="4" fill="#00ebff"/>
<rect x="104" y="244" width="4" height="4" fill="#00ebff"/>
<rect x="108" y="252" width="4" height="4" fill="#00ebff"/>
<rect x="104" y="252" width="4" height="4" fill="#00ebff"/>
<rect x="108" y="256" width="4" height="4" fill="#00ebff"/>
<rect x="104" y="256" width="4" height="4" fill="#00ebff"/>
<rect x="108" y="260" width="4" height="4" fill="#00ebff"/>
<rect x="104" y="260" width="4" height="4" fill="#00ebff"/>
<rect x="108" y="264" width="4" height="4" fill="#00ebff"/>
<rect x="104" y="264" width="4" height="4" fill="#00ebff"/>
<rect x="104" y="268" width="4" height="4" fill="#00ebff"/>
<rect x="104" y="240" width="4" height="4" fill="#211A29"/>
<rect x="104" y="276" width="4" height="4" fill="#db4d42"/>
<rect x="108" y="272" width="4" height="4" fill="#db4d42"/>
<rect x="112" y="268" width="4" height="4" fill="#db4d42"/>
<rect x="104" y="272" width="4" height="4" fill="#211A29"/>
<rect x="112" y="264" width="4" height="4" fill="#211A29"/>
<rect x="112" y="260" width="4" height="4" fill="#211A29"/>
<rect x="112" y="256" width="4" height="4" fill="#211A29"/>
<rect x="112" y="252" width="4" height="4" fill="#211A29"/>
<rect x="112" y="248" width="4" height="4" fill="#211A29"/>
<rect x="112" y="244" width="4" height="4" fill="#211A29"/>
<rect x="112" y="240" width="4" height="4" fill="#211A29"/>
<rect x="108" y="240" width="4" height="4" fill="#211A29"/>
<rect x="108" y="268" width="4" height="4" fill="#211A29"/>
<path d="M138.461 255.602C137.206 255.602 136.214 256.021 135.484 256.859C134.76 257.693 134.398 258.836 134.398 260.289C134.398 261.784 134.747 262.94 135.445 263.758C136.148 264.57 137.148 264.977 138.445 264.977C139.242 264.977 140.151 264.833 141.172 264.547V265.711C140.38 266.008 139.404 266.156 138.242 266.156C136.56 266.156 135.26 265.646 134.344 264.625C133.432 263.604 132.977 262.154 132.977 260.273C132.977 259.096 133.195 258.065 133.633 257.18C134.076 256.294 134.711 255.612 135.539 255.133C136.372 254.654 137.352 254.414 138.477 254.414C139.674 254.414 140.721 254.633 141.617 255.07L141.055 256.211C140.19 255.805 139.326 255.602 138.461 255.602ZM150.859 261.711C150.859 263.107 150.508 264.198 149.805 264.984C149.102 265.766 148.13 266.156 146.891 266.156C146.125 266.156 145.445 265.977 144.852 265.617C144.258 265.258 143.799 264.742 143.477 264.07C143.154 263.398 142.992 262.612 142.992 261.711C142.992 260.315 143.341 259.229 144.039 258.453C144.737 257.672 145.706 257.281 146.945 257.281C148.143 257.281 149.094 257.68 149.797 258.477C150.505 259.273 150.859 260.352 150.859 261.711ZM144.336 261.711C144.336 262.805 144.555 263.638 144.992 264.211C145.43 264.784 146.073 265.07 146.922 265.07C147.771 265.07 148.414 264.786 148.852 264.219C149.294 263.646 149.516 262.81 149.516 261.711C149.516 260.622 149.294 259.797 148.852 259.234C148.414 258.667 147.766 258.383 146.906 258.383C146.057 258.383 145.417 258.661 144.984 259.219C144.552 259.776 144.336 260.607 144.336 261.711ZM164.055 266V260.43C164.055 259.747 163.909 259.237 163.617 258.898C163.326 258.555 162.872 258.383 162.258 258.383C161.451 258.383 160.854 258.615 160.469 259.078C160.083 259.542 159.891 260.255 159.891 261.219V266H158.594V260.43C158.594 259.747 158.448 259.237 158.156 258.898C157.865 258.555 157.409 258.383 156.789 258.383C155.977 258.383 155.38 258.628 155 259.117C154.625 259.602 154.438 260.398 154.438 261.508V266H153.141V257.438H154.195L154.406 258.609H154.469C154.714 258.193 155.057 257.867 155.5 257.633C155.948 257.398 156.448 257.281 157 257.281C158.339 257.281 159.214 257.766 159.625 258.734H159.688C159.943 258.286 160.312 257.932 160.797 257.672C161.281 257.411 161.833 257.281 162.453 257.281C163.422 257.281 164.146 257.531 164.625 258.031C165.109 258.526 165.352 259.32 165.352 260.414V266H164.055ZM172.016 266.156C171.458 266.156 170.948 266.055 170.484 265.852C170.026 265.643 169.641 265.326 169.328 264.898H169.234C169.297 265.398 169.328 265.872 169.328 266.32V269.844H168.031V257.438H169.086L169.266 258.609H169.328C169.661 258.141 170.049 257.802 170.492 257.594C170.935 257.385 171.443 257.281 172.016 257.281C173.151 257.281 174.026 257.669 174.641 258.445C175.26 259.221 175.57 260.31 175.57 261.711C175.57 263.117 175.255 264.211 174.625 264.992C174 265.768 173.13 266.156 172.016 266.156ZM171.828 258.383C170.953 258.383 170.32 258.625 169.93 259.109C169.539 259.594 169.339 260.365 169.328 261.422V261.711C169.328 262.914 169.529 263.776 169.93 264.297C170.331 264.812 170.974 265.07 171.859 265.07C172.599 265.07 173.177 264.771 173.594 264.172C174.016 263.573 174.227 262.747 174.227 261.695C174.227 260.628 174.016 259.81 173.594 259.242C173.177 258.669 172.589 258.383 171.828 258.383ZM185.234 261.711C185.234 263.107 184.883 264.198 184.18 264.984C183.477 265.766 182.505 266.156 181.266 266.156C180.5 266.156 179.82 265.977 179.227 265.617C178.633 265.258 178.174 264.742 177.852 264.07C177.529 263.398 177.367 262.612 177.367 261.711C177.367 260.315 177.716 259.229 178.414 258.453C179.112 257.672 180.081 257.281 181.32 257.281C182.518 257.281 183.469 257.68 184.172 258.477C184.88 259.273 185.234 260.352 185.234 261.711ZM178.711 261.711C178.711 262.805 178.93 263.638 179.367 264.211C179.805 264.784 180.448 265.07 181.297 265.07C182.146 265.07 182.789 264.786 183.227 264.219C183.669 263.646 183.891 262.81 183.891 261.711C183.891 260.622 183.669 259.797 183.227 259.234C182.789 258.667 182.141 258.383 181.281 258.383C180.432 258.383 179.792 258.661 179.359 259.219C178.927 259.776 178.711 260.607 178.711 261.711ZM193.375 266V260.461C193.375 259.763 193.216 259.242 192.898 258.898C192.581 258.555 192.083 258.383 191.406 258.383C190.51 258.383 189.854 258.625 189.438 259.109C189.021 259.594 188.812 260.393 188.812 261.508V266H187.516V257.438H188.57L188.781 258.609H188.844C189.109 258.188 189.482 257.862 189.961 257.633C190.44 257.398 190.974 257.281 191.562 257.281C192.594 257.281 193.37 257.531 193.891 258.031C194.411 258.526 194.672 259.32 194.672 260.414V266H193.375ZM200.961 266.156C199.695 266.156 198.695 265.771 197.961 265C197.232 264.229 196.867 263.159 196.867 261.789C196.867 260.409 197.206 259.312 197.883 258.5C198.565 257.688 199.479 257.281 200.625 257.281C201.698 257.281 202.547 257.635 203.172 258.344C203.797 259.047 204.109 259.977 204.109 261.133V261.953H198.211C198.237 262.958 198.49 263.721 198.969 264.242C199.453 264.763 200.133 265.023 201.008 265.023C201.93 265.023 202.841 264.831 203.742 264.445V265.602C203.284 265.799 202.849 265.94 202.438 266.023C202.031 266.112 201.539 266.156 200.961 266.156ZM200.609 258.367C199.922 258.367 199.372 258.591 198.961 259.039C198.555 259.487 198.315 260.107 198.242 260.898H202.719C202.719 260.081 202.536 259.456 202.172 259.023C201.807 258.586 201.286 258.367 200.609 258.367ZM212.188 266V260.461C212.188 259.763 212.029 259.242 211.711 258.898C211.393 258.555 210.896 258.383 210.219 258.383C209.323 258.383 208.667 258.625 208.25 259.109C207.833 259.594 207.625 260.393 207.625 261.508V266H206.328V257.438H207.383L207.594 258.609H207.656C207.922 258.188 208.294 257.862 208.773 257.633C209.253 257.398 209.786 257.281 210.375 257.281C211.406 257.281 212.182 257.531 212.703 258.031C213.224 258.526 213.484 259.32 213.484 260.414V266H212.188ZM218.922 265.086C219.151 265.086 219.372 265.07 219.586 265.039C219.799 265.003 219.969 264.966 220.094 264.93V265.922C219.953 265.99 219.745 266.044 219.469 266.086C219.198 266.133 218.953 266.156 218.734 266.156C217.078 266.156 216.25 265.284 216.25 263.539V258.445H215.023V257.82L216.25 257.281L216.797 255.453H217.547V257.438H220.031V258.445H217.547V263.484C217.547 264 217.669 264.396 217.914 264.672C218.159 264.948 218.495 265.086 218.922 265.086ZM227.336 263.664C227.336 264.461 227.039 265.076 226.445 265.508C225.852 265.94 225.018 266.156 223.945 266.156C222.81 266.156 221.924 265.977 221.289 265.617V264.414C221.701 264.622 222.141 264.786 222.609 264.906C223.083 265.026 223.539 265.086 223.977 265.086C224.654 265.086 225.174 264.979 225.539 264.766C225.904 264.547 226.086 264.216 226.086 263.773C226.086 263.44 225.94 263.156 225.648 262.922C225.362 262.682 224.799 262.401 223.961 262.078C223.164 261.781 222.596 261.523 222.258 261.305C221.924 261.081 221.674 260.828 221.508 260.547C221.346 260.266 221.266 259.93 221.266 259.539C221.266 258.841 221.549 258.292 222.117 257.891C222.685 257.484 223.464 257.281 224.453 257.281C225.375 257.281 226.276 257.469 227.156 257.844L226.695 258.898C225.836 258.544 225.057 258.367 224.359 258.367C223.745 258.367 223.281 258.464 222.969 258.656C222.656 258.849 222.5 259.115 222.5 259.453C222.5 259.682 222.557 259.878 222.672 260.039C222.792 260.201 222.982 260.354 223.242 260.5C223.503 260.646 224.003 260.857 224.742 261.133C225.758 261.503 226.443 261.875 226.797 262.25C227.156 262.625 227.336 263.096 227.336 263.664ZM229.266 265.172C229.266 264.823 229.344 264.56 229.5 264.383C229.661 264.201 229.891 264.109 230.188 264.109C230.49 264.109 230.724 264.201 230.891 264.383C231.062 264.56 231.148 264.823 231.148 265.172C231.148 265.51 231.062 265.771 230.891 265.953C230.719 266.135 230.484 266.227 230.188 266.227C229.922 266.227 229.701 266.146 229.523 265.984C229.352 265.818 229.266 265.547 229.266 265.172ZM229.266 258.273C229.266 257.57 229.573 257.219 230.188 257.219C230.828 257.219 231.148 257.57 231.148 258.273C231.148 258.612 231.062 258.872 230.891 259.055C230.719 259.237 230.484 259.328 230.188 259.328C229.922 259.328 229.701 259.247 229.523 259.086C229.352 258.919 229.266 258.648 229.266 258.273Z" fill="#121118"/>
<rect x="249" y="272" width="4" height="4" fill="#211A29"/>
<rect x="241" y="264" width="4" height="4" fill="#211A29"/>
<rect x="241" y="260" width="4" height="4" fill="#211A29"/>
<rect x="241" y="256" width="4" height="4" fill="#211A29"/>
<rect x="241" y="252" width="4" height="4" fill="#211A29"/>
<rect x="241" y="248" width="4" height="4" fill="#211A29"/>
<rect x="241" y="244" width="4" height="4" fill="#211A29"/>
<rect x="241" y="240" width="4" height="4" fill="#211A29"/>
<rect x="245" y="240" width="4" height="4" fill="#211A29"/>
<rect x="245" y="244" width="4" height="4" fill="#00ebff"/>
<rect x="245" y="248" width="4" height="4" fill="#00ebff"/>
<rect x="249" y="248" width="4" height="4" fill="#00ebff"/>
<rect x="249" y="244" width="4" height="4" fill="#00ebff"/>
<rect x="245" y="252" width="4" height="4" fill="#00ebff"/>
<rect x="249" y="252" width="4" height="4" fill="#00ebff"/>
<rect x="245" y="256" width="4" height="4" fill="#00ebff"/>
<rect x="249" y="256" width="4" height="4" fill="#00ebff"/>
<rect x="245" y="260" width="4" height="4" fill="#00ebff"/>
<rect x="249" y="260" width="4" height="4" fill="#00ebff"/>
<rect x="245" y="264" width="4" height="4" fill="#00ebff"/>
<rect x="249" y="264" width="4" height="4" fill="#00ebff"/>
<rect x="249" y="268" width="4" height="4" fill="#00ebff"/>
<rect x="249" y="240" width="4" height="4" fill="#211A29"/>
<rect x="245" y="268" width="4" height="4" fill="#211A29"/>
<mask id="path-134-inside-2_3786_20877" fill="white">
<path d="M253 240H272V280H253V240Z"/>
</mask>
<path d="M253 240H272V280H253V240Z" fill="#00ebff"/>
<path d="M253 244H272V236H253V244ZM272 272H253V288H272V272Z" fill="#211A29" mask="url(#path-134-inside-2_3786_20877)"/>
<path d="M257.797 256.703C258.901 256.703 259.779 257.013 260.43 257.633C261.086 258.253 261.414 259.102 261.414 260.18C261.414 261.456 261.021 262.438 260.234 263.125C259.448 263.812 258.323 264.156 256.859 264.156C255.589 264.156 254.562 263.951 253.781 263.539V261.453C254.193 261.672 254.672 261.852 255.219 261.992C255.766 262.128 256.284 262.195 256.773 262.195C258.247 262.195 258.984 261.591 258.984 260.383C258.984 259.232 258.221 258.656 256.695 258.656C256.419 258.656 256.115 258.685 255.781 258.742C255.448 258.794 255.177 258.852 254.969 258.914L254.008 258.398L254.438 252.578H260.633V254.625H256.555L256.344 256.867L256.617 256.812C256.935 256.74 257.328 256.703 257.797 256.703ZM271.023 261.633H269.648V264H267.289V261.633H262.414V259.953L267.422 252.578H269.648V259.758H271.023V261.633ZM267.289 259.758V257.82C267.289 257.497 267.302 257.029 267.328 256.414C267.354 255.799 267.375 255.443 267.391 255.344H267.328C267.135 255.771 266.904 256.188 266.633 256.594L264.539 259.758H267.289Z" fill="#121118"/>
<rect x="276" y="244" width="4" height="4" fill="#00ebff"/>
<rect x="276" y="248" width="4" height="4" fill="#00ebff"/>
<rect x="272" y="248" width="4" height="4" fill="#00ebff"/>
<rect x="272" y="244" width="4" height="4" fill="#00ebff"/>
<rect x="276" y="252" width="4" height="4" fill="#00ebff"/>
<rect x="272" y="252" width="4" height="4" fill="#00ebff"/>
<rect x="276" y="256" width="4" height="4" fill="#00ebff"/>
<rect x="272" y="256" width="4" height="4" fill="#00ebff"/>
<rect x="276" y="260" width="4" height="4" fill="#00ebff"/>
<rect x="272" y="260" width="4" height="4" fill="#00ebff"/>
<rect x="276" y="264" width="4" height="4" fill="#00ebff"/>
<rect x="272" y="264" width="4" height="4" fill="#00ebff"/>
<rect x="272" y="268" width="4" height="4" fill="#00ebff"/>
<rect x="272" y="240" width="4" height="4" fill="#211A29"/>
<rect x="272" y="276" width="4" height="4" fill="#db4d42"/>
<rect x="276" y="272" width="4" height="4" fill="#db4d42"/>
<rect x="280" y="268" width="4" height="4" fill="#db4d42"/>
<rect x="272" y="272" width="4" height="4" fill="#211A29"/>
<rect x="280" y="264" width="4" height="4" fill="#211A29"/>
<rect x="280" y="260" width="4" height="4" fill="#211A29"/>
<rect x="280" y="256" width="4" height="4" fill="#211A29"/>
<rect x="280" y="252" width="4" height="4" fill="#211A29"/>
<rect x="280" y="248" width="4" height="4" fill="#211A29"/>
<rect x="280" y="244" width="4" height="4" fill="#211A29"/>
<rect x="280" y="240" width="4" height="4" fill="#211A29"/>
<rect x="276" y="240" width="4" height="4" fill="#211A29"/>
<rect x="276" y="268" width="4" height="4" fill="#211A29"/>
<path d="M310.688 260.18C310.688 262.065 310.174 263.508 309.148 264.508C308.128 265.503 306.656 266 304.734 266H301.57V254.578H305.07C306.846 254.578 308.227 255.07 309.211 256.055C310.195 257.039 310.688 258.414 310.688 260.18ZM309.281 260.227C309.281 258.737 308.906 257.615 308.156 256.859C307.411 256.104 306.302 255.727 304.828 255.727H302.898V264.852H304.516C306.099 264.852 307.289 264.464 308.086 263.688C308.883 262.906 309.281 261.753 309.281 260.227ZM316.664 266.156C315.398 266.156 314.398 265.771 313.664 265C312.935 264.229 312.57 263.159 312.57 261.789C312.57 260.409 312.909 259.312 313.586 258.5C314.268 257.688 315.182 257.281 316.328 257.281C317.401 257.281 318.25 257.635 318.875 258.344C319.5 259.047 319.812 259.977 319.812 261.133V261.953H313.914C313.94 262.958 314.193 263.721 314.672 264.242C315.156 264.763 315.836 265.023 316.711 265.023C317.633 265.023 318.544 264.831 319.445 264.445V265.602C318.987 265.799 318.552 265.94 318.141 266.023C317.734 266.112 317.242 266.156 316.664 266.156ZM316.312 258.367C315.625 258.367 315.076 258.591 314.664 259.039C314.258 259.487 314.018 260.107 313.945 260.898H318.422C318.422 260.081 318.24 259.456 317.875 259.023C317.51 258.586 316.99 258.367 316.312 258.367ZM324.797 265.086C325.026 265.086 325.247 265.07 325.461 265.039C325.674 265.003 325.844 264.966 325.969 264.93V265.922C325.828 265.99 325.62 266.044 325.344 266.086C325.073 266.133 324.828 266.156 324.609 266.156C322.953 266.156 322.125 265.284 322.125 263.539V258.445H320.898V257.82L322.125 257.281L322.672 255.453H323.422V257.438H325.906V258.445H323.422V263.484C323.422 264 323.544 264.396 323.789 264.672C324.034 264.948 324.37 265.086 324.797 265.086ZM332.953 266L332.695 264.781H332.633C332.206 265.318 331.779 265.682 331.352 265.875C330.93 266.062 330.401 266.156 329.766 266.156C328.917 266.156 328.25 265.938 327.766 265.5C327.286 265.062 327.047 264.44 327.047 263.633C327.047 261.904 328.43 260.997 331.195 260.914L332.648 260.867V260.336C332.648 259.664 332.503 259.169 332.211 258.852C331.924 258.529 331.464 258.367 330.828 258.367C330.115 258.367 329.307 258.586 328.406 259.023L328.008 258.031C328.43 257.802 328.891 257.622 329.391 257.492C329.896 257.362 330.401 257.297 330.906 257.297C331.927 257.297 332.682 257.523 333.172 257.977C333.667 258.43 333.914 259.156 333.914 260.156V266H332.953ZM330.023 265.086C330.831 265.086 331.464 264.865 331.922 264.422C332.385 263.979 332.617 263.359 332.617 262.562V261.789L331.32 261.844C330.289 261.88 329.544 262.042 329.086 262.328C328.633 262.609 328.406 263.049 328.406 263.648C328.406 264.117 328.547 264.474 328.828 264.719C329.115 264.964 329.513 265.086 330.023 265.086ZM340.016 266.156C338.776 266.156 337.815 265.776 337.133 265.016C336.456 264.25 336.117 263.169 336.117 261.773C336.117 260.341 336.461 259.234 337.148 258.453C337.841 257.672 338.826 257.281 340.102 257.281C340.513 257.281 340.924 257.326 341.336 257.414C341.747 257.503 342.07 257.607 342.305 257.727L341.906 258.828C341.62 258.714 341.307 258.62 340.969 258.547C340.63 258.469 340.331 258.43 340.07 258.43C338.331 258.43 337.461 259.539 337.461 261.758C337.461 262.81 337.672 263.617 338.094 264.18C338.521 264.742 339.151 265.023 339.984 265.023C340.698 265.023 341.43 264.87 342.18 264.562V265.711C341.607 266.008 340.885 266.156 340.016 266.156ZM350.078 266V260.461C350.078 259.763 349.919 259.242 349.602 258.898C349.284 258.555 348.786 258.383 348.109 258.383C347.208 258.383 346.549 258.628 346.133 259.117C345.721 259.607 345.516 260.409 345.516 261.523V266H344.219V253.844H345.516V257.523C345.516 257.966 345.495 258.333 345.453 258.625H345.531C345.786 258.214 346.148 257.891 346.617 257.656C347.091 257.417 347.63 257.297 348.234 257.297C349.281 257.297 350.065 257.547 350.586 258.047C351.112 258.542 351.375 259.331 351.375 260.414V266H350.078ZM357.664 266.156C356.398 266.156 355.398 265.771 354.664 265C353.935 264.229 353.57 263.159 353.57 261.789C353.57 260.409 353.909 259.312 354.586 258.5C355.268 257.688 356.182 257.281 357.328 257.281C358.401 257.281 359.25 257.635 359.875 258.344C360.5 259.047 360.812 259.977 360.812 261.133V261.953H354.914C354.94 262.958 355.193 263.721 355.672 264.242C356.156 264.763 356.836 265.023 357.711 265.023C358.633 265.023 359.544 264.831 360.445 264.445V265.602C359.987 265.799 359.552 265.94 359.141 266.023C358.734 266.112 358.242 266.156 357.664 266.156ZM357.312 258.367C356.625 258.367 356.076 258.591 355.664 259.039C355.258 259.487 355.018 260.107 354.945 260.898H359.422C359.422 260.081 359.24 259.456 358.875 259.023C358.51 258.586 357.99 258.367 357.312 258.367ZM368.859 264.852H368.789C368.19 265.721 367.294 266.156 366.102 266.156C364.982 266.156 364.109 265.773 363.484 265.008C362.865 264.242 362.555 263.154 362.555 261.742C362.555 260.331 362.867 259.234 363.492 258.453C364.117 257.672 364.987 257.281 366.102 257.281C367.263 257.281 368.154 257.703 368.773 258.547H368.875L368.82 257.93L368.789 257.328V253.844H370.086V266H369.031L368.859 264.852ZM366.266 265.07C367.151 265.07 367.792 264.831 368.188 264.352C368.589 263.867 368.789 263.089 368.789 262.016V261.742C368.789 260.529 368.586 259.664 368.18 259.148C367.779 258.628 367.135 258.367 366.25 258.367C365.49 258.367 364.906 258.664 364.5 259.258C364.099 259.846 363.898 260.68 363.898 261.758C363.898 262.852 364.099 263.677 364.5 264.234C364.901 264.792 365.49 265.07 366.266 265.07ZM378.297 266H377V257.438H378.297V266ZM376.891 255.117C376.891 254.82 376.964 254.604 377.109 254.469C377.255 254.328 377.438 254.258 377.656 254.258C377.865 254.258 378.044 254.328 378.195 254.469C378.346 254.609 378.422 254.826 378.422 255.117C378.422 255.409 378.346 255.628 378.195 255.773C378.044 255.914 377.865 255.984 377.656 255.984C377.438 255.984 377.255 255.914 377.109 255.773C376.964 255.628 376.891 255.409 376.891 255.117ZM386.906 266V260.461C386.906 259.763 386.747 259.242 386.43 258.898C386.112 258.555 385.615 258.383 384.938 258.383C384.042 258.383 383.385 258.625 382.969 259.109C382.552 259.594 382.344 260.393 382.344 261.508V266H381.047V257.438H382.102L382.312 258.609H382.375C382.641 258.188 383.013 257.862 383.492 257.633C383.971 257.398 384.505 257.281 385.094 257.281C386.125 257.281 386.901 257.531 387.422 258.031C387.943 258.526 388.203 259.32 388.203 260.414V266H386.906ZM396.398 263.664C396.398 264.461 396.102 265.076 395.508 265.508C394.914 265.94 394.081 266.156 393.008 266.156C391.872 266.156 390.987 265.977 390.352 265.617V264.414C390.763 264.622 391.203 264.786 391.672 264.906C392.146 265.026 392.602 265.086 393.039 265.086C393.716 265.086 394.237 264.979 394.602 264.766C394.966 264.547 395.148 264.216 395.148 263.773C395.148 263.44 395.003 263.156 394.711 262.922C394.424 262.682 393.862 262.401 393.023 262.078C392.227 261.781 391.659 261.523 391.32 261.305C390.987 261.081 390.737 260.828 390.57 260.547C390.409 260.266 390.328 259.93 390.328 259.539C390.328 258.841 390.612 258.292 391.18 257.891C391.747 257.484 392.526 257.281 393.516 257.281C394.438 257.281 395.339 257.469 396.219 257.844L395.758 258.898C394.898 258.544 394.12 258.367 393.422 258.367C392.807 258.367 392.344 258.464 392.031 258.656C391.719 258.849 391.562 259.115 391.562 259.453C391.562 259.682 391.62 259.878 391.734 260.039C391.854 260.201 392.044 260.354 392.305 260.5C392.565 260.646 393.065 260.857 393.805 261.133C394.82 261.503 395.505 261.875 395.859 262.25C396.219 262.625 396.398 263.096 396.398 263.664ZM401.281 265.086C401.51 265.086 401.732 265.07 401.945 265.039C402.159 265.003 402.328 264.966 402.453 264.93V265.922C402.312 265.99 402.104 266.044 401.828 266.086C401.557 266.133 401.312 266.156 401.094 266.156C399.438 266.156 398.609 265.284 398.609 263.539V258.445H397.383V257.82L398.609 257.281L399.156 255.453H399.906V257.438H402.391V258.445H399.906V263.484C399.906 264 400.029 264.396 400.273 264.672C400.518 264.948 400.854 265.086 401.281 265.086ZM409.438 266L409.18 264.781H409.117C408.69 265.318 408.263 265.682 407.836 265.875C407.414 266.062 406.885 266.156 406.25 266.156C405.401 266.156 404.734 265.938 404.25 265.5C403.771 265.062 403.531 264.44 403.531 263.633C403.531 261.904 404.914 260.997 407.68 260.914L409.133 260.867V260.336C409.133 259.664 408.987 259.169 408.695 258.852C408.409 258.529 407.948 258.367 407.312 258.367C406.599 258.367 405.792 258.586 404.891 259.023L404.492 258.031C404.914 257.802 405.375 257.622 405.875 257.492C406.38 257.362 406.885 257.297 407.391 257.297C408.411 257.297 409.167 257.523 409.656 257.977C410.151 258.43 410.398 259.156 410.398 260.156V266H409.438ZM406.508 265.086C407.315 265.086 407.948 264.865 408.406 264.422C408.87 263.979 409.102 263.359 409.102 262.562V261.789L407.805 261.844C406.773 261.88 406.029 262.042 405.57 262.328C405.117 262.609 404.891 263.049 404.891 263.648C404.891 264.117 405.031 264.474 405.312 264.719C405.599 264.964 405.997 265.086 406.508 265.086ZM418.938 266V260.461C418.938 259.763 418.779 259.242 418.461 258.898C418.143 258.555 417.646 258.383 416.969 258.383C416.073 258.383 415.417 258.625 415 259.109C414.583 259.594 414.375 260.393 414.375 261.508V266H413.078V257.438H414.133L414.344 258.609H414.406C414.672 258.188 415.044 257.862 415.523 257.633C416.003 257.398 416.536 257.281 417.125 257.281C418.156 257.281 418.932 257.531 419.453 258.031C419.974 258.526 420.234 259.32 420.234 260.414V266H418.938ZM426.328 266.156C425.089 266.156 424.128 265.776 423.445 265.016C422.768 264.25 422.43 263.169 422.43 261.773C422.43 260.341 422.773 259.234 423.461 258.453C424.154 257.672 425.138 257.281 426.414 257.281C426.826 257.281 427.237 257.326 427.648 257.414C428.06 257.503 428.383 257.607 428.617 257.727L428.219 258.828C427.932 258.714 427.62 258.62 427.281 258.547C426.943 258.469 426.643 258.43 426.383 258.43C424.643 258.43 423.773 259.539 423.773 261.758C423.773 262.81 423.984 263.617 424.406 264.18C424.833 264.742 425.464 265.023 426.297 265.023C427.01 265.023 427.742 264.87 428.492 264.562V265.711C427.919 266.008 427.198 266.156 426.328 266.156ZM434.148 266.156C432.883 266.156 431.883 265.771 431.148 265C430.419 264.229 430.055 263.159 430.055 261.789C430.055 260.409 430.393 259.312 431.07 258.5C431.753 257.688 432.667 257.281 433.812 257.281C434.885 257.281 435.734 257.635 436.359 258.344C436.984 259.047 437.297 259.977 437.297 261.133V261.953H431.398C431.424 262.958 431.677 263.721 432.156 264.242C432.641 264.763 433.32 265.023 434.195 265.023C435.117 265.023 436.029 264.831 436.93 264.445V265.602C436.471 265.799 436.036 265.94 435.625 266.023C435.219 266.112 434.727 266.156 434.148 266.156ZM433.797 258.367C433.109 258.367 432.56 258.591 432.148 259.039C431.742 259.487 431.503 260.107 431.43 260.898H435.906C435.906 260.081 435.724 259.456 435.359 259.023C434.995 258.586 434.474 258.367 433.797 258.367ZM445.039 263.664C445.039 264.461 444.742 265.076 444.148 265.508C443.555 265.94 442.721 266.156 441.648 266.156C440.513 266.156 439.628 265.977 438.992 265.617V264.414C439.404 264.622 439.844 264.786 440.312 264.906C440.786 265.026 441.242 265.086 441.68 265.086C442.357 265.086 442.878 264.979 443.242 264.766C443.607 264.547 443.789 264.216 443.789 263.773C443.789 263.44 443.643 263.156 443.352 262.922C443.065 262.682 442.503 262.401 441.664 262.078C440.867 261.781 440.299 261.523 439.961 261.305C439.628 261.081 439.378 260.828 439.211 260.547C439.049 260.266 438.969 259.93 438.969 259.539C438.969 258.841 439.253 258.292 439.82 257.891C440.388 257.484 441.167 257.281 442.156 257.281C443.078 257.281 443.979 257.469 444.859 257.844L444.398 258.898C443.539 258.544 442.76 258.367 442.062 258.367C441.448 258.367 440.984 258.464 440.672 258.656C440.359 258.849 440.203 259.115 440.203 259.453C440.203 259.682 440.26 259.878 440.375 260.039C440.495 260.201 440.685 260.354 440.945 260.5C441.206 260.646 441.706 260.857 442.445 261.133C443.461 261.503 444.146 261.875 444.5 262.25C444.859 262.625 445.039 263.096 445.039 263.664ZM446.969 265.172C446.969 264.823 447.047 264.56 447.203 264.383C447.365 264.201 447.594 264.109 447.891 264.109C448.193 264.109 448.427 264.201 448.594 264.383C448.766 264.56 448.852 264.823 448.852 265.172C448.852 265.51 448.766 265.771 448.594 265.953C448.422 266.135 448.188 266.227 447.891 266.227C447.625 266.227 447.404 266.146 447.227 265.984C447.055 265.818 446.969 265.547 446.969 265.172ZM446.969 258.273C446.969 257.57 447.276 257.219 447.891 257.219C448.531 257.219 448.852 257.57 448.852 258.273C448.852 258.612 448.766 258.872 448.594 259.055C448.422 259.237 448.188 259.328 447.891 259.328C447.625 259.328 447.404 259.247 447.227 259.086C447.055 258.919 446.969 258.648 446.969 258.273Z" fill="#121118"/>
<rect x="310" y="47" width="63" height="161" fill="url(#paint0_linear_3786_20877)"/>
</g>
<defs>
<linearGradient id="paint0_linear_3786_20877" x1="373" y1="118.029" x2="310.016" y2="116.095" gradientUnits="userSpaceOnUse">
<stop stop-color="white"/>
<stop offset="0.985" stop-color="white" stop-opacity="0"/>
</linearGradient>
<clipPath id="clip0_3786_20877">
<path d="M0 12C0 5.37259 5.37258 0 12 0H373V312H12C5.37259 312 0 306.627 0 300V12Z" fill="white"/>
</clipPath>
</defs>
</svg>
